<svg xmlns="http://www.w3.org/2000/svg" width="200" height="42" viewBox="0 0 200 42">
  <g fill="none">
    <path fill="#FFF" d="M51.1724138,0 L193.37931,0 C195.172414,0 196.827586,0.827586207 198.068966,1.93103448 C199.310345,3.17241379 200,4.82758621 200,6.62068966 L200,34.6206897 C200,36.4137931 199.172414,38.0689655 198.068966,39.3103448 C196.827586,40.5517241 195.172414,41.2413793 193.37931,41.2413793 L51.1724138,41.2413793 C49.3793103,41.2413793 47.7241379,40.4137931 46.4827586,39.3103448 C45.2413793,38.0689655 44.5517241,36.4137931 44.5517241,34.6206897 L44.5517241,6.75862069 C44.5517241,4.96551724 45.3793103,3.31034483 46.4827586,2.06896552 C47.5862069,0.827586207 49.2413793,0 51.1724138,0 Z"/>
    <path fill="#0073AE" d="M180 11.0344828L180.689655 11.1724138 181.241379 11.4482759 181.655172 11.7241379 182.068966 12.137931 182.482759 12.4137931 182.758621 12.8275862 182.896552 13.2413793 188 25.5172414 189.793103 25.5172414 189.793103 30.0689655 168.827586 30.0689655 168.827586 25.5172414 170.62069 25.5172414 175.724138 13.2413793 175.862069 12.8275862 176.413793 12 176.827586 11.5862069 177.37931 11.3103448 177.931034 11.1724138 178.62069 11.0344828 180 11.0344828zM179.172414 17.1034483L176 25.5172414 182.344828 25.5172414 179.172414 17.1034483zM157.655172 5.93103448L157.655172 11.4482759 162.344828 11.4482759 162.758621 11.5862069 163.172414 11.5862069 164 11.862069 164.413793 12.137931 164.827586 12.4137931 165.517241 12.6896552 165.931034 12.9655172 166.344828 13.3793103 166.758621 13.7931034 167.034483 14.2068966 167.310345 14.6206897 167.724138 15.862069 167.862069 16.2758621 168 16.6896552 168.137931 17.1034483 168.275862 17.5172414 168.275862 23.7241379 168.137931 24.137931 168 24.5517241 167.586207 25.7931034 167.448276 26.2068966 167.310345 26.6206897 166.758621 27.4482759 165.517241 28.6896552 164.275862 29.5172414 163.862069 29.6551724 163.034483 29.9310345 162.62069 30.0689655 157.793103 30.0689655 157.793103 35.5862069 152.413793 35.5862069 152.413793 30.0689655 147.724138 30.0689655 147.310345 29.9310345 146.482759 29.6551724 146.068966 29.5172414 144.827586 28.6896552 143.586207 27.4482759 143.034483 26.6206897 142.896552 26.2068966 142.758621 25.7931034 142.206897 24.137931 142.068966 23.7241379 142.068966 17.5172414 142.206897 17.1034483 142.482759 16.2758621 142.62069 15.862069 143.034483 14.6206897 143.310345 14.2068966 143.586207 13.7931034 144 13.3793103 144.413793 12.9655172 145.655172 12.137931 146.068966 11.862069 146.482759 11.7241379 147.724138 11.3103448 152.413793 11.3103448 152.413793 5.93103448 157.655172 5.93103448zM152.689655 15.862069L150.344828 15.862069 149.931034 16 149.103448 16.2758621 148.413793 16.9655172 148.275862 17.2413793 148.137931 17.6551724 148 18.0689655 147.862069 18.6206897 147.862069 22.8965517 148 23.3103448 148.137931 23.7241379 148.275862 24.137931 148.551724 24.6896552 148.827586 24.9655172 149.37931 25.2413793 149.793103 25.3793103 150.206897 25.5172414 152.689655 25.5172414 152.689655 15.862069zM160.137931 15.862069L157.793103 15.862069 157.793103 25.3793103 160 25.3793103 160.413793 25.2413793 160.827586 25.1034483 161.37931 24.8275862 161.655172 24.5517241 161.931034 24 162.068966 23.5862069 162.344828 22.7586207 162.344828 18.2068966 162.206897 17.7931034 162.068966 17.3793103 161.931034 17.1034483 161.793103 16.8275862 161.241379 16.2758621 160.965517 16.137931 160.551724 16 160.137931 15.862069z"/>
    <polygon fill="#0073AE" points="128.414 12.552 128.138 12.138 127.724 11.862 127.31 11.586 126.897 11.31 126.483 11.172 126.069 11.034 125.103 11.034 124.69 11.172 124.276 11.31 123.862 11.448 123.448 11.724 122.759 12.138 122.483 12.552 122.207 12.966 114.759 30.069 120.414 30.069 125.379 17.379 130.345 30.069 136 30.069 128.69 12.966"/>
    <path fill="#0073AE" d="M109.655172 11.3103448L110.206897 11.4482759 110.758621 11.5862069 111.310345 11.862069 112.137931 12.4137931 112.551724 12.8275862 112.827586 13.2413793 113.103448 13.6551724 113.37931 14.4827586 113.655172 15.0344828 113.793103 15.5862069 114.068966 16.9655172 114.068966 27.862069 113.793103 28.6896552 113.517241 29.1034483 113.241379 29.5172414 112.827586 29.7931034 112.413793 30.0689655 111.586207 30.3448276 100.689655 30.3448276 100.275862 30.2068966 99.1724138 29.9310345 98.6206897 29.6551724 97.3793103 28.4137931 97.1034483 27.5862069 96.9655172 27.1724138 96.6896552 26.3448276 96.5517241 25.9310345 96.5517241 22.7586207 96.6896552 22.0689655 96.8275862 21.3793103 97.1034483 20.6896552 97.2413793 20.137931 97.6551724 19.5862069 98.2068966 19.0344828 98.7586207 18.6206897 99.3103448 18.3448276 99.7241379 18.0689655 100.275862 17.9310345 100.827586 17.7931034 108.275862 17.7931034 108.275862 16.4137931 107.724138 15.862069 97.7931034 15.862069 97.7931034 11.3103448 109.655172 11.3103448zM108.689655 22.4827586L102.344828 22.4827586 102.206897 22.6206897 102.206897 24.2758621 102.482759 24.9655172 102.482759 25.6551724 108.689655 25.6551724 108.689655 22.4827586zM88.8275862 11.3103448L89.2413793 11.4482759 89.6551724 11.5862069 89.9310345 11.7241379 91.1724138 12.137931 91.5862069 12.4137931 91.862069 12.6896552 92.2758621 12.9655172 92.6896552 13.3793103 93.1034483 13.7931034 93.2413793 14.3448276 93.5172414 14.7586207 93.7931034 15.1724138 94.0689655 15.7241379 94.3448276 16.5517241 94.3448276 17.3793103 94.4827586 17.7931034 94.4827586 24 94.0689655 25.2413793 93.9310345 25.6551724 93.6551724 26.4827586 93.3793103 26.8965517 93.1034483 27.3103448 92.6896552 27.7241379 91.862069 28.5517241 91.4482759 28.8275862 91.0344828 29.1034483 90.6206897 29.3793103 89.3793103 29.7931034 88.9655172 29.9310345 88.5517241 30.0689655 82.6206897 30.0689655 82.6206897 35.4482759 77.2413793 35.4482759 77.2413793 13.7931034 77.5172414 13.3793103 77.6551724 12.9655172 77.7931034 12.6896552 78.3448276 12.137931 78.6206897 12 78.8965517 11.7241379 79.3103448 11.5862069 79.7241379 11.4482759 80 11.3103448 88.8275862 11.3103448zM86.7586207 15.7241379L82.6206897 15.7241379 82.6206897 25.3793103 86.6206897 25.3793103 87.0344828 25.2413793 87.4482759 25.1034483 88.2758621 24.6896552 88.4137931 24.4137931 88.8275862 24 88.4137931 23.5862069 88.5517241 23.1724138 88.6896552 22.7586207 88.6896552 17.2413793 88.4137931 16.6896552 87.862069 16.137931 87.5862069 16 87.1724138 15.862069 86.7586207 15.7241379z"/>
    <polygon fill="#0073AE" points="76.414 11.31 70.759 11.31 65.517 23.034 60.69 11.31 54.897 11.31 62.897 29.241 59.862 35.724 65.517 35.724 76.414 11.31"/>
    <path fill="#FFF" d="M5.93103448,0 L35.1724138,0 C38.4827586,0 41.1034483,2.75862069 41.1034483,5.93103448 L41.1034483,35.3103448 C41.1034483,38.6206897 38.4827586,41.2413793 35.1724138,41.2413793 L5.93103448,41.2413793 C2.62068966,41.3793103 0,38.6206897 0,35.4482759 L0,5.93103448 C0,2.75862069 2.62068966,0 5.93103448,0"/>
    <path fill="#AB0873" d="M22.4827586,4.68965517 C23.0344828,4.4137931 23.4482759,4.68965517 23.4482759,5.10344828 L23.4482759,5.10344828 L23.4482759,8.96551724 C23.4482759,9.24137931 23.5862069,9.51724138 24,9.65517241 C29.5172414,11.1724138 34.0689655,16.2758621 34.0689655,22.6206897 C34.0689655,27.7241379 31.1724138,32.4137931 26.8965517,34.7586207 C26.4827586,35.0344828 25.6551724,35.0344828 25.6551724,34.2068966 L25.6551724,34.2068966 L25.6551724,28.9655172 C25.7931034,28.2758621 25.7931034,28.2758621 26.2068966,27.7241379 C27.4482759,26.3448276 28.137931,24.6896552 28.137931,22.7586207 C28.137931,20.4137931 26.7586207,18.2068966 24.6896552,16.8275862 C24.2758621,16.5517241 23.7241379,16.4137931 23.7241379,17.2413793 L23.7241379,17.2413793 L23.7241379,27.0344828 C23.7241379,27.5862069 23.4482759,28 23.1724138,28.2758621 L23.1724138,28.2758621 L16.5517241,34.4827586 C15.7241379,35.3103448 14.8965517,35.1724138 14.0689655,34.6206897 C9.79310345,32 7.17241379,27.3103448 7.17241379,22.6206897 C7.17241379,17.3793103 10.3448276,12.9655172 14.8965517,10.7586207 C15.5862069,10.4827586 16.4137931,10.2068966 17.1034483,9.93103448 C17.3793103,9.79310345 17.6551724,9.51724138 17.6551724,9.24137931 L17.6551724,9.24137931 L17.6551724,8.55172414 C17.6551724,8.13793103 17.7931034,7.86206897 18.0689655,7.72413793 C19.7241379,6.62068966 20.8275862,5.79310345 22.4827586,4.68965517 Z M16.6896552,16.4137931 C14.7586207,17.7931034 13.2413793,19.862069 13.2413793,22.4827586 C13.2413793,24.6896552 14.3448276,26.7586207 16,28.2758621 C17.1034483,29.2413793 17.7931034,29.2413793 17.7931034,28.137931 L17.7931034,16.9655172 C17.7931034,16.4137931 17.2413793,16.137931 16.6896552,16.4137931 Z"/>
  </g>
</svg>
