<svg width="192" height="48" viewBox="0 0 192 48" fill="none" xmlns="http://www.w3.org/2000/svg">
<g clip-path="url(#clip0_101_17)">
<path d="M0.562622 47.1716L24.1342 47.1451L24.1221 23.8094C19.2165 33.1171 10.0159 39.1736 0.574722 41.4884C0.601249 43.2512 0.562622 47.1716 0.562622 47.1716Z" fill="#008FB4"/>
<path d="M8.09949 35.4235C16.9953 30.9307 21.2847 22.7139 21.2847 22.7139C21.2847 22.7139 21.254 20.0161 21.254 19.9589C16.3521 18.2369 11.9086 15.715 8.10833 11.9394C8.12834 18.343 8.09949 35.4235 8.09949 35.4235Z" fill="#008FB4"/>
<path d="M9.3681 0.112623C9.3681 0.112623 9.36578 7.24787 9.35693 9.02749C11.6932 11.1985 12.8678 12.2144 15.2971 13.7669L15.3162 4.20147C12.5397 2.67548 11.4688 1.86432 9.3681 0.112623Z" fill="#008FB4"/>
<path d="M44.3379 7.63134C44.1373 6.35666 43.4178 5.50547 42.2027 5.10152C41.6247 4.90932 40.9569 4.79251 40.1583 4.7455C39.672 4.71712 39.1852 4.75342 38.7147 4.78925C38.6514 4.79483 38.5876 4.79902 38.5243 4.80414V2.00999L40.7931 2.01929L43.302 2.37764L43.3983 0.107504H35.646L35.9545 2.94075L35.9838 9.28112L35.6278 12.2898L36.0769 12.2856C36.0778 12.2847 37.1394 12.2749 37.6415 12.288C37.9133 12.2945 38.1851 12.3098 38.4559 12.3229C38.8338 12.3438 39.2206 12.3638 39.6087 12.3638C39.698 12.3638 39.7879 12.3629 39.8758 12.3606C41.3362 12.321 42.4494 11.9608 43.2801 11.259C44.5697 10.1672 44.5013 8.66495 44.3379 7.63134ZM41.8146 8.25356C41.8137 8.51882 41.7955 8.74965 41.7597 8.96001C41.6592 9.54034 41.3571 9.9415 40.8596 10.1505C40.2025 10.4311 39.4886 10.5055 38.515 10.3925V6.77271C39.3988 6.6545 40.2574 6.62332 41.0621 7.03146C41.5698 7.28928 41.8155 7.68905 41.8146 8.25356Z" fill="#191646"/>
<path d="M52.0409 1.50598L51.6681 0L49.1159 0.0321114L48.8213 1.35566L45.7354 9.35L44.389 12.2181L47.0687 12.2591L47.535 10.0751L48.1763 8.41085L52.0218 8.40341L52.9046 10.5256L53.3742 12.2302L56.8348 12.2335L55.655 10.2026L52.0409 1.50598ZM51.2897 6.55677C50.8862 6.56236 50.4748 6.57213 50.063 6.5819C49.6586 6.59168 49.2537 6.60191 48.8567 6.60657C49.0894 6.02624 49.3365 5.44311 49.5822 4.86371C49.7665 4.42858 49.9504 3.99624 50.1258 3.56762L51.2897 6.55677Z" fill="#191646"/>
<path d="M76.8225 12.2489L80.3473 12.2126L74.7399 5.86568L79.9964 0.0730648L76.9039 0.0958685L75.9792 1.39103C75.9792 1.39103 73.6076 3.99577 72.3236 5.41658L72.325 2.26222L72.688 0.106107H69.448L69.6449 2.2329L69.6914 9.72975L69.4453 12.2275H72.6787L72.3222 9.74836L72.3236 6.76712L76.8225 12.2489Z" fill="#191646"/>
<path d="M67.2449 8.60306C67.2379 7.78864 67.2802 2.31481 67.2775 2.31574L67.5637 0.134495H64.3632L64.6243 2.24268C64.6243 2.24268 64.6322 3.84638 64.6336 4.7967H60.1092C60.085 3.41916 60.0915 2.00626 60.4419 0.631523L60.5666 0.138683H57.2373L57.2927 0.582658C57.3127 0.740423 57.5021 2.43023 57.5258 3.21021C57.5742 4.84603 57.5603 6.51442 57.5458 8.12883L57.5431 8.48904C57.5375 9.18199 57.382 11.292 57.309 11.6685L57.2173 12.14H60.4266L60.3763 11.6997C60.3442 11.4182 60.3084 11.1389 60.273 10.8592C60.1925 10.2296 60.1166 9.63481 60.0812 9.02935C60.0477 8.42016 60.0547 7.7919 60.0645 7.18271C60.0659 7.03751 60.0678 6.89417 60.0691 6.74804H64.6741C64.6741 7.05054 64.6788 7.35351 64.6834 7.65507C64.703 9.03865 64.7211 10.3459 64.366 11.6425L64.2301 12.1414H67.5916L67.5018 11.6727C67.2886 10.56 67.2528 9.44726 67.2449 8.60306Z" fill="#191646"/>
<path d="M107.574 18.2402L107.669 17.7599H100.809L100.863 18.2109C101.111 20.2683 101.287 22.1992 101.399 24.1124C101.481 25.4857 101.462 26.9 101.443 28.2687C101.436 28.755 101.429 29.2409 101.426 29.7305H88.5925C88.5222 25.9637 88.4863 22.0791 89.4525 18.27L89.5786 17.7692H82.5118L82.569 18.2234C82.5746 18.2635 83.1047 22.8493 83.1703 25.0264C83.2973 29.2214 83.2606 33.4936 83.2252 37.6257L83.2173 38.6067C83.201 40.4068 82.7943 45.8979 82.6035 46.8812L82.5104 47.3601H89.3203L89.2691 46.9119C89.1872 46.1971 89.0969 45.4874 89.0066 44.7796C88.8065 43.2182 88.6004 41.6024 88.5115 40.021C88.4212 38.4364 88.4435 36.8103 88.464 35.2392C88.4719 34.6659 88.4794 34.092 88.4817 33.5187H101.526C101.519 34.5011 101.534 35.4887 101.547 36.4473C101.598 40.0461 101.647 43.4448 100.711 46.8593L100.572 47.3699H107.664L107.572 46.8905C107.016 43.981 106.923 41.0886 106.904 38.8939C106.885 36.7061 106.905 27.0154 106.995 24.3381C107.083 21.7664 107.272 19.7718 107.574 18.2402Z" fill="#191646"/>
<path d="M65.7152 43.7497V33.2609C68.9938 33.353 75.2448 33.8482 75.31 33.8524L75.7437 33.8864L75.7619 29.0743L65.7143 29.6439V21.3783C68.7132 21.342 74.315 21.3131 77.2301 22.216L77.6857 22.3565L77.749 21.8846C77.9515 20.3633 77.8109 18.2421 77.804 18.1522L77.7784 17.7785H59.6424L59.7155 18.2416C60.3214 22.1275 60.2837 26.0698 60.2469 29.8808C60.2381 30.7632 60.2288 31.6474 60.2288 32.5349C60.2781 38.1739 59.6629 46.8212 59.6564 46.9068L59.6266 47.3364L77.6564 47.4239L77.6695 47.0315C77.6983 46.0719 77.783 43.5002 77.8249 43.127L77.8882 42.5764L77.3446 42.6853C73.7584 43.4155 70.3644 43.7283 65.7152 43.7497Z" fill="#191646"/>
<path d="M50.3116 30.7799C50.3102 30.779 50.3078 30.7781 50.3055 30.7767C50.393 30.725 50.4744 30.6729 50.5545 30.6184C52.1824 29.509 54.0663 27.8787 54.1779 25.1004C54.3339 21.254 52.2373 18.5422 48.424 17.6571C45.1309 16.8948 41.7406 17.0153 38.0585 18.0257L38.0106 18.0396C36.2277 18.5301 35.9229 18.6893 35.9782 19.1114C36.0788 19.8886 36.2323 20.763 36.3813 21.61C36.4897 22.2304 36.5995 22.8559 36.6921 23.459C36.7261 23.6824 36.882 23.8634 37.0989 23.9323C37.313 23.9979 37.5443 23.9393 37.6988 23.7764L37.9287 23.5335C39.6534 21.7147 41.9077 20.8547 44.7842 20.9157C46.6113 20.9501 48.1294 22.1052 48.4779 23.7224C48.9559 25.9539 48.1494 27.8894 46.4233 28.6555C45.5972 29.0203 44.6353 29.3 43.4821 29.5057C42.3647 29.7054 40.1523 29.8515 40.129 29.8533L39.7362 29.8794L39.9014 33.6476L40.2989 33.6336C40.3184 33.6332 42.2846 33.5694 43.9298 33.569H43.9326C44.6753 33.569 47.0543 33.7318 48.2676 34.4578C49.3408 35.1019 50.1114 36.1509 50.3274 37.2664C50.6545 38.9441 50.9403 42.9511 46.5713 43.906C42.7919 44.7307 39.7143 43.9004 37.4223 41.4348C37.2264 41.224 37.0286 41.0132 36.7982 40.7698L36.5572 40.5129C36.412 40.3598 36.1988 40.3068 35.9987 40.3715C35.7991 40.4366 35.6585 40.606 35.6329 40.8145L35.5194 41.736C35.4091 42.6407 35.3072 43.4932 35.1713 44.3309C35.0554 45.0569 35.2983 45.5265 35.9871 45.9044C38.5383 47.2977 41.346 48 44.3537 48C44.9289 48 45.5107 47.9753 46.0998 47.9237C48.5198 47.7133 50.7392 46.8291 52.5179 45.3678C55.1106 43.2415 56.2875 40.6591 56.0139 37.6983C55.7021 34.3196 53.7847 31.9913 50.3116 30.7799Z" fill="#191646"/>
<path d="M136.73 34.4588C136.733 33.83 136.734 33.2046 136.734 32.5837C136.734 32.0048 136.732 31.4235 136.729 30.8414C136.712 26.6497 136.693 22.3174 137.441 18.2467L137.529 17.7725H130.461L130.551 18.2486C130.789 19.5102 130.994 20.8524 131.161 22.2388C131.212 22.6651 131.157 22.8796 130.932 23.1188C128.687 25.523 126.49 27.969 124.365 30.335C122.425 32.4953 120.421 34.7254 118.383 36.9211C118.429 35.0689 118.391 33.2199 118.356 31.4221C118.265 26.8879 118.179 22.6041 119.299 18.2946L119.431 17.7897H112.186L112.346 18.3095C113.023 20.5117 113.026 22.6781 113.027 24.9701L113.034 27.1746C113.047 31.0266 113.06 35.0093 113.023 38.9246C113.018 39.5142 113.033 40.1094 113.048 40.687C113.076 41.7671 113.105 42.8854 112.992 43.967C112.925 44.619 112.775 45.2598 112.615 45.9398C112.542 46.2516 112.469 46.5643 112.403 46.8822L112.302 47.3652H119.274L119.2 46.9008C119.05 45.9407 118.947 44.9834 118.848 44.0563C118.791 43.5165 118.734 42.9795 118.667 42.441C118.64 42.2218 118.742 41.8863 118.881 41.7364C120.87 39.5808 122.832 37.3981 124.728 35.2862C126.879 32.8909 129.102 30.416 131.368 27.9811C131.369 28.2292 131.369 28.4753 131.37 28.7169C131.373 29.8627 131.376 30.9503 131.363 32.0369C131.348 33.3479 131.364 34.678 131.38 35.9647C131.403 37.9431 131.427 39.9894 131.339 41.9942C131.289 43.1051 131.101 44.1922 130.903 45.3436C130.813 45.8616 130.724 46.3795 130.648 46.9008L130.581 47.362H137.532L137.44 46.8854C136.701 42.9795 136.716 38.6486 136.73 34.4588Z" fill="#191646"/>
<path d="M154.572 21.7115C154.572 21.6552 154.578 21.5644 154.587 21.4644L163.515 22.6134L162.943 17.7199H140.623L140.128 22.6115L149.687 21.4597V21.98C149.687 25.6798 149.681 39.4584 149.68 40.1313L148.758 47.3573H155.527L154.68 40.2588C154.68 40.1355 154.593 27.8224 154.572 21.7115Z" fill="#191646"/>
</g>
<defs>
<clipPath id="clip0_101_17">
<rect width="192" height="48" fill="white"/>
</clipPath>
</defs>
</svg>
