<svg width="22" height="13" viewBox="0 0 22 13" fill="none" xmlns="http://www.w3.org/2000/svg">
<path d="M8.34178 12.782L6.41078 12.264L7.19778 9.325C6.01975 8.89053 4.9249 8.25736 3.96078 7.453L1.80778 9.607L0.392781 8.192L2.54678 6.039C1.33086 4.58276 0.513869 2.83576 0.175781 0.969L2.14378 0.610001C2.90278 4.812 6.57878 8 10.9998 8C15.4198 8 19.0968 4.812 19.8558 0.610001L21.8238 0.968C21.4861 2.83502 20.6695 4.58237 19.4538 6.039L21.6068 8.192L20.1918 9.607L18.0388 7.453C17.0747 8.25736 15.9798 8.89053 14.8018 9.325L15.5888 12.265L13.6578 12.782L12.8698 9.842C11.6321 10.0541 10.3674 10.0541 9.12978 9.842L8.34178 12.782Z" fill="white"/>
</svg>
