<svg width="144" height="144" viewBox="0 0 144 144" fill="none" xmlns="http://www.w3.org/2000/svg">
<path d="M34.1971 75.2299H41.0423V82.0751H47.8827V88.9154H13.6856V82.0751H20.526V68.3895H34.2115V75.2299H34.1971ZM123.108 136.774H129.939V129.934H123.108V136.774ZM41.0375 75.2299H47.8779V68.3895H41.0375V75.2299ZM136.769 136.774H143.615V129.934H136.769V136.774ZM54.7231 143.61H68.3943V136.769H54.7231V143.61ZM116.263 143.61V136.769H109.417V143.61H116.263ZM88.9106 143.61H95.751V129.929H88.9106V143.61ZM34.1971 54.7135V61.5539H54.7135V54.7135H34.1971ZM27.3663 61.5491V54.7087H13.6808V68.3895H20.5212V61.5491H27.3663ZM47.8779 47.8683H0.00959381V0.00479691H47.8779V47.8683ZM41.0375 6.84518H6.84039V41.0327H41.0375V6.84518ZM13.6808 129.934H34.1923V109.417H13.6808V129.934ZM82.0655 123.089V129.934H88.9154V123.089H82.0655ZM34.1971 13.6856H13.6856V34.1923H34.1971V13.6856ZM143.61 0.00479691V47.8731H95.7414V0.00479691H143.61ZM136.769 6.84518H102.582V41.0327H136.769V6.84518ZM0 95.7318H47.8731V143.6H0V95.7318ZM6.84518 136.774H41.0423V102.577H6.84518V136.774ZM6.84518 54.7135H0V88.9106H6.84518V54.7135ZM95.7414 88.9011V95.7318H102.582V88.9011H95.7414ZM75.2251 116.258V109.417H68.3895V116.263H54.7183V129.948H68.3895V136.789H75.2251V123.103H82.0703V116.263H75.2251V116.258ZM54.7231 27.3615H68.3943V20.5116H54.7231V27.3615ZM109.422 82.0703H123.113V88.9106H129.948V68.3991H123.113V54.7135H116.263V75.2299H95.7606V82.0751H102.601V88.9154H109.441V82.0751H109.422V82.0703ZM116.263 102.577H109.417V95.7318H102.577V109.417H82.0655V116.263H95.7558V129.948H102.596V136.789H109.437V123.103H136.784V116.263H116.272V102.577H116.263ZM116.263 102.577H123.113V88.9011H116.263V102.577ZM61.5539 102.577V95.7318H68.3847V88.9011H75.2203V82.0607H82.0655V68.3751H102.577V54.6895H95.7366V61.5299H88.8962V34.178H82.0559V20.4924H88.8962V0H82.0559V13.6808H75.2155V0H54.7039V13.6808H61.5443V6.84039H68.3751V20.5116H75.2155V41.0279H82.0559V47.8683H75.2155V61.5491H68.3751V47.8683H61.5443V41.0327H54.7039V54.7135H61.5443V61.5539H54.7039V82.0751H61.5443V68.3895H68.3751V82.0751H61.5443V88.9154H54.7039V109.417H68.3751V102.577H61.5539ZM136.769 109.417V102.577H123.098V109.417H136.769ZM129.929 13.6856H109.422V34.1923H129.929V13.6856ZM75.2251 102.577H88.9154V95.7318H82.0655V88.9011H75.2203V102.577H75.2251ZM88.9106 88.9011V82.0607H82.0607V88.9011H88.9106ZM129.929 61.5491H143.615V54.7087H129.929V61.5491ZM136.769 116.258H143.615V109.417H136.769V116.258ZM136.769 75.2299H143.615V68.3895H136.769V75.2299ZM75.2251 41.0327H68.3895V47.8731H75.2251V41.0327Z" fill="white"/>
</svg>
