<svg id="Слой_1" data-name="Слой 1" xmlns="http://www.w3.org/2000/svg" viewBox="0 0 400 280"><defs><style>.cls-1{fill:#fff}.cls-2{fill:#f26f21;}.cls-3{fill:#092C74;}</style></defs><title>bank_soyouz</title><rect class="cls-1" width="400" height="280"/><path class="cls-2" d="M30,103.18A40.16,40.16,0,1,0,70.16,63,40.16,40.16,0,0,0,30,103.18"/><path class="cls-2" d="M30,164.76c0,5.91,18,10.71,40.16,10.71s40.15-4.8,40.15-10.71S92.34,154,70.16,154,30,158.84,30,164.76"/><path class="cls-2" d="M70.16,186.17c28.92,0,40.15,2.8,40.15,6.7s-11.23,6.7-40.15,6.7S30,196.76,30,192.87s11.23-6.7,40.16-6.7"/><path class="cls-2" d="M70.16,210.27c35.67,0,40.15.8,40.15,2.68s-4.48,2.68-40.15,2.68S30,214.83,30,213,34.47,210.27,70.16,210.27Z"/><path class="cls-3" d="M158.39,162.84a24.32,24.32,0,0,1,10.18,2.49l1.46,8.83h4.69v-12.9A44.92,44.92,0,0,0,159,158.4c-10.22,0-16.84,3.44-20.78,7-4.87,4.26-9.13,11.47-9.13,21.78,0,11.3,5.1,18,7.71,20.78,6.52,7,14.58,8.71,21.35,8.71a50.93,50.93,0,0,0,16.6-2.94V200.45H170L168,211a35.87,35.87,0,0,1-8.48,1.22c-8.72,0-13.66-4-16.33-7.38-3-3.77-5.29-9.71-5.29-17.59,0-6.61,1.69-13.65,5.71-18.18a19.49,19.49,0,0,1,14.83-6.2"/><path class="cls-3" d="M228.18,164.68c5.61,5.2,9.21,13.16,9.21,22.79,0,9-3.08,16.33-7.54,21.2a25.62,25.62,0,0,1-19.43,8.3A26.09,26.09,0,0,1,191.15,209c-3.27-3.45-7.89-10.32-7.89-21.55,0-11.57,4.86-18.85,9.4-22.88a26.5,26.5,0,0,1,17.93-6.53,25,25,0,0,1,17.59,6.62m-29.66,2.77c-4.18,4.36-6.46,11.64-6.46,20,0,3.26.35,11.55,4.7,17.84a16.39,16.39,0,0,0,26.9.51c4.59-6.21,5-14.76,5-18.11,0-8.63-2.36-15.83-6.29-20a16.31,16.31,0,0,0-12.15-5.11,15.78,15.78,0,0,0-11.65,4.94"/><path class="cls-3" d="M312.74,164.59a24.72,24.72,0,0,0-17.41-6.53,25.8,25.8,0,0,0-17.52,6.53c-6.88,6.3-8.41,15.41-8.86,20.64H257.21V163.37l6.62-.53V159.4H243.47v3.44l6.19.54v48.27l-6.19.54v3.44h20.36v-3.44l-6.62-.54V189.07h11.67c.37,8.37,3.71,15.74,7.43,20,3.44,3.84,9.36,7.95,18.67,7.95,9.66,0,15.59-4.28,19.2-8.3,4.52-5,7.38-12.31,7.38-21.27,0-9.82-3.53-17.78-8.82-22.81M308,205.75a15.75,15.75,0,0,1-26.22-.51c-3.19-4.69-4.53-11.74-4.53-17.84,0-6.46,1.67-15,6.29-20,2.76-3,6.61-4.94,12-4.94a13.65,13.65,0,0,1,11.22,4.94c4.45,5.11,6,13.32,6,20.19,0,6.37-1.41,13.4-4.76,18.11"/><path class="cls-3" d="M340.41,184.22v5l7.22-.85c3,0,8,.34,11.06,3.6a11.54,11.54,0,0,1,2.93,8.22c0,3.69-1.17,7.12-4.94,9.55-3.11,2.1-7.29,2.68-10.72,2.68a18.77,18.77,0,0,1-9.65-2.5l-1.42-10.74H330.2v14.74a52.66,52.66,0,0,0,16.16,2.69c5,0,12.33-1.1,17.09-4.44S370,204.4,370,199.12a12.06,12.06,0,0,0-4-9.56,17.86,17.86,0,0,0-10.63-3.93v-.17a20.2,20.2,0,0,0,8.29-4.44,11.43,11.43,0,0,0,3.52-8.54,12.55,12.55,0,0,0-6.3-11.4c-3.85-2.25-8.86-2.68-13.73-2.68a50,50,0,0,0-15.23,2.34v13h4.69l1-9a25.14,25.14,0,0,1,9.59-2.13c3.18,0,6,.59,8.47,2.78a11.18,11.18,0,0,1-.68,16.41,13.38,13.38,0,0,1-7.41,2.93l-7.17-.48"/><path class="cls-3" d="M166.75,108.84c-4.35-2.93-9.71-3.36-14.48-3.36a90.34,90.34,0,0,0-9.48.51V85.63h21.44L165.61,94h4.7V81.78H129.06v3.43l6.2.55V134l-6.2.55V138h22.1c4.46,0,11.58-.5,16.52-4.53a14.43,14.43,0,0,0,5.45-11.89c0-5.79-2.11-9.89-6.38-12.74m-5.45,22c-3.43,3.18-8.69,3.34-12.39,3.34a52.2,52.2,0,0,1-6.12-.33V110a53.52,53.52,0,0,1,8.37-.67c3.62,0,7.64.42,10.57,3.44,2.6,2.76,3,6.45,3,9,0,2.68-.58,6.38-3.45,9.06"/><path class="cls-3" d="M231.1,133.56,211,81.1h-5.53l-19.61,52.46-6.9,1V138h18.46v-3.44l-6.68-.52L197.1,117h19.79l6.44,17.1-6.2.5V138h19v-3.44l-5.05-1m-32.57-20.45,8.29-23.2,8.62,23.2H198.53"/><polyline class="cls-3" points="303.07 85.21 303.07 81.78 282.71 81.78 282.71 85.21 289.34 85.74 289.34 107.6 260.51 107.6 260.51 85.74 267.14 85.21 267.14 81.78 246.76 81.78 246.76 85.21 252.96 85.77 252.96 134.01 246.76 134.56 246.76 138 267.14 138 267.14 134.56 260.51 134.03 260.51 111.45 289.34 111.45 289.34 134.03 282.71 134.56 282.71 138 303.07 138 303.07 134.56 296.87 134.01 296.87 85.76 303.07 85.21"/><polyline class="cls-3" points="363.7 134.14 344.68 106.81 362.27 85.88 367.79 85.21 367.79 81.78 350.38 81.78 350.38 85.21 356.42 85.76 338.2 108.01 332 108.01 332 85.74 338.62 85.21 338.62 81.78 318.26 81.78 318.26 85.21 324.46 85.76 324.46 134.01 318.26 134.56 318.26 138 338.62 138 338.62 134.56 332 134.03 332 111.45 338.94 111.45 357.77 138 370 138 370 134.56 363.7 134.14"/></svg>
