<?xml version="1.0" encoding="UTF-8" standalone="no"?>
<!DOCTYPE svg  PUBLIC '-//W3C//DTD SVG 1.1//EN'  'http://www.w3.org/Graphics/SVG/1.1/DTD/svg11.dtd'>
<svg version="1.1" xmlns="http://www.w3.org/2000/svg">
<defs>
<font id="Montserrat-Medium" horiz-adv-x="0">
<font-face units-per-em="1000" underline-position="-150" panose-1="0 0 6 0 0 0 0 0 0 0" font-family="Montserrat Medium" underline-thickness="50" font-weight="500" ascent="800" unicode-range="U+000D-FB02" descent="-200" cap-height="700" bbox="-840 -263 1613 1053" x-height="530"/>
<missing-glyph d="M40 700h507v-700h-507v700zM467 70v560h-347v-560h347z" horiz-adv-x="587"/>
<glyph glyph-name="fi" d="M199 576v-46h154v-79h-152v-451h-96v451h-90v79h90v47q0 79 46 125t129 46q32 0 60 -8t48 -23l-29 -73q-33 25 -74 25q-86 0 -86 -93zM524 530h96v-530h-96v530zM525.5 650q-18.5 18 -18.5 44t18.5 44.5t46.5 18.5t46.5 -17.5t18.5 -43.5q0 -27 -18.5 -45.5t-46.5 -18.5 t-46.5 18z" unicode="fi" horiz-adv-x="712"/>
<glyph glyph-name="fl" d="M199 576v-46h154v-79h-152v-451h-96v451h-90v79h90v47q0 79 46 125t129 46q32 0 60 -8t48 -23l-29 -73q-33 25 -74 25q-86 0 -86 -93zM444 742h96v-742h-96v742z" unicode="fl" horiz-adv-x="632"/>
<glyph glyph-name=".notdef" d="M40 700h507v-700h-507v700zM467 70v560h-347v-560h347z" horiz-adv-x="587"/>
<glyph glyph-name=".null"/>
<glyph glyph-name="nonmarkingreturn" unicode="" horiz-adv-x="269"/>
<glyph glyph-name="NULL"/>
<glyph glyph-name="NULL"/>
<glyph glyph-name="space" unicode=" " horiz-adv-x="269"/>
<glyph glyph-name="exclam" d="M78 700h113l-19 -479h-76zM88 12.5q-19 18.5 -19 45.5t19 45.5t47 18.5t46 -18.5t18 -45.5t-18.5 -45.5t-45.5 -18.5q-28 0 -47 18.5z" unicode="!" horiz-adv-x="268"/>
<glyph glyph-name="quotedbl" d="M63 700h84l-7 -270h-71zM244 700h84l-7 -270h-71z" unicode='&quot;' horiz-adv-x="391"/>
<glyph glyph-name="numbersign" d="M529 447l-24 -194h139v-73h-148l-22 -180h-71l22 180h-189l-22 -180h-71l22 180h-138v73h147l25 194h-140v73h149l22 180h71l-22 -180h188l22 180h71l-22 -180h138v-73h-147zM458 447h-188l-25 -194h189z" unicode="#" horiz-adv-x="703"/>
<glyph glyph-name="dollar" d="M520.5 57q-59.5 -55 -172.5 -64v-113h-64v113q-73 4 -138.5 27.5t-104.5 59.5l37 78q36 -33 91 -54.5t115 -25.5v232q-70 17 -116.5 37t-78 59t-31.5 102q0 79 57.5 134t168.5 64v114h64v-113q57 -2 110.5 -18t92.5 -43l-33 -80q-81 51 -170 56v-233q73 -18 120 -37.5 t79.5 -58t32.5 -102.5q0 -79 -59.5 -134zM189 445q33 -24 95 -40v216q-64 -8 -96 -37.5t-32 -71.5q0 -43 33 -67zM448.5 113.5q33.5 28.5 33.5 71.5q0 44 -34.5 67.5t-99.5 41.5v-215q67 6 100.5 34.5z" unicode="$" horiz-adv-x="621"/>
<glyph glyph-name="percent" d="M82 377q-45 53 -45 138t45 138t118 53t117.5 -52.5t44.5 -138.5t-44.5 -138.5t-117.5 -52.5t-118 53zM622 700h77l-478 -700h-77zM272 416.5q26 35.5 26 98.5t-26 98.5t-72 35.5q-45 0 -71.5 -36t-26.5 -98t26.5 -98t71.5 -36q46 0 72 35.5zM525.5 46.5 q-44.5 52.5 -44.5 138.5t44.5 138.5t117.5 52.5t118 -53t45 -138t-45 -138t-118 -53t-117.5 52.5zM714.5 87q26.5 36 26.5 98t-26.5 98t-71.5 36q-46 0 -72 -35.5t-26 -98.5t26 -98.5t72 -35.5q45 0 71.5 36z" unicode="%" horiz-adv-x="843"/>
<glyph glyph-name="ampersand" d="M617 -11l-93 93q-93 -90 -234 -90q-70 0 -126 23t-87.5 64.5t-31.5 94.5q0 64 39.5 113.5t130.5 101.5q-46 46 -65 83t-19 77q0 71 51.5 114t137.5 43q80 0 127 -39t47 -107q0 -53 -34.5 -95t-114.5 -88l173 -172q30 57 43 127l77 -25q-18 -92 -61 -160l94 -94z M246.5 612.5q-26.5 -23.5 -26.5 -61.5q0 -27 14.5 -52t56.5 -68q69 39 95.5 67t26.5 61q0 35 -24.5 56t-68.5 21q-47 0 -73.5 -23.5zM467 138l-199 198q-72 -40 -100.5 -74.5t-28.5 -77.5q0 -50 43.5 -81t113.5 -31q104 0 171 66z" unicode="&amp;" horiz-adv-x="686"/>
<glyph glyph-name="quotesingle" d="M63 700h84l-7 -270h-71z" unicode="&apos;" horiz-adv-x="210"/>
<glyph glyph-name="parenleft" d="M126 17.5q-31 119.5 -31 256.5t31 257.5t88 210.5h91q-60 -105 -88 -220t-28 -248t28 -248t88 -220h-91q-57 92 -88 211.5z" unicode="(" horiz-adv-x="337"/>
<glyph glyph-name="parenright" d="M32 -194q60 105 88.5 220t28.5 248t-28.5 248t-88.5 220h91q58 -90 89 -210t31 -258q0 -137 -31 -257t-89 -211h-91z" unicode=")" horiz-adv-x="338"/>
<glyph glyph-name="asterisk" d="M262 556l119 -67l-31 -55l-121 71l1 -136h-60l1 136l-121 -71l-31 55l120 67l-120 66l31 56l121 -71l-1 135h60l-1 -135l121 71l31 -56z" unicode="*" horiz-adv-x="400"/>
<glyph glyph-name="plus" d="M515 310h-182v-179h-84v179h-182v79h182v180h84v-180h182v-79z" unicode="+" horiz-adv-x="582"/>
<glyph glyph-name="comma" d="M161.5 111.5q18.5 -19.5 18.5 -48.5q0 -15 -3.5 -29t-13.5 -43l-47 -139h-63l37 149q-19 7 -30.5 23.5t-11.5 38.5q0 30 19 49t48 19q28 0 46.5 -19.5z" unicode="," horiz-adv-x="227"/>
<glyph glyph-name="hyphen" d="M57 316h269v-83h-269v83z" unicode="-" horiz-adv-x="383"/>
<glyph glyph-name="period" d="M66 13.5q-20 19.5 -20 49.5q0 29 20 48.5t48 19.5t47 -19t19 -49t-19.5 -49.5t-46.5 -19.5q-28 0 -48 19.5z" unicode="." horiz-adv-x="227"/>
<glyph glyph-name="slash" d="M302 842h87l-330 -942h-87z" unicode="/" horiz-adv-x="352"/>
<glyph glyph-name="zero" d="M186.5 34.5q-64.5 42.5 -101.5 123.5t-37 192t37 192t101.5 123.5t147.5 42.5q82 0 146.5 -42.5t101.5 -123.5t37 -192t-37 -192t-101.5 -123.5t-146.5 -42.5q-83 0 -147.5 42.5zM468.5 150q50.5 69 50.5 200t-50.5 200t-134.5 69q-85 0 -135.5 -69t-50.5 -200t50.5 -200 t135.5 -69q84 0 134.5 69z" unicode="0" horiz-adv-x="667"/>
<glyph glyph-name="one" d="M265 700v-700h-99v613h-158v87h257z" unicode="1" horiz-adv-x="370"/>
<glyph glyph-name="two" d="M540 87v-87h-503v68l285 275q52 50 70 86.5t18 73.5q0 55 -38.5 85.5t-110.5 30.5q-116 0 -179 -76l-68 59q41 50 107.5 78t148.5 28q110 0 175 -52.5t65 -142.5q0 -56 -24 -106t-91 -114l-214 -206h359z" unicode="2" horiz-adv-x="574"/>
<glyph glyph-name="three" d="M473 342.5q54 -53.5 54 -136.5q0 -60 -30 -108.5t-89.5 -77t-145.5 -28.5q-75 0 -144 22.5t-113 62.5l46 79q36 -34 92 -54.5t119 -20.5q78 0 121.5 33t43.5 91t-43 90t-130 32h-56v70l176 216h-337v87h462v-68l-183 -226q103 -10 157 -63.5z" unicode="3" horiz-adv-x="572"/>
<glyph glyph-name="four" d="M657 172h-133v-172h-97v172h-389v70l358 458h108l-343 -442h269v152h94v-152h133v-86z" unicode="4" horiz-adv-x="669"/>
<glyph glyph-name="five" d="M468.5 364.5q70.5 -56.5 70.5 -154.5q0 -62 -29.5 -111.5t-89 -78t-146.5 -28.5q-74 0 -143 22.5t-114 62.5l46 79q36 -34 92 -54.5t118 -20.5q79 0 122.5 33.5t43.5 91.5q0 63 -48 95.5t-164 32.5h-159l37 366h395v-87h-311l-19 -192h78q150 0 220.5 -56.5z" unicode="5" horiz-adv-x="574"/>
<glyph glyph-name="six" d="M473.5 399q54.5 -26 85.5 -74.5t31 -111.5q0 -66 -32.5 -116t-89 -77.5t-126.5 -27.5q-141 0 -217.5 91t-76.5 258q0 117 41.5 199.5t116 125t173.5 42.5q51 0 96 -10.5t78 -30.5l-38 -78q-50 33 -134 33q-109 0 -171 -67.5t-62 -196.5q0 -16 1 -25q30 45 82.5 68.5 t118.5 23.5q69 0 123.5 -26zM450 110q43 37 43 99t-43.5 98.5t-116.5 36.5q-47 0 -83.5 -18t-57 -49t-20.5 -69q0 -37 19.5 -67.5t57 -49t89.5 -18.5q69 0 112 37z" unicode="6" horiz-adv-x="617"/>
<glyph glyph-name="seven" d="M558 700v-68l-283 -632h-106l277 613h-320v-125h-96v212h528z" unicode="7" horiz-adv-x="598"/>
<glyph glyph-name="eight" d="M568 301q32 -43 32 -103q0 -63 -34 -109.5t-97 -71.5t-148 -25q-84 0 -146.5 25t-96.5 71.5t-34 109.5q0 60 31.5 103t91.5 66q-48 23 -73 61t-25 90q0 58 31.5 101t88.5 66t132 23q76 0 133.5 -23t89 -66t31.5 -101q0 -51 -25.5 -89.5t-73.5 -61.5q60 -23 92 -66z M209 596.5q-41 -30.5 -41 -82.5t40.5 -82t112.5 -30q73 0 114.5 30t41.5 82t-42.5 82.5t-113.5 30.5t-112 -30.5zM452 107.5q48 34.5 48 93.5q0 58 -48 91.5t-131 33.5t-130 -33.5t-47 -91.5q0 -59 47 -93.5t130 -34.5t131 34.5z" unicode="8" horiz-adv-x="644"/>
<glyph glyph-name="nine" d="M492.5 617q76.5 -91 76.5 -258q0 -117 -41.5 -199.5t-116 -125t-173.5 -42.5q-51 0 -96 10.5t-78 30.5l38 78q51 -33 135 -33q109 0 170.5 67.5t61.5 196.5v25q-30 -45 -83 -68.5t-119 -23.5q-69 0 -123.5 26t-85 74.5t-30.5 111.5q0 66 32.5 116t88.5 77.5t126 27.5 q141 0 217.5 -91zM368 374q37 18 57.5 49t20.5 69q0 37 -19.5 67.5t-57 49t-90.5 18.5q-69 0 -111.5 -37t-42.5 -99t43 -98.5t116 -36.5q47 0 84 18z" unicode="9" horiz-adv-x="617"/>
<glyph glyph-name="colon" d="M66 417.5q-20 19.5 -20 49.5q0 29 20 48.5t48 19.5t47 -19t19 -49t-19.5 -49.5t-46.5 -19.5q-28 0 -48 19.5zM66 13.5q-20 19.5 -20 49.5q0 29 20 48.5t48 19.5t47 -19t19 -49t-19.5 -49.5t-46.5 -19.5q-28 0 -48 19.5z" unicode=":" horiz-adv-x="227"/>
<glyph glyph-name="semicolon" d="M66 417.5q-20 19.5 -20 49.5q0 29 20 48.5t48 19.5t47 -19t19 -49t-19.5 -49.5t-46.5 -19.5q-28 0 -48 19.5zM161.5 111.5q18.5 -19.5 18.5 -48.5q0 -15 -3.5 -29t-13.5 -43l-47 -139h-63l37 149q-19 7 -30.5 23.5t-11.5 38.5q0 30 19 49t48 19q28 0 46.5 -19.5z" unicode=";" horiz-adv-x="227"/>
<glyph glyph-name="less" d="M515 487l-355 -137l355 -137v-83l-448 177v86l448 177v-83z" unicode="&lt;" horiz-adv-x="582"/>
<glyph glyph-name="equal" d="M67 508h448v-79h-448v79zM67 271h448v-79h-448v79z" unicode="=" horiz-adv-x="582"/>
<glyph glyph-name="greater" d="M515 393v-86l-448 -177v83l356 137l-356 137v83z" unicode="&gt;" horiz-adv-x="582"/>
<glyph glyph-name="question" d="M241.5 291.5q13.5 30.5 33 51.5t51.5 50q40 35 59 60.5t19 61.5q0 49 -38 78.5t-105 29.5q-117 0 -179 -79l-73 52q42 54 107.5 83t151.5 29q109 0 173 -47.5t64 -130.5q0 -41 -13.5 -72.5t-32.5 -52.5t-51 -50q-41 -37 -60.5 -65t-19.5 -69h-100q0 40 13.5 70.5z M232.5 12.5q-18.5 18.5 -18.5 45.5t18.5 45.5t46.5 18.5t46 -18.5t18 -45.5t-18.5 -45.5t-45.5 -18.5q-28 0 -46.5 18.5z" unicode="?" horiz-adv-x="573"/>
<glyph glyph-name="at" d="M761 651.5q106 -55.5 165.5 -155.5t59.5 -228t-47 -201t-131 -73q-48 0 -79.5 24.5t-40.5 70.5q-30 -46 -78.5 -70.5t-111.5 -24.5q-70 0 -126 33t-87.5 91.5t-31.5 132.5q0 73 31.5 131.5t87.5 91t126 32.5q58 0 105 -21.5t78 -63.5v81h87v-360q0 -37 16 -54.5t41 -17.5 q44 0 68.5 51.5t24.5 145.5q0 111 -50 195.5t-140.5 131.5t-207.5 47q-118 0 -208.5 -49t-140.5 -137t-50 -201q0 -114 49.5 -202t139 -137.5t206.5 -49.5q49 0 100 11t93 33l22 -64q-44 -23 -102 -35t-113 -12q-137 0 -243.5 58.5t-165.5 162.5t-59 235t59.5 234t167 161 t245.5 58q135 0 241 -55.5zM599.5 94q38.5 22 61 62.5t22.5 94.5t-22.5 94.5t-61 62t-87.5 21.5q-76 0 -123 -48.5t-47 -129.5t47.5 -130t122.5 -49q49 0 87.5 22z" unicode="@" horiz-adv-x="1034"/>
<glyph glyph-name="A" d="M551 175h-372l-77 -175h-103l317 700h99l318 -700h-105zM516 255l-151 343l-151 -343h302z" unicode="A" horiz-adv-x="732"/>
<glyph glyph-name="B" d="M672 301.5q35 -44.5 35 -112.5q0 -91 -68.5 -140t-199.5 -49h-334v700h314q120 0 185.5 -48t65.5 -133q0 -55 -25.5 -95t-68.5 -61q61 -17 96 -61.5zM205 619v-224h205q77 0 118.5 28.5t41.5 83.5t-41.5 83.5t-118.5 28.5h-205zM563 109q43 28 43 88q0 117 -171 117h-230 v-233h230q85 0 128 28z" unicode="B" horiz-adv-x="757"/>
<glyph glyph-name="C" d="M228.5 38.5q-84.5 46.5 -132.5 128t-48 183.5t48 183.5t133 128t190 46.5q82 0 150 -27.5t116 -81.5l-65 -63q-79 83 -197 83q-78 0 -141 -35t-98.5 -96.5t-35.5 -137.5t35.5 -137.5t98.5 -96.5t141 -35q117 0 197 84l65 -63q-48 -54 -116.5 -82t-150.5 -28 q-105 0 -189.5 46.5z" unicode="C" horiz-adv-x="723"/>
<glyph glyph-name="D" d="M105 700h295q111 0 197 -44t133.5 -123.5t47.5 -182.5t-47.5 -182.5t-133.5 -123.5t-197 -44h-295v700zM394 87q85 0 149.5 33t99.5 92.5t35 137.5t-35 137.5t-99.5 92.5t-149.5 33h-189v-526h189z" unicode="D" horiz-adv-x="826"/>
<glyph glyph-name="E" d="M613 87v-87h-508v700h494v-87h-394v-215h351v-85h-351v-226h408z" unicode="E" horiz-adv-x="670"/>
<glyph glyph-name="F" d="M205 613v-244h351v-86h-351v-283h-100v700h494v-87h-394z" unicode="F" horiz-adv-x="635"/>
<glyph glyph-name="G" d="M590 354h96v-273q-52 -43 -121 -66t-144 -23q-106 0 -191 46.5t-133.5 128t-48.5 183.5t48.5 184t134 128t192.5 46q84 0 152.5 -27.5t116.5 -80.5l-62 -62q-84 81 -203 81q-80 0 -143.5 -34.5t-99.5 -96t-36 -138.5q0 -76 36 -137.5t99.5 -96.5t142.5 -35q94 0 164 45 v228z" unicode="G" horiz-adv-x="772"/>
<glyph glyph-name="H" d="M707 700v-700h-100v312h-402v-312h-100v700h100v-301h402v301h100z" unicode="H" horiz-adv-x="812"/>
<glyph glyph-name="I" d="M105 700h100v-700h-100v700z" unicode="I" horiz-adv-x="310"/>
<glyph glyph-name="J" d="M78 18.5q-54 26.5 -87 74.5l58 68q58 -83 146 -83q59 0 89.5 36t30.5 106v393h-253v87h352v-475q0 -116 -55.5 -174.5t-163.5 -58.5q-63 0 -117 26.5z" unicode="J" horiz-adv-x="513"/>
<glyph glyph-name="K" d="M333 311l-128 -130v-181h-100v700h100v-391l380 391h114l-299 -315l318 -385h-117z" unicode="K" horiz-adv-x="719"/>
<glyph glyph-name="L" d="M105 700h100v-613h379v-87h-479v700z" unicode="L" horiz-adv-x="594"/>
<glyph glyph-name="M" d="M754 0l-1 510l-253 -425h-46l-253 422v-507h-96v700h82l292 -492l288 492h82l1 -700h-96z" unicode="M" horiz-adv-x="955"/>
<glyph glyph-name="N" d="M707 700v-700h-82l-420 522v-522h-100v700h82l420 -522v522h100z" unicode="N" horiz-adv-x="812"/>
<glyph glyph-name="O" d="M230 38.5q-85 46.5 -133.5 128.5t-48.5 183t48.5 183t133.5 128.5t191 46.5q105 0 190 -46.5t133 -128t48 -183.5t-48 -183.5t-133 -128t-190 -46.5q-106 0 -191 46.5zM559.5 116q61.5 35 97 96.5t35.5 137.5t-35.5 137.5t-97 96.5t-138.5 35t-139.5 -35t-98 -96.5 t-35.5 -137.5t35.5 -137.5t98 -96.5t139.5 -35t138.5 35z" unicode="O" horiz-adv-x="840"/>
<glyph glyph-name="P" d="M592 635q78 -65 78 -179t-78 -179t-214 -65h-173v-212h-100v700h273q136 0 214 -65zM520 339.5q50 40.5 50 116.5t-50 116.5t-145 40.5h-170v-314h170q95 0 145 40.5z" unicode="P" horiz-adv-x="722"/>
<glyph glyph-name="Q" d="M826 -64q-34 -40 -79 -61t-97 -21q-66 0 -123.5 31.5t-131.5 107.5q-99 5 -178.5 53t-124 127.5t-44.5 176.5q0 101 48.5 183t133.5 128.5t191 46.5q105 0 190 -46.5t133 -128t48 -183.5q0 -86 -34.5 -158t-97 -121t-143.5 -68q35 -37 67.5 -53.5t66.5 -16.5q74 0 128 60 zM183.5 212.5q35.5 -61.5 98 -96.5t139.5 -35q76 0 138 35t97.5 96.5t35.5 137.5t-35.5 137.5t-97.5 96.5t-138 35q-77 0 -139.5 -35t-98 -96.5t-35.5 -137.5t35.5 -137.5z" unicode="Q" horiz-adv-x="840"/>
<glyph glyph-name="R" d="M573 0l-151 215q-28 -2 -44 -2h-173v-213h-100v700h273q136 0 214 -65t78 -179q0 -81 -40 -138t-114 -83l166 -235h-109zM520 339q50 41 50 117t-50 116.5t-145 40.5h-170v-315h170q95 0 145 41z" unicode="R" horiz-adv-x="727"/>
<glyph glyph-name="S" d="M156.5 16.5q-73.5 24.5 -115.5 63.5l37 78q40 -36 102.5 -58.5t128.5 -22.5q87 0 130 29.5t43 78.5q0 36 -23.5 58.5t-58 34.5t-97.5 27q-79 19 -127.5 38t-83 58.5t-34.5 106.5q0 56 29.5 101t89.5 72t149 27q62 0 122 -16t103 -46l-33 -80q-44 28 -94 42.5t-98 14.5 q-85 0 -127.5 -31t-42.5 -80q0 -36 24 -58.5t59.5 -35t96.5 -26.5q79 -19 127 -38t82.5 -58t34.5 -105q0 -55 -30 -100.5t-91 -72t-150 -26.5q-79 0 -152.5 24.5z" unicode="S" horiz-adv-x="621"/>
<glyph glyph-name="T" d="M244 613h-240v87h579v-87h-240v-613h-99v613z" unicode="T" horiz-adv-x="587"/>
<glyph glyph-name="U" d="M177 72q-78 80 -78 230v398h100v-394q0 -225 197 -225q96 0 147 55.5t51 169.5v394h97v-398q0 -151 -78 -230.5t-218 -79.5t-218 80z" unicode="U" horiz-adv-x="791"/>
<glyph glyph-name="V" d="M713 700l-307 -700h-99l-308 700h108l252 -575l254 575h100z" unicode="V" horiz-adv-x="712"/>
<glyph glyph-name="W" d="M1094 700l-234 -700h-105l-191 559l-191 -559h-107l-234 700h103l189 -569l197 569h92l193 -572l193 572h95z" unicode="W" horiz-adv-x="1126"/>
<glyph glyph-name="X" d="M545 0l-210 289l-207 -289h-115l263 359l-247 341h114l196 -269l194 269h109l-247 -338l265 -362h-115z" unicode="X" horiz-adv-x="673"/>
<glyph glyph-name="Y" d="M373 242v-242h-99v244l-278 456h107l224 -369l225 369h99z" unicode="Y" horiz-adv-x="647"/>
<glyph glyph-name="Z" d="M628 87v-87h-585v68l440 545h-433v87h565v-68l-438 -545h451z" unicode="Z" horiz-adv-x="657"/>
<glyph glyph-name="bracketleft" d="M105 742h209v-79h-113v-778h113v-79h-209v936z" unicode="[" horiz-adv-x="333"/>
<glyph glyph-name="backslash" d="M292 -100l-330 942h87l330 -942h-87z" unicode="\" horiz-adv-x="352"/>
<glyph glyph-name="bracketright" d="M19 -194v79h113v778h-113v79h209v-936h-209z" unicode="]" horiz-adv-x="333"/>
<glyph glyph-name="asciicircum" d="M431 142l-139 337l-140 -337h-77l177 416h80l176 -416h-77z" unicode="^" horiz-adv-x="583"/>
<glyph glyph-name="underscore" d="M0 0h500v-62h-500v62z" unicode="_" horiz-adv-x="500"/>
<glyph glyph-name="grave" d="M117 737h122l136 -130h-90z" unicode="`" horiz-adv-x="600"/>
<glyph glyph-name="a" d="M452.5 481q58.5 -54 58.5 -161v-320h-91v70q-24 -37 -68.5 -56.5t-105.5 -19.5q-89 0 -142.5 43t-53.5 113t51 112.5t162 42.5h152v19q0 62 -36 95t-106 33q-47 0 -92 -15.5t-76 -41.5l-40 72q41 33 98 50.5t121 17.5q110 0 168.5 -54zM357 92.5q40 24.5 58 69.5v74h-148 q-122 0 -122 -82q0 -40 31 -63t86 -23t95 24.5z" unicode="a" horiz-adv-x="598"/>
<glyph glyph-name="b" d="M510 501q61 -34 95.5 -95t34.5 -141t-34.5 -141.5t-95.5 -95.5t-138 -34q-59 0 -108 23t-81 67v-84h-92v742h96v-292q32 42 80 63.5t105 21.5q77 0 138 -34zM455.5 101.5q40.5 23.5 64 66t23.5 97.5t-23.5 97.5t-64 65.5t-91.5 23q-50 0 -91 -23t-64 -65.5t-23 -97.5 t23 -97.5t64 -66t91 -23.5q51 0 91.5 23.5z" unicode="b" horiz-adv-x="682"/>
<glyph glyph-name="c" d="M177.5 29q-63.5 35 -99.5 96.5t-36 139.5t36 139.5t99.5 96t144.5 34.5q72 0 128.5 -29t87.5 -84l-73 -47q-25 38 -62 57t-82 19q-52 0 -93.5 -23t-65 -65.5t-23.5 -97.5q0 -56 23.5 -98.5t65 -65.5t93.5 -23q45 0 82 19t62 57l73 -46q-31 -55 -87.5 -84.5t-128.5 -29.5 q-81 0 -144.5 35z" unicode="c" horiz-adv-x="571"/>
<glyph glyph-name="d" d="M591 742v-742h-92v84q-32 -44 -81 -67t-108 -23q-77 0 -138 34t-95.5 95.5t-34.5 141.5t34.5 141t95.5 95t138 34q57 0 105 -21.5t80 -63.5v292h96zM409 101.5q41 23.5 64 66t23 97.5t-23 97.5t-64 65.5t-91 23q-51 0 -91.5 -23t-64 -65.5t-23.5 -97.5t23.5 -97.5t64 -66 t91.5 -23.5q50 0 91 23.5z" unicode="d" horiz-adv-x="682"/>
<glyph glyph-name="e" d="M568 233h-430q9 -70 61.5 -112.5t130.5 -42.5q95 0 153 64l53 -62q-36 -42 -89.5 -64t-119.5 -22q-84 0 -149 34.5t-100.5 96.5t-35.5 140q0 77 34.5 139t95 96.5t136.5 34.5t135.5 -34.5t93 -96.5t33.5 -142q0 -11 -2 -29zM192.5 412q-46.5 -42 -54.5 -110h340 q-8 67 -54.5 109.5t-115.5 42.5t-115.5 -42z" unicode="e" horiz-adv-x="612"/>
<glyph glyph-name="f" d="M199 576v-46h154v-79h-152v-451h-96v451h-90v79h90v47q0 79 46 125t129 46q32 0 60 -8t48 -23l-29 -73q-33 25 -74 25q-86 0 -86 -93z" unicode="f" horiz-adv-x="353"/>
<glyph glyph-name="g" d="M598 530v-458q0 -139 -69 -205.5t-206 -66.5q-75 0 -143 20.5t-110 58.5l46 74q37 -32 91.5 -50.5t112.5 -18.5q93 0 137.5 44t44.5 134v42q-34 -41 -83.5 -61.5t-107.5 -20.5q-76 0 -137.5 32.5t-96.5 91t-35 133.5t35 133.5t96.5 90.5t137.5 32q60 0 111.5 -22 t84.5 -65v82h91zM415.5 128q41.5 22 65 61.5t23.5 89.5q0 77 -51 124.5t-131 47.5q-81 0 -132 -47.5t-51 -124.5q0 -50 23.5 -89.5t65 -61.5t94.5 -22q52 0 93.5 22z" unicode="g" horiz-adv-x="690"/>
<glyph glyph-name="h" d="M534.5 476.5q59.5 -58.5 59.5 -171.5v-305h-96v294q0 77 -37 116t-106 39q-78 0 -123 -45.5t-45 -130.5v-273h-96v742h96v-287q30 38 78.5 59t108.5 21q101 0 160.5 -58.5z" unicode="h" horiz-adv-x="681"/>
<glyph glyph-name="i" d="M91 530h96v-530h-96v530zM92.5 650q-18.5 18 -18.5 44t18.5 44.5t46.5 18.5t46.5 -17.5t18.5 -43.5q0 -27 -18.5 -45.5t-46.5 -18.5t-46.5 18z" unicode="i" horiz-adv-x="279"/>
<glyph glyph-name="j" d="M-42 -192q-30 8 -50 24l31 74q30 -25 78 -25q38 0 58.5 23.5t20.5 69.5v556h96v-554q0 -82 -44 -129t-125 -47q-35 0 -65 8zM97.5 650q-18.5 18 -18.5 44t18.5 44.5t46.5 18.5t46.5 -17.5t18.5 -43.5q0 -27 -18.5 -45.5t-46.5 -18.5t-46.5 18z" unicode="j" horiz-adv-x="284"/>
<glyph glyph-name="k" d="M297 247l-110 -102v-145h-96v742h96v-476l289 264h116l-223 -219l245 -311h-118z" unicode="k" horiz-adv-x="616"/>
<glyph glyph-name="l" d="M91 742h96v-742h-96v742z" unicode="l" horiz-adv-x="279"/>
<glyph glyph-name="m" d="M912.5 477q58.5 -58 58.5 -172v-305h-96v294q0 77 -35.5 116t-101.5 39q-73 0 -116 -45.5t-43 -130.5v-273h-96v294q0 77 -35.5 116t-101.5 39q-73 0 -116 -45.5t-43 -130.5v-273h-96v530h92v-79q29 41 76 62.5t107 21.5q62 0 110 -25t74 -73q30 46 83.5 72t120.5 26 q100 0 158.5 -58z" unicode="m" horiz-adv-x="1057"/>
<glyph glyph-name="n" d="M534.5 476.5q59.5 -58.5 59.5 -171.5v-305h-96v294q0 77 -37 116t-106 39q-78 0 -123 -45.5t-45 -130.5v-273h-96v530h92v-80q29 41 78.5 63t112.5 22q101 0 160.5 -58.5z" unicode="n" horiz-adv-x="681"/>
<glyph glyph-name="o" d="M176 29q-63 35 -98.5 96.5t-35.5 139.5t35.5 139.5t98.5 96t142 34.5t141.5 -34.5t98 -96t35.5 -139.5t-35.5 -139.5t-98 -96.5t-141.5 -35t-142 35zM409.5 101.5q40.5 23.5 63.5 66t23 97.5t-23 97.5t-63.5 65.5t-91.5 23t-91.5 -23t-64 -65.5t-23.5 -97.5t23.5 -97.5 t64 -66t91.5 -23.5t91.5 23.5z" unicode="o" horiz-adv-x="635"/>
<glyph glyph-name="p" d="M510 501q61 -34 95.5 -95t34.5 -141t-34.5 -141.5t-95.5 -95.5t-138 -34q-57 0 -104.5 22t-80.5 64v-274h-96v724h92v-84q32 44 81 66.5t108 22.5q77 0 138 -34zM455.5 101.5q40.5 23.5 64 66t23.5 97.5t-23.5 97.5t-64 65.5t-91.5 23q-50 0 -90.5 -23.5t-64 -65.5 t-23.5 -97t23 -97.5t64 -66t91 -23.5q51 0 91.5 23.5z" unicode="p" horiz-adv-x="682"/>
<glyph glyph-name="q" d="M591 530v-724h-96v274q-33 -42 -80.5 -64t-104.5 -22q-77 0 -138 34t-95.5 95.5t-34.5 141.5t34.5 141t95.5 95t138 34q59 0 108 -22.5t81 -66.5v84h92zM409 101.5q41 23.5 64 66t23 97.5t-23.5 97t-64 65.5t-90.5 23.5q-51 0 -91.5 -23t-64 -65.5t-23.5 -97.5 t23.5 -97.5t64 -66t91.5 -23.5q50 0 91 23.5z" unicode="q" horiz-adv-x="682"/>
<glyph glyph-name="r" d="M257 511q49 24 119 24v-93q-8 1 -22 1q-78 0 -122.5 -46.5t-44.5 -132.5v-264h-96v530h92v-89q25 46 74 70z" unicode="r" horiz-adv-x="410"/>
<glyph glyph-name="s" d="M118 11.5q-60 17.5 -94 44.5l40 76q35 -25 85 -40t101 -15q126 0 126 72q0 24 -17 38t-42.5 20.5t-72.5 14.5q-64 10 -104.5 23t-69.5 44t-29 87q0 72 60 115.5t161 43.5q53 0 106 -13t87 -35l-41 -76q-65 42 -153 42q-61 0 -93 -20t-32 -53q0 -26 18 -41t44.5 -22 t74.5 -16q64 -11 103.5 -23.5t67.5 -42.5t28 -84q0 -72 -61.5 -114.5t-167.5 -42.5q-65 0 -125 17.5z" unicode="s" horiz-adv-x="501"/>
<glyph glyph-name="t" d="M389 31q-21 -18 -52 -27.5t-64 -9.5q-80 0 -124 43t-44 123v291h-90v79h90v116h96v-116h152v-79h-152v-287q0 -43 21.5 -66t61.5 -23q44 0 75 25z" unicode="t" horiz-adv-x="414"/>
<glyph glyph-name="u" d="M585 530v-530h-91v80q-29 -41 -76.5 -63.5t-103.5 -22.5q-106 0 -167 58.5t-61 172.5v305h96v-294q0 -77 37 -116.5t106 -39.5q76 0 120 46t44 130v274h96z" unicode="u" horiz-adv-x="677"/>
<glyph glyph-name="v" d="M560 530l-232 -530h-98l-232 530h100l182 -425l186 425h94z" unicode="v" horiz-adv-x="559"/>
<glyph glyph-name="w" d="M893 530l-198 -530h-92l-153 402l-155 -402h-92l-197 530h91l154 -422l160 422h81l157 -424l158 424h86z" unicode="w" horiz-adv-x="899"/>
<glyph glyph-name="x" d="M429 0l-153 203l-155 -203h-107l209 271l-199 259h107l146 -191l145 191h105l-200 -259l211 -271h-109z" unicode="x" horiz-adv-x="552"/>
<glyph glyph-name="y" d="M560 530l-257 -583q-34 -81 -79.5 -114t-109.5 -33q-39 0 -75.5 12.5t-60.5 36.5l41 72q41 -39 95 -39q35 0 58.5 18.5t42.5 63.5l17 37l-234 529h100l185 -424l183 424h94z" unicode="y" horiz-adv-x="559"/>
<glyph glyph-name="z" d="M484 79v-79h-444v62l313 389h-307v79h430v-63l-313 -388h321z" unicode="z" horiz-adv-x="521"/>
<glyph glyph-name="braceleft" d="M220 304q-13 -21 -42 -30q29 -9 42 -30t13 -62v-219q0 -78 74 -78h25v-79h-44q-75 0 -113 37.5t-38 110.5v230q0 50 -45 50h-35v80h35q45 0 45 50v230q0 73 38 110.5t113 37.5h44v-79h-25q-74 0 -74 -78v-219q0 -41 -13 -62z" unicode="{" horiz-adv-x="351"/>
<glyph glyph-name="bar" d="M105 742h89v-936h-89v936z" unicode="|" horiz-adv-x="299"/>
<glyph glyph-name="braceright" d="M293 314v-80h-34q-44 0 -44 -50v-230q0 -73 -38.5 -110.5t-113.5 -37.5h-44v79h24q76 0 76 78v219q0 42 12.5 62.5t41.5 29.5q-29 9 -41.5 29.5t-12.5 62.5v219q0 78 -76 78h-24v79h44q75 0 113.5 -37.5t38.5 -110.5v-230q0 -50 44 -50h34z" unicode="}" horiz-adv-x="351"/>
<glyph glyph-name="asciitilde" d="M330 279.5q-27 14.5 -60 41.5q-25 21 -41.5 31t-35.5 10q-32 0 -51 -24.5t-21 -65.5h-63q2 81 37.5 122.5t94.5 41.5q36 0 62.5 -14.5t59.5 -42.5q26 -21 42 -30.5t35 -9.5q33 0 51.5 24.5t20.5 66.5h63q-2 -82 -37.5 -123.5t-94.5 -41.5q-35 0 -62 14.5z" unicode="~" horiz-adv-x="582"/>
<glyph glyph-name="uni00A0" unicode=" " horiz-adv-x="269"/>
<glyph glyph-name="exclamdown" d="M180.5 516q18.5 -19 18.5 -46q0 -26 -18 -44.5t-46 -18.5t-47 18.5t-19 44.5q0 27 19 46t47 19q27 0 45.5 -19zM191 -154h-113l18 463h76z" unicode="¡" horiz-adv-x="268"/>
<glyph glyph-name="cent" d="M465 154l73 -46q-28 -50 -78 -79t-114 -34v-115h-64v116q-70 8 -124.5 44.5t-85 94.5t-30.5 130t30.5 129.5t84.5 94t125 44.5v117h64v-116q64 -5 114 -33.5t78 -78.5l-73 -47q-42 64 -119 74v-369q77 10 119 74zM178.5 142q39.5 -49 103.5 -60v365q-64 -12 -103.5 -61 t-39.5 -121q0 -74 39.5 -123z" unicode="¢" horiz-adv-x="571"/>
<glyph glyph-name="sterling" d="M238 87h378v-87h-586v87h109v230h-109v66h109v65q0 79 34.5 137.5t101 90.5t159.5 32q61 0 108.5 -12t88.5 -38l-33 -83q-65 44 -173 44q-92 0 -139.5 -44t-47.5 -126v-66h266v-66h-266v-230z" unicode="£" horiz-adv-x="646"/>
<glyph glyph-name="currency" d="M566 159l103 -102l-56 -59l-106 105q-72 -48 -157 -48q-43 0 -83.5 12.5t-73.5 36.5l-107 -106l-55 59l103 103q-26 34 -40.5 75t-14.5 84q0 86 53 158l-101 101l55 59l105 -104q72 51 159 51q86 0 159 -50l104 103l56 -59l-101 -100q54 -71 54 -159t-56 -160zM447 159 q45 25 71.5 67.5t26.5 92.5t-26.5 93t-71.5 68t-97 25t-96 -25t-70 -68t-26 -93t26 -92.5t70 -67.5t96 -25t97 25z" unicode="¤" horiz-adv-x="700"/>
<glyph glyph-name="yen" d="M434 312h180v-57h-211v-81h211v-57h-211v-117h-99v117h-211v57h211v81h-211v57h181l-278 388h106l253 -354l254 354h102z" unicode="¥" horiz-adv-x="707"/>
<glyph glyph-name="brokenbar" d="M105 742h89v-350h-89v350zM105 156h89v-350h-89v350z" unicode="¦" horiz-adv-x="299"/>
<glyph glyph-name="section" d="M445 218.5q-20 -32.5 -54 -53.5q53 -38 53 -109q0 -48 -26.5 -85t-74.5 -57t-111 -20q-58 0 -116 18t-90 46l31 73q33 -26 81 -43t98 -17q57 0 89.5 21.5t32.5 61.5q0 28 -17.5 45t-44.5 26.5t-73 20.5q-60 15 -97 30t-63.5 46t-26.5 84q0 42 20 75.5t55 54.5 q-53 36 -53 107q0 74 61.5 118.5t167.5 44.5q48 0 101 -13.5t84 -36.5l-31 -73q-66 46 -161 46q-66 0 -101 -21.5t-35 -61.5q0 -27 17 -43.5t42 -25.5t72 -21q61 -15 98.5 -30t64.5 -47.5t27 -87.5q0 -40 -20 -72.5zM138 263q18 -18 45.5 -27.5t75.5 -21.5q39 -10 50 -13 q33 10 52.5 33.5t19.5 55.5q0 29 -18 47t-45 27.5t-74 21.5q-34 8 -50 13q-33 -10 -53.5 -33t-20.5 -55q0 -30 18 -48z" unicode="§" horiz-adv-x="500"/>
<glyph glyph-name="dieresis" d="M171 638.5q-15 14.5 -15 36.5t15 37t36 15t36 -15t15 -37t-15 -36.5t-36 -14.5t-36 14.5zM357 638.5q-15 14.5 -15 36.5t15 37t36 15t36 -15t15 -37t-15 -36.5t-36 -14.5t-36 14.5z" unicode="¨" horiz-adv-x="600"/>
<glyph glyph-name="copyright" d="M221.5 44q-80.5 47 -127 128t-46.5 178t46.5 178t127.5 128t180 47t179.5 -46t126.5 -126.5t46 -178.5t-47 -179.5t-128 -128.5t-179 -47t-178.5 47zM556 83q70 41 110.5 112t40.5 157t-39.5 156t-109 110t-156.5 40q-86 0 -156.5 -41t-110.5 -111.5t-40 -155.5 t40 -155.5t110 -111.5t155 -41q86 0 156 41zM302 170q-48 26 -75 73t-27 107t27 107t75 73t109 26q52 0 95 -22t67 -59l-57 -41q-36 54 -106 54q-58 0 -96 -38t-38 -100t38 -100t96 -38q70 0 106 54l57 -40q-24 -38 -67 -60t-95 -22q-61 0 -109 26z" unicode="©" horiz-adv-x="802"/>
<glyph glyph-name="ordfeminine" d="M339 617v-189h-64v40q-14 -20 -43 -32t-69 -12q-60 0 -93 26t-33 68t33.5 67t102.5 25h97v9q0 39 -21.5 57t-65.5 18q-30 0 -59.5 -9.5t-50.5 -25.5l-26 45q26 20 64.5 31.5t78.5 11.5q149 0 149 -130zM270 521v46h-88q-79 0 -79 -46q0 -23 19.5 -36t54.5 -13q68 0 93 49 z" unicode="ª" horiz-adv-x="404"/>
<glyph glyph-name="guillemotleft" d="M46 265l144 192h88l-141 -192l141 -191h-88zM238 265l144 192h88l-141 -192l141 -191h-88z" unicode="«" horiz-adv-x="504"/>
<glyph glyph-name="logicalnot" d="M515 133h-85v178h-363v79h448v-257z" unicode="¬" horiz-adv-x="582"/>
<glyph glyph-name="uni00AD" d="M57 316h269v-83h-269v83z" unicode="­" horiz-adv-x="383"/>
<glyph glyph-name="registered" d="M581.5 657q80.5 -46 126.5 -126.5t46 -178.5t-47 -179.5t-128 -128.5t-179 -47t-178.5 47t-127 128t-46.5 178t46.5 178t127.5 128t180 47t179.5 -46zM556 83q70 41 110.5 112t40.5 157t-39.5 156t-109 110t-156.5 40q-86 0 -156.5 -41t-110.5 -111.5t-40 -155.5 t40 -155.5t110 -111.5t155 -41q86 0 156 41zM559 337q-22 -32 -62 -46l91 -141h-69l-83 128h-17h-92v-128h-68v400h160q75 0 118.5 -37t43.5 -99q0 -45 -22 -77zM488.5 355q26.5 21 26.5 59t-26.5 58.5t-74.5 20.5h-88v-159h88q48 0 74.5 21z" unicode="®" horiz-adv-x="802"/>
<glyph glyph-name="macron" d="M137 702h326v-60h-326v60z" unicode="¯" horiz-adv-x="600"/>
<glyph glyph-name="degree" d="M126.5 402.5q-37.5 21.5 -59.5 59t-22 82.5q0 44 22 81.5t59.5 59t82.5 21.5t83 -21.5t60 -59t22 -81.5q0 -45 -22 -82.5t-60 -59t-83 -21.5t-82.5 21.5zM286 466.5q31 31.5 31 77.5t-31 77.5t-77 31.5t-77 -31t-31 -78t31 -78t77 -31t77 31.5z" unicode="°" horiz-adv-x="419"/>
<glyph glyph-name="plusminus" d="M515 438v-79h-182v-174h-84v174h-182v79h182v174h84v-174h182zM67 79h448v-79h-448v79z" unicode="±" horiz-adv-x="582"/>
<glyph glyph-name="uni00B2" d="M380 385v-58h-334v45l185 162q35 31 47.5 50.5t12.5 39.5q0 28 -25 45.5t-75 17.5q-37 0 -66 -11.5t-48 -33.5l-49 38q53 67 168 67q79 0 122 -33t43 -85q0 -32 -16 -60t-61 -68l-132 -116h228z" unicode="²" horiz-adv-x="430"/>
<glyph glyph-name="uni00B3" d="M345.5 532.5q35.5 -32.5 35.5 -82.5q0 -55 -47 -91.5t-133 -36.5q-54 0 -101.5 14t-72.5 37l28 53q25 -20 63.5 -32t82.5 -12q54 0 82 18t28 50t-26.5 49.5t-79.5 17.5h-47v47l112 120h-230v58h321v-45l-118 -127q67 -5 102.5 -37.5z" unicode="³" horiz-adv-x="430"/>
<glyph glyph-name="acute" d="M361 737h122l-168 -130h-90z" unicode="´" horiz-adv-x="600"/>
<glyph glyph-name="uni00B5" d="M590 530v-530h-91v82q-27 -45 -71.5 -66.5t-95.5 -21.5q-96 0 -145 61v-249h-96v724h96v-294q0 -77 37.5 -116.5t105.5 -39.5q76 0 120 46t44 130v274h96z" unicode="µ" horiz-adv-x="682"/>
<glyph glyph-name="paragraph" d="M227 384q-93 1 -150.5 49.5t-57.5 129.5q0 82 60.5 130.5t161.5 48.5h302v-842h-80v767h-156v-767h-80v484z" unicode="¶" horiz-adv-x="648"/>
<glyph glyph-name="periodcentered" d="M85.5 225.5q-19.5 19.5 -19.5 49.5t19.5 49t48.5 19q28 0 47 -19t19 -49t-19 -49.5t-47 -19.5q-29 0 -48.5 19.5z" unicode="·" horiz-adv-x="267"/>
<glyph glyph-name="cedilla" d="M186 -202l21 49q30 -17 68 -17q56 0 56 40q0 18 -14 28.5t-43 10.5h-27l25 98h55l-15 -57q42 -4 64.5 -26.5t22.5 -56.5q0 -42 -34 -66.5t-90 -24.5q-52 0 -89 22z" unicode="¸" horiz-adv-x="600"/>
<glyph glyph-name="uni00B9" d="M370 385v-58h-289v58h116v299h-108v58h179v-357h102z" unicode="¹" horiz-adv-x="430"/>
<glyph glyph-name="ordmasculine" d="M117.5 445q-40.5 21 -63 58t-22.5 83t22.5 83t63 57.5t91.5 20.5t91.5 -20.5t63 -57.5t22.5 -83t-22.5 -83t-63 -58t-91.5 -21t-91.5 21zM288.5 511q30.5 29 30.5 75t-30.5 75t-79.5 29t-79.5 -29t-30.5 -75t30.5 -75t79.5 -29t79.5 29z" unicode="º" horiz-adv-x="418"/>
<glyph glyph-name="guillemotright" d="M34 74l141 191l-141 192h88l144 -192l-144 -191h-88zM226 74l141 191l-141 192h88l144 -192l-144 -191h-88z" unicode="»" horiz-adv-x="504"/>
<glyph glyph-name="onequarter" d="M370 343v-58h-289v58h116v299h-108v58h179v-357h102zM718 700h76l-478 -700h-76zM1007 99h-81v-99h-69v99h-231v47l201 269h78l-194 -258h152v83h63v-83h81v-58z" unicode="¼" horiz-adv-x="1034"/>
<glyph glyph-name="onehalf" d="M370 343v-58h-289v58h116v299h-108v58h179v-357h102zM718 700h76l-478 -700h-76zM984 58v-58h-334v45l185 162q35 31 47.5 50.5t12.5 39.5q0 28 -25 45.5t-75 17.5q-37 0 -66 -11.5t-48 -33.5l-49 38q53 67 168 67q79 0 122 -33t43 -85q0 -32 -16 -60t-61 -68l-132 -116 h228z" unicode="½" horiz-adv-x="1034"/>
<glyph glyph-name="threequarters" d="M345.5 490.5q35.5 -32.5 35.5 -82.5q0 -55 -47 -91.5t-133 -36.5q-54 0 -101.5 14t-72.5 37l28 53q25 -20 63.5 -32t82.5 -12q54 0 82 18t28 50t-26.5 49.5t-79.5 17.5h-47v47l112 120h-230v58h321v-45l-118 -127q67 -5 102.5 -37.5zM718 700h76l-478 -700h-76zM1007 99 h-81v-99h-69v99h-231v47l201 269h78l-194 -258h152v83h63v-83h81v-58z" unicode="¾" horiz-adv-x="1034"/>
<glyph glyph-name="questiondown" d="M248.5 425q-18.5 18 -18.5 45t18.5 46t46.5 19t46.5 -19t18.5 -46q0 -26 -18.5 -44.5t-46.5 -18.5t-46.5 18zM133.5 -115.5q-64.5 46.5 -64.5 124.5q0 40 13.5 71t32.5 52t50 49q40 34 60 61.5t20 66.5h100q0 -38 -13.5 -67.5t-33 -50t-51.5 -48.5q-40 -36 -59 -61 t-19 -60q0 -42 39 -70.5t104 -28.5q117 0 179 79l73 -52q-42 -54 -107 -83t-151 -29q-108 0 -172.5 46.5z" unicode="¿" horiz-adv-x="573"/>
<glyph glyph-name="Agrave" d="M551 175h-372l-77 -175h-103l317 700h99l318 -700h-105zM516 255l-151 343l-151 -343h302zM183 887h122l136 -130h-90z" unicode="À" horiz-adv-x="732"/>
<glyph glyph-name="Aacute" d="M551 175h-372l-77 -175h-103l317 700h99l318 -700h-105zM516 255l-151 343l-151 -343h302zM427 887h122l-168 -130h-90z" unicode="Á" horiz-adv-x="732"/>
<glyph glyph-name="Acircumflex" d="M551 175h-372l-77 -175h-103l317 700h99l318 -700h-105zM516 255l-151 343l-151 -343h302zM458 757l-92 77l-92 -77h-87l133 130h92l133 -130h-87z" unicode="Â" horiz-adv-x="732"/>
<glyph glyph-name="Atilde" d="M551 175h-372l-77 -175h-103l317 700h99l318 -700h-105zM516 255l-151 343l-151 -343h302zM394.5 770q-17.5 10 -43.5 30q-15 14 -26 20.5t-22 6.5q-22 0 -36 -16.5t-15 -45.5h-54q2 56 28.5 89t69.5 33q24 0 42.5 -10.5t42.5 -30.5q17 -14 27 -20.5t21 -6.5q22 0 36 16 t15 44h54q-2 -54 -28.5 -86.5t-69.5 -32.5q-24 0 -41.5 10z" unicode="Ã" horiz-adv-x="732"/>
<glyph glyph-name="Adieresis" d="M551 175h-372l-77 -175h-103l317 700h99l318 -700h-105zM516 255l-151 343l-151 -343h302zM237 788.5q-15 14.5 -15 36.5t15 37t36 15t36 -15t15 -37t-15 -36.5t-36 -14.5t-36 14.5zM423 788.5q-15 14.5 -15 36.5t15 37t36 15t36 -15t15 -37t-15 -36.5t-36 -14.5 t-36 14.5z" unicode="Ä" horiz-adv-x="732"/>
<glyph glyph-name="Aring" d="M551 175h-372l-77 -175h-103l317 700h99l318 -700h-105zM516 255l-151 343l-151 -343h302zM287 795.5q-32 31.5 -32 76.5t32 77.5t78 32.5q47 0 79 -32.5t32 -77.5t-32 -76.5t-79 -31.5q-46 0 -78 31.5zM412.5 825q18.5 19 18.5 47q0 29 -19 48t-47 19t-46.5 -19 t-18.5 -48q0 -28 18.5 -47t46.5 -19q29 0 47.5 19z" unicode="Å" horiz-adv-x="732"/>
<glyph glyph-name="AE" d="M991 87v-87h-508v175h-278l-103 -175h-103l417 700h561v-87h-395v-215h351v-85h-351v-226h409zM483 255v358h-20l-211 -358h231z" unicode="Æ" horiz-adv-x="1047"/>
<glyph glyph-name="Ccedilla" d="M228.5 38.5q-84.5 46.5 -132.5 128t-48 183.5t48 183.5t133 128t190 46.5q82 0 150 -27.5t116 -81.5l-65 -63q-79 83 -197 83q-78 0 -141 -35t-98.5 -96.5t-35.5 -137.5t35.5 -137.5t98.5 -96.5t141 -35q117 0 197 84l65 -63q-48 -54 -116.5 -82t-150.5 -28 q-105 0 -189.5 46.5zM288 -202l21 49q30 -17 68 -17q56 0 56 40q0 18 -14 28.5t-43 10.5h-27l25 98h55l-15 -57q42 -4 64.5 -26.5t22.5 -56.5q0 -42 -34 -66.5t-90 -24.5q-52 0 -89 22z" unicode="Ç" horiz-adv-x="723"/>
<glyph glyph-name="Egrave" d="M613 87v-87h-508v700h494v-87h-394v-215h351v-85h-351v-226h408zM170 887h122l136 -130h-90z" unicode="È" horiz-adv-x="670"/>
<glyph glyph-name="Eacute" d="M613 87v-87h-508v700h494v-87h-394v-215h351v-85h-351v-226h408zM414 887h122l-168 -130h-90z" unicode="É" horiz-adv-x="670"/>
<glyph glyph-name="Ecircumflex" d="M613 87v-87h-508v700h494v-87h-394v-215h351v-85h-351v-226h408zM445 757l-92 77l-92 -77h-87l133 130h92l133 -130h-87z" unicode="Ê" horiz-adv-x="670"/>
<glyph glyph-name="Edieresis" d="M613 87v-87h-508v700h494v-87h-394v-215h351v-85h-351v-226h408zM224 788.5q-15 14.5 -15 36.5t15 37t36 15t36 -15t15 -37t-15 -36.5t-36 -14.5t-36 14.5zM410 788.5q-15 14.5 -15 36.5t15 37t36 15t36 -15t15 -37t-15 -36.5t-36 -14.5t-36 14.5z" unicode="Ë" horiz-adv-x="670"/>
<glyph glyph-name="Igrave" d="M105 700h100v-700h-100v700zM-28 887h122l136 -130h-90z" unicode="Ì" horiz-adv-x="310"/>
<glyph glyph-name="Iacute" d="M105 700h100v-700h-100v700zM216 887h122l-168 -130h-90z" unicode="Í" horiz-adv-x="310"/>
<glyph glyph-name="Icircumflex" d="M105 700h100v-700h-100v700zM247 757l-92 77l-92 -77h-87l133 130h92l133 -130h-87z" unicode="Î" horiz-adv-x="310"/>
<glyph glyph-name="Idieresis" d="M105 700h100v-700h-100v700zM26 788.5q-15 14.5 -15 36.5t15 37t36 15t36 -15t15 -37t-15 -36.5t-36 -14.5t-36 14.5zM212 788.5q-15 14.5 -15 36.5t15 37t36 15t36 -15t15 -37t-15 -36.5t-36 -14.5t-36 14.5z" unicode="Ï" horiz-adv-x="310"/>
<glyph glyph-name="Eth" d="M113 700h295q111 0 197 -44t133.5 -123.5t47.5 -182.5t-47.5 -182.5t-133.5 -123.5t-197 -44h-295v700zM402 87q85 0 149.5 33t99.5 92.5t35 137.5t-35 137.5t-99.5 92.5t-149.5 33h-189v-526h189zM11 396h400v-79h-400v79z" unicode="Ð" horiz-adv-x="834"/>
<glyph glyph-name="Ntilde" d="M707 700v-700h-82l-420 522v-522h-100v700h82l420 -522v522h100zM433.5 770q-17.5 10 -43.5 30q-15 14 -26 20.5t-22 6.5q-22 0 -36 -16.5t-15 -45.5h-54q2 56 28.5 89t69.5 33q24 0 42.5 -10.5t42.5 -30.5q17 -14 27 -20.5t21 -6.5q22 0 36 16t15 44h54 q-2 -54 -28.5 -86.5t-69.5 -32.5q-24 0 -41.5 10z" unicode="Ñ" horiz-adv-x="812"/>
<glyph glyph-name="Ograve" d="M230 38.5q-85 46.5 -133.5 128.5t-48.5 183t48.5 183t133.5 128.5t191 46.5q105 0 190 -46.5t133 -128t48 -183.5t-48 -183.5t-133 -128t-190 -46.5q-106 0 -191 46.5zM559.5 116q61.5 35 97 96.5t35.5 137.5t-35.5 137.5t-97 96.5t-138.5 35t-139.5 -35t-98 -96.5 t-35.5 -137.5t35.5 -137.5t98 -96.5t139.5 -35t138.5 35zM238 887h122l136 -130h-90z" unicode="Ò" horiz-adv-x="840"/>
<glyph glyph-name="Oacute" d="M230 38.5q-85 46.5 -133.5 128.5t-48.5 183t48.5 183t133.5 128.5t191 46.5q105 0 190 -46.5t133 -128t48 -183.5t-48 -183.5t-133 -128t-190 -46.5q-106 0 -191 46.5zM559.5 116q61.5 35 97 96.5t35.5 137.5t-35.5 137.5t-97 96.5t-138.5 35t-139.5 -35t-98 -96.5 t-35.5 -137.5t35.5 -137.5t98 -96.5t139.5 -35t138.5 35zM482 887h122l-168 -130h-90z" unicode="Ó" horiz-adv-x="840"/>
<glyph glyph-name="Ocircumflex" d="M230 38.5q-85 46.5 -133.5 128.5t-48.5 183t48.5 183t133.5 128.5t191 46.5q105 0 190 -46.5t133 -128t48 -183.5t-48 -183.5t-133 -128t-190 -46.5q-106 0 -191 46.5zM559.5 116q61.5 35 97 96.5t35.5 137.5t-35.5 137.5t-97 96.5t-138.5 35t-139.5 -35t-98 -96.5 t-35.5 -137.5t35.5 -137.5t98 -96.5t139.5 -35t138.5 35zM513 757l-92 77l-92 -77h-87l133 130h92l133 -130h-87z" unicode="Ô" horiz-adv-x="840"/>
<glyph glyph-name="Otilde" d="M230 38.5q-85 46.5 -133.5 128.5t-48.5 183t48.5 183t133.5 128.5t191 46.5q105 0 190 -46.5t133 -128t48 -183.5t-48 -183.5t-133 -128t-190 -46.5q-106 0 -191 46.5zM559.5 116q61.5 35 97 96.5t35.5 137.5t-35.5 137.5t-97 96.5t-138.5 35t-139.5 -35t-98 -96.5 t-35.5 -137.5t35.5 -137.5t98 -96.5t139.5 -35t138.5 35zM449.5 770q-17.5 10 -43.5 30q-15 14 -26 20.5t-22 6.5q-22 0 -36 -16.5t-15 -45.5h-54q2 56 28.5 89t69.5 33q24 0 42.5 -10.5t42.5 -30.5q17 -14 27 -20.5t21 -6.5q22 0 36 16t15 44h54q-2 -54 -28.5 -86.5 t-69.5 -32.5q-24 0 -41.5 10z" unicode="Õ" horiz-adv-x="840"/>
<glyph glyph-name="Odieresis" d="M230 38.5q-85 46.5 -133.5 128.5t-48.5 183t48.5 183t133.5 128.5t191 46.5q105 0 190 -46.5t133 -128t48 -183.5t-48 -183.5t-133 -128t-190 -46.5q-106 0 -191 46.5zM559.5 116q61.5 35 97 96.5t35.5 137.5t-35.5 137.5t-97 96.5t-138.5 35t-139.5 -35t-98 -96.5 t-35.5 -137.5t35.5 -137.5t98 -96.5t139.5 -35t138.5 35zM292 788.5q-15 14.5 -15 36.5t15 37t36 15t36 -15t15 -37t-15 -36.5t-36 -14.5t-36 14.5zM478 788.5q-15 14.5 -15 36.5t15 37t36 15t36 -15t15 -37t-15 -36.5t-36 -14.5t-36 14.5z" unicode="Ö" horiz-adv-x="840"/>
<glyph glyph-name="multiply" d="M347 350l129 -130l-54 -58l-131 132l-131 -132l-53 58l129 130l-129 130l53 58l131 -132l131 132l54 -58z" unicode="×" horiz-adv-x="582"/>
<glyph glyph-name="Oslash" d="M230 38.5q-85 46.5 -133.5 128.5t-48.5 183t48.5 183t133.5 128.5t191 46.5q105 0 190 -46.5t133 -128t48 -183.5t-48 -183.5t-133 -128t-190 -46.5q-106 0 -191 46.5zM559.5 116q61.5 35 97 96.5t35.5 137.5t-35.5 137.5t-97 96.5t-138.5 35t-139.5 -35t-98 -96.5 t-35.5 -137.5t35.5 -137.5t98 -96.5t139.5 -35t138.5 35zM683 770h78l-602 -840h-78z" unicode="Ø" horiz-adv-x="840"/>
<glyph glyph-name="Ugrave" d="M177 72q-78 80 -78 230v398h100v-394q0 -225 197 -225q96 0 147 55.5t51 169.5v394h97v-398q0 -151 -78 -230.5t-218 -79.5t-218 80zM213 887h122l136 -130h-90z" unicode="Ù" horiz-adv-x="791"/>
<glyph glyph-name="Uacute" d="M177 72q-78 80 -78 230v398h100v-394q0 -225 197 -225q96 0 147 55.5t51 169.5v394h97v-398q0 -151 -78 -230.5t-218 -79.5t-218 80zM457 887h122l-168 -130h-90z" unicode="Ú" horiz-adv-x="791"/>
<glyph glyph-name="Ucircumflex" d="M177 72q-78 80 -78 230v398h100v-394q0 -225 197 -225q96 0 147 55.5t51 169.5v394h97v-398q0 -151 -78 -230.5t-218 -79.5t-218 80zM488 757l-92 77l-92 -77h-87l133 130h92l133 -130h-87z" unicode="Û" horiz-adv-x="791"/>
<glyph glyph-name="Udieresis" d="M177 72q-78 80 -78 230v398h100v-394q0 -225 197 -225q96 0 147 55.5t51 169.5v394h97v-398q0 -151 -78 -230.5t-218 -79.5t-218 80zM267 788.5q-15 14.5 -15 36.5t15 37t36 15t36 -15t15 -37t-15 -36.5t-36 -14.5t-36 14.5zM453 788.5q-15 14.5 -15 36.5t15 37t36 15 t36 -15t15 -37t-15 -36.5t-36 -14.5t-36 14.5z" unicode="Ü" horiz-adv-x="791"/>
<glyph glyph-name="Yacute" d="M373 242v-242h-99v244l-278 456h107l224 -369l225 369h99zM385 887h122l-168 -130h-90z" unicode="Ý" horiz-adv-x="647"/>
<glyph glyph-name="Thorn" d="M592 548.5q78 -65.5 78 -179.5t-78 -179t-214 -65h-173v-125h-100v700h100v-86h173q136 0 214 -65.5zM520 252q50 41 50 117t-50 117t-145 41h-170v-316h170q95 0 145 41z" unicode="Þ" horiz-adv-x="722"/>
<glyph glyph-name="germandbls" d="M592 322.5q41 -48.5 41 -120.5q0 -64 -31 -111t-85.5 -72t-124.5 -25t-115 16l15 81q39 -13 96 -13q69 0 109 33t40 93t-43.5 93t-116.5 33h-57v81q75 1 118 37.5t43 97.5q0 54 -36.5 86t-102.5 32q-73 0 -114 -41.5t-41 -120.5v-502h-96v494q0 82 32 139t89 86t130 29 q70 0 123 -26t81 -71t28 -101q0 -54 -25 -95t-66 -66q68 -18 109 -66.5z" unicode="ß" horiz-adv-x="676"/>
<glyph glyph-name="agrave" d="M452.5 481q58.5 -54 58.5 -161v-320h-91v70q-24 -37 -68.5 -56.5t-105.5 -19.5q-89 0 -142.5 43t-53.5 113t51 112.5t162 42.5h152v19q0 62 -36 95t-106 33q-47 0 -92 -15.5t-76 -41.5l-40 72q41 33 98 50.5t121 17.5q110 0 168.5 -54zM357 92.5q40 24.5 58 69.5v74h-148 q-122 0 -122 -82q0 -40 31 -63t86 -23t95 24.5zM108 737h122l136 -130h-90z" unicode="à" horiz-adv-x="598"/>
<glyph glyph-name="aacute" d="M452.5 481q58.5 -54 58.5 -161v-320h-91v70q-24 -37 -68.5 -56.5t-105.5 -19.5q-89 0 -142.5 43t-53.5 113t51 112.5t162 42.5h152v19q0 62 -36 95t-106 33q-47 0 -92 -15.5t-76 -41.5l-40 72q41 33 98 50.5t121 17.5q110 0 168.5 -54zM357 92.5q40 24.5 58 69.5v74h-148 q-122 0 -122 -82q0 -40 31 -63t86 -23t95 24.5zM352 737h122l-168 -130h-90z" unicode="á" horiz-adv-x="598"/>
<glyph glyph-name="acircumflex" d="M452.5 481q58.5 -54 58.5 -161v-320h-91v70q-24 -37 -68.5 -56.5t-105.5 -19.5q-89 0 -142.5 43t-53.5 113t51 112.5t162 42.5h152v19q0 62 -36 95t-106 33q-47 0 -92 -15.5t-76 -41.5l-40 72q41 33 98 50.5t121 17.5q110 0 168.5 -54zM357 92.5q40 24.5 58 69.5v74h-148 q-122 0 -122 -82q0 -40 31 -63t86 -23t95 24.5zM383 607l-92 77l-92 -77h-87l133 130h92l133 -130h-87z" unicode="â" horiz-adv-x="598"/>
<glyph glyph-name="atilde" d="M452.5 481q58.5 -54 58.5 -161v-320h-91v70q-24 -37 -68.5 -56.5t-105.5 -19.5q-89 0 -142.5 43t-53.5 113t51 112.5t162 42.5h152v19q0 62 -36 95t-106 33q-47 0 -92 -15.5t-76 -41.5l-40 72q41 33 98 50.5t121 17.5q110 0 168.5 -54zM357 92.5q40 24.5 58 69.5v74h-148 q-122 0 -122 -82q0 -40 31 -63t86 -23t95 24.5zM319.5 620q-17.5 10 -43.5 30q-15 14 -26 20.5t-22 6.5q-22 0 -36 -16.5t-15 -45.5h-54q2 56 28.5 89t69.5 33q24 0 42.5 -10.5t42.5 -30.5q17 -14 27 -20.5t21 -6.5q22 0 36 16t15 44h54q-2 -54 -28.5 -86.5t-69.5 -32.5 q-24 0 -41.5 10z" unicode="ã" horiz-adv-x="598"/>
<glyph glyph-name="adieresis" d="M452.5 481q58.5 -54 58.5 -161v-320h-91v70q-24 -37 -68.5 -56.5t-105.5 -19.5q-89 0 -142.5 43t-53.5 113t51 112.5t162 42.5h152v19q0 62 -36 95t-106 33q-47 0 -92 -15.5t-76 -41.5l-40 72q41 33 98 50.5t121 17.5q110 0 168.5 -54zM357 92.5q40 24.5 58 69.5v74h-148 q-122 0 -122 -82q0 -40 31 -63t86 -23t95 24.5zM162 638.5q-15 14.5 -15 36.5t15 37t36 15t36 -15t15 -37t-15 -36.5t-36 -14.5t-36 14.5zM348 638.5q-15 14.5 -15 36.5t15 37t36 15t36 -15t15 -37t-15 -36.5t-36 -14.5t-36 14.5z" unicode="ä" horiz-adv-x="598"/>
<glyph glyph-name="aring" d="M452.5 481q58.5 -54 58.5 -161v-320h-91v70q-24 -37 -68.5 -56.5t-105.5 -19.5q-89 0 -142.5 43t-53.5 113t51 112.5t162 42.5h152v19q0 62 -36 95t-106 33q-47 0 -92 -15.5t-76 -41.5l-40 72q41 33 98 50.5t121 17.5q110 0 168.5 -54zM357 92.5q40 24.5 58 69.5v74h-148 q-122 0 -122 -82q0 -40 31 -63t86 -23t95 24.5zM212 625.5q-32 31.5 -32 76.5t32 77.5t78 32.5q47 0 79 -32.5t32 -77.5t-32 -76.5t-79 -31.5q-46 0 -78 31.5zM337.5 655q18.5 19 18.5 47q0 29 -19 48t-47 19t-46.5 -19t-18.5 -48q0 -28 18.5 -47t46.5 -19q29 0 47.5 19z " unicode="å" horiz-adv-x="598"/>
<glyph glyph-name="ae" d="M944 235h-432q8 -71 60 -114t132 -43q93 0 153 64l54 -62q-37 -42 -90.5 -64t-119.5 -22q-74 0 -134 26.5t-99 80.5q-31 -56 -87 -81.5t-125 -25.5q-96 0 -151 44t-55 116q0 66 51 108t162 42h152v20q0 62 -35.5 95t-105.5 33q-48 0 -93 -15.5t-76 -41.5l-40 72 q41 33 98 50.5t120 17.5q147 0 197 -94q35 44 87.5 69t115.5 25q75 0 135.5 -34.5t94.5 -95.5t34 -137q0 -19 -3 -33zM570 414q-48 -40 -57 -110h339q-8 70 -56.5 110t-113.5 40q-64 0 -112 -40zM374.5 104q40.5 36 40.5 97v34h-148q-122 0 -122 -79q0 -42 31.5 -65 t87.5 -23q70 0 110.5 36z" unicode="æ" horiz-adv-x="989"/>
<glyph glyph-name="ccedilla" d="M177.5 29q-63.5 35 -99.5 96.5t-36 139.5t36 139.5t99.5 96t144.5 34.5q72 0 128.5 -29t87.5 -84l-73 -47q-25 38 -62 57t-82 19q-52 0 -93.5 -23t-65 -65.5t-23.5 -97.5q0 -56 23.5 -98.5t65 -65.5t93.5 -23q45 0 82 19t62 57l73 -46q-31 -55 -87.5 -84.5t-128.5 -29.5 q-81 0 -144.5 35zM186 -202l21 49q30 -17 68 -17q56 0 56 40q0 18 -14 28.5t-43 10.5h-27l25 98h55l-15 -57q42 -4 64.5 -26.5t22.5 -56.5q0 -42 -34 -66.5t-90 -24.5q-52 0 -89 22z" unicode="ç" horiz-adv-x="571"/>
<glyph glyph-name="egrave" d="M568 233h-430q9 -70 61.5 -112.5t130.5 -42.5q95 0 153 64l53 -62q-36 -42 -89.5 -64t-119.5 -22q-84 0 -149 34.5t-100.5 96.5t-35.5 140q0 77 34.5 139t95 96.5t136.5 34.5t135.5 -34.5t93 -96.5t33.5 -142q0 -11 -2 -29zM192.5 412q-46.5 -42 -54.5 -110h340 q-8 67 -54.5 109.5t-115.5 42.5t-115.5 -42zM124 737h122l136 -130h-90z" unicode="è" horiz-adv-x="612"/>
<glyph glyph-name="eacute" d="M568 233h-430q9 -70 61.5 -112.5t130.5 -42.5q95 0 153 64l53 -62q-36 -42 -89.5 -64t-119.5 -22q-84 0 -149 34.5t-100.5 96.5t-35.5 140q0 77 34.5 139t95 96.5t136.5 34.5t135.5 -34.5t93 -96.5t33.5 -142q0 -11 -2 -29zM192.5 412q-46.5 -42 -54.5 -110h340 q-8 67 -54.5 109.5t-115.5 42.5t-115.5 -42zM368 737h122l-168 -130h-90z" unicode="é" horiz-adv-x="612"/>
<glyph glyph-name="ecircumflex" d="M568 233h-430q9 -70 61.5 -112.5t130.5 -42.5q95 0 153 64l53 -62q-36 -42 -89.5 -64t-119.5 -22q-84 0 -149 34.5t-100.5 96.5t-35.5 140q0 77 34.5 139t95 96.5t136.5 34.5t135.5 -34.5t93 -96.5t33.5 -142q0 -11 -2 -29zM192.5 412q-46.5 -42 -54.5 -110h340 q-8 67 -54.5 109.5t-115.5 42.5t-115.5 -42zM399 607l-92 77l-92 -77h-87l133 130h92l133 -130h-87z" unicode="ê" horiz-adv-x="612"/>
<glyph glyph-name="edieresis" d="M568 233h-430q9 -70 61.5 -112.5t130.5 -42.5q95 0 153 64l53 -62q-36 -42 -89.5 -64t-119.5 -22q-84 0 -149 34.5t-100.5 96.5t-35.5 140q0 77 34.5 139t95 96.5t136.5 34.5t135.5 -34.5t93 -96.5t33.5 -142q0 -11 -2 -29zM192.5 412q-46.5 -42 -54.5 -110h340 q-8 67 -54.5 109.5t-115.5 42.5t-115.5 -42zM178 638.5q-15 14.5 -15 36.5t15 37t36 15t36 -15t15 -37t-15 -36.5t-36 -14.5t-36 14.5zM364 638.5q-15 14.5 -15 36.5t15 37t36 15t36 -15t15 -37t-15 -36.5t-36 -14.5t-36 14.5z" unicode="ë" horiz-adv-x="612"/>
<glyph glyph-name="igrave" d="M91 530h96v-530h-96v530zM-44 737h122l136 -130h-90z" unicode="ì" horiz-adv-x="279"/>
<glyph glyph-name="iacute" d="M91 530h96v-530h-96v530zM200 737h122l-168 -130h-90z" unicode="í" horiz-adv-x="279"/>
<glyph glyph-name="icircumflex" d="M91 530h96v-530h-96v530zM211 607l-72 74l-72 -74h-82l109 130h90l109 -130h-82z" unicode="î" horiz-adv-x="279"/>
<glyph glyph-name="idieresis" d="M91 530h96v-530h-96v530zM32 639.5q-14 14.5 -14 35.5q0 22 14 36.5t36 14.5q21 0 35 -14.5t14 -36.5t-14 -36t-35 -14q-22 0 -36 14.5zM175 639.5q-14 14.5 -14 35.5q0 22 14 36.5t35 14.5q22 0 36 -14.5t14 -36.5t-14 -36t-36 -14q-21 0 -35 14.5z" unicode="ï" horiz-adv-x="279"/>
<glyph glyph-name="eth" d="M598 345q0 -108 -35.5 -187.5t-104 -122.5t-164.5 -43q-71 0 -128.5 27.5t-90.5 78.5t-33 118t33 117.5t91 78t131 27.5q68 0 120.5 -27.5t82.5 -79.5q1 12 1 34q0 149 -80 221l-267 -107l-26 63l217 88q-44 14 -94 14q-78 0 -145 -23l-16 82q73 22 161 22q117 0 199 -53 l89 36l26 -64l-56 -22q89 -100 89 -278zM392.5 93q39.5 20 60 52.5t20.5 70.5q0 40 -21.5 72.5t-59 51t-85.5 18.5q-78 0 -123 -39t-45 -103t45 -103.5t117 -39.5q52 0 91.5 20z" unicode="ð" horiz-adv-x="640"/>
<glyph glyph-name="ntilde" d="M534.5 476.5q59.5 -58.5 59.5 -171.5v-305h-96v294q0 77 -37 116t-106 39q-78 0 -123 -45.5t-45 -130.5v-273h-96v530h92v-80q29 41 78.5 63t112.5 22q101 0 160.5 -58.5zM371.5 620q-17.5 10 -43.5 30q-15 14 -26 20.5t-22 6.5q-22 0 -36 -16.5t-15 -45.5h-54 q2 56 28.5 89t69.5 33q24 0 42.5 -10.5t42.5 -30.5q17 -14 27 -20.5t21 -6.5q22 0 36 16t15 44h54q-2 -54 -28.5 -86.5t-69.5 -32.5q-24 0 -41.5 10z" unicode="ñ" horiz-adv-x="681"/>
<glyph glyph-name="ograve" d="M176 29q-63 35 -98.5 96.5t-35.5 139.5t35.5 139.5t98.5 96t142 34.5t141.5 -34.5t98 -96t35.5 -139.5t-35.5 -139.5t-98 -96.5t-141.5 -35t-142 35zM409.5 101.5q40.5 23.5 63.5 66t23 97.5t-23 97.5t-63.5 65.5t-91.5 23t-91.5 -23t-64 -65.5t-23.5 -97.5t23.5 -97.5 t64 -66t91.5 -23.5t91.5 23.5zM134 737h122l136 -130h-90z" unicode="ò" horiz-adv-x="635"/>
<glyph glyph-name="oacute" d="M176 29q-63 35 -98.5 96.5t-35.5 139.5t35.5 139.5t98.5 96t142 34.5t141.5 -34.5t98 -96t35.5 -139.5t-35.5 -139.5t-98 -96.5t-141.5 -35t-142 35zM409.5 101.5q40.5 23.5 63.5 66t23 97.5t-23 97.5t-63.5 65.5t-91.5 23t-91.5 -23t-64 -65.5t-23.5 -97.5t23.5 -97.5 t64 -66t91.5 -23.5t91.5 23.5zM378 737h122l-168 -130h-90z" unicode="ó" horiz-adv-x="635"/>
<glyph glyph-name="ocircumflex" d="M176 29q-63 35 -98.5 96.5t-35.5 139.5t35.5 139.5t98.5 96t142 34.5t141.5 -34.5t98 -96t35.5 -139.5t-35.5 -139.5t-98 -96.5t-141.5 -35t-142 35zM409.5 101.5q40.5 23.5 63.5 66t23 97.5t-23 97.5t-63.5 65.5t-91.5 23t-91.5 -23t-64 -65.5t-23.5 -97.5t23.5 -97.5 t64 -66t91.5 -23.5t91.5 23.5zM409 607l-92 77l-92 -77h-87l133 130h92l133 -130h-87z" unicode="ô" horiz-adv-x="635"/>
<glyph glyph-name="otilde" d="M176 29q-63 35 -98.5 96.5t-35.5 139.5t35.5 139.5t98.5 96t142 34.5t141.5 -34.5t98 -96t35.5 -139.5t-35.5 -139.5t-98 -96.5t-141.5 -35t-142 35zM409.5 101.5q40.5 23.5 63.5 66t23 97.5t-23 97.5t-63.5 65.5t-91.5 23t-91.5 -23t-64 -65.5t-23.5 -97.5t23.5 -97.5 t64 -66t91.5 -23.5t91.5 23.5zM345.5 620q-17.5 10 -43.5 30q-15 14 -26 20.5t-22 6.5q-22 0 -36 -16.5t-15 -45.5h-54q2 56 28.5 89t69.5 33q24 0 42.5 -10.5t42.5 -30.5q17 -14 27 -20.5t21 -6.5q22 0 36 16t15 44h54q-2 -54 -28.5 -86.5t-69.5 -32.5q-24 0 -41.5 10z" unicode="õ" horiz-adv-x="635"/>
<glyph glyph-name="odieresis" d="M176 29q-63 35 -98.5 96.5t-35.5 139.5t35.5 139.5t98.5 96t142 34.5t141.5 -34.5t98 -96t35.5 -139.5t-35.5 -139.5t-98 -96.5t-141.5 -35t-142 35zM409.5 101.5q40.5 23.5 63.5 66t23 97.5t-23 97.5t-63.5 65.5t-91.5 23t-91.5 -23t-64 -65.5t-23.5 -97.5t23.5 -97.5 t64 -66t91.5 -23.5t91.5 23.5zM188 638.5q-15 14.5 -15 36.5t15 37t36 15t36 -15t15 -37t-15 -36.5t-36 -14.5t-36 14.5zM374 638.5q-15 14.5 -15 36.5t15 37t36 15t36 -15t15 -37t-15 -36.5t-36 -14.5t-36 14.5z" unicode="ö" horiz-adv-x="635"/>
<glyph glyph-name="divide" d="M250.5 504.5q-16.5 17.5 -16.5 42.5q0 26 16.5 43t40.5 17q25 0 41.5 -17t16.5 -43t-16.5 -43t-41.5 -17q-24 0 -40.5 17.5zM67 389h448v-79h-448v79zM250.5 110.5q-16.5 17.5 -16.5 43.5q0 25 16.5 42t40.5 17q25 0 41.5 -17t16.5 -42q0 -26 -16.5 -43.5t-41.5 -17.5 q-24 0 -40.5 17.5z" unicode="÷" horiz-adv-x="582"/>
<glyph glyph-name="oslash" d="M176 29q-63 35 -98.5 96.5t-35.5 139.5t35.5 139.5t98.5 96t142 34.5t141.5 -34.5t98 -96t35.5 -139.5t-35.5 -139.5t-98 -96.5t-141.5 -35t-142 35zM409.5 101.5q40.5 23.5 63.5 66t23 97.5t-23 97.5t-63.5 65.5t-91.5 23t-91.5 -23t-64 -65.5t-23.5 -97.5t23.5 -97.5 t64 -66t91.5 -23.5t91.5 23.5zM508 598h59l-440 -669h-60z" unicode="ø" horiz-adv-x="635"/>
<glyph glyph-name="ugrave" d="M585 530v-530h-91v80q-29 -41 -76.5 -63.5t-103.5 -22.5q-106 0 -167 58.5t-61 172.5v305h96v-294q0 -77 37 -116.5t106 -39.5q76 0 120 46t44 130v274h96zM153 737h122l136 -130h-90z" unicode="ù" horiz-adv-x="677"/>
<glyph glyph-name="uacute" d="M585 530v-530h-91v80q-29 -41 -76.5 -63.5t-103.5 -22.5q-106 0 -167 58.5t-61 172.5v305h96v-294q0 -77 37 -116.5t106 -39.5q76 0 120 46t44 130v274h96zM397 737h122l-168 -130h-90z" unicode="ú" horiz-adv-x="677"/>
<glyph glyph-name="ucircumflex" d="M585 530v-530h-91v80q-29 -41 -76.5 -63.5t-103.5 -22.5q-106 0 -167 58.5t-61 172.5v305h96v-294q0 -77 37 -116.5t106 -39.5q76 0 120 46t44 130v274h96zM428 607l-92 77l-92 -77h-87l133 130h92l133 -130h-87z" unicode="û" horiz-adv-x="677"/>
<glyph glyph-name="udieresis" d="M585 530v-530h-91v80q-29 -41 -76.5 -63.5t-103.5 -22.5q-106 0 -167 58.5t-61 172.5v305h96v-294q0 -77 37 -116.5t106 -39.5q76 0 120 46t44 130v274h96zM207 638.5q-15 14.5 -15 36.5t15 37t36 15t36 -15t15 -37t-15 -36.5t-36 -14.5t-36 14.5zM393 638.5 q-15 14.5 -15 36.5t15 37t36 15t36 -15t15 -37t-15 -36.5t-36 -14.5t-36 14.5z" unicode="ü" horiz-adv-x="677"/>
<glyph glyph-name="yacute" d="M560 530l-257 -583q-34 -81 -79.5 -114t-109.5 -33q-39 0 -75.5 12.5t-60.5 36.5l41 72q41 -39 95 -39q35 0 58.5 18.5t42.5 63.5l17 37l-234 529h100l185 -424l183 424h94zM327 737h122l-168 -130h-90z" unicode="ý" horiz-adv-x="559"/>
<glyph glyph-name="thorn" d="M510 501q61 -34 95.5 -95t34.5 -141t-34.5 -141.5t-95.5 -95.5t-138 -34q-57 0 -104.5 22t-80.5 64v-274h-96v936h96v-291q32 41 79.5 62.5t105.5 21.5q77 0 138 -34zM455.5 101.5q40.5 23.5 64 66t23.5 97.5t-23.5 97.5t-64 65.5t-91.5 23q-50 0 -90.5 -23.5t-64 -65.5 t-23.5 -97t23 -97.5t64 -66t91 -23.5q51 0 91.5 23.5z" unicode="þ" horiz-adv-x="682"/>
<glyph glyph-name="ydieresis" d="M560 530l-257 -583q-34 -81 -79.5 -114t-109.5 -33q-39 0 -75.5 12.5t-60.5 36.5l41 72q41 -39 95 -39q35 0 58.5 18.5t42.5 63.5l17 37l-234 529h100l185 -424l183 424h94zM137 638.5q-15 14.5 -15 36.5t15 37t36 15t36 -15t15 -37t-15 -36.5t-36 -14.5t-36 14.5z M323 638.5q-15 14.5 -15 36.5t15 37t36 15t36 -15t15 -37t-15 -36.5t-36 -14.5t-36 14.5z" unicode="ÿ" horiz-adv-x="559"/>
<glyph glyph-name="Amacron" d="M551 175h-372l-77 -175h-103l317 700h99l318 -700h-105zM516 255l-151 343l-151 -343h302zM203 852h326v-60h-326v60z" unicode="Ā" horiz-adv-x="732"/>
<glyph glyph-name="amacron" d="M452.5 481q58.5 -54 58.5 -161v-320h-91v70q-24 -37 -68.5 -56.5t-105.5 -19.5q-89 0 -142.5 43t-53.5 113t51 112.5t162 42.5h152v19q0 62 -36 95t-106 33q-47 0 -92 -15.5t-76 -41.5l-40 72q41 33 98 50.5t121 17.5q110 0 168.5 -54zM357 92.5q40 24.5 58 69.5v74h-148 q-122 0 -122 -82q0 -40 31 -63t86 -23t95 24.5zM128 702h326v-60h-326v60z" unicode="ā" horiz-adv-x="598"/>
<glyph glyph-name="Abreve" d="M551 175h-372l-77 -175h-103l317 700h99l318 -700h-105zM516 255l-151 343l-151 -343h302zM251.5 788q-45.5 37 -47.5 99h65q1 -36 28.5 -58t68.5 -22t68.5 22t28.5 58h65q-2 -62 -47.5 -99t-114.5 -37t-114.5 37z" unicode="Ă" horiz-adv-x="732"/>
<glyph glyph-name="abreve" d="M452.5 481q58.5 -54 58.5 -161v-320h-91v70q-24 -37 -68.5 -56.5t-105.5 -19.5q-89 0 -142.5 43t-53.5 113t51 112.5t162 42.5h152v19q0 62 -36 95t-106 33q-47 0 -92 -15.5t-76 -41.5l-40 72q41 33 98 50.5t121 17.5q110 0 168.5 -54zM357 92.5q40 24.5 58 69.5v74h-148 q-122 0 -122 -82q0 -40 31 -63t86 -23t95 24.5zM176.5 638q-45.5 37 -47.5 99h65q1 -36 28.5 -58t68.5 -22t68.5 22t28.5 58h65q-2 -62 -47.5 -99t-114.5 -37t-114.5 37z" unicode="ă" horiz-adv-x="598"/>
<glyph glyph-name="Aogonek" d="M551 175h-372l-77 -175h-103l317 700h99l318 -700h-105zM516 255l-151 343l-151 -343h302zM577 -196.5q-32 27.5 -32 73.5q0 44 34 84.5t109 70.5l45 -32q-64 -28 -91.5 -56.5t-27.5 -59.5q0 -24 17 -38t44 -14q37 0 62 17l18 -49q-38 -24 -90 -24q-56 0 -88 27.5z" unicode="Ą" horiz-adv-x="732"/>
<glyph glyph-name="aogonek" d="M452.5 481q58.5 -54 58.5 -161v-320h-91v70q-24 -37 -68.5 -56.5t-105.5 -19.5q-89 0 -142.5 43t-53.5 113t51 112.5t162 42.5h152v19q0 62 -36 95t-106 33q-47 0 -92 -15.5t-76 -41.5l-40 72q41 33 98 50.5t121 17.5q110 0 168.5 -54zM357 92.5q40 24.5 58 69.5v74h-148 q-122 0 -122 -82q0 -40 31 -63t86 -23t95 24.5zM355 -196.5q-32 27.5 -32 73.5q0 44 34 84.5t109 70.5l45 -32q-64 -28 -91.5 -56.5t-27.5 -59.5q0 -24 17 -38t44 -14q37 0 62 17l18 -49q-38 -24 -90 -24q-56 0 -88 27.5z" unicode="ą" horiz-adv-x="598"/>
<glyph glyph-name="Cacute" d="M228.5 38.5q-84.5 46.5 -132.5 128t-48 183.5t48 183.5t133 128t190 46.5q82 0 150 -27.5t116 -81.5l-65 -63q-79 83 -197 83q-78 0 -141 -35t-98.5 -96.5t-35.5 -137.5t35.5 -137.5t98.5 -96.5t141 -35q117 0 197 84l65 -63q-48 -54 -116.5 -82t-150.5 -28 q-105 0 -189.5 46.5zM472 887h122l-168 -130h-90z" unicode="Ć" horiz-adv-x="723"/>
<glyph glyph-name="cacute" d="M177.5 29q-63.5 35 -99.5 96.5t-36 139.5t36 139.5t99.5 96t144.5 34.5q72 0 128.5 -29t87.5 -84l-73 -47q-25 38 -62 57t-82 19q-52 0 -93.5 -23t-65 -65.5t-23.5 -97.5q0 -56 23.5 -98.5t65 -65.5t93.5 -23q45 0 82 19t62 57l73 -46q-31 -55 -87.5 -84.5t-128.5 -29.5 q-81 0 -144.5 35zM364 737h122l-168 -130h-90z" unicode="ć" horiz-adv-x="571"/>
<glyph glyph-name="Ccircumflex" d="M228.5 38.5q-84.5 46.5 -132.5 128t-48 183.5t48 183.5t133 128t190 46.5q82 0 150 -27.5t116 -81.5l-65 -63q-79 83 -197 83q-78 0 -141 -35t-98.5 -96.5t-35.5 -137.5t35.5 -137.5t98.5 -96.5t141 -35q117 0 197 84l65 -63q-48 -54 -116.5 -82t-150.5 -28 q-105 0 -189.5 46.5zM503 757l-92 77l-92 -77h-87l133 130h92l133 -130h-87z" unicode="Ĉ" horiz-adv-x="723"/>
<glyph glyph-name="ccircumflex" d="M177.5 29q-63.5 35 -99.5 96.5t-36 139.5t36 139.5t99.5 96t144.5 34.5q72 0 128.5 -29t87.5 -84l-73 -47q-25 38 -62 57t-82 19q-52 0 -93.5 -23t-65 -65.5t-23.5 -97.5q0 -56 23.5 -98.5t65 -65.5t93.5 -23q45 0 82 19t62 57l73 -46q-31 -55 -87.5 -84.5t-128.5 -29.5 q-81 0 -144.5 35zM395 607l-92 77l-92 -77h-87l133 130h92l133 -130h-87z" unicode="ĉ" horiz-adv-x="571"/>
<glyph glyph-name="Cdotaccent" d="M228.5 38.5q-84.5 46.5 -132.5 128t-48 183.5t48 183.5t133 128t190 46.5q82 0 150 -27.5t116 -81.5l-65 -63q-79 83 -197 83q-78 0 -141 -35t-98.5 -96.5t-35.5 -137.5t35.5 -137.5t98.5 -96.5t141 -35q117 0 197 84l65 -63q-48 -54 -116.5 -82t-150.5 -28 q-105 0 -189.5 46.5zM369 792q-17 17 -17 42t17 42t42 17t42 -17t17 -42t-17 -42t-42 -17t-42 17z" unicode="Ċ" horiz-adv-x="723"/>
<glyph glyph-name="cdotaccent" d="M177.5 29q-63.5 35 -99.5 96.5t-36 139.5t36 139.5t99.5 96t144.5 34.5q72 0 128.5 -29t87.5 -84l-73 -47q-25 38 -62 57t-82 19q-52 0 -93.5 -23t-65 -65.5t-23.5 -97.5q0 -56 23.5 -98.5t65 -65.5t93.5 -23q45 0 82 19t62 57l73 -46q-31 -55 -87.5 -84.5t-128.5 -29.5 q-81 0 -144.5 35zM261 642q-17 17 -17 42t17 42t42 17t42 -17t17 -42t-17 -42t-42 -17t-42 17z" unicode="ċ" horiz-adv-x="571"/>
<glyph glyph-name="Ccaron" d="M228.5 38.5q-84.5 46.5 -132.5 128t-48 183.5t48 183.5t133 128t190 46.5q82 0 150 -27.5t116 -81.5l-65 -63q-79 83 -197 83q-78 0 -141 -35t-98.5 -96.5t-35.5 -137.5t35.5 -137.5t98.5 -96.5t141 -35q117 0 197 84l65 -63q-48 -54 -116.5 -82t-150.5 -28 q-105 0 -189.5 46.5zM590 887l-133 -130h-92l-133 130h87l92 -76l92 76h87z" unicode="Č" horiz-adv-x="723"/>
<glyph glyph-name="ccaron" d="M177.5 29q-63.5 35 -99.5 96.5t-36 139.5t36 139.5t99.5 96t144.5 34.5q72 0 128.5 -29t87.5 -84l-73 -47q-25 38 -62 57t-82 19q-52 0 -93.5 -23t-65 -65.5t-23.5 -97.5q0 -56 23.5 -98.5t65 -65.5t93.5 -23q45 0 82 19t62 57l73 -46q-31 -55 -87.5 -84.5t-128.5 -29.5 q-81 0 -144.5 35zM482 737l-133 -130h-92l-133 130h87l92 -76l92 76h87z" unicode="č" horiz-adv-x="571"/>
<glyph glyph-name="Dcaron" d="M105 700h295q111 0 197 -44t133.5 -123.5t47.5 -182.5t-47.5 -182.5t-133.5 -123.5t-197 -44h-295v700zM394 87q85 0 149.5 33t99.5 92.5t35 137.5t-35 137.5t-99.5 92.5t-149.5 33h-189v-526h189zM558 886l-133 -130h-92l-133 130h87l92 -76l92 76h87z" unicode="Ď" horiz-adv-x="826"/>
<glyph glyph-name="dcaron" d="M591 742v-742h-92v84q-32 -44 -81 -67t-108 -23q-77 0 -138 34t-95.5 95.5t-34.5 141.5t34.5 141t95.5 95t138 34q57 0 105 -21.5t80 -63.5v292h96zM409 101.5q41 23.5 64 66t23 97.5t-23 97.5t-64 65.5t-91 23q-51 0 -91.5 -23t-64 -65.5t-23.5 -97.5t23.5 -97.5t64 -66 t91.5 -23.5q50 0 91 23.5zM680 775h79l-12 -193h-67v193z" unicode="ď" horiz-adv-x="682"/>
<glyph glyph-name="Dcroat" d="M113 700h295q111 0 197 -44t133.5 -123.5t47.5 -182.5t-47.5 -182.5t-133.5 -123.5t-197 -44h-295v700zM402 87q85 0 149.5 33t99.5 92.5t35 137.5t-35 137.5t-99.5 92.5t-149.5 33h-189v-526h189zM11 396h400v-79h-400v79z" unicode="Đ" horiz-adv-x="834"/>
<glyph glyph-name="dcroat" d="M591 742v-742h-92v84q-32 -44 -81 -67t-108 -23q-77 0 -138 34t-95.5 95.5t-34.5 141.5t34.5 141t95.5 95t138 34q57 0 105 -21.5t80 -63.5v292h96zM409 101.5q41 23.5 64 66t23 97.5t-23 97.5t-64 65.5t-91 23q-51 0 -91.5 -23t-64 -65.5t-23.5 -97.5t23.5 -97.5t64 -66 t91.5 -23.5q50 0 91 23.5zM286 668h396v-68h-396v68z" unicode="đ" horiz-adv-x="682"/>
<glyph glyph-name="Emacron" d="M613 87v-87h-508v700h494v-87h-394v-215h351v-85h-351v-226h408zM190 852h326v-60h-326v60z" unicode="Ē" horiz-adv-x="670"/>
<glyph glyph-name="emacron" d="M568 233h-430q9 -70 61.5 -112.5t130.5 -42.5q95 0 153 64l53 -62q-36 -42 -89.5 -64t-119.5 -22q-84 0 -149 34.5t-100.5 96.5t-35.5 140q0 77 34.5 139t95 96.5t136.5 34.5t135.5 -34.5t93 -96.5t33.5 -142q0 -11 -2 -29zM192.5 412q-46.5 -42 -54.5 -110h340 q-8 67 -54.5 109.5t-115.5 42.5t-115.5 -42zM144 702h326v-60h-326v60z" unicode="ē" horiz-adv-x="612"/>
<glyph glyph-name="Ebreve" d="M613 87v-87h-508v700h494v-87h-394v-215h351v-85h-351v-226h408zM238.5 788q-45.5 37 -47.5 99h65q1 -36 28.5 -58t68.5 -22t68.5 22t28.5 58h65q-2 -62 -47.5 -99t-114.5 -37t-114.5 37z" unicode="Ĕ" horiz-adv-x="670"/>
<glyph glyph-name="ebreve" d="M568 233h-430q9 -70 61.5 -112.5t130.5 -42.5q95 0 153 64l53 -62q-36 -42 -89.5 -64t-119.5 -22q-84 0 -149 34.5t-100.5 96.5t-35.5 140q0 77 34.5 139t95 96.5t136.5 34.5t135.5 -34.5t93 -96.5t33.5 -142q0 -11 -2 -29zM192.5 412q-46.5 -42 -54.5 -110h340 q-8 67 -54.5 109.5t-115.5 42.5t-115.5 -42zM192.5 638q-45.5 37 -47.5 99h65q1 -36 28.5 -58t68.5 -22t68.5 22t28.5 58h65q-2 -62 -47.5 -99t-114.5 -37t-114.5 37z" unicode="ĕ" horiz-adv-x="612"/>
<glyph glyph-name="Edotaccent" d="M613 87v-87h-508v700h494v-87h-394v-215h351v-85h-351v-226h408zM311 792q-17 17 -17 42t17 42t42 17t42 -17t17 -42t-17 -42t-42 -17t-42 17z" unicode="Ė" horiz-adv-x="670"/>
<glyph glyph-name="edotaccent" d="M568 233h-430q9 -70 61.5 -112.5t130.5 -42.5q95 0 153 64l53 -62q-36 -42 -89.5 -64t-119.5 -22q-84 0 -149 34.5t-100.5 96.5t-35.5 140q0 77 34.5 139t95 96.5t136.5 34.5t135.5 -34.5t93 -96.5t33.5 -142q0 -11 -2 -29zM192.5 412q-46.5 -42 -54.5 -110h340 q-8 67 -54.5 109.5t-115.5 42.5t-115.5 -42zM265 642q-17 17 -17 42t17 42t42 17t42 -17t17 -42t-17 -42t-42 -17t-42 17z" unicode="ė" horiz-adv-x="612"/>
<glyph glyph-name="Eogonek" d="M613 87v-87h-508v700h494v-87h-394v-215h351v-85h-351v-226h408zM457 -196.5q-32 27.5 -32 73.5q0 44 34 84.5t109 70.5l45 -32q-64 -28 -91.5 -56.5t-27.5 -59.5q0 -24 17 -38t44 -14q37 0 62 17l18 -49q-38 -24 -90 -24q-56 0 -88 27.5z" unicode="Ę" horiz-adv-x="670"/>
<glyph glyph-name="eogonek" d="M568 233h-430q9 -70 61.5 -112.5t130.5 -42.5q95 0 153 64l53 -62q-9 -10 -21.5 -21t-17.5 -15q-63 -53 -88 -89.5t-25 -67.5q0 -27 17 -41t45 -14q16 0 32.5 4.5t28.5 12.5l19 -49q-40 -24 -90 -24q-55 0 -87.5 28.5t-32.5 76.5q0 62 49 115q-24 -2 -38 -2 q-84 0 -149 34.5t-100.5 96.5t-35.5 140q0 77 34.5 139t95 96.5t136.5 34.5t135.5 -34.5t93 -96.5t33.5 -142q0 -11 -2 -29zM192.5 412q-46.5 -42 -54.5 -110h340q-8 67 -54.5 109.5t-115.5 42.5t-115.5 -42z" unicode="ę" horiz-adv-x="612"/>
<glyph glyph-name="Ecaron" d="M613 87v-87h-508v700h494v-87h-394v-215h351v-85h-351v-226h408zM532 887l-133 -130h-92l-133 130h87l92 -76l92 76h87z" unicode="Ě" horiz-adv-x="670"/>
<glyph glyph-name="ecaron" d="M568 233h-430q9 -70 61.5 -112.5t130.5 -42.5q95 0 153 64l53 -62q-36 -42 -89.5 -64t-119.5 -22q-84 0 -149 34.5t-100.5 96.5t-35.5 140q0 77 34.5 139t95 96.5t136.5 34.5t135.5 -34.5t93 -96.5t33.5 -142q0 -11 -2 -29zM192.5 412q-46.5 -42 -54.5 -110h340 q-8 67 -54.5 109.5t-115.5 42.5t-115.5 -42zM486 737l-133 -130h-92l-133 130h87l92 -76l92 76h87z" unicode="ě" horiz-adv-x="612"/>
<glyph glyph-name="Gcircumflex" d="M590 354h96v-273q-52 -43 -121 -66t-144 -23q-106 0 -191 46.5t-133.5 128t-48.5 183.5t48.5 184t134 128t192.5 46q84 0 152.5 -27.5t116.5 -80.5l-62 -62q-84 81 -203 81q-80 0 -143.5 -34.5t-99.5 -96t-36 -138.5q0 -76 36 -137.5t99.5 -96.5t142.5 -35q94 0 164 45 v228zM502 757l-92 77l-92 -77h-87l133 130h92l133 -130h-87z" unicode="Ĝ" horiz-adv-x="772"/>
<glyph glyph-name="gcircumflex" d="M598 530v-458q0 -139 -69 -205.5t-206 -66.5q-75 0 -143 20.5t-110 58.5l46 74q37 -32 91.5 -50.5t112.5 -18.5q93 0 137.5 44t44.5 134v42q-34 -41 -83.5 -61.5t-107.5 -20.5q-76 0 -137.5 32.5t-96.5 91t-35 133.5t35 133.5t96.5 90.5t137.5 32q60 0 111.5 -22 t84.5 -65v82h91zM415.5 128q41.5 22 65 61.5t23.5 89.5q0 77 -51 124.5t-131 47.5q-81 0 -132 -47.5t-51 -124.5q0 -50 23.5 -89.5t65 -61.5t94.5 -22q52 0 93.5 22zM421 607l-92 77l-92 -77h-87l133 130h92l133 -130h-87z" unicode="ĝ" horiz-adv-x="690"/>
<glyph glyph-name="Gbreve" d="M590 354h96v-273q-52 -43 -121 -66t-144 -23q-106 0 -191 46.5t-133.5 128t-48.5 183.5t48.5 184t134 128t192.5 46q84 0 152.5 -27.5t116.5 -80.5l-62 -62q-84 81 -203 81q-80 0 -143.5 -34.5t-99.5 -96t-36 -138.5q0 -76 36 -137.5t99.5 -96.5t142.5 -35q94 0 164 45 v228zM295.5 788q-45.5 37 -47.5 99h65q1 -36 28.5 -58t68.5 -22t68.5 22t28.5 58h65q-2 -62 -47.5 -99t-114.5 -37t-114.5 37z" unicode="Ğ" horiz-adv-x="772"/>
<glyph glyph-name="gbreve" d="M598 530v-458q0 -139 -69 -205.5t-206 -66.5q-75 0 -143 20.5t-110 58.5l46 74q37 -32 91.5 -50.5t112.5 -18.5q93 0 137.5 44t44.5 134v42q-34 -41 -83.5 -61.5t-107.5 -20.5q-76 0 -137.5 32.5t-96.5 91t-35 133.5t35 133.5t96.5 90.5t137.5 32q60 0 111.5 -22 t84.5 -65v82h91zM415.5 128q41.5 22 65 61.5t23.5 89.5q0 77 -51 124.5t-131 47.5q-81 0 -132 -47.5t-51 -124.5q0 -50 23.5 -89.5t65 -61.5t94.5 -22q52 0 93.5 22zM214.5 638q-45.5 37 -47.5 99h65q1 -36 28.5 -58t68.5 -22t68.5 22t28.5 58h65q-2 -62 -47.5 -99 t-114.5 -37t-114.5 37z" unicode="ğ" horiz-adv-x="690"/>
<glyph glyph-name="Gdotaccent" d="M590 354h96v-273q-52 -43 -121 -66t-144 -23q-106 0 -191 46.5t-133.5 128t-48.5 183.5t48.5 184t134 128t192.5 46q84 0 152.5 -27.5t116.5 -80.5l-62 -62q-84 81 -203 81q-80 0 -143.5 -34.5t-99.5 -96t-36 -138.5q0 -76 36 -137.5t99.5 -96.5t142.5 -35q94 0 164 45 v228zM368 792q-17 17 -17 42t17 42t42 17t42 -17t17 -42t-17 -42t-42 -17t-42 17z" unicode="Ġ" horiz-adv-x="772"/>
<glyph glyph-name="gdotaccent" d="M598 530v-458q0 -139 -69 -205.5t-206 -66.5q-75 0 -143 20.5t-110 58.5l46 74q37 -32 91.5 -50.5t112.5 -18.5q93 0 137.5 44t44.5 134v42q-34 -41 -83.5 -61.5t-107.5 -20.5q-76 0 -137.5 32.5t-96.5 91t-35 133.5t35 133.5t96.5 90.5t137.5 32q60 0 111.5 -22 t84.5 -65v82h91zM415.5 128q41.5 22 65 61.5t23.5 89.5q0 77 -51 124.5t-131 47.5q-81 0 -132 -47.5t-51 -124.5q0 -50 23.5 -89.5t65 -61.5t94.5 -22q52 0 93.5 22zM287 642q-17 17 -17 42t17 42t42 17t42 -17t17 -42t-17 -42t-42 -17t-42 17z" unicode="ġ" horiz-adv-x="690"/>
<glyph glyph-name="Gcommaaccent" d="M590 354h96v-273q-52 -43 -121 -66t-144 -23q-106 0 -191 46.5t-133.5 128t-48.5 183.5t48.5 184t134 128t192.5 46q84 0 152.5 -27.5t116.5 -80.5l-62 -62q-84 81 -203 81q-80 0 -143.5 -34.5t-99.5 -96t-36 -138.5q0 -76 36 -137.5t99.5 -96.5t142.5 -35q94 0 164 45 v228zM442 -107q14 -13 14 -33q0 -24 -13 -51l-30 -72h-50l23 80q-15 5 -23.5 16t-8.5 27q0 20 14 33t37 13t37 -13z" unicode="Ģ" horiz-adv-x="772"/>
<glyph glyph-name="gcommaaccent" d="M598 530v-458q0 -139 -69 -205.5t-206 -66.5q-75 0 -143 20.5t-110 58.5l46 74q37 -32 91.5 -50.5t112.5 -18.5q93 0 137.5 44t44.5 134v42q-34 -41 -83.5 -61.5t-107.5 -20.5q-76 0 -137.5 32.5t-96.5 91t-35 133.5t35 133.5t96.5 90.5t137.5 32q60 0 111.5 -22 t84.5 -65v82h91zM415.5 128q41.5 22 65 61.5t23.5 89.5q0 77 -51 124.5t-131 47.5q-81 0 -132 -47.5t-51 -124.5q0 -50 23.5 -89.5t65 -61.5t94.5 -22q52 0 93.5 22zM376 673.5q9 -10.5 9 -26.5q0 -21 -15 -33.5t-41 -12.5t-41 13t-15 33t15 50l37 94h55l-29 -102 q16 -5 25 -15.5z" unicode="ģ" horiz-adv-x="690"/>
<glyph glyph-name="Hcircumflex" d="M707 700v-700h-100v312h-402v-312h-100v700h100v-301h402v301h100zM497 757l-92 77l-92 -77h-87l133 130h92l133 -130h-87z" unicode="Ĥ" horiz-adv-x="812"/>
<glyph glyph-name="hcircumflex" d="M534.5 476.5q59.5 -58.5 59.5 -171.5v-305h-96v294q0 77 -37 116t-106 39q-78 0 -123 -45.5t-45 -130.5v-273h-96v742h96v-287q30 38 78.5 59t108.5 21q101 0 160.5 -58.5zM231 799l-92 77l-92 -77h-87l133 130h92l133 -130h-87z" unicode="ĥ" horiz-adv-x="681"/>
<glyph glyph-name="Hbar" d="M715 700v-700h-100v312h-402v-312h-100v700h100v-301h402v301h100zM9 592h807v-79h-807v79z" unicode="Ħ" horiz-adv-x="828"/>
<glyph glyph-name="hbar" d="M534.5 476.5q59.5 -58.5 59.5 -171.5v-305h-96v294q0 77 -37 116t-106 39q-78 0 -123 -45.5t-45 -130.5v-273h-96v742h96v-287q30 38 78.5 59t108.5 21q101 0 160.5 -58.5zM0 668h396v-68h-396v68z" unicode="ħ" horiz-adv-x="681"/>
<glyph glyph-name="Itilde" d="M105 700h100v-700h-100v700zM183.5 770q-17.5 10 -43.5 30q-15 14 -26 20.5t-22 6.5q-22 0 -36 -16.5t-15 -45.5h-54q2 56 28.5 89t69.5 33q24 0 42.5 -10.5t42.5 -30.5q17 -14 27 -20.5t21 -6.5q22 0 36 16t15 44h54q-2 -54 -28.5 -86.5t-69.5 -32.5q-24 0 -41.5 10z " unicode="Ĩ" horiz-adv-x="310"/>
<glyph glyph-name="itilde" d="M91 530h96v-530h-96v530zM160 620.5q-16 10.5 -36 30.5q-14 14 -22.5 20t-17.5 6q-16 0 -25 -16.5t-9 -45.5h-54q0 58 22 90t61 32q23 0 39 -10.5t36 -30.5q13 -13 22 -19.5t18 -6.5q16 0 25 16t9 43h54q0 -56 -22 -87.5t-61 -31.5q-23 0 -39 10.5z" unicode="ĩ" horiz-adv-x="279"/>
<glyph glyph-name="Imacron" d="M105 700h100v-700h-100v700zM22 852h266v-60h-266v60z" unicode="Ī" horiz-adv-x="310"/>
<glyph glyph-name="imacron" d="M91 530h96v-530h-96v530zM6 702h266v-60h-266v60z" unicode="ī" horiz-adv-x="279"/>
<glyph glyph-name="Ibreve" d="M105 700h100v-700h-100v700zM40.5 788q-45.5 37 -47.5 99h65q1 -36 28.5 -58t68.5 -22t68.5 22t28.5 58h65q-2 -62 -47.5 -99t-114.5 -37t-114.5 37z" unicode="Ĭ" horiz-adv-x="310"/>
<glyph glyph-name="ibreve" d="M91 530h96v-530h-96v530zM40.5 638q-38.5 37 -38.5 99h62q0 -37 20.5 -58.5t54.5 -21.5t54.5 21.5t20.5 58.5h62q0 -62 -38.5 -99t-98.5 -37t-98.5 37z" unicode="ĭ" horiz-adv-x="279"/>
<glyph glyph-name="Iogonek" d="M105 700h100v-700h-100v700zM105.5 -197.5q-27.5 26.5 -27.5 70.5q0 87 92 158l35 -31q-34 -32 -46.5 -60.5t-12.5 -55.5q0 -24 12.5 -38t31.5 -14q17 0 34 12l17 -48q-23 -20 -63 -20q-45 0 -72.5 26.5z" unicode="Į" horiz-adv-x="310"/>
<glyph glyph-name="iogonek" d="M91 530h96v-530h-96v530zM92.5 650q-18.5 18 -18.5 44t18.5 44.5t46.5 18.5t46.5 -17.5t18.5 -43.5q0 -27 -18.5 -45.5t-46.5 -18.5t-46.5 18zM87.5 -197.5q-27.5 26.5 -27.5 70.5q0 87 92 158l35 -31q-34 -32 -46.5 -60.5t-12.5 -55.5q0 -24 12.5 -38t31.5 -14 q17 0 34 12l17 -48q-23 -20 -63 -20q-45 0 -72.5 26.5z" unicode="į" horiz-adv-x="279"/>
<glyph glyph-name="Idotaccent" d="M105 700h100v-700h-100v700zM113 792q-17 17 -17 42t17 42t42 17t42 -17t17 -42t-17 -42t-42 -17t-42 17z" unicode="İ" horiz-adv-x="310"/>
<glyph glyph-name="dotlessi" d="M91 530h96v-530h-96v530z" unicode="ı" horiz-adv-x="279"/>
<glyph glyph-name="IJ" d="M197 11q-62 19 -110 52l39 80q44 -30 96 -46t107 -16q94 0 143 55t49 166v398h100v-393q0 -153 -79 -234t-215 -81q-68 0 -130 19zM99 700h100v-391h-100v391z" unicode="Ĳ" horiz-adv-x="720"/>
<glyph glyph-name="ij" d="M91 530h96v-530h-96v530zM92.5 650q-18.5 18 -18.5 44t18.5 44.5t46.5 18.5t46.5 -17.5t18.5 -43.5q0 -27 -18.5 -45.5t-46.5 -18.5t-46.5 18zM237 -192q-30 8 -50 24l31 74q30 -25 78 -25q38 0 58.5 23.5t20.5 69.5v556h96v-554q0 -82 -44 -129t-125 -47q-35 0 -65 8z M376.5 650q-18.5 18 -18.5 44t18.5 44.5t46.5 18.5t46.5 -17.5t18.5 -43.5q0 -27 -18.5 -45.5t-46.5 -18.5t-46.5 18z" unicode="ĳ" horiz-adv-x="563"/>
<glyph glyph-name="Jcircumflex" d="M78 18.5q-54 26.5 -87 74.5l58 68q58 -83 146 -83q59 0 89.5 36t30.5 106v393h-253v87h352v-475q0 -116 -55.5 -174.5t-163.5 -58.5q-63 0 -117 26.5zM331 757l-92 77l-92 -77h-87l133 130h92l133 -130h-87z" unicode="Ĵ" horiz-adv-x="513"/>
<glyph glyph-name="jcircumflex" d="M-42 -192q-30 8 -50 24l31 74q30 -25 78 -25q38 0 58.5 23.5t20.5 69.5v556h96v-554q0 -82 -44 -129t-125 -47q-35 0 -65 8zM216 607l-72 74l-72 -74h-82l109 130h90l109 -130h-82z" unicode="ĵ" horiz-adv-x="284"/>
<glyph glyph-name="Kcommaaccent" d="M333 311l-128 -130v-181h-100v700h100v-391l380 391h114l-299 -315l318 -385h-117zM412 -107q14 -13 14 -33q0 -24 -13 -51l-30 -72h-50l23 80q-15 5 -23.5 16t-8.5 27q0 20 14 33t37 13t37 -13z" unicode="Ķ" horiz-adv-x="719"/>
<glyph glyph-name="kcommaaccent" d="M297 247l-110 -102v-145h-96v742h96v-476l289 264h116l-223 -219l245 -311h-118zM350 -107q14 -13 14 -33q0 -24 -13 -51l-30 -72h-50l23 80q-15 5 -23.5 16t-8.5 27q0 20 14 33t37 13t37 -13z" unicode="ķ" horiz-adv-x="616"/>
<glyph glyph-name="kgreenlandic" d="M297 247l-110 -102v-145h-96v530h96v-264l289 264h116l-223 -219l245 -311h-118z" unicode="ĸ" horiz-adv-x="606"/>
<glyph glyph-name="Lacute" d="M105 700h100v-613h379v-87h-479v700zM216 887h122l-168 -130h-90z" unicode="Ĺ" horiz-adv-x="594"/>
<glyph glyph-name="lacute" d="M91 742h96v-742h-96v742zM200 949h122l-168 -130h-90z" unicode="ĺ" horiz-adv-x="279"/>
<glyph glyph-name="Lcommaaccent" d="M105 700h100v-613h379v-87h-479v700zM393 -107q14 -13 14 -33q0 -24 -13 -51l-30 -72h-50l23 80q-15 5 -23.5 16t-8.5 27q0 20 14 33t37 13t37 -13z" unicode="Ļ" horiz-adv-x="594"/>
<glyph glyph-name="lcommaaccent" d="M91 742h96v-742h-96v742zM176 -107q14 -13 14 -33q0 -24 -13 -51l-30 -72h-50l23 80q-15 5 -23.5 16t-8.5 27q0 20 14 33t37 13t37 -13z" unicode="ļ" horiz-adv-x="279"/>
<glyph glyph-name="Lcaron" d="M105 700h100v-613h379v-87h-479v700zM438 733h79l-12 -193h-67v193z" unicode="Ľ" horiz-adv-x="594"/>
<glyph glyph-name="lcaron" d="M91 742h96v-742h-96v742zM276 775h79l-12 -193h-67v193z" unicode="ľ" horiz-adv-x="279"/>
<glyph glyph-name="Ldot" d="M105 700h100v-613h379v-87h-479v700zM409 348.5q-18 17.5 -18 44.5t18 44.5t43 17.5t42.5 -17.5t17.5 -44.5t-17.5 -44.5t-42.5 -17.5t-43 17.5z" unicode="Ŀ" horiz-adv-x="594"/>
<glyph glyph-name="ldot" d="M91 742h96v-742h-96v742zM270.5 316.5q-16.5 16.5 -16.5 40.5t16.5 40.5t41.5 16.5q24 0 40.5 -16.5t16.5 -40.5t-16.5 -40.5t-40.5 -16.5q-25 0 -41.5 16.5z" unicode="ŀ" horiz-adv-x="346"/>
<glyph glyph-name="Lslash" d="M113 700h100v-613h379v-87h-479v700zM9 303l316 240l44 -56l-316 -240z" unicode="Ł" horiz-adv-x="602"/>
<glyph glyph-name="lslash" d="M99 742h96v-742h-96v742zM-7 286l265 202l43 -58l-265 -201z" unicode="ł" horiz-adv-x="295"/>
<glyph glyph-name="Nacute" d="M707 700v-700h-82l-420 522v-522h-100v700h82l420 -522v522h100zM466 887h122l-168 -130h-90z" unicode="Ń" horiz-adv-x="812"/>
<glyph glyph-name="nacute" d="M534.5 476.5q59.5 -58.5 59.5 -171.5v-305h-96v294q0 77 -37 116t-106 39q-78 0 -123 -45.5t-45 -130.5v-273h-96v530h92v-80q29 41 78.5 63t112.5 22q101 0 160.5 -58.5zM404 737h122l-168 -130h-90z" unicode="ń" horiz-adv-x="681"/>
<glyph glyph-name="Ncommaaccent" d="M707 700v-700h-82l-420 522v-522h-100v700h82l420 -522v522h100zM442 -107q14 -13 14 -33q0 -24 -13 -51l-30 -72h-50l23 80q-15 5 -23.5 16t-8.5 27q0 20 14 33t37 13t37 -13z" unicode="Ņ" horiz-adv-x="812"/>
<glyph glyph-name="ncommaaccent" d="M534.5 476.5q59.5 -58.5 59.5 -171.5v-305h-96v294q0 77 -37 116t-106 39q-78 0 -123 -45.5t-45 -130.5v-273h-96v530h92v-80q29 41 78.5 63t112.5 22q101 0 160.5 -58.5zM380 -107q14 -13 14 -33q0 -24 -13 -51l-30 -72h-50l23 80q-15 5 -23.5 16t-8.5 27q0 20 14 33 t37 13t37 -13z" unicode="ņ" horiz-adv-x="681"/>
<glyph glyph-name="Ncaron" d="M707 700v-700h-82l-420 522v-522h-100v700h82l420 -522v522h100zM584 887l-133 -130h-92l-133 130h87l92 -76l92 76h87z" unicode="Ň" horiz-adv-x="812"/>
<glyph glyph-name="ncaron" d="M534.5 476.5q59.5 -58.5 59.5 -171.5v-305h-96v294q0 77 -37 116t-106 39q-78 0 -123 -45.5t-45 -130.5v-273h-96v530h92v-80q29 41 78.5 63t112.5 22q101 0 160.5 -58.5zM522 737l-133 -130h-92l-133 130h87l92 -76l92 76h87z" unicode="ň" horiz-adv-x="681"/>
<glyph glyph-name="napostrophe" d="M56 700h66l-16 -261h-53zM624.5 476.5q59.5 -58.5 59.5 -171.5v-305h-96v294q0 77 -37 116t-106 39q-78 0 -123 -45.5t-45 -130.5v-273h-96v530h92v-80q29 41 78.5 63t112.5 22q101 0 160.5 -58.5z" unicode="ŉ" horiz-adv-x="770"/>
<glyph glyph-name="Eng" d="M707 700v-658q0 -123 -54.5 -182.5t-162.5 -59.5q-53 0 -100 20.5t-80 58.5l49 72q52 -65 131 -65q114 0 117 136l-402 500v-522h-100v700h82l420 -522v522h100z" unicode="Ŋ" horiz-adv-x="812"/>
<glyph glyph-name="eng" d="M534.5 476.5q59.5 -58.5 59.5 -171.5v-329q0 -82 -44 -129t-125 -47q-34 0 -64.5 8t-50.5 24l31 74q31 -25 78 -25q38 0 58.5 23.5t20.5 69.5v320q0 77 -37 116t-106 39q-78 0 -123 -45.5t-45 -130.5v-273h-96v530h92v-80q29 41 78.5 63t112.5 22q101 0 160.5 -58.5z" unicode="ŋ" horiz-adv-x="681"/>
<glyph glyph-name="Omacron" d="M230 38.5q-85 46.5 -133.5 128.5t-48.5 183t48.5 183t133.5 128.5t191 46.5q105 0 190 -46.5t133 -128t48 -183.5t-48 -183.5t-133 -128t-190 -46.5q-106 0 -191 46.5zM559.5 116q61.5 35 97 96.5t35.5 137.5t-35.5 137.5t-97 96.5t-138.5 35t-139.5 -35t-98 -96.5 t-35.5 -137.5t35.5 -137.5t98 -96.5t139.5 -35t138.5 35zM258 852h326v-60h-326v60z" unicode="Ō" horiz-adv-x="840"/>
<glyph glyph-name="omacron" d="M176 29q-63 35 -98.5 96.5t-35.5 139.5t35.5 139.5t98.5 96t142 34.5t141.5 -34.5t98 -96t35.5 -139.5t-35.5 -139.5t-98 -96.5t-141.5 -35t-142 35zM409.5 101.5q40.5 23.5 63.5 66t23 97.5t-23 97.5t-63.5 65.5t-91.5 23t-91.5 -23t-64 -65.5t-23.5 -97.5t23.5 -97.5 t64 -66t91.5 -23.5t91.5 23.5zM154 702h326v-60h-326v60z" unicode="ō" horiz-adv-x="635"/>
<glyph glyph-name="Obreve" d="M230 38.5q-85 46.5 -133.5 128.5t-48.5 183t48.5 183t133.5 128.5t191 46.5q105 0 190 -46.5t133 -128t48 -183.5t-48 -183.5t-133 -128t-190 -46.5q-106 0 -191 46.5zM559.5 116q61.5 35 97 96.5t35.5 137.5t-35.5 137.5t-97 96.5t-138.5 35t-139.5 -35t-98 -96.5 t-35.5 -137.5t35.5 -137.5t98 -96.5t139.5 -35t138.5 35zM306.5 788q-45.5 37 -47.5 99h65q1 -36 28.5 -58t68.5 -22t68.5 22t28.5 58h65q-2 -62 -47.5 -99t-114.5 -37t-114.5 37z" unicode="Ŏ" horiz-adv-x="840"/>
<glyph glyph-name="obreve" d="M176 29q-63 35 -98.5 96.5t-35.5 139.5t35.5 139.5t98.5 96t142 34.5t141.5 -34.5t98 -96t35.5 -139.5t-35.5 -139.5t-98 -96.5t-141.5 -35t-142 35zM409.5 101.5q40.5 23.5 63.5 66t23 97.5t-23 97.5t-63.5 65.5t-91.5 23t-91.5 -23t-64 -65.5t-23.5 -97.5t23.5 -97.5 t64 -66t91.5 -23.5t91.5 23.5zM202.5 638q-45.5 37 -47.5 99h65q1 -36 28.5 -58t68.5 -22t68.5 22t28.5 58h65q-2 -62 -47.5 -99t-114.5 -37t-114.5 37z" unicode="ŏ" horiz-adv-x="635"/>
<glyph glyph-name="Ohungarumlaut" d="M230 38.5q-85 46.5 -133.5 128.5t-48.5 183t48.5 183t133.5 128.5t191 46.5q105 0 190 -46.5t133 -128t48 -183.5t-48 -183.5t-133 -128t-190 -46.5q-106 0 -191 46.5zM559.5 116q61.5 35 97 96.5t35.5 137.5t-35.5 137.5t-97 96.5t-138.5 35t-139.5 -35t-98 -96.5 t-35.5 -137.5t35.5 -137.5t98 -96.5t139.5 -35t138.5 35zM383 887h102l-111 -130h-81zM557 887h101l-109 -130h-81z" unicode="Ő" horiz-adv-x="840"/>
<glyph glyph-name="ohungarumlaut" d="M176 29q-63 35 -98.5 96.5t-35.5 139.5t35.5 139.5t98.5 96t142 34.5t141.5 -34.5t98 -96t35.5 -139.5t-35.5 -139.5t-98 -96.5t-141.5 -35t-142 35zM409.5 101.5q40.5 23.5 63.5 66t23 97.5t-23 97.5t-63.5 65.5t-91.5 23t-91.5 -23t-64 -65.5t-23.5 -97.5t23.5 -97.5 t64 -66t91.5 -23.5t91.5 23.5zM279 737h102l-111 -130h-81zM453 737h101l-109 -130h-81z" unicode="ő" horiz-adv-x="635"/>
<glyph glyph-name="OE" d="M1069 87v-87h-643q-111 0 -197 44t-133.5 123.5t-47.5 181.5q0 103 47.5 183t133.5 124t197 44h629v-87h-395v-215h352v-85h-352v-226h409zM561 87v526h-130q-85 0 -149 -33t-99 -93t-35 -138q0 -77 35 -136.5t99 -92.5t149 -33h130z" unicode="Œ" horiz-adv-x="1126"/>
<glyph glyph-name="oe" d="M1023 233h-430q9 -70 61 -112.5t130 -42.5q96 0 153 64l53 -62q-36 -42 -89.5 -64t-119.5 -22q-79 0 -140.5 31.5t-96.5 87.5q-34 -56 -93 -87.5t-133 -31.5q-79 0 -142 35t-98.5 96.5t-35.5 139.5t35.5 139.5t98.5 96t142 34.5q75 0 133 -31t92 -87q34 56 90.5 87 t128.5 31q76 0 135.5 -34.5t93 -96.5t33.5 -142q0 -20 -1 -29zM647.5 412q-46.5 -42 -54.5 -110h340q-8 67 -55 109.5t-116 42.5q-68 0 -114.5 -42zM409.5 101.5q40.5 23.5 63.5 66t23 97.5t-23 97.5t-63.5 65.5t-91.5 23t-91.5 -23t-64 -65.5t-23.5 -97.5t23.5 -97.5 t64 -66t91.5 -23.5t91.5 23.5z" unicode="œ" horiz-adv-x="1067"/>
<glyph glyph-name="Racute" d="M573 0l-151 215q-28 -2 -44 -2h-173v-213h-100v700h273q136 0 214 -65t78 -179q0 -81 -40 -138t-114 -83l166 -235h-109zM520 339q50 41 50 117t-50 116.5t-145 40.5h-170v-315h170q95 0 145 41zM432 887h122l-168 -130h-90z" unicode="Ŕ" horiz-adv-x="727"/>
<glyph glyph-name="racute" d="M257 511q49 24 119 24v-93q-8 1 -22 1q-78 0 -122.5 -46.5t-44.5 -132.5v-264h-96v530h92v-89q25 46 74 70zM295 737h122l-168 -130h-90z" unicode="ŕ" horiz-adv-x="410"/>
<glyph glyph-name="Rcommaaccent" d="M573 0l-151 215q-28 -2 -44 -2h-173v-213h-100v700h273q136 0 214 -65t78 -179q0 -81 -40 -138t-114 -83l166 -235h-109zM520 339q50 41 50 117t-50 116.5t-145 40.5h-170v-315h170q95 0 145 41zM408 -107q14 -13 14 -33q0 -24 -13 -51l-30 -72h-50l23 80q-15 5 -23.5 16 t-8.5 27q0 20 14 33t37 13t37 -13z" unicode="Ŗ" horiz-adv-x="727"/>
<glyph glyph-name="rcommaaccent" d="M257 511q49 24 119 24v-93q-8 1 -22 1q-78 0 -122.5 -46.5t-44.5 -132.5v-264h-96v530h92v-89q25 46 74 70zM176 -107q14 -13 14 -33q0 -24 -13 -51l-30 -72h-50l23 80q-15 5 -23.5 16t-8.5 27q0 20 14 33t37 13t37 -13z" unicode="ŗ" horiz-adv-x="410"/>
<glyph glyph-name="Rcaron" d="M573 0l-151 215q-28 -2 -44 -2h-173v-213h-100v700h273q136 0 214 -65t78 -179q0 -81 -40 -138t-114 -83l166 -235h-109zM520 339q50 41 50 117t-50 116.5t-145 40.5h-170v-315h170q95 0 145 41zM550 887l-133 -130h-92l-133 130h87l92 -76l92 76h87z" unicode="Ř" horiz-adv-x="727"/>
<glyph glyph-name="rcaron" d="M257 511q49 24 119 24v-93q-8 1 -22 1q-78 0 -122.5 -46.5t-44.5 -132.5v-264h-96v530h92v-89q25 46 74 70zM413 737l-133 -130h-92l-133 130h87l92 -76l92 76h87z" unicode="ř" horiz-adv-x="410"/>
<glyph glyph-name="Sacute" d="M156.5 16.5q-73.5 24.5 -115.5 63.5l37 78q40 -36 102.5 -58.5t128.5 -22.5q87 0 130 29.5t43 78.5q0 36 -23.5 58.5t-58 34.5t-97.5 27q-79 19 -127.5 38t-83 58.5t-34.5 106.5q0 56 29.5 101t89.5 72t149 27q62 0 122 -16t103 -46l-33 -80q-44 28 -94 42.5t-98 14.5 q-85 0 -127.5 -31t-42.5 -80q0 -36 24 -58.5t59.5 -35t96.5 -26.5q79 -19 127 -38t82.5 -58t34.5 -105q0 -55 -30 -100.5t-91 -72t-150 -26.5q-79 0 -152.5 24.5zM383 887h122l-168 -130h-90z" unicode="Ś" horiz-adv-x="621"/>
<glyph glyph-name="sacute" d="M118 11.5q-60 17.5 -94 44.5l40 76q35 -25 85 -40t101 -15q126 0 126 72q0 24 -17 38t-42.5 20.5t-72.5 14.5q-64 10 -104.5 23t-69.5 44t-29 87q0 72 60 115.5t161 43.5q53 0 106 -13t87 -35l-41 -76q-65 42 -153 42q-61 0 -93 -20t-32 -53q0 -26 18 -41t44.5 -22 t74.5 -16q64 -11 103.5 -23.5t67.5 -42.5t28 -84q0 -72 -61.5 -114.5t-167.5 -42.5q-65 0 -125 17.5zM309 737h122l-168 -130h-90z" unicode="ś" horiz-adv-x="501"/>
<glyph glyph-name="Scircumflex" d="M156.5 16.5q-73.5 24.5 -115.5 63.5l37 78q40 -36 102.5 -58.5t128.5 -22.5q87 0 130 29.5t43 78.5q0 36 -23.5 58.5t-58 34.5t-97.5 27q-79 19 -127.5 38t-83 58.5t-34.5 106.5q0 56 29.5 101t89.5 72t149 27q62 0 122 -16t103 -46l-33 -80q-44 28 -94 42.5t-98 14.5 q-85 0 -127.5 -31t-42.5 -80q0 -36 24 -58.5t59.5 -35t96.5 -26.5q79 -19 127 -38t82.5 -58t34.5 -105q0 -55 -30 -100.5t-91 -72t-150 -26.5q-79 0 -152.5 24.5zM414 757l-92 77l-92 -77h-87l133 130h92l133 -130h-87z" unicode="Ŝ" horiz-adv-x="621"/>
<glyph glyph-name="scircumflex" d="M118 11.5q-60 17.5 -94 44.5l40 76q35 -25 85 -40t101 -15q126 0 126 72q0 24 -17 38t-42.5 20.5t-72.5 14.5q-64 10 -104.5 23t-69.5 44t-29 87q0 72 60 115.5t161 43.5q53 0 106 -13t87 -35l-41 -76q-65 42 -153 42q-61 0 -93 -20t-32 -53q0 -26 18 -41t44.5 -22 t74.5 -16q64 -11 103.5 -23.5t67.5 -42.5t28 -84q0 -72 -61.5 -114.5t-167.5 -42.5q-65 0 -125 17.5zM340 607l-92 77l-92 -77h-87l133 130h92l133 -130h-87z" unicode="ŝ" horiz-adv-x="501"/>
<glyph glyph-name="Scedilla" d="M156.5 16.5q-73.5 24.5 -115.5 63.5l37 78q40 -36 102.5 -58.5t128.5 -22.5q87 0 130 29.5t43 78.5q0 36 -23.5 58.5t-58 34.5t-97.5 27q-79 19 -127.5 38t-83 58.5t-34.5 106.5q0 56 29.5 101t89.5 72t149 27q62 0 122 -16t103 -46l-33 -80q-44 28 -94 42.5t-98 14.5 q-85 0 -127.5 -31t-42.5 -80q0 -36 24 -58.5t59.5 -35t96.5 -26.5q79 -19 127 -38t82.5 -58t34.5 -105q0 -55 -30 -100.5t-91 -72t-150 -26.5q-79 0 -152.5 24.5zM208 -202l21 49q30 -17 68 -17q56 0 56 40q0 18 -14 28.5t-43 10.5h-27l25 98h55l-15 -57q42 -4 64.5 -26.5 t22.5 -56.5q0 -42 -34 -66.5t-90 -24.5q-52 0 -89 22z" unicode="Ş" horiz-adv-x="621"/>
<glyph glyph-name="scedilla" d="M118 11.5q-60 17.5 -94 44.5l40 76q35 -25 85 -40t101 -15q126 0 126 72q0 24 -17 38t-42.5 20.5t-72.5 14.5q-64 10 -104.5 23t-69.5 44t-29 87q0 72 60 115.5t161 43.5q53 0 106 -13t87 -35l-41 -76q-65 42 -153 42q-61 0 -93 -20t-32 -53q0 -26 18 -41t44.5 -22 t74.5 -16q64 -11 103.5 -23.5t67.5 -42.5t28 -84q0 -72 -61.5 -114.5t-167.5 -42.5q-65 0 -125 17.5zM134 -202l21 49q30 -17 68 -17q56 0 56 40q0 18 -14 28.5t-43 10.5h-27l25 98h55l-15 -57q42 -4 64.5 -26.5t22.5 -56.5q0 -42 -34 -66.5t-90 -24.5q-52 0 -89 22z" unicode="ş" horiz-adv-x="501"/>
<glyph glyph-name="Scaron" d="M156.5 16.5q-73.5 24.5 -115.5 63.5l37 78q40 -36 102.5 -58.5t128.5 -22.5q87 0 130 29.5t43 78.5q0 36 -23.5 58.5t-58 34.5t-97.5 27q-79 19 -127.5 38t-83 58.5t-34.5 106.5q0 56 29.5 101t89.5 72t149 27q62 0 122 -16t103 -46l-33 -80q-44 28 -94 42.5t-98 14.5 q-85 0 -127.5 -31t-42.5 -80q0 -36 24 -58.5t59.5 -35t96.5 -26.5q79 -19 127 -38t82.5 -58t34.5 -105q0 -55 -30 -100.5t-91 -72t-150 -26.5q-79 0 -152.5 24.5zM501 887l-133 -130h-92l-133 130h87l92 -76l92 76h87z" unicode="Š" horiz-adv-x="621"/>
<glyph glyph-name="scaron" d="M118 11.5q-60 17.5 -94 44.5l40 76q35 -25 85 -40t101 -15q126 0 126 72q0 24 -17 38t-42.5 20.5t-72.5 14.5q-64 10 -104.5 23t-69.5 44t-29 87q0 72 60 115.5t161 43.5q53 0 106 -13t87 -35l-41 -76q-65 42 -153 42q-61 0 -93 -20t-32 -53q0 -26 18 -41t44.5 -22 t74.5 -16q64 -11 103.5 -23.5t67.5 -42.5t28 -84q0 -72 -61.5 -114.5t-167.5 -42.5q-65 0 -125 17.5zM427 737l-133 -130h-92l-133 130h87l92 -76l92 76h87z" unicode="š" horiz-adv-x="501"/>
<glyph glyph-name="uni0162" d="M244 613h-240v87h579v-87h-240v-613h-99v613zM179 -202l21 49q30 -17 68 -17q56 0 56 40q0 18 -14 28.5t-43 10.5h-27l25 98h55l-15 -57q42 -4 64.5 -26.5t22.5 -56.5q0 -42 -34 -66.5t-90 -24.5q-52 0 -89 22z" unicode="Ţ" horiz-adv-x="587"/>
<glyph glyph-name="uni0163" d="M389 31q-21 -18 -52 -27.5t-64 -9.5q-80 0 -124 43t-44 123v291h-90v79h90v116h96v-116h152v-79h-152v-287q0 -43 21.5 -66t61.5 -23q44 0 75 25zM139 -202l21 49q30 -17 68 -17q56 0 56 40q0 18 -14 28.5t-43 10.5h-27l25 98h55l-15 -57q42 -4 64.5 -26.5t22.5 -56.5 q0 -42 -34 -66.5t-90 -24.5q-52 0 -89 22z" unicode="ţ" horiz-adv-x="414"/>
<glyph glyph-name="Tcaron" d="M244 613h-240v87h579v-87h-240v-613h-99v613zM472 887l-133 -130h-92l-133 130h87l92 -76l92 76h87z" unicode="Ť" horiz-adv-x="587"/>
<glyph glyph-name="tcaron" d="M389 31q-21 -18 -52 -27.5t-64 -9.5q-80 0 -124 43t-44 123v291h-90v79h90v116h96v-116h152v-79h-152v-287q0 -43 21.5 -66t61.5 -23q44 0 75 25zM285 765h76l-11 -169h-65v169z" unicode="ť" horiz-adv-x="414"/>
<glyph glyph-name="Tbar" d="M244 613h-240v87h579v-87h-240v-613h-99v613zM93 379h400v-79h-400v79z" unicode="Ŧ" horiz-adv-x="587"/>
<glyph glyph-name="tbar" d="M394 31q-21 -18 -52 -27.5t-64 -9.5q-80 0 -124 43t-44 123v291h-90v79h90v116h96v-116h152v-79h-152v-287q0 -43 21.5 -66t61.5 -23q44 0 75 25zM32 321h315v-67h-315v67z" unicode="ŧ" horiz-adv-x="424"/>
<glyph glyph-name="Utilde" d="M177 72q-78 80 -78 230v398h100v-394q0 -225 197 -225q96 0 147 55.5t51 169.5v394h97v-398q0 -151 -78 -230.5t-218 -79.5t-218 80zM424.5 770q-17.5 10 -43.5 30q-15 14 -26 20.5t-22 6.5q-22 0 -36 -16.5t-15 -45.5h-54q2 56 28.5 89t69.5 33q24 0 42.5 -10.5 t42.5 -30.5q17 -14 27 -20.5t21 -6.5q22 0 36 16t15 44h54q-2 -54 -28.5 -86.5t-69.5 -32.5q-24 0 -41.5 10z" unicode="Ũ" horiz-adv-x="791"/>
<glyph glyph-name="utilde" d="M585 530v-530h-91v80q-29 -41 -76.5 -63.5t-103.5 -22.5q-106 0 -167 58.5t-61 172.5v305h96v-294q0 -77 37 -116.5t106 -39.5q76 0 120 46t44 130v274h96zM364.5 620q-17.5 10 -43.5 30q-15 14 -26 20.5t-22 6.5q-22 0 -36 -16.5t-15 -45.5h-54q2 56 28.5 89t69.5 33 q24 0 42.5 -10.5t42.5 -30.5q17 -14 27 -20.5t21 -6.5q22 0 36 16t15 44h54q-2 -54 -28.5 -86.5t-69.5 -32.5q-24 0 -41.5 10z" unicode="ũ" horiz-adv-x="677"/>
<glyph glyph-name="Umacron" d="M177 72q-78 80 -78 230v398h100v-394q0 -225 197 -225q96 0 147 55.5t51 169.5v394h97v-398q0 -151 -78 -230.5t-218 -79.5t-218 80zM233 852h326v-60h-326v60z" unicode="Ū" horiz-adv-x="791"/>
<glyph glyph-name="umacron" d="M585 530v-530h-91v80q-29 -41 -76.5 -63.5t-103.5 -22.5q-106 0 -167 58.5t-61 172.5v305h96v-294q0 -77 37 -116.5t106 -39.5q76 0 120 46t44 130v274h96zM173 702h326v-60h-326v60z" unicode="ū" horiz-adv-x="677"/>
<glyph glyph-name="Ubreve" d="M177 72q-78 80 -78 230v398h100v-394q0 -225 197 -225q96 0 147 55.5t51 169.5v394h97v-398q0 -151 -78 -230.5t-218 -79.5t-218 80zM281.5 788q-45.5 37 -47.5 99h65q1 -36 28.5 -58t68.5 -22t68.5 22t28.5 58h65q-2 -62 -47.5 -99t-114.5 -37t-114.5 37z" unicode="Ŭ" horiz-adv-x="791"/>
<glyph glyph-name="ubreve" d="M585 530v-530h-91v80q-29 -41 -76.5 -63.5t-103.5 -22.5q-106 0 -167 58.5t-61 172.5v305h96v-294q0 -77 37 -116.5t106 -39.5q76 0 120 46t44 130v274h96zM221.5 638q-45.5 37 -47.5 99h65q1 -36 28.5 -58t68.5 -22t68.5 22t28.5 58h65q-2 -62 -47.5 -99t-114.5 -37 t-114.5 37z" unicode="ŭ" horiz-adv-x="677"/>
<glyph glyph-name="Uring" d="M177 72q-78 80 -78 230v398h100v-394q0 -225 197 -225q96 0 147 55.5t51 169.5v394h97v-398q0 -151 -78 -230.5t-218 -79.5t-218 80zM317 795.5q-32 31.5 -32 76.5t32 77.5t78 32.5q47 0 79 -32.5t32 -77.5t-32 -76.5t-79 -31.5q-46 0 -78 31.5zM442.5 825 q18.5 19 18.5 47q0 29 -19 48t-47 19t-46.5 -19t-18.5 -48q0 -28 18.5 -47t46.5 -19q29 0 47.5 19z" unicode="Ů" horiz-adv-x="791"/>
<glyph glyph-name="uring" d="M585 530v-530h-91v80q-29 -41 -76.5 -63.5t-103.5 -22.5q-106 0 -167 58.5t-61 172.5v305h96v-294q0 -77 37 -116.5t106 -39.5q76 0 120 46t44 130v274h96zM257 625.5q-32 31.5 -32 76.5t32 77.5t78 32.5q47 0 79 -32.5t32 -77.5t-32 -76.5t-79 -31.5q-46 0 -78 31.5z M382.5 655q18.5 19 18.5 47q0 29 -19 48t-47 19t-46.5 -19t-18.5 -48q0 -28 18.5 -47t46.5 -19q29 0 47.5 19z" unicode="ů" horiz-adv-x="677"/>
<glyph glyph-name="Uhungarumlaut" d="M177 72q-78 80 -78 230v398h100v-394q0 -225 197 -225q96 0 147 55.5t51 169.5v394h97v-398q0 -151 -78 -230.5t-218 -79.5t-218 80zM358 887h102l-111 -130h-81zM532 887h101l-109 -130h-81z" unicode="Ű" horiz-adv-x="791"/>
<glyph glyph-name="uhungarumlaut" d="M585 530v-530h-91v80q-29 -41 -76.5 -63.5t-103.5 -22.5q-106 0 -167 58.5t-61 172.5v305h96v-294q0 -77 37 -116.5t106 -39.5q76 0 120 46t44 130v274h96zM298 737h102l-111 -130h-81zM472 737h101l-109 -130h-81z" unicode="ű" horiz-adv-x="677"/>
<glyph glyph-name="Uogonek" d="M691 700v-398q0 -118 -47 -191t-134 -103q-144 -51 -144 -124q0 -24 17 -38t45 -14q16 0 32.5 4.5t28.5 12.5l19 -49q-40 -24 -90 -24q-56 0 -88 27.5t-32 73.5q0 67 69 116q-127 8 -197.5 87.5t-70.5 221.5v398h100v-394q0 -225 197 -225q96 0 147 55.5t51 169.5v394h97 z" unicode="Ų" horiz-adv-x="791"/>
<glyph glyph-name="uogonek" d="M585 530v-530h-91v80q-29 -41 -76.5 -63.5t-103.5 -22.5q-106 0 -167 58.5t-61 172.5v305h96v-294q0 -77 37 -116.5t106 -39.5q76 0 120 46t44 130v274h96zM429 -196.5q-32 27.5 -32 73.5q0 44 34 84.5t109 70.5l45 -32q-64 -28 -91.5 -56.5t-27.5 -59.5q0 -24 17 -38 t44 -14q37 0 62 17l18 -49q-38 -24 -90 -24q-56 0 -88 27.5z" unicode="ų" horiz-adv-x="677"/>
<glyph glyph-name="Wcircumflex" d="M1094 700l-234 -700h-105l-191 559l-191 -559h-107l-234 700h103l189 -569l197 569h92l193 -572l193 572h95zM656 757l-92 77l-92 -77h-87l133 130h92l133 -130h-87z" unicode="Ŵ" horiz-adv-x="1126"/>
<glyph glyph-name="wcircumflex" d="M893 530l-198 -530h-92l-153 402l-155 -402h-92l-197 530h91l154 -422l160 422h81l157 -424l158 424h86zM539 605l-92 77l-92 -77h-87l133 130h92l133 -130h-87z" unicode="ŵ" horiz-adv-x="899"/>
<glyph glyph-name="Ycircumflex" d="M373 242v-242h-99v244l-278 456h107l224 -369l225 369h99zM416 757l-92 77l-92 -77h-87l133 130h92l133 -130h-87z" unicode="Ŷ" horiz-adv-x="647"/>
<glyph glyph-name="ycircumflex" d="M560 530l-257 -583q-34 -81 -79.5 -114t-109.5 -33q-39 0 -75.5 12.5t-60.5 36.5l41 72q41 -39 95 -39q35 0 58.5 18.5t42.5 63.5l17 37l-234 529h100l185 -424l183 424h94zM358 607l-92 77l-92 -77h-87l133 130h92l133 -130h-87z" unicode="ŷ" horiz-adv-x="559"/>
<glyph glyph-name="Ydieresis" d="M373 242v-242h-99v244l-278 456h107l224 -369l225 369h99zM195 788.5q-15 14.5 -15 36.5t15 37t36 15t36 -15t15 -37t-15 -36.5t-36 -14.5t-36 14.5zM381 788.5q-15 14.5 -15 36.5t15 37t36 15t36 -15t15 -37t-15 -36.5t-36 -14.5t-36 14.5z" unicode="Ÿ" horiz-adv-x="647"/>
<glyph glyph-name="Zacute" d="M628 87v-87h-585v68l440 545h-433v87h565v-68l-438 -545h451zM397 887h122l-168 -130h-90z" unicode="Ź" horiz-adv-x="657"/>
<glyph glyph-name="zacute" d="M484 79v-79h-444v62l313 389h-307v79h430v-63l-313 -388h321zM323 737h122l-168 -130h-90z" unicode="ź" horiz-adv-x="521"/>
<glyph glyph-name="Zdotaccent" d="M628 87v-87h-585v68l440 545h-433v87h565v-68l-438 -545h451zM294 792q-17 17 -17 42t17 42t42 17t42 -17t17 -42t-17 -42t-42 -17t-42 17z" unicode="Ż" horiz-adv-x="657"/>
<glyph glyph-name="zdotaccent" d="M484 79v-79h-444v62l313 389h-307v79h430v-63l-313 -388h321zM220 642q-17 17 -17 42t17 42t42 17t42 -17t17 -42t-17 -42t-42 -17t-42 17z" unicode="ż" horiz-adv-x="521"/>
<glyph glyph-name="Zcaron" d="M628 87v-87h-585v68l440 545h-433v87h565v-68l-438 -545h451zM515 887l-133 -130h-92l-133 130h87l92 -76l92 76h87z" unicode="Ž" horiz-adv-x="657"/>
<glyph glyph-name="zcaron" d="M484 79v-79h-444v62l313 389h-307v79h430v-63l-313 -388h321zM441 737l-133 -130h-92l-133 130h87l92 -76l92 76h87z" unicode="ž" horiz-adv-x="521"/>
<glyph glyph-name="longs" d="M350 740q28 -8 48 -23l-29 -73q-33 25 -74 25t-62.5 -23.5t-21.5 -69.5v-576h-96v451h-90v79h90v47q0 79 46 125t129 46q32 0 60 -8z" unicode="ſ" horiz-adv-x="306"/>
<glyph glyph-name="uni018F" d="M590.5 661.5q83.5 -46.5 131 -128t47.5 -182.5q0 -102 -47 -184t-129 -128.5t-184 -46.5q-103 0 -185 47t-129 129.5t-47 185.5v28h620q-7 68 -43.5 122t-95 84.5t-127.5 30.5q-64 0 -121 -20.5t-99 -61.5l-60 69q50 48 123 75t158 27q104 0 187.5 -46.5zM581.5 137.5 q69.5 59.5 84.5 159.5h-515q16 -100 85.5 -159.5t172.5 -59.5t172.5 59.5z" unicode="Ə" horiz-adv-x="817"/>
<glyph glyph-name="florin" d="M309 643.5q-25 -23.5 -31 -69.5l-7 -57h154l-9 -79h-152l-58 -467q-9 -78 -58 -124.5t-127 -46.5q-35 0 -65 8.5t-48 24.5l36 73q30 -25 73 -25q39 0 63.5 24t29.5 69l58 464h-91l10 79h91l7 60q9 78 59.5 124.5t130.5 46.5q32 0 61.5 -8.5t47.5 -24.5l-37 -73 q-28 25 -70 25q-43 0 -68 -23.5z" unicode="ƒ" horiz-adv-x="449"/>
<glyph glyph-name="Ohorn" d="M754.5 512.5q37.5 -74.5 37.5 -162.5q0 -102 -48 -183.5t-133 -128t-190 -46.5q-106 0 -191 46.5t-133.5 128.5t-48.5 183q0 102 48.5 183.5t134.5 128t193 46.5q46 0 112 -8q56 -6 80 -6q46 0 70.5 18.5t24.5 54.5q0 31 -20 62l60 24q28 -41 28 -90q0 -55 -33 -88.5 t-94 -40.5q65 -47 102.5 -121.5zM559 116q62 35 97.5 96.5t35.5 137.5t-35.5 137.5t-97.5 96.5t-138 35q-77 0 -139.5 -35t-98 -96.5t-35.5 -137.5t35.5 -137.5t98 -96.5t139.5 -35q76 0 138 35z" unicode="Ơ" horiz-adv-x="840"/>
<glyph glyph-name="ohorn" d="M568 383.5q25 -53.5 25 -118.5q0 -78 -35.5 -139.5t-98 -96.5t-141.5 -35t-142 35t-98.5 96.5t-35.5 139.5t36 139.5t99 96t142 34.5q20 0 39 -1.5t27 -1.5q25 -3 55 -3q37 0 56.5 19t19.5 48q0 33 -21 63l60 23q29 -41 29 -89q0 -44 -22.5 -75t-64.5 -44 q46 -37 71 -90.5zM409 101.5q41 23.5 64 66t23 97.5t-23 97.5t-63.5 65.5t-91.5 23t-91.5 -23t-64 -65.5t-23.5 -97.5t23.5 -97.5t64 -66t91.5 -23.5q50 0 91 23.5z" unicode="ơ" horiz-adv-x="635"/>
<glyph glyph-name="Uhorn" d="M177 72q-78 80 -78 230v398h100v-394q0 -225 197 -225q96 0 147 55.5t51 169.5v394h97v-398q0 -151 -78 -230.5t-218 -79.5t-218 80zM642 700h18q32 0 48 18t16 47q0 36 -20 63l61 23q28 -38 28 -89q0 -62 -35.5 -98.5t-97.5 -36.5h-18v73z" unicode="Ư" horiz-adv-x="799"/>
<glyph glyph-name="uhorn" d="M585 530v-530h-91v80q-29 -41 -76.5 -63.5t-103.5 -22.5q-106 0 -167 58.5t-61 172.5v305h96v-294q0 -77 37 -116.5t106 -39.5q76 0 120 46t44 130v274h96zM520 530h18q32 0 48 18t16 47q0 36 -20 63l61 23q28 -38 28 -89q0 -62 -35.5 -98.5t-97.5 -36.5h-18v73z" unicode="ư" horiz-adv-x="685"/>
<glyph glyph-name="uni01B7" d="M514 344.5q60 -53.5 60 -138.5q0 -61 -31 -109.5t-93.5 -76.5t-152.5 -28q-81 0 -152.5 22.5t-113.5 61.5l37 79q38 -35 98.5 -55.5t128.5 -20.5q85 0 131.5 33.5t46.5 93.5q0 57 -46 89.5t-139 32.5h-58v69l192 218h-364v85h483v-68l-200 -227q113 -7 173 -60.5z" unicode="Ʒ" horiz-adv-x="623"/>
<glyph glyph-name="uni01C4" d="M105 700h295q111 0 197 -44t133.5 -123.5t47.5 -182.5t-47.5 -182.5t-133.5 -123.5t-197 -44h-295v700zM394 87q85 0 149.5 33t99.5 92.5t35 137.5t-35 137.5t-99.5 92.5t-149.5 33h-189v-526h189zM1420 87v-87h-585v68l440 545h-433v87h565v-68l-438 -545h451zM1307 887 l-133 -130h-92l-133 130h87l92 -76l92 76h87z" unicode="Ǆ" horiz-adv-x="1454"/>
<glyph glyph-name="uni01C5" d="M105 700h295q111 0 197 -44t133.5 -123.5t47.5 -182.5t-47.5 -182.5t-133.5 -123.5t-197 -44h-295v700zM394 87q85 0 149.5 33t99.5 92.5t35 137.5t-35 137.5t-99.5 92.5t-149.5 33h-189v-526h189zM1310 79v-79h-444v62l313 389h-307v79h430v-63l-313 -388h321zM1267 737 l-133 -130h-92l-133 130h87l92 -76l92 76h87z" unicode="ǅ" horiz-adv-x="1347"/>
<glyph glyph-name="uni01C6" d="M591 742v-742h-92v84q-32 -44 -81 -67t-108 -23q-77 0 -138 34t-95.5 95.5t-34.5 141.5t34.5 141t95.5 95t138 34q57 0 105 -21.5t80 -63.5v292h96zM409 101.5q41 23.5 64 66t23 97.5t-23 97.5t-64 65.5t-91 23q-51 0 -91.5 -23t-64 -65.5t-23.5 -97.5t23.5 -97.5t64 -66 t91.5 -23.5q50 0 91 23.5zM1163 79v-79h-444v62l313 389h-307v79h430v-63l-313 -388h321zM1120 737l-133 -130h-92l-133 130h87l92 -76l92 76h87z" unicode="ǆ" horiz-adv-x="1211"/>
<glyph glyph-name="uni01C7" d="M105 700h100v-613h379v-87h-479v700zM672 18.5q-54 26.5 -87 74.5l58 68q58 -83 146 -83q59 0 89.5 36t30.5 106v393h-253v87h352v-475q0 -116 -55.5 -174.5t-163.5 -58.5q-63 0 -117 26.5z" unicode="Ǉ" horiz-adv-x="1107"/>
<glyph glyph-name="uni01C8" d="M105 700h100v-613h379v-87h-479v700zM552 -192q-30 8 -50 24l31 74q30 -25 78 -25q38 0 58.5 23.5t20.5 69.5v556h96v-554q0 -82 -44 -129t-125 -47q-35 0 -65 8zM691.5 650q-18.5 18 -18.5 44t18.5 44.5t46.5 18.5t46.5 -17.5t18.5 -43.5q0 -27 -18.5 -45.5t-46.5 -18.5 t-46.5 18z" unicode="ǈ" horiz-adv-x="878"/>
<glyph glyph-name="uni01C9" d="M91 742h96v-742h-96v742zM237 -192q-30 8 -50 24l31 74q30 -25 78 -25q38 0 58.5 23.5t20.5 69.5v556h96v-554q0 -82 -44 -129t-125 -47q-35 0 -65 8zM376.5 650q-18.5 18 -18.5 44t18.5 44.5t46.5 18.5t46.5 -17.5t18.5 -43.5q0 -27 -18.5 -45.5t-46.5 -18.5t-46.5 18z " unicode="ǉ" horiz-adv-x="563"/>
<glyph glyph-name="uni01CA" d="M707 700v-700h-82l-420 522v-522h-100v700h82l420 -522v522h100zM890 18.5q-54 26.5 -87 74.5l58 68q58 -83 146 -83q59 0 89.5 36t30.5 106v393h-253v87h352v-475q0 -116 -55.5 -174.5t-163.5 -58.5q-63 0 -117 26.5z" unicode="Ǌ" horiz-adv-x="1325"/>
<glyph glyph-name="uni01CB" d="M707 700v-700h-82l-420 522v-522h-100v700h82l420 -522v522h100zM770 -192q-30 8 -50 24l31 74q30 -25 78 -25q38 0 58.5 23.5t20.5 69.5v556h96v-554q0 -82 -44 -129t-125 -47q-35 0 -65 8zM909.5 650q-18.5 18 -18.5 44t18.5 44.5t46.5 18.5t46.5 -17.5t18.5 -43.5 q0 -27 -18.5 -45.5t-46.5 -18.5t-46.5 18z" unicode="ǋ" horiz-adv-x="1096"/>
<glyph glyph-name="uni01CC" d="M534.5 476.5q59.5 -58.5 59.5 -171.5v-305h-96v294q0 77 -37 116t-106 39q-78 0 -123 -45.5t-45 -130.5v-273h-96v530h92v-80q29 41 78.5 63t112.5 22q101 0 160.5 -58.5zM639 -192q-30 8 -50 24l31 74q30 -25 78 -25q38 0 58.5 23.5t20.5 69.5v556h96v-554 q0 -82 -44 -129t-125 -47q-35 0 -65 8zM778.5 650q-18.5 18 -18.5 44t18.5 44.5t46.5 18.5t46.5 -17.5t18.5 -43.5q0 -27 -18.5 -45.5t-46.5 -18.5t-46.5 18z" unicode="ǌ" horiz-adv-x="965"/>
<glyph glyph-name="uni01CD" d="M551 175h-372l-77 -175h-103l317 700h99l318 -700h-105zM516 255l-151 343l-151 -343h302zM545 887l-133 -130h-92l-133 130h87l92 -76l92 76h87z" unicode="Ǎ" horiz-adv-x="732"/>
<glyph glyph-name="uni01CE" d="M452.5 481q58.5 -54 58.5 -161v-320h-91v70q-24 -37 -68.5 -56.5t-105.5 -19.5q-89 0 -142.5 43t-53.5 113t51 112.5t162 42.5h152v19q0 62 -36 95t-106 33q-47 0 -92 -15.5t-76 -41.5l-40 72q41 33 98 50.5t121 17.5q110 0 168.5 -54zM357 92.5q40 24.5 58 69.5v74h-148 q-122 0 -122 -82q0 -40 31 -63t86 -23t95 24.5zM470 737l-133 -130h-92l-133 130h87l92 -76l92 76h87z" unicode="ǎ" horiz-adv-x="598"/>
<glyph glyph-name="uni01D3" d="M177 72q-78 80 -78 230v398h100v-394q0 -225 197 -225q96 0 147 55.5t51 169.5v394h97v-398q0 -151 -78 -230.5t-218 -79.5t-218 80zM575 887l-133 -130h-92l-133 130h87l92 -76l92 76h87z" unicode="Ǔ" horiz-adv-x="791"/>
<glyph glyph-name="uni01D4" d="M585 530v-530h-91v80q-29 -41 -76.5 -63.5t-103.5 -22.5q-106 0 -167 58.5t-61 172.5v305h96v-294q0 -77 37 -116.5t106 -39.5q76 0 120 46t44 130v274h96zM515 737l-133 -130h-92l-133 130h87l92 -76l92 76h87z" unicode="ǔ" horiz-adv-x="677"/>
<glyph glyph-name="uni01E4" d="M590 354h96v-273q-52 -43 -121 -66t-144 -23q-106 0 -191 46.5t-133.5 128t-48.5 183.5t48.5 184t134 128t192.5 46q84 0 152.5 -27.5t116.5 -80.5l-62 -62q-84 81 -203 81q-80 0 -143.5 -34.5t-99.5 -96t-36 -138.5q0 -76 36 -137.5t99.5 -96.5t142.5 -35q94 0 164 45 v228zM401.118 277h383.105v-79h-383.105v79z" unicode="Ǥ" horiz-adv-x="807"/>
<glyph glyph-name="uni01E5" d="M662 -58h-85q-54 -142 -254 -142q-75 0 -143 20.5t-110 58.5l46 74q37 -32 91.5 -50.5t112.5 -18.5q107 0 150 58h-186v65l213 1q5 27 5 54v60q-34 -39 -83.5 -59t-107.5 -20q-76 0 -137.5 31t-96.5 87.5t-35 128.5t35 127.5t96.5 86.5t137.5 31q61 0 112 -21t84 -62v78 h91v-458q0 -37 -4 -64h68v-66zM453 170q51 46 51 120q0 48 -23.5 85.5t-64.5 58.5t-94 21t-94.5 -21t-65 -58.5t-23.5 -85.5q0 -74 51 -120t132 -46q80 0 131 46z" unicode="ǥ" horiz-adv-x="698"/>
<glyph glyph-name="Gcaron" d="M590 354h96v-273q-52 -43 -121 -66t-144 -23q-106 0 -191 46.5t-133.5 128t-48.5 183.5t48.5 184t134 128t192.5 46q84 0 152.5 -27.5t116.5 -80.5l-62 -62q-84 81 -203 81q-80 0 -143.5 -34.5t-99.5 -96t-36 -138.5q0 -76 36 -137.5t99.5 -96.5t142.5 -35q94 0 164 45 v228zM589 887l-133 -130h-92l-133 130h87l92 -76l92 76h87z" unicode="Ǧ" horiz-adv-x="772"/>
<glyph glyph-name="gcaron" d="M598 530v-458q0 -139 -69 -205.5t-206 -66.5q-75 0 -143 20.5t-110 58.5l46 74q37 -32 91.5 -50.5t112.5 -18.5q93 0 137.5 44t44.5 134v42q-34 -41 -83.5 -61.5t-107.5 -20.5q-76 0 -137.5 32.5t-96.5 91t-35 133.5t35 133.5t96.5 90.5t137.5 32q60 0 111.5 -22 t84.5 -65v82h91zM415.5 128q41.5 22 65 61.5t23.5 89.5q0 77 -51 124.5t-131 47.5q-81 0 -132 -47.5t-51 -124.5q0 -50 23.5 -89.5t65 -61.5t94.5 -22q52 0 93.5 22zM508 737l-133 -130h-92l-133 130h87l92 -76l92 76h87z" unicode="ǧ" horiz-adv-x="690"/>
<glyph glyph-name="uni01E8" d="M333 311l-128 -130v-181h-100v700h100v-391l380 391h114l-299 -315l318 -385h-117zM554 887l-133 -130h-92l-133 130h87l92 -76l92 76h87z" unicode="Ǩ" horiz-adv-x="719"/>
<glyph glyph-name="uni01E9" d="M297 247l-110 -102v-145h-96v742h96v-476l289 264h116l-223 -219l245 -311h-118zM318 949l-133 -130h-92l-133 130h87l92 -76l92 76h87z" unicode="ǩ" horiz-adv-x="616"/>
<glyph glyph-name="uni01EA" d="M611 661.5q85 -46.5 133 -128t48 -183.5q0 -87 -35.5 -158.5t-96 -119t-136.5 -66.5q-67 -18 -107 -50.5t-40 -71.5q0 -24 17 -38t45 -14q36 0 61 17l19 -49q-38 -24 -90 -24q-56 0 -88 27.5t-32 73.5q0 31 17 61t53 56q-95 9 -170.5 57t-118 126t-42.5 173 q0 102 48.5 183.5t133.5 128t191 46.5q105 0 190 -46.5zM559.5 116q61.5 35 97 96.5t35.5 137.5t-35.5 137.5t-97 96.5t-138.5 35t-139.5 -35t-98 -96.5t-35.5 -137.5t35.5 -137.5t98 -96.5t139.5 -35t138.5 35z" unicode="Ǫ" horiz-adv-x="840"/>
<glyph glyph-name="uni01EB" d="M325 -50q-30 -32 -30 -65q0 -25 17 -39t45 -14q16 0 32.5 4.5t28.5 12.5l19 -49q-40 -24 -90 -24q-55 0 -87.5 27.5t-32.5 71.5q0 70 69 120q-73 5 -131 40.5t-90.5 95.5t-32.5 134q0 78 35.5 139.5t98.5 96t142 34.5t141.5 -34.5t98 -96t35.5 -139.5q0 -86 -43 -151.5 t-118 -97.5q-77 -34 -107 -66zM162.5 167.5q23.5 -42.5 64 -66t91.5 -23.5t91.5 23.5t63.5 66t23 97.5t-23 97.5t-63.5 65.5t-91.5 23t-91.5 -23t-64 -65.5t-23.5 -97.5t23.5 -97.5z" unicode="ǫ" horiz-adv-x="635"/>
<glyph glyph-name="uni01EE" d="M514 344.5q60 -53.5 60 -138.5q0 -61 -31 -109.5t-93.5 -76.5t-152.5 -28q-81 0 -152.5 22.5t-113.5 61.5l37 79q38 -35 98.5 -55.5t128.5 -20.5q85 0 131.5 33.5t46.5 93.5q0 57 -46 89.5t-139 32.5h-58v69l192 218h-364v85h483v-68l-200 -227q113 -7 173 -60.5z M481 887l-133 -130h-92l-133 130h87l92 -76l92 76h87z" unicode="Ǯ" horiz-adv-x="623"/>
<glyph glyph-name="uni01EF" d="M438.5 162q55.5 -55 55.5 -143q0 -62 -29.5 -112t-88.5 -79t-144 -29q-76 0 -143.5 24t-108.5 64l37 80q35 -36 91.5 -57.5t119.5 -21.5q80 0 123.5 34.5t43.5 96.5q0 61 -42.5 95t-128.5 34h-57v68l182 229h-344v85h459v-69l-188 -236q107 -8 162.5 -63zM405 737 l-133 -130h-92l-133 130h87l92 -76l92 76h87z" unicode="ǯ" horiz-adv-x="527"/>
<glyph glyph-name="Aringacute" d="M551 175h-372l-77 -175h-103l317 700h99l318 -700h-105zM516 255l-151 343l-151 -343h302zM457 935q19 -28 19 -63q0 -45 -32 -76.5t-79 -31.5q-46 0 -78 31.5t-32 76.5t32 77.5t78 32.5q29 0 54 -14l84 85l50 -41zM412.5 825q18.5 19 18.5 47q0 29 -19 48t-47 19 t-46.5 -19t-18.5 -48q0 -28 18.5 -47t46.5 -19q29 0 47.5 19z" unicode="Ǻ" horiz-adv-x="732"/>
<glyph glyph-name="aringacute" d="M452.5 481q58.5 -54 58.5 -161v-320h-91v70q-24 -37 -68.5 -56.5t-105.5 -19.5q-89 0 -142.5 43t-53.5 113t51 112.5t162 42.5h152v19q0 62 -36 95t-106 33q-47 0 -92 -15.5t-76 -41.5l-40 72q41 33 98 50.5t121 17.5q110 0 168.5 -54zM357 92.5q40 24.5 58 69.5v74h-148 q-122 0 -122 -82q0 -40 31 -63t86 -23t95 24.5zM382 765q19 -28 19 -63q0 -45 -32 -76.5t-79 -31.5q-46 0 -78 31.5t-32 76.5t32 77.5t78 32.5q29 0 54 -14l84 85l50 -41zM337.5 655q18.5 19 18.5 47q0 29 -19 48t-47 19t-46.5 -19t-18.5 -48q0 -28 18.5 -47t46.5 -19 q29 0 47.5 19z" unicode="ǻ" horiz-adv-x="598"/>
<glyph glyph-name="AEacute" d="M991 87v-87h-508v175h-278l-103 -175h-103l417 700h561v-87h-395v-215h351v-85h-351v-226h409zM483 255v358h-20l-211 -358h231zM593 887h122l-168 -130h-90z" unicode="Ǽ" horiz-adv-x="1047"/>
<glyph glyph-name="aeacute" d="M944 235h-432q8 -71 60 -114t132 -43q93 0 153 64l54 -62q-37 -42 -90.5 -64t-119.5 -22q-74 0 -134 26.5t-99 80.5q-31 -56 -87 -81.5t-125 -25.5q-96 0 -151 44t-55 116q0 66 51 108t162 42h152v20q0 62 -35.5 95t-105.5 33q-48 0 -93 -15.5t-76 -41.5l-40 72 q41 33 98 50.5t120 17.5q147 0 197 -94q35 44 87.5 69t115.5 25q75 0 135.5 -34.5t94.5 -95.5t34 -137q0 -19 -3 -33zM570 414q-48 -40 -57 -110h339q-8 70 -56.5 110t-113.5 40q-64 0 -112 -40zM374.5 104q40.5 36 40.5 97v34h-148q-122 0 -122 -79q0 -42 31.5 -65 t87.5 -23q70 0 110.5 36zM524 737h122l-168 -130h-90z" unicode="ǽ" horiz-adv-x="989"/>
<glyph glyph-name="Oslashacute" d="M230 38.5q-85 46.5 -133.5 128.5t-48.5 183t48.5 183t133.5 128.5t191 46.5q105 0 190 -46.5t133 -128t48 -183.5t-48 -183.5t-133 -128t-190 -46.5q-106 0 -191 46.5zM559.5 116q61.5 35 97 96.5t35.5 137.5t-35.5 137.5t-97 96.5t-138.5 35t-139.5 -35t-98 -96.5 t-35.5 -137.5t35.5 -137.5t98 -96.5t139.5 -35t138.5 35zM683 770h78l-602 -840h-78zM482 887h122l-168 -130h-90z" unicode="Ǿ" horiz-adv-x="840"/>
<glyph glyph-name="oslashacute" d="M176 29q-63 35 -98.5 96.5t-35.5 139.5t35.5 139.5t98.5 96t142 34.5t141.5 -34.5t98 -96t35.5 -139.5t-35.5 -139.5t-98 -96.5t-141.5 -35t-142 35zM409.5 101.5q40.5 23.5 63.5 66t23 97.5t-23 97.5t-63.5 65.5t-91.5 23t-91.5 -23t-64 -65.5t-23.5 -97.5t23.5 -97.5 t64 -66t91.5 -23.5t91.5 23.5zM508 598h59l-440 -669h-60zM376 737h122l-168 -130h-90z" unicode="ǿ" horiz-adv-x="635"/>
<glyph glyph-name="uni0200" d="M551 175h-372l-77 -175h-103l317 700h99l318 -700h-105zM516 255l-151 343l-151 -343h302zM129 887h101l89 -130h-81zM302 887h102l90 -130h-81z" unicode="Ȁ" horiz-adv-x="732"/>
<glyph glyph-name="uni0201" d="M452.5 481q58.5 -54 58.5 -161v-320h-91v70q-24 -37 -68.5 -56.5t-105.5 -19.5q-89 0 -142.5 43t-53.5 113t51 112.5t162 42.5h152v19q0 62 -36 95t-106 33q-47 0 -92 -15.5t-76 -41.5l-40 72q41 33 98 50.5t121 17.5q110 0 168.5 -54zM357 92.5q40 24.5 58 69.5v74h-148 q-122 0 -122 -82q0 -40 31 -63t86 -23t95 24.5zM54 737h101l89 -130h-81zM227 737h102l90 -130h-81z" unicode="ȁ" horiz-adv-x="598"/>
<glyph glyph-name="uni0202" d="M551 175h-372l-77 -175h-103l317 700h99l318 -700h-105zM516 255l-151 343l-151 -343h302zM251.5 856q45.5 37 114.5 37t114.5 -37t47.5 -99h-65q-1 37 -28.5 58.5t-68.5 21.5t-68.5 -21.5t-28.5 -58.5h-65q2 62 47.5 99z" unicode="Ȃ" horiz-adv-x="732"/>
<glyph glyph-name="uni0203" d="M452.5 481q58.5 -54 58.5 -161v-320h-91v70q-24 -37 -68.5 -56.5t-105.5 -19.5q-89 0 -142.5 43t-53.5 113t51 112.5t162 42.5h152v19q0 62 -36 95t-106 33q-47 0 -92 -15.5t-76 -41.5l-40 72q41 33 98 50.5t121 17.5q110 0 168.5 -54zM357 92.5q40 24.5 58 69.5v74h-148 q-122 0 -122 -82q0 -40 31 -63t86 -23t95 24.5zM176.5 706q45.5 37 114.5 37t114.5 -37t47.5 -99h-65q-1 37 -28.5 58.5t-68.5 21.5t-68.5 -21.5t-28.5 -58.5h-65q2 62 47.5 99z" unicode="ȃ" horiz-adv-x="598"/>
<glyph glyph-name="uni0204" d="M613 87v-87h-508v700h494v-87h-394v-215h351v-85h-351v-226h408zM116 887h101l89 -130h-81zM289 887h102l90 -130h-81z" unicode="Ȅ" horiz-adv-x="670"/>
<glyph glyph-name="uni0205" d="M568 233h-430q9 -70 61.5 -112.5t130.5 -42.5q95 0 153 64l53 -62q-36 -42 -89.5 -64t-119.5 -22q-84 0 -149 34.5t-100.5 96.5t-35.5 140q0 77 34.5 139t95 96.5t136.5 34.5t135.5 -34.5t93 -96.5t33.5 -142q0 -11 -2 -29zM192.5 412q-46.5 -42 -54.5 -110h340 q-8 67 -54.5 109.5t-115.5 42.5t-115.5 -42zM70 737h101l89 -130h-81zM243 737h102l90 -130h-81z" unicode="ȅ" horiz-adv-x="612"/>
<glyph glyph-name="uni0206" d="M613 87v-87h-508v700h494v-87h-394v-215h351v-85h-351v-226h408zM238.5 856q45.5 37 114.5 37t114.5 -37t47.5 -99h-65q-1 37 -28.5 58.5t-68.5 21.5t-68.5 -21.5t-28.5 -58.5h-65q2 62 47.5 99z" unicode="Ȇ" horiz-adv-x="670"/>
<glyph glyph-name="uni0207" d="M568 233h-430q9 -70 61.5 -112.5t130.5 -42.5q95 0 153 64l53 -62q-36 -42 -89.5 -64t-119.5 -22q-84 0 -149 34.5t-100.5 96.5t-35.5 140q0 77 34.5 139t95 96.5t136.5 34.5t135.5 -34.5t93 -96.5t33.5 -142q0 -11 -2 -29zM192.5 412q-46.5 -42 -54.5 -110h340 q-8 67 -54.5 109.5t-115.5 42.5t-115.5 -42zM192.5 706q45.5 37 114.5 37t114.5 -37t47.5 -99h-65q-1 37 -28.5 58.5t-68.5 21.5t-68.5 -21.5t-28.5 -58.5h-65q2 62 47.5 99z" unicode="ȇ" horiz-adv-x="612"/>
<glyph glyph-name="uni0208" d="M105 700h100v-700h-100v700zM-82 887h101l89 -130h-81zM91 887h102l90 -130h-81z" unicode="Ȉ" horiz-adv-x="310"/>
<glyph glyph-name="uni0209" d="M91 530h96v-530h-96v530zM-98 737h101l89 -130h-81zM75 737h102l90 -130h-81z" unicode="ȉ" horiz-adv-x="279"/>
<glyph glyph-name="uni020A" d="M105 700h100v-700h-100v700zM40.5 856q45.5 37 114.5 37t114.5 -37t47.5 -99h-65q-1 37 -28.5 58.5t-68.5 21.5t-68.5 -21.5t-28.5 -58.5h-65q2 62 47.5 99z" unicode="Ȋ" horiz-adv-x="310"/>
<glyph glyph-name="uni020B" d="M91 530h96v-530h-96v530zM40.5 706q38.5 37 98.5 37t98.5 -37t38.5 -99h-62q0 37 -20 58.5t-55 21.5t-55 -21.5t-20 -58.5h-62q0 62 38.5 99z" unicode="ȋ" horiz-adv-x="279"/>
<glyph glyph-name="uni020C" d="M230 38.5q-85 46.5 -133.5 128.5t-48.5 183t48.5 183t133.5 128.5t191 46.5q105 0 190 -46.5t133 -128t48 -183.5t-48 -183.5t-133 -128t-190 -46.5q-106 0 -191 46.5zM559.5 116q61.5 35 97 96.5t35.5 137.5t-35.5 137.5t-97 96.5t-138.5 35t-139.5 -35t-98 -96.5 t-35.5 -137.5t35.5 -137.5t98 -96.5t139.5 -35t138.5 35zM184 887h101l89 -130h-81zM357 887h102l90 -130h-81z" unicode="Ȍ" horiz-adv-x="840"/>
<glyph glyph-name="uni020D" d="M176 29q-63 35 -98.5 96.5t-35.5 139.5t35.5 139.5t98.5 96t142 34.5t141.5 -34.5t98 -96t35.5 -139.5t-35.5 -139.5t-98 -96.5t-141.5 -35t-142 35zM409.5 101.5q40.5 23.5 63.5 66t23 97.5t-23 97.5t-63.5 65.5t-91.5 23t-91.5 -23t-64 -65.5t-23.5 -97.5t23.5 -97.5 t64 -66t91.5 -23.5t91.5 23.5zM80 737h101l89 -130h-81zM253 737h102l90 -130h-81z" unicode="ȍ" horiz-adv-x="635"/>
<glyph glyph-name="uni020E" d="M230 38.5q-85 46.5 -133.5 128.5t-48.5 183t48.5 183t133.5 128.5t191 46.5q105 0 190 -46.5t133 -128t48 -183.5t-48 -183.5t-133 -128t-190 -46.5q-106 0 -191 46.5zM559.5 116q61.5 35 97 96.5t35.5 137.5t-35.5 137.5t-97 96.5t-138.5 35t-139.5 -35t-98 -96.5 t-35.5 -137.5t35.5 -137.5t98 -96.5t139.5 -35t138.5 35zM306.5 856q45.5 37 114.5 37t114.5 -37t47.5 -99h-65q-1 37 -28.5 58.5t-68.5 21.5t-68.5 -21.5t-28.5 -58.5h-65q2 62 47.5 99z" unicode="Ȏ" horiz-adv-x="840"/>
<glyph glyph-name="uni020F" d="M176 29q-63 35 -98.5 96.5t-35.5 139.5t35.5 139.5t98.5 96t142 34.5t141.5 -34.5t98 -96t35.5 -139.5t-35.5 -139.5t-98 -96.5t-141.5 -35t-142 35zM409.5 101.5q40.5 23.5 63.5 66t23 97.5t-23 97.5t-63.5 65.5t-91.5 23t-91.5 -23t-64 -65.5t-23.5 -97.5t23.5 -97.5 t64 -66t91.5 -23.5t91.5 23.5zM202.5 706q45.5 37 114.5 37t114.5 -37t47.5 -99h-65q-1 37 -28.5 58.5t-68.5 21.5t-68.5 -21.5t-28.5 -58.5h-65q2 62 47.5 99z" unicode="ȏ" horiz-adv-x="635"/>
<glyph glyph-name="uni0210" d="M573 0l-151 215q-28 -2 -44 -2h-173v-213h-100v700h273q136 0 214 -65t78 -179q0 -81 -40 -138t-114 -83l166 -235h-109zM520 339q50 41 50 117t-50 116.5t-145 40.5h-170v-315h170q95 0 145 41zM134 887h101l89 -130h-81zM307 887h102l90 -130h-81z" unicode="Ȑ" horiz-adv-x="727"/>
<glyph glyph-name="uni0211" d="M257 511q49 24 119 24v-93q-8 1 -22 1q-78 0 -122.5 -46.5t-44.5 -132.5v-264h-96v530h92v-89q25 46 74 70zM-3 737h101l89 -130h-81zM170 737h102l90 -130h-81z" unicode="ȑ" horiz-adv-x="410"/>
<glyph glyph-name="uni0212" d="M573 0l-151 215q-28 -2 -44 -2h-173v-213h-100v700h273q136 0 214 -65t78 -179q0 -81 -40 -138t-114 -83l166 -235h-109zM520 339q50 41 50 117t-50 116.5t-145 40.5h-170v-315h170q95 0 145 41zM256.5 856q45.5 37 114.5 37t114.5 -37t47.5 -99h-65q-1 37 -28.5 58.5 t-68.5 21.5t-68.5 -21.5t-28.5 -58.5h-65q2 62 47.5 99z" unicode="Ȓ" horiz-adv-x="727"/>
<glyph glyph-name="uni0213" d="M257 511q49 24 119 24v-93q-8 1 -22 1q-78 0 -122.5 -46.5t-44.5 -132.5v-264h-96v530h92v-89q25 46 74 70zM119.5 706q45.5 37 114.5 37t114.5 -37t47.5 -99h-65q-1 37 -28.5 58.5t-68.5 21.5t-68.5 -21.5t-28.5 -58.5h-65q2 62 47.5 99z" unicode="ȓ" horiz-adv-x="410"/>
<glyph glyph-name="uni0214" d="M177 72q-78 80 -78 230v398h100v-394q0 -225 197 -225q96 0 147 55.5t51 169.5v394h97v-398q0 -151 -78 -230.5t-218 -79.5t-218 80zM159 887h101l89 -130h-81zM332 887h102l90 -130h-81z" unicode="Ȕ" horiz-adv-x="791"/>
<glyph glyph-name="uni0215" d="M585 530v-530h-91v80q-29 -41 -76.5 -63.5t-103.5 -22.5q-106 0 -167 58.5t-61 172.5v305h96v-294q0 -77 37 -116.5t106 -39.5q76 0 120 46t44 130v274h96zM99 737h101l89 -130h-81zM272 737h102l90 -130h-81z" unicode="ȕ" horiz-adv-x="677"/>
<glyph glyph-name="uni0216" d="M177 72q-78 80 -78 230v398h100v-394q0 -225 197 -225q96 0 147 55.5t51 169.5v394h97v-398q0 -151 -78 -230.5t-218 -79.5t-218 80zM281.5 856q45.5 37 114.5 37t114.5 -37t47.5 -99h-65q-1 37 -28.5 58.5t-68.5 21.5t-68.5 -21.5t-28.5 -58.5h-65q2 62 47.5 99z" unicode="Ȗ" horiz-adv-x="791"/>
<glyph glyph-name="uni0217" d="M585 530v-530h-91v80q-29 -41 -76.5 -63.5t-103.5 -22.5q-106 0 -167 58.5t-61 172.5v305h96v-294q0 -77 37 -116.5t106 -39.5q76 0 120 46t44 130v274h96zM221.5 706q45.5 37 114.5 37t114.5 -37t47.5 -99h-65q-1 37 -28.5 58.5t-68.5 21.5t-68.5 -21.5t-28.5 -58.5h-65 q2 62 47.5 99z" unicode="ȗ" horiz-adv-x="677"/>
<glyph glyph-name="Scommaaccent" d="M156.5 16.5q-73.5 24.5 -115.5 63.5l37 78q40 -36 102.5 -58.5t128.5 -22.5q87 0 130 29.5t43 78.5q0 36 -23.5 58.5t-58 34.5t-97.5 27q-79 19 -127.5 38t-83 58.5t-34.5 106.5q0 56 29.5 101t89.5 72t149 27q62 0 122 -16t103 -46l-33 -80q-44 28 -94 42.5t-98 14.5 q-85 0 -127.5 -31t-42.5 -80q0 -36 24 -58.5t59.5 -35t96.5 -26.5q79 -19 127 -38t82.5 -58t34.5 -105q0 -55 -30 -100.5t-91 -72t-150 -26.5q-79 0 -152.5 24.5zM359 -107q14 -13 14 -33q0 -24 -13 -51l-30 -72h-50l23 80q-15 5 -23.5 16t-8.5 27q0 20 14 33t37 13t37 -13z " unicode="Ș" horiz-adv-x="621"/>
<glyph glyph-name="scommaaccent" d="M118 11.5q-60 17.5 -94 44.5l40 76q35 -25 85 -40t101 -15q126 0 126 72q0 24 -17 38t-42.5 20.5t-72.5 14.5q-64 10 -104.5 23t-69.5 44t-29 87q0 72 60 115.5t161 43.5q53 0 106 -13t87 -35l-41 -76q-65 42 -153 42q-61 0 -93 -20t-32 -53q0 -26 18 -41t44.5 -22 t74.5 -16q64 -11 103.5 -23.5t67.5 -42.5t28 -84q0 -72 -61.5 -114.5t-167.5 -42.5q-65 0 -125 17.5zM285 -107q14 -13 14 -33q0 -24 -13 -51l-30 -72h-50l23 80q-15 5 -23.5 16t-8.5 27q0 20 14 33t37 13t37 -13z" unicode="ș" horiz-adv-x="501"/>
<glyph glyph-name="uni021A" d="M244 613h-240v87h579v-87h-240v-613h-99v613zM330 -107q14 -13 14 -33q0 -24 -13 -51l-30 -72h-50l23 80q-15 5 -23.5 16t-8.5 27q0 20 14 33t37 13t37 -13z" unicode="Ț" horiz-adv-x="587"/>
<glyph glyph-name="uni021B" d="M389 31q-21 -18 -52 -27.5t-64 -9.5q-80 0 -124 43t-44 123v291h-90v79h90v116h96v-116h152v-79h-152v-287q0 -43 21.5 -66t61.5 -23q44 0 75 25zM290 -107q14 -13 14 -33q0 -24 -13 -51l-30 -72h-50l23 80q-15 5 -23.5 16t-8.5 27q0 20 14 33t37 13t37 -13z" unicode="ț" horiz-adv-x="414"/>
<glyph glyph-name="uni021E" d="M707 700v-700h-100v312h-402v-312h-100v700h100v-301h402v301h100zM584 887l-133 -130h-92l-133 130h87l92 -76l92 76h87z" unicode="Ȟ" horiz-adv-x="812"/>
<glyph glyph-name="uni021F" d="M534.5 476.5q59.5 -58.5 59.5 -171.5v-305h-96v294q0 77 -37 116t-106 39q-78 0 -123 -45.5t-45 -130.5v-273h-96v742h96v-287q30 38 78.5 59t108.5 21q101 0 160.5 -58.5zM318 949l-133 -130h-92l-133 130h87l92 -76l92 76h87z" unicode="ȟ" horiz-adv-x="681"/>
<glyph glyph-name="uni022A" d="M230 38.5q-85 46.5 -133.5 128.5t-48.5 183t48.5 183t133.5 128.5t191 46.5q105 0 190 -46.5t133 -128t48 -183.5t-48 -183.5t-133 -128t-190 -46.5q-106 0 -191 46.5zM559.5 116q61.5 35 97 96.5t35.5 137.5t-35.5 137.5t-97 96.5t-138.5 35t-139.5 -35t-98 -96.5 t-35.5 -137.5t35.5 -137.5t98 -96.5t139.5 -35t138.5 35zM295.5 788q-14.5 14 -14.5 36q0 21 14.5 35t35.5 14q20 0 34.5 -14t14.5 -35t-14.5 -35.5t-34.5 -14.5q-21 0 -35.5 14zM477.5 788.5q-14.5 14.5 -14.5 35.5t14.5 35t34.5 14q21 0 35.5 -14t14.5 -35t-14.5 -35.5 t-35.5 -14.5q-20 0 -34.5 14.5zM258 978h326v-57h-326v57z" unicode="Ȫ" horiz-adv-x="840"/>
<glyph glyph-name="uni022B" d="M176 29q-63 35 -98.5 96.5t-35.5 139.5t35.5 139.5t98.5 96t142 34.5t141.5 -34.5t98 -96t35.5 -139.5t-35.5 -139.5t-98 -96.5t-141.5 -35t-142 35zM409.5 101.5q40.5 23.5 63.5 66t23 97.5t-23 97.5t-63.5 65.5t-91.5 23t-91.5 -23t-64 -65.5t-23.5 -97.5t23.5 -97.5 t64 -66t91.5 -23.5t91.5 23.5zM191.5 638q-14.5 14 -14.5 36q0 21 14.5 35t35.5 14q20 0 34.5 -14t14.5 -35t-14.5 -35.5t-34.5 -14.5q-21 0 -35.5 14zM373.5 638.5q-14.5 14.5 -14.5 35.5t14.5 35t34.5 14q21 0 35.5 -14t14.5 -35t-14.5 -35.5t-35.5 -14.5 q-20 0 -34.5 14.5zM154 828h326v-57h-326v57z" unicode="ȫ" horiz-adv-x="635"/>
<glyph glyph-name="uni022C" d="M230 38.5q-85 46.5 -133.5 128.5t-48.5 183t48.5 183t133.5 128.5t191 46.5q105 0 190 -46.5t133 -128t48 -183.5t-48 -183.5t-133 -128t-190 -46.5q-106 0 -191 46.5zM559.5 116q61.5 35 97 96.5t35.5 137.5t-35.5 137.5t-97 96.5t-138.5 35t-139.5 -35t-98 -96.5 t-35.5 -137.5t35.5 -137.5t98 -96.5t139.5 -35t138.5 35zM447.5 770q-18.5 8 -42.5 24q-31 22 -49 22q-44 0 -46 -50h-54q1 48 26.5 75.5t69.5 27.5q23 0 41.5 -8t42.5 -24q17 -11 28 -16.5t23 -5.5q22 0 33.5 13t12.5 36h53q-1 -47 -26.5 -74.5t-68.5 -27.5q-25 0 -43.5 8z M258 978h326v-57h-326v57z" unicode="Ȭ" horiz-adv-x="840"/>
<glyph glyph-name="uni022D" d="M176 29q-63 35 -98.5 96.5t-35.5 139.5t35.5 139.5t98.5 96t142 34.5t141.5 -34.5t98 -96t35.5 -139.5t-35.5 -139.5t-98 -96.5t-141.5 -35t-142 35zM409.5 101.5q40.5 23.5 63.5 66t23 97.5t-23 97.5t-63.5 65.5t-91.5 23t-91.5 -23t-64 -65.5t-23.5 -97.5t23.5 -97.5 t64 -66t91.5 -23.5t91.5 23.5zM343.5 620q-18.5 8 -42.5 24q-31 22 -49 22q-44 0 -46 -50h-54q1 48 26.5 75.5t69.5 27.5q23 0 41.5 -8t42.5 -24q17 -11 28 -16.5t23 -5.5q22 0 33.5 13t12.5 36h53q-1 -47 -26.5 -74.5t-68.5 -27.5q-25 0 -43.5 8zM154 828h326v-57h-326v57z " unicode="ȭ" horiz-adv-x="635"/>
<glyph glyph-name="uni0230" d="M230 38.5q-85 46.5 -133.5 128.5t-48.5 183t48.5 183t133.5 128.5t191 46.5q105 0 190 -46.5t133 -128t48 -183.5t-48 -183.5t-133 -128t-190 -46.5q-106 0 -191 46.5zM559.5 116q61.5 35 97 96.5t35.5 137.5t-35.5 137.5t-97 96.5t-138.5 35t-139.5 -35t-98 -96.5 t-35.5 -137.5t35.5 -137.5t98 -96.5t139.5 -35t138.5 35zM385 788q-15 15 -15 37t15 36.5t36 14.5t36 -14.5t15 -36.5t-15 -37t-36 -15t-36 15zM258 981h326v-57h-326v57z" unicode="Ȱ" horiz-adv-x="840"/>
<glyph glyph-name="uni0231" d="M176 29q-63 35 -98.5 96.5t-35.5 139.5t35.5 139.5t98.5 96t142 34.5t141.5 -34.5t98 -96t35.5 -139.5t-35.5 -139.5t-98 -96.5t-141.5 -35t-142 35zM409.5 101.5q40.5 23.5 63.5 66t23 97.5t-23 97.5t-63.5 65.5t-91.5 23t-91.5 -23t-64 -65.5t-23.5 -97.5t23.5 -97.5 t64 -66t91.5 -23.5t91.5 23.5zM281 638q-15 15 -15 37t15 36.5t36 14.5t36 -14.5t15 -36.5t-15 -37t-36 -15t-36 15zM154 831h326v-57h-326v57z" unicode="ȱ" horiz-adv-x="635"/>
<glyph glyph-name="uni0232" d="M373 242v-242h-99v244l-278 456h107l224 -369l225 369h99zM161 852h326v-60h-326v60z" unicode="Ȳ" horiz-adv-x="647"/>
<glyph glyph-name="uni0233" d="M560 530l-257 -583q-34 -81 -79.5 -114t-109.5 -33q-39 0 -75.5 12.5t-60.5 36.5l41 72q41 -39 95 -39q35 0 58.5 18.5t42.5 63.5l17 37l-234 529h100l185 -424l183 424h94zM103 702h326v-60h-326v60z" unicode="ȳ" horiz-adv-x="559"/>
<glyph glyph-name="uni0237" d="M-42 -192q-30 8 -50 24l31 74q30 -25 78 -25q38 0 58.5 23.5t20.5 69.5v556h96v-554q0 -82 -44 -129t-125 -47q-35 0 -65 8z" unicode="ȷ" horiz-adv-x="284"/>
<glyph glyph-name="uni0259" d="M44 297h430q-9 70 -61.5 112.5t-130.5 42.5q-95 0 -153 -64l-53 62q36 42 89.5 64t119.5 22q84 0 149 -34.5t100.5 -96.5t35.5 -140q0 -77 -34.5 -139t-95 -96.5t-136.5 -34.5t-135.5 34.5t-93 96.5t-33.5 142q0 11 2 29zM419.5 118q46.5 42 54.5 110h-340 q8 -67 54.5 -109.5t115.5 -42.5t115.5 42z" unicode="ə" horiz-adv-x="612"/>
<glyph glyph-name="uni0292" d="M438.5 162q55.5 -55 55.5 -143q0 -62 -29.5 -112t-88.5 -79t-144 -29q-76 0 -143.5 24t-108.5 64l37 80q35 -36 91.5 -57.5t119.5 -21.5q80 0 123.5 34.5t43.5 96.5q0 61 -42.5 95t-128.5 34h-57v68l182 229h-344v85h459v-69l-188 -236q107 -8 162.5 -63z" unicode="ʒ" horiz-adv-x="527"/>
<glyph glyph-name="uni02B9" d="M63 700h84l-7 -270h-71z" unicode="ʹ" horiz-adv-x="210"/>
<glyph glyph-name="uni02BA" d="M63 700h84l-7 -270h-71zM244 700h84l-7 -270h-71z" unicode="ʺ" horiz-adv-x="391"/>
<glyph glyph-name="uni02BB" d="M187 689q11 -16 11 -39q0 -30 -19 -49t-47 -19q-29 0 -48 19.5t-19 48.5q0 14 3.5 28.5t14.5 42.5l47 140h63l-37 -149q20 -7 31 -23z" unicode="ʻ" horiz-adv-x="273"/>
<glyph glyph-name="uni02BC" d="M56 700h66l-16 -261h-53z" unicode="ʼ" horiz-adv-x="174"/>
<glyph glyph-name="uni02BE" d="M299 638q29 0 47.5 18.5t18.5 45.5q0 29 -18.5 47.5t-47.5 18.5v44q49 0 80.5 -32t31.5 -78t-31.5 -77t-80.5 -31v44z" unicode="ʾ" horiz-adv-x="600"/>
<glyph glyph-name="uni02BF" d="M219 625.5q-32 31.5 -32 76.5q0 46 32 78t80 32v-44q-28 0 -46.5 -19t-18.5 -47q0 -27 18.5 -45.5t46.5 -18.5v-44q-48 0 -80 31.5z" unicode="ʿ" horiz-adv-x="600"/>
<glyph glyph-name="circumflex" d="M392 607l-92 77l-92 -77h-87l133 130h92l133 -130h-87z" unicode="ˆ" horiz-adv-x="600"/>
<glyph glyph-name="caron" d="M479 737l-133 -130h-92l-133 130h87l92 -76l92 76h87z" unicode="ˇ" horiz-adv-x="600"/>
<glyph glyph-name="uni02C8" d="M53 700h66v-190h-66v190z" unicode="ˈ" horiz-adv-x="172"/>
<glyph glyph-name="uni02C9" d="M137 702h326v-60h-326v60z" unicode="ˉ" horiz-adv-x="600"/>
<glyph glyph-name="uni02CA" d="M361 737h122l-168 -130h-90z" unicode="ˊ" horiz-adv-x="600"/>
<glyph glyph-name="uni02CB" d="M117 737h122l136 -130h-90z" unicode="ˋ" horiz-adv-x="600"/>
<glyph glyph-name="uni02CC" d="M53 -30h67v-190h-67v190z" unicode="ˌ" horiz-adv-x="173"/>
<glyph glyph-name="breve" d="M185.5 638q-45.5 37 -47.5 99h65q1 -36 28.5 -58t68.5 -22t68.5 22t28.5 58h65q-2 -62 -47.5 -99t-114.5 -37t-114.5 37z" unicode="˘" horiz-adv-x="600"/>
<glyph glyph-name="dotaccent" d="M258 642q-17 17 -17 42t17 42t42 17t42 -17t17 -42t-17 -42t-42 -17t-42 17z" unicode="˙" horiz-adv-x="600"/>
<glyph glyph-name="ring" d="M221 625.5q-32 31.5 -32 76.5t32 77.5t78 32.5q47 0 79 -32.5t32 -77.5t-32 -76.5t-79 -31.5q-46 0 -78 31.5zM346.5 655q18.5 19 18.5 47q0 29 -19 48t-47 19t-46.5 -19t-18.5 -48q0 -28 18.5 -47t46.5 -19q29 0 47.5 19z" unicode="˚" horiz-adv-x="600"/>
<glyph glyph-name="ogonek" d="M145 -196.5q-32 27.5 -32 73.5q0 44 34 84.5t109 70.5l45 -32q-64 -28 -91.5 -56.5t-27.5 -59.5q0 -24 17 -38t44 -14q37 0 62 17l18 -49q-38 -24 -90 -24q-56 0 -88 27.5z" unicode="˛" horiz-adv-x="600"/>
<glyph glyph-name="tilde" d="M328.5 620q-17.5 10 -43.5 30q-15 14 -26 20.5t-22 6.5q-22 0 -36 -16.5t-15 -45.5h-54q2 56 28.5 89t69.5 33q24 0 42.5 -10.5t42.5 -30.5q17 -14 27 -20.5t21 -6.5q22 0 36 16t15 44h54q-2 -54 -28.5 -86.5t-69.5 -32.5q-24 0 -41.5 10z" unicode="˜" horiz-adv-x="600"/>
<glyph glyph-name="hungarumlaut" d="M262 737h102l-111 -130h-81zM436 737h101l-109 -130h-81z" unicode="˝" horiz-adv-x="600"/>
<glyph glyph-name="gravecomb" d="M-483 737h122l136 -130h-90z" unicode="̀"/>
<glyph glyph-name="acutecomb" d="M-239 737h122l-168 -130h-90z" unicode="́"/>
<glyph glyph-name="uni0302" d="M-208 607l-92 77l-92 -77h-87l133 130h92l133 -130h-87z" unicode="̂"/>
<glyph glyph-name="tildecomb" d="M-271.5 620q-17.5 10 -43.5 30q-15 14 -26 20.5t-22 6.5q-22 0 -36 -16.5t-15 -45.5h-54q2 56 28.5 89t69.5 33q24 0 42.5 -10.5t42.5 -30.5q17 -14 27 -20.5t21 -6.5q22 0 36 16t15 44h54q-2 -54 -28.5 -86.5t-69.5 -32.5q-24 0 -41.5 10z" unicode="̃"/>
<glyph glyph-name="uni0304" d="M-463 702h326v-60h-326v60z" unicode="̄"/>
<glyph glyph-name="uni0306" d="M-414.5 638q-45.5 37 -47.5 99h65q1 -36 28.5 -58t68.5 -22t68.5 22t28.5 58h65q-2 -62 -47.5 -99t-114.5 -37t-114.5 37z" unicode="̆"/>
<glyph glyph-name="uni0307" d="M-342 642q-17 17 -17 42t17 42t42 17t42 -17t17 -42t-17 -42t-42 -17t-42 17z" unicode="̇"/>
<glyph glyph-name="uni0308" d="M-429 638.5q-15 14.5 -15 36.5t15 37t36 15t36 -15t15 -37t-15 -36.5t-36 -14.5t-36 14.5zM-243 638.5q-15 14.5 -15 36.5t15 37t36 15t36 -15t15 -37t-15 -36.5t-36 -14.5t-36 14.5z" unicode="̈"/>
<glyph glyph-name="hookabovecomb" d="M-314 637q29 13 42.5 29.5t13.5 37.5q0 20 -14.5 33.5t-37.5 13.5q-31 0 -60 -19l-22 45q18 14 42 21t49 7q45 0 73.5 -25.5t28.5 -67.5q0 -76 -82 -114z" unicode="̉"/>
<glyph glyph-name="uni030A" d="M-379 625.5q-32 31.5 -32 76.5t32 77.5t78 32.5q47 0 79 -32.5t32 -77.5t-32 -76.5t-79 -31.5q-46 0 -78 31.5zM-253.5 655q18.5 19 18.5 47q0 29 -19 48t-47 19t-46.5 -19t-18.5 -48q0 -28 18.5 -47t46.5 -19q29 0 47.5 19z" unicode="̊"/>
<glyph glyph-name="uni030B" d="M-338 737h102l-111 -130h-81zM-164 737h101l-109 -130h-81z" unicode="̋"/>
<glyph glyph-name="uni030C" d="M-121 737l-133 -130h-92l-133 130h87l92 -76l92 76h87z" unicode="̌"/>
<glyph glyph-name="uni030F" d="M-537 737h101l89 -130h-81zM-364 737h102l90 -130h-81z" unicode="̏"/>
<glyph glyph-name="uni0311" d="M-414.5 706q45.5 37 114.5 37t114.5 -37t47.5 -99h-65q-1 37 -28.5 58.5t-68.5 21.5t-68.5 -21.5t-28.5 -58.5h-65q2 62 47.5 99z" unicode="̑"/>
<glyph glyph-name="uni0312" d="M-253 673.5q9 -10.5 9 -26.5q0 -21 -15 -33.5t-41 -12.5t-41 13t-15 33t15 50l37 94h55l-29 -102q16 -5 25 -15.5z" unicode="̒"/>
<glyph glyph-name="uni031B" d="M-318 530h18q32 0 48 18t16 47q0 36 -20 63l61 23q28 -38 28 -89q0 -62 -35.5 -98.5t-97.5 -36.5h-18v73z" unicode="̛"/>
<glyph glyph-name="dotbelowcomb" d="M-336 -182q-15 14 -15 36t15 37t36 15t36 -15t15 -37t-15 -36t-36 -14t-36 14z" unicode="̣"/>
<glyph glyph-name="uni0324" d="M-421.5 -178.5q-14.5 14.5 -14.5 35.5t14.5 35t34.5 14q21 0 36 -14t15 -35t-15 -35.5t-36 -14.5q-20 0 -34.5 14.5zM-248.5 -179q-14.5 14 -14.5 36q0 21 14.5 35t35.5 14q20 0 34.5 -14t14.5 -35t-14.5 -35.5t-34.5 -14.5q-21 0 -35.5 14z" unicode="̤"/>
<glyph glyph-name="uni0326" d="M-263 -107q14 -13 14 -33q0 -24 -13 -51l-30 -72h-50l23 80q-15 5 -23.5 16t-8.5 27q0 20 14 33t37 13t37 -13z" unicode="̦"/>
<glyph glyph-name="uni0327" d="M-414 -202l21 49q30 -17 68 -17q56 0 56 40q0 18 -14 28.5t-43 10.5h-27l25 98h55l-15 -57q42 -4 64.5 -26.5t22.5 -56.5q0 -42 -34 -66.5t-90 -24.5q-52 0 -89 22z" unicode="̧"/>
<glyph glyph-name="uni0328" d="M-455 -196.5q-32 27.5 -32 73.5q0 44 34 84.5t109 70.5l45 -32q-64 -28 -91.5 -56.5t-27.5 -59.5q0 -24 17 -38t44 -14q37 0 62 17l18 -49q-38 -24 -90 -24q-56 0 -88 27.5z" unicode="̨"/>
<glyph glyph-name="uni032E" d="M-414.5 -174q-45.5 35 -47.5 93h63q0 -34 28 -54.5t71 -20.5t71 20.5t28 54.5h63q-2 -58 -47.5 -93t-114.5 -35t-114.5 35z" unicode="̮"/>
<glyph glyph-name="uni0331" d="M-463 -113h326v-61h-326v61z" unicode="̱"/>
<glyph glyph-name="uni0335" d="M-498 472h396v-68h-396v68z" unicode="̵"/>
<glyph glyph-name="uni0336" d="M-840 477h807v-79h-807v79z" unicode="̶"/>
<glyph glyph-name="uni0337" d="M-371 314l265 202l43 -58l-265 -201z" unicode="̷"/>
<glyph glyph-name="uni0338" d="M-119 599h59l-440 -669h-60z" unicode="̸"/>
<glyph glyph-name="uni0394" d="M733 0h-734l317 700h99zM140 87h449l-224 512z" unicode="Δ" horiz-adv-x="732"/>
<glyph glyph-name="uni03A9" d="M9 87h196q-61 49 -94 119t-33 153q0 101 48.5 180.5t133 124t189.5 44.5t189.5 -44.5t133 -124t48.5 -180.5q0 -83 -33 -153t-94 -119h196v-87h-346v81q86 43 131.5 115t45.5 158q0 77 -34.5 137.5t-96.5 94t-140 33.5t-140 -33.5t-96.5 -94t-34.5 -137.5q0 -87 46 -159 t131 -114v-81h-346v87z" unicode="Ω" horiz-adv-x="898"/>
<glyph glyph-name="uni03BC" d="M590 530v-530h-91v82q-27 -45 -71.5 -66.5t-95.5 -21.5q-96 0 -145 61v-249h-96v724h96v-294q0 -77 37.5 -116.5t105.5 -39.5q76 0 120 46t44 130v274h96z" unicode="μ" horiz-adv-x="682"/>
<glyph glyph-name="pi" d="M714 451h-147v-451h-96v451h-149l-52 -451h-96l52 451h-44q-105 0 -105 -88q0 -35 29 -80l-73 -22q-20 22 -30.5 54t-10.5 63q0 43 22 78t63 54.5t94 19.5h544z" unicode="π" horiz-adv-x="724"/>
<glyph glyph-name="uni0400" d="M617 87v-87h-508v700h494v-87h-394v-215h351v-85h-351v-226h408zM174 887h122l136 -130h-90z" unicode="Ѐ" horiz-adv-x="665"/>
<glyph glyph-name="uni0401" d="M617 87v-87h-508v700h494v-87h-394v-215h351v-85h-351v-226h408zM228 788.5q-15 14.5 -15 36.5t15 37t36 15t36 -15t15 -37t-15 -36.5t-36 -14.5t-36 14.5zM414 788.5q-15 14.5 -15 36.5t15 37t36 15t36 -15t15 -37t-15 -36.5t-36 -14.5t-36 14.5z" unicode="Ё" horiz-adv-x="665"/>
<glyph glyph-name="uni0402" d="M552 425q112 0 177.5 -55.5t65.5 -159.5q0 -107 -65.5 -161t-166.5 -54q-41 0 -85 9l12 83q32 -8 61 -8q62 0 103.5 32.5t41.5 96.5q0 65 -44.5 99t-118.5 34q-85 0 -181 -42v-299h-98v613h-240v87h601v-87h-263v-225q107 37 200 37z" unicode="Ђ" horiz-adv-x="833"/>
<glyph glyph-name="uni0403" d="M567 613h-360l1 -613h-99v700h459zM391 887h122l-168 -130h-90z" unicode="Ѓ" horiz-adv-x="578"/>
<glyph glyph-name="uni0404" d="M225 38.5q-80 46.5 -126 128t-46 183.5t46 183.5t126 128t180 46.5q86 0 156 -28t117 -82l-63 -63q-79 83 -205 83q-67 0 -122 -29.5t-90 -82.5t-42 -121h339v-82h-338q10 -65 45 -115t89 -78t119 -28q125 0 205 83l63 -63q-47 -54 -117.5 -82t-155.5 -28 q-100 0 -180 46.5z" unicode="Є" horiz-adv-x="708"/>
<glyph glyph-name="uni0405" d="M164.5 16.5q-73.5 24.5 -115.5 63.5l37 78q40 -36 102.5 -58.5t128.5 -22.5q87 0 130 29.5t43 78.5q0 36 -23.5 58.5t-58 34.5t-97.5 27q-79 19 -127.5 38t-83 58.5t-34.5 106.5q0 56 29.5 101t89.5 72t149 27q62 0 122 -16t103 -46l-33 -80q-44 28 -94 42.5t-98 14.5 q-85 0 -127.5 -31t-42.5 -80q0 -36 24 -58.5t59.5 -35t96.5 -26.5q79 -19 127 -38t82.5 -58t34.5 -105q0 -55 -30 -100.5t-91 -72t-150 -26.5q-79 0 -152.5 24.5z" unicode="Ѕ" horiz-adv-x="636"/>
<glyph glyph-name="uni0406" d="M109 700h99v-700h-99v700z" unicode="І" horiz-adv-x="317"/>
<glyph glyph-name="uni0407" d="M105 700h100v-700h-100v700zM26 788.5q-15 14.5 -15 36.5t15 37t36 15t36 -15t15 -37t-15 -36.5t-36 -14.5t-36 14.5zM212 788.5q-15 14.5 -15 36.5t15 37t36 15t36 -15t15 -37t-15 -36.5t-36 -14.5t-36 14.5z" unicode="Ї" horiz-adv-x="310"/>
<glyph glyph-name="uni0408" d="M105 18.5q-54 26.5 -87 74.5l58 68q58 -83 146 -83q59 0 89.5 36t30.5 106v393h-253v87h352v-475q0 -116 -55.5 -174.5t-163.5 -58.5q-63 0 -117 26.5z" unicode="Ј" horiz-adv-x="540"/>
<glyph glyph-name="uni0409" d="M681 700v-700h-98v613h-310l-7 -205q-5 -145 -23.5 -235t-58.5 -135.5t-108 -45.5q-31 0 -63 8l7 89q16 -4 32 -4q43 0 69 34.5t39 103.5t17 182l11 295h493zM1081.5 400q66.5 -56 66.5 -165q0 -115 -71.5 -175t-204.5 -60h-289v700h99v-244h208q125 0 191.5 -56z M1001.5 118.5q46.5 39.5 46.5 114.5q0 144 -180 144h-186v-298h186q87 0 133.5 39.5z" unicode="Љ" horiz-adv-x="1187"/>
<glyph glyph-name="uni040A" d="M1080.5 370q63.5 -54 63.5 -152q0 -103 -68.5 -160.5t-188.5 -57.5h-290v334h-389v-334h-99v700h99v-280h389v280h98v-276h206q116 0 179.5 -54zM999.5 114.5q43.5 35.5 43.5 99.5q0 63 -42.5 96.5t-122.5 33.5h-183v-265h183q78 0 121.5 35.5z" unicode="Њ" horiz-adv-x="1180"/>
<glyph glyph-name="uni040B" d="M728 363q65 -59 65 -174v-189h-98v176q0 76 -44 116.5t-122 40.5q-77 0 -179 -44v-289h-98v613h-239v87h596v-87h-259v-232q107 41 200 41q113 0 178 -59z" unicode="Ћ" horiz-adv-x="842"/>
<glyph glyph-name="uni040C" d="M353 308h-146v-308h-98v700h98v-304h148l220 304h107l-250 -339l262 -361h-114zM420 887h122l-168 -130h-90z" unicode="Ќ" horiz-adv-x="711"/>
<glyph glyph-name="uni040D" d="M109 700h99v-540l414 540h92v-700h-98v539l-415 -539h-92v700zM227 887h122l136 -130h-90z" unicode="Ѝ" horiz-adv-x="823"/>
<glyph glyph-name="uni040E" d="M682 700l-311 -577q-37 -69 -87 -103t-109 -34q-46 0 -94 21l26 80q37 -13 66 -13q66 0 109 70l16 25l-282 531h107l227 -444l233 444h99zM213.5 784.5q-44.5 35.5 -45.5 101.5h71q1 -39 27.5 -60.5t73.5 -21.5q45 0 72.5 21.5t28.5 60.5h70q-1 -65 -45.5 -101 t-125.5 -36q-82 0 -126.5 35.5z" unicode="Ў" horiz-adv-x="691"/>
<glyph glyph-name="uni040F" d="M697 0h-248v-159h-92v159h-248v700h99v-613h390v613h99v-700z" unicode="Џ" horiz-adv-x="807"/>
<glyph glyph-name="uni0410" d="M564 175h-372l-77 -175h-103l317 700h99l318 -700h-105zM529 255l-151 343l-151 -343h302z" unicode="А" horiz-adv-x="758"/>
<glyph glyph-name="uni0411" d="M109 700h528v-85h-429v-200h218q125 0 190 -52t65 -150q0 -103 -70.5 -158t-201.5 -55h-300v700zM405 79q86 0 131 33t45 97q0 127 -176 127h-197v-257h197z" unicode="Б" horiz-adv-x="731"/>
<glyph glyph-name="uni0412" d="M652.5 302.5q36.5 -43.5 36.5 -111.5q0 -91 -66.5 -141t-193.5 -50h-320v700h301q115 0 179.5 -46.5t64.5 -133.5q0 -57 -28.5 -97t-80.5 -60q71 -17 107.5 -60.5zM208 392h195q73 0 111.5 29t38.5 85t-39 85.5t-111 29.5h-195v-229zM588 199q0 60 -40.5 88.5 t-120.5 28.5h-219v-237h219q161 0 161 120z" unicode="В" horiz-adv-x="747"/>
<glyph glyph-name="uni0413" d="M567 613h-360l1 -613h-99v700h459z" unicode="Г" horiz-adv-x="578"/>
<glyph glyph-name="uni0414" d="M776 87v-240h-93v153h-576l-1 -153h-93l1 240h34q66 4 93 104.5t33 283.5l7 225h492v-613h103zM238.5 221q-18.5 -97 -59.5 -134h395v526h-307l-5 -147q-5 -148 -23.5 -245z" unicode="Д" horiz-adv-x="804"/>
<glyph glyph-name="uni0415" d="M617 87v-87h-508v700h494v-87h-394v-215h351v-85h-351v-226h408z" unicode="Е" horiz-adv-x="665"/>
<glyph glyph-name="uni0416" d="M697 308h-133v-308h-98v308h-134l-196 -308h-117l231 364l-214 336h107l187 -304h136v304h98v-304h134l188 304h107l-214 -338l231 -362h-117z" unicode="Ж" horiz-adv-x="1029"/>
<glyph glyph-name="uni0417" d="M547 302.5q37 -44.5 37 -106.5t-39.5 -108.5t-105 -71t-142.5 -24.5q-70 0 -139 21t-126 63l35 74q46 -36 103 -54t115 -18q84 0 141 35.5t57 97.5q0 53 -43 81.5t-121 28.5h-156v81h149q67 0 104.5 27.5t37.5 76.5q0 55 -49 87t-124 32q-49 0 -99.5 -14t-95.5 -42 l-32 82q53 30 112 45t118 15q74 0 136 -23t98.5 -67t36.5 -103q0 -53 -29.5 -93t-81.5 -60q66 -18 103 -62.5z" unicode="З" horiz-adv-x="642"/>
<glyph glyph-name="uni0418" d="M109 700h99v-540l414 540h92v-700h-98v539l-415 -539h-92v700z" unicode="И" horiz-adv-x="823"/>
<glyph glyph-name="uni0419" d="M109 700h99v-540l414 540h92v-700h-98v539l-415 -539h-92v700zM283.5 784.5q-44.5 35.5 -45.5 101.5h71q1 -39 27.5 -60.5t73.5 -21.5q45 0 72.5 21.5t28.5 60.5h70q-1 -65 -45.5 -101t-125.5 -36q-82 0 -126.5 35.5z" unicode="Й" horiz-adv-x="823"/>
<glyph glyph-name="uni041A" d="M353 308h-146v-308h-98v700h98v-304h148l220 304h107l-250 -339l262 -361h-114z" unicode="К" horiz-adv-x="711"/>
<glyph glyph-name="uni041B" d="M681 700v-700h-98v613h-310l-7 -205q-5 -145 -23.5 -235t-58.5 -135.5t-108 -45.5q-31 0 -63 8l7 89q16 -4 32 -4q43 0 69 34.5t39 103.5t17 182l11 295h493z" unicode="Л" horiz-adv-x="790"/>
<glyph glyph-name="uni041C" d="M758 0l-1 510l-253 -425h-46l-253 422v-507h-96v700h82l292 -492l288 492h82l1 -700h-96z" unicode="М" horiz-adv-x="963"/>
<glyph glyph-name="uni041D" d="M711 700v-700h-100v312h-402v-312h-100v700h100v-301h402v301h100z" unicode="Н" horiz-adv-x="820"/>
<glyph glyph-name="uni041E" d="M233 38.5q-85 46.5 -133.5 128.5t-48.5 183t48.5 183t133.5 128.5t191 46.5q105 0 190 -46.5t133 -128t48 -183.5t-48 -183.5t-133 -128t-190 -46.5q-106 0 -191 46.5zM562.5 116q61.5 35 97 96.5t35.5 137.5t-35.5 137.5t-97 96.5t-138.5 35t-139.5 -35t-98 -96.5 t-35.5 -137.5t35.5 -137.5t98 -96.5t139.5 -35t138.5 35z" unicode="О" horiz-adv-x="848"/>
<glyph glyph-name="uni041F" d="M712 700v-700h-98v613h-406v-613h-99v700h603z" unicode="П" horiz-adv-x="821"/>
<glyph glyph-name="uni0420" d="M596 635q78 -65 78 -179t-78 -179t-214 -65h-173v-212h-100v700h273q136 0 214 -65zM524 339.5q50 40.5 50 116.5t-50 116.5t-145 40.5h-170v-314h170q95 0 145 40.5z" unicode="Р" horiz-adv-x="714"/>
<glyph glyph-name="uni0421" d="M232.5 38.5q-84.5 46.5 -132.5 128t-48 183.5t48 183.5t133 128t190 46.5q82 0 150 -27.5t116 -81.5l-65 -63q-79 83 -197 83q-78 0 -141 -35t-98.5 -96.5t-35.5 -137.5t35.5 -137.5t98.5 -96.5t141 -35q117 0 197 84l65 -63q-48 -54 -116.5 -82t-150.5 -28 q-105 0 -189.5 46.5z" unicode="С" horiz-adv-x="718"/>
<glyph glyph-name="uni0422" d="M590 613h-240v-613h-98v613h-239v87h577v-87z" unicode="Т" horiz-adv-x="603"/>
<glyph glyph-name="uni0423" d="M682 700l-311 -577q-37 -69 -87 -103t-109 -34q-46 0 -94 21l26 80q37 -13 66 -13q66 0 109 70l16 25l-282 531h107l227 -444l233 444h99z" unicode="У" horiz-adv-x="691"/>
<glyph glyph-name="uni0424" d="M784 133q-97 -79 -274 -85v-74h-93v74q-177 7 -274.5 86t-97.5 217q0 139 97.5 218t274.5 86v71h93v-71q176 -7 273.5 -86.5t97.5 -217.5q0 -139 -97 -218zM714.5 191.5q70.5 57.5 70.5 160.5q0 101 -71.5 158.5t-203.5 65.5v-450q134 8 204.5 65.5zM213.5 191.5 q71.5 -57.5 203.5 -65.5v450q-134 -8 -204.5 -65t-70.5 -160q0 -102 71.5 -159.5z" unicode="Ф" horiz-adv-x="926"/>
<glyph glyph-name="uni0425" d="M149 700l183 -256l183 256h117l-237 -336l256 -364h-118l-201 279l-200 -279h-115l255 360l-238 340h115z" unicode="Х" horiz-adv-x="668"/>
<glyph glyph-name="uni0426" d="M805 87v-246h-93v159h-603v700h99v-613h390v613h99v-613h108z" unicode="Ц" horiz-adv-x="829"/>
<glyph glyph-name="uni0427" d="M627 700v-700h-99v277q-111 -43 -205 -43q-128 0 -198.5 62t-70.5 177v227h98v-216q0 -78 47.5 -120t134.5 -42q97 0 194 44v334h99z" unicode="Ч" horiz-adv-x="736"/>
<glyph glyph-name="uni0428" d="M986 700v-700h-877v700h99v-613h291v613h98v-613h291v613h98z" unicode="Ш" horiz-adv-x="1095"/>
<glyph glyph-name="uni0429" d="M986 700v-700h-877v700h99v-613h291v613h98v-613h291v613h98zM1091 87v-240h-92v153h-113v87h205z" unicode="Щ" horiz-adv-x="1120"/>
<glyph glyph-name="uni042A" d="M722 400q66 -56 66 -165q0 -115 -71.5 -175t-204.5 -60h-288v613h-211v87h310v-244h208q125 0 191 -56zM642.5 118.5q45.5 39.5 45.5 114.5q0 144 -178 144h-187v-298h187q87 0 132.5 39.5z" unicode="Ъ" horiz-adv-x="828"/>
<glyph glyph-name="uni042B" d="M607.5 400q66.5 -56 66.5 -165q0 -115 -71.5 -175t-204.5 -60h-289v700h99v-244h208q125 0 191.5 -56zM527.5 118.5q46.5 39.5 46.5 114.5q0 144 -180 144h-186v-298h186q87 0 133.5 39.5zM785 700h99v-700h-99v700z" unicode="Ы" horiz-adv-x="993"/>
<glyph glyph-name="uni042C" d="M607.5 400q66.5 -56 66.5 -165q0 -115 -71.5 -175t-204.5 -60h-289v700h99v-244h208q125 0 191.5 -56zM527.5 118.5q46.5 39.5 46.5 114.5q0 144 -180 144h-186v-298h186q87 0 133.5 39.5z" unicode="Ь" horiz-adv-x="713"/>
<glyph glyph-name="uni042D" d="M482 661.5q80 -46.5 126 -128t46 -183.5t-46 -183.5t-126 -128t-180 -46.5q-86 0 -156 28t-117 82l63 63q79 -83 205 -83q67 0 122 29.5t90 82.5t42 121h-339v82h338q-10 65 -45 115t-89 78t-119 28q-125 0 -205 -83l-63 63q47 54 117.5 82t155.5 28q100 0 180 -46.5z " unicode="Э" horiz-adv-x="707"/>
<glyph glyph-name="uni042E" d="M871 661.5q81 -46.5 127.5 -128t46.5 -183.5t-46.5 -183.5t-127.5 -128t-182 -46.5q-94 0 -171 41t-125 113t-57 164h-128v-310h-99v700h99v-300h129q11 89 59.5 159t124.5 109.5t168 39.5q101 0 182 -46.5zM819.5 116.5q58.5 34.5 92 95.5t33.5 138t-33.5 138t-92 95.5 t-130.5 34.5q-71 0 -129 -34.5t-91.5 -95.5t-33.5 -138t33.5 -138t91.5 -95.5t129 -34.5q72 0 130.5 34.5z" unicode="Ю" horiz-adv-x="1099"/>
<glyph glyph-name="uni042F" d="M622 700v-700h-98v204h-193q-18 0 -27 1l-140 -205h-106l155 222q-75 25 -115 83.5t-40 142.5q0 119 76.5 185.5t206.5 66.5h281zM204.5 329.5q45.5 -41.5 134.5 -41.5h185v325h-179q-90 0 -138 -42t-48 -122q0 -78 45.5 -119.5z" unicode="Я" horiz-adv-x="731"/>
<glyph glyph-name="uni0430" d="M450.5 481q58.5 -54 58.5 -161v-320h-91v70q-24 -37 -68.5 -56.5t-105.5 -19.5q-89 0 -142.5 43t-53.5 113t51 112.5t162 42.5h152v19q0 62 -36 95t-106 33q-47 0 -92 -15.5t-76 -41.5l-40 72q41 33 98 50.5t121 17.5q110 0 168.5 -54zM355 92.5q40 24.5 58 69.5v74h-148 q-122 0 -122 -82q0 -40 31 -63t86 -23t95 24.5z" unicode="а" horiz-adv-x="589"/>
<glyph glyph-name="uni0431" d="M495 479q58 -33 90.5 -91.5t32.5 -133.5q0 -77 -34.5 -136.5t-97 -92.5t-142.5 -33q-135 0 -208.5 92.5t-73.5 260.5q0 163 67 255.5t205 122.5l242 54l14 -88l-223 -48q-104 -23 -155 -78t-58 -158q34 51 88 79t121 28q74 0 132 -33zM436.5 95q39.5 23 61.5 63.5 t22 92.5q0 79 -48 127t-126 48t-126.5 -48t-48.5 -127q0 -52 22.5 -92.5t62.5 -63.5t90 -23q51 0 90.5 23z" unicode="б" horiz-adv-x="662"/>
<glyph glyph-name="uni0432" d="M557 146q0 -70 -52.5 -108t-156.5 -38h-255v530h246q94 0 147 -35.5t53 -100.5q0 -42 -22.5 -72.5t-62.5 -46.5q103 -26 103 -129zM187 302h144q55 0 83.5 20t28.5 58q0 76 -112 76h-144v-154zM431 93q30 19 30 59q0 41 -27.5 61t-86.5 20h-160v-159h154q60 0 90 19z" unicode="в" horiz-adv-x="614"/>
<glyph glyph-name="uni0433" d="M483 446h-294v-446h-96v530h390v-84z" unicode="г" horiz-adv-x="488"/>
<glyph glyph-name="uni0434" d="M632 84v-207h-90v123h-443v-123h-91v207h28q51 3 70 72t26 195l8 179h411v-446h81zM203.5 178.5q-12.5 -65.5 -45.5 -94.5h297v362h-230l-5 -102q-4 -100 -16.5 -165.5z" unicode="д" horiz-adv-x="664"/>
<glyph glyph-name="uni0435" d="M570 233h-430q9 -70 61.5 -112.5t130.5 -42.5q95 0 153 64l53 -62q-36 -42 -89.5 -64t-119.5 -22q-84 0 -149 34.5t-100.5 96.5t-35.5 140q0 77 34.5 139t95 96.5t136.5 34.5t135.5 -34.5t93 -96.5t33.5 -142q0 -11 -2 -29zM194.5 412q-46.5 -42 -54.5 -110h340 q-8 67 -54.5 109.5t-115.5 42.5t-115.5 -42z" unicode="е" horiz-adv-x="628"/>
<glyph glyph-name="uni0436" d="M575 224h-103v-224h-96v224h-103l-146 -224h-114l182 274l-168 256h102l143 -224h104v224h96v-224h104l143 224h103l-168 -257l182 -273h-114z" unicode="ж" horiz-adv-x="849"/>
<glyph glyph-name="uni0437" d="M462 231q29 -31 29 -77q0 -47 -32 -83.5t-88.5 -57t-126.5 -20.5q-59 0 -115.5 15.5t-100.5 44.5l29 73q38 -24 87 -37.5t99 -13.5q68 0 108.5 23.5t40.5 63.5q0 37 -32.5 57t-91.5 20h-97v69h90q54 0 85 19t31 52q0 36 -36.5 56t-98.5 20q-79 0 -167 -41l-26 74 q97 49 203 49q64 0 115 -18t80 -51t29 -75q0 -39 -26 -70t-70 -47q53 -14 82 -45z" unicode="з" horiz-adv-x="544"/>
<glyph glyph-name="uni0438" d="M93 530h96v-386l325 386h87v-530h-96v386l-324 -386h-88v530z" unicode="и" horiz-adv-x="694"/>
<glyph glyph-name="uni0439" d="M93 530h96v-386l325 386h87v-530h-96v386l-324 -386h-88v530zM226 634.5q-41 35.5 -42 102.5h65q1 -37 25.5 -59.5t65.5 -22.5t66 22.5t26 59.5h67q-1 -67 -43 -102.5t-115 -35.5q-74 0 -115 35.5z" unicode="й" horiz-adv-x="694"/>
<glyph glyph-name="uni043A" d="M299 224h-110v-224h-96v530h96v-224h112l172 224h103l-201 -255l215 -275h-113z" unicode="к" horiz-adv-x="598"/>
<glyph glyph-name="uni043B" d="M548 530v-530h-96v446h-228l-6 -118q-5 -107 -19 -178.5t-46 -114.5t-89 -43q-26 0 -59 9l6 81q13 -3 24 -3q40 0 60 35t26 83t11 137l9 196h407z" unicode="л" horiz-adv-x="641"/>
<glyph glyph-name="uni043C" d="M704 530v-530h-87v387l-198 -327h-42l-196 328v-388h-88v530h99l208 -358l214 358h90z" unicode="м" horiz-adv-x="798"/>
<glyph glyph-name="uni043D" d="M93 530h96v-225h302v225h96v-530h-96v222h-302v-222h-96v530z" unicode="н" horiz-adv-x="681"/>
<glyph glyph-name="uni043E" d="M178 29q-63 35 -98.5 96.5t-35.5 139.5t35.5 139.5t98.5 96t142 34.5t141.5 -34.5t98 -96t35.5 -139.5t-35.5 -139.5t-98 -96.5t-141.5 -35t-142 35zM411.5 101.5q40.5 23.5 63.5 66t23 97.5t-23 97.5t-63.5 65.5t-91.5 23t-91.5 -23t-64 -65.5t-23.5 -97.5t23.5 -97.5 t64 -66t91.5 -23.5t91.5 23.5z" unicode="о" horiz-adv-x="641"/>
<glyph glyph-name="uni043F" d="M584 530v-530h-96v446h-299v-446h-96v530h491z" unicode="п" horiz-adv-x="677"/>
<glyph glyph-name="uni0440" d="M512 501q61 -34 95.5 -95t34.5 -141t-34.5 -141.5t-95.5 -95.5t-138 -34q-57 0 -104.5 22t-80.5 64v-274h-96v724h92v-84q32 44 81 66.5t108 22.5q77 0 138 -34zM457.5 101.5q40.5 23.5 64 66t23.5 97.5t-23.5 97.5t-64 65.5t-91.5 23q-50 0 -90.5 -23.5t-64 -65.5 t-23.5 -97t23 -97.5t64 -66t91 -23.5q51 0 91.5 23.5z" unicode="р" horiz-adv-x="688"/>
<glyph glyph-name="uni0441" d="M179.5 29q-63.5 35 -99.5 96.5t-36 139.5t36 139.5t99.5 96t144.5 34.5q72 0 128.5 -29t87.5 -84l-73 -47q-25 38 -62 57t-82 19q-52 0 -93.5 -23t-65 -65.5t-23.5 -97.5q0 -56 23.5 -98.5t65 -65.5t93.5 -23q45 0 82 19t62 57l73 -46q-31 -55 -87.5 -84.5t-128.5 -29.5 q-81 0 -144.5 35z" unicode="с" horiz-adv-x="571"/>
<glyph glyph-name="uni0442" d="M488 446h-194v-446h-96v446h-194v84h484v-84z" unicode="т" horiz-adv-x="493"/>
<glyph glyph-name="uni0443" d="M566 530l-257 -583q-34 -81 -79.5 -114t-109.5 -33q-39 0 -75.5 12.5t-60.5 36.5l41 72q41 -39 95 -39q35 0 58.5 18.5t42.5 63.5l17 37l-234 529h100l185 -424l183 424h94z" unicode="у" horiz-adv-x="571"/>
<glyph glyph-name="uni0444" d="M680 72q-82 -71 -231 -79v-187h-94v187q-149 8 -230.5 78.5t-81.5 194.5q0 123 81 192t231 77v207h94v-207q149 -8 231 -77.5t82 -191.5q0 -123 -82 -194zM192.5 133q54.5 -48 162.5 -55v372q-109 -7 -163 -54t-54 -130q0 -85 54.5 -133zM667 266q0 84 -55 130.5 t-163 53.5v-373q218 17 218 189z" unicode="ф" horiz-adv-x="805"/>
<glyph glyph-name="uni0445" d="M424 0l-153 203l-155 -203h-107l209 271l-199 259h107l146 -191l145 191h105l-200 -259l211 -271h-109z" unicode="х" horiz-adv-x="541"/>
<glyph glyph-name="uni0446" d="M659 84v-211h-91v127h-475v530h96v-446h290v446h96v-446h84z" unicode="ц" horiz-adv-x="690"/>
<glyph glyph-name="uni0447" d="M516 530v-530h-96v214q-86 -40 -171 -40q-99 0 -153 46t-54 138v172h96v-166q0 -55 34.5 -83t96.5 -28q70 0 151 35v242h96z" unicode="ч" horiz-adv-x="609"/>
<glyph glyph-name="uni0448" d="M848 530v-530h-755v530h96v-446h234v446h96v-446h233v446h96z" unicode="ш" horiz-adv-x="941"/>
<glyph glyph-name="uni0449" d="M848 530v-530h-755v530h96v-446h234v446h96v-446h233v446h96zM927 84v-197h-90v113h-89v84h179z" unicode="щ" horiz-adv-x="941"/>
<glyph glyph-name="uni044A" d="M556.5 305.5q52.5 -45.5 52.5 -127.5q0 -85 -57.5 -131.5t-162.5 -46.5h-223v446h-162v84h258v-179h144q98 0 150.5 -45.5zM480 100q32 27 32 80q0 51 -31.5 75.5t-94.5 24.5h-124v-207h124q62 0 94 27z" unicode="ъ" horiz-adv-x="639"/>
<glyph glyph-name="uni044B" d="M485 304q53 -45 53 -127q0 -86 -57.5 -132.5t-164.5 -45.5l-223 1v530h96v-179l143 -1q100 -1 153 -46zM617 530h96v-530h-96v530zM407.5 98q33.5 27 33.5 80q0 52 -33 76t-99 25l-120 2v-208l120 -1q65 -1 98.5 26z" unicode="ы" horiz-adv-x="807"/>
<glyph glyph-name="uni044C" d="M492 304q53 -45 53 -127q0 -86 -57.5 -132.5t-164.5 -45.5l-230 1v530h96v-179l149 -1q101 -1 154 -46zM413.5 98q33.5 27 33.5 80q0 52 -32.5 76t-99.5 25l-126 2v-208l126 -1q65 -1 98.5 26z" unicode="ь" horiz-adv-x="575"/>
<glyph glyph-name="uni044D" d="M392.5 501q65.5 -35 102.5 -97t37 -139q0 -78 -37 -140t-102.5 -97t-146.5 -35q-70 0 -126.5 22t-95.5 64l56 56q64 -63 162 -63q78 0 133 44.5t66 116.5h-266v71h264q-13 69 -67 111.5t-130 42.5q-97 0 -162 -64l-56 55q39 43 96 65t126 22q81 0 146.5 -35z" unicode="э" horiz-adv-x="575"/>
<glyph glyph-name="uni044E" d="M700 500.5q61 -34.5 96 -96t35 -139.5t-35 -139.5t-96 -96.5t-138 -35q-70 0 -127 29t-93.5 81.5t-45.5 119.5h-107v-224h-96v530h96v-217h108q10 66 46.5 116.5t93 78t125.5 27.5q77 0 138 -34.5zM650.5 101q39.5 23 62.5 65.5t23 98.5q0 55 -23 97.5t-62.5 65.5 t-88.5 23t-89 -23t-62.5 -65.5t-22.5 -97.5q0 -56 22.5 -98.5t62.5 -65.5t89 -23t88.5 23z" unicode="ю" horiz-adv-x="876"/>
<glyph glyph-name="uni044F" d="M518 530v-530h-86v168h-154h-11l-116 -168h-103l129 181q-60 18 -92 59.5t-32 103.5q0 91 62 138.5t171 47.5h232zM184.5 262.5q33.5 -25.5 100.5 -25.5h147v209h-143q-138 0 -138 -105q0 -53 33.5 -78.5z" unicode="я" horiz-adv-x="612"/>
<glyph glyph-name="uni0450" d="M570 233h-430q9 -70 61.5 -112.5t130.5 -42.5q95 0 153 64l53 -62q-36 -42 -89.5 -64t-119.5 -22q-84 0 -149 34.5t-100.5 96.5t-35.5 140q0 77 34.5 139t95 96.5t136.5 34.5t135.5 -34.5t93 -96.5t33.5 -142q0 -11 -2 -29zM194.5 412q-46.5 -42 -54.5 -110h340 q-8 67 -54.5 109.5t-115.5 42.5t-115.5 -42zM126 737h122l136 -130h-90z" unicode="ѐ" horiz-adv-x="628"/>
<glyph glyph-name="uni0451" d="M570 233h-430q9 -70 61.5 -112.5t130.5 -42.5q95 0 153 64l53 -62q-36 -42 -89.5 -64t-119.5 -22q-84 0 -149 34.5t-100.5 96.5t-35.5 140q0 77 34.5 139t95 96.5t136.5 34.5t135.5 -34.5t93 -96.5t33.5 -142q0 -11 -2 -29zM194.5 412q-46.5 -42 -54.5 -110h340 q-8 67 -54.5 109.5t-115.5 42.5t-115.5 -42zM180 638.5q-15 14.5 -15 36.5t15 37t36 15t36 -15t15 -37t-15 -36.5t-36 -14.5t-36 14.5zM366 638.5q-15 14.5 -15 36.5t15 37t36 15t36 -15t15 -37t-15 -36.5t-36 -14.5t-36 14.5z" unicode="ё" horiz-adv-x="628"/>
<glyph glyph-name="uni0452" d="M537 476.5q60 -58.5 60 -171.5v-329q0 -82 -44.5 -129t-125.5 -47q-34 0 -64.5 8t-50.5 24l31 74q31 -25 78 -25q39 0 59.5 24t20.5 69v320q0 77 -37.5 116t-106.5 39q-78 0 -122.5 -45.5t-44.5 -130.5v-273h-96v601h-104v68h104v73h91v-73h240v-68h-240v-151 q29 41 78.5 63t112.5 22q101 0 161 -58.5z" unicode="ђ" horiz-adv-x="675"/>
<glyph glyph-name="uni0453" d="M483 446h-294v-446h-96v530h390v-84zM352 735h122l-168 -130h-90z" unicode="ѓ" horiz-adv-x="488"/>
<glyph glyph-name="uni0454" d="M183.5 29q-65.5 35 -102.5 97t-37 139q0 78 37 140t102.5 97t146.5 35q70 0 126.5 -22t95.5 -64l-56 -56q-64 63 -162 63q-78 0 -133 -44.5t-66 -116.5h266v-71h-264q13 -69 67 -111.5t130 -42.5q97 0 162 64l56 -55q-39 -43 -96 -65t-126 -22q-81 0 -146.5 35z" unicode="є" horiz-adv-x="577"/>
<glyph glyph-name="uni0455" d="M137 11.5q-60 17.5 -94 44.5l40 76q35 -25 85 -40t101 -15q126 0 126 72q0 24 -17 38t-42.5 20.5t-72.5 14.5q-64 10 -104.5 23t-69.5 44t-29 87q0 72 60 115.5t161 43.5q53 0 106 -13t87 -35l-41 -76q-65 42 -153 42q-61 0 -93 -20t-32 -53q0 -26 18 -41t44.5 -22 t74.5 -16q64 -11 103.5 -23.5t67.5 -42.5t28 -84q0 -72 -61.5 -114.5t-167.5 -42.5q-65 0 -125 17.5z" unicode="ѕ" horiz-adv-x="536"/>
<glyph glyph-name="uni0456" d="M93 530h96v-530h-96v530zM94.5 650q-18.5 18 -18.5 44t18.5 44.5t46.5 18.5t46.5 -17.5t18.5 -43.5q0 -27 -18.5 -45.5t-46.5 -18.5t-46.5 18z" unicode="і" horiz-adv-x="283"/>
<glyph glyph-name="uni0457" d="M91 530h96v-530h-96v530zM32 639.5q-14 14.5 -14 35.5q0 22 14 36.5t36 14.5q21 0 35 -14.5t14 -36.5t-14 -36t-35 -14q-22 0 -36 14.5zM175 639.5q-14 14.5 -14 35.5q0 22 14 36.5t35 14.5q22 0 36 -14.5t14 -36.5t-14 -36t-36 -14q-21 0 -35 14.5z" unicode="ї" horiz-adv-x="279"/>
<glyph glyph-name="uni0458" d="M-44 -192q-30 8 -50 24l31 74q30 -25 78 -25q38 0 58.5 23.5t20.5 69.5v556h96v-554q0 -82 -44 -129t-125 -47q-35 0 -65 8zM95.5 650q-18.5 18 -18.5 44t18.5 44.5t46.5 18.5t46.5 -17.5t18.5 -43.5q0 -27 -18.5 -45.5t-46.5 -18.5t-46.5 18z" unicode="ј" horiz-adv-x="284"/>
<glyph glyph-name="uni0459" d="M548 530v-530h-96v446h-228l-6 -118q-5 -107 -19 -178.5t-46 -114.5t-89 -43q-26 0 -59 9l6 81q13 -3 24 -3q40 0 60 35t26 83t11 137l9 196h407zM851 304q53 -45 53 -127q0 -86 -57.5 -132.5t-164.5 -45.5l-230 1v530h96v-179l149 -1q101 -1 154 -46zM772.5 98 q33.5 27 33.5 80q0 52 -32.5 76t-99.5 25l-126 2v-208l126 -1q65 -1 98.5 26z" unicode="љ" horiz-adv-x="934"/>
<glyph glyph-name="uni045A" d="M875 283.5q51 -40.5 51 -115.5q0 -79 -56.5 -123.5t-156.5 -44.5h-232v241h-292v-241h-96v530h96v-206h292v206h96v-206h152q95 0 146 -40.5zM797 95q31 24 31 67q0 41 -30.5 62.5t-88.5 21.5h-132v-175h132q57 0 88 24z" unicode="њ" horiz-adv-x="952"/>
<glyph glyph-name="uni045B" d="M537 476.5q60 -58.5 60 -171.5v-305h-96v294q0 77 -37.5 116t-106.5 39q-78 0 -122.5 -45.5t-44.5 -130.5v-273h-96v605h-130v57h130v80h96v-80h238v-57h-238v-148q30 38 78 58t108 20q101 0 161 -58.5z" unicode="ћ" horiz-adv-x="674"/>
<glyph glyph-name="uni045C" d="M299 224h-110v-224h-96v530h96v-224h112l172 224h103l-201 -255l215 -275h-113zM369 737h122l-168 -130h-90z" unicode="ќ" horiz-adv-x="598"/>
<glyph glyph-name="uni045D" d="M93 530h96v-386l325 386h87v-530h-96v386l-324 -386h-88v530zM158 737h122l136 -130h-90z" unicode="ѝ" horiz-adv-x="694"/>
<glyph glyph-name="uni045E" d="M566 530l-257 -583q-34 -81 -79.5 -114t-109.5 -33q-39 0 -75.5 12.5t-60.5 36.5l41 72q41 -39 95 -39q35 0 58.5 18.5t42.5 63.5l17 37l-234 529h100l185 -424l183 424h94zM157 634.5q-41 35.5 -42 102.5h65q1 -37 25.5 -59.5t65.5 -22.5t66 22.5t26 59.5h67 q-1 -67 -43 -102.5t-115 -35.5q-74 0 -115 35.5z" unicode="ў" horiz-adv-x="571"/>
<glyph glyph-name="uni045F" d="M552 0h-183v-127h-91v127h-185v530h96v-446h267v446h96v-530z" unicode="џ" horiz-adv-x="646"/>
<glyph glyph-name="uni0462" d="M706 396q65 -56 65 -165q0 -111 -70.5 -171t-202.5 -60h-292v555h-187v74h187v113h98v-113h214v-74h-214v-103h212q125 0 190 -56zM626 116.5q44 37.5 44 111.5q0 73 -43.5 109t-131.5 36h-191v-294h191q87 0 131 37.5z" unicode="Ѣ" horiz-adv-x="811"/>
<glyph glyph-name="uni0463" d="M530 304q53 -45 53 -127q0 -86 -58 -132.5t-165 -45.5l-229 1v483h-131v70h131v189h96v-189h196v-70h-196v-132l149 -1q101 -1 154 -46zM451.5 98q33.5 27 33.5 80q0 52 -33 76t-99 25l-126 2v-208l126 -1q65 -1 98.5 26z" unicode="ѣ" horiz-adv-x="613"/>
<glyph glyph-name="uni046A" d="M882 0h-103l-56 134q-63 166 -191 166h-35v-300h-94v300h-33q-65 0 -113 -40t-80 -126l-56 -134h-103l69 158q45 112 109 164t150 52l-245 260v66h699v-63l-246 -263h1q86 0 150.5 -52t108.5 -164zM450 374l237 249h-474z" unicode="Ѫ" horiz-adv-x="900"/>
<glyph glyph-name="uni046B" d="M689 0h-94l-39 95q-22 65 -54.5 94t-80.5 29h-29v-218h-83v218h-26q-48 0 -81 -29.5t-55 -93.5l-37 -95h-95l49 116q34 86 79.5 127t110.5 43l-177 183v61h546v-61l-178 -183q68 -1 114.5 -41.5t80.5 -128.5zM178 463l171 -177h2l172 177h-345z" unicode="ѫ" horiz-adv-x="704"/>
<glyph glyph-name="uni0472" d="M233 38.5q-85 46.5 -133.5 128.5t-48.5 183t48.5 183t133.5 128.5t191 46.5q105 0 190 -46.5t133 -128t48 -183.5t-48 -183.5t-133 -128t-190 -46.5q-106 0 -191 46.5zM562.5 116q61.5 35 97 96.5t35.5 137.5t-35.5 137.5t-97 96.5t-138.5 35t-139.5 -35t-98 -96.5 t-35.5 -137.5t35.5 -137.5t98 -96.5t139.5 -35t138.5 35zM85.2246 389h683.812v-79h-683.812v79z" unicode="Ѳ" horiz-adv-x="848"/>
<glyph glyph-name="uni0473" d="M469 500.5q64 -34.5 100.5 -96t36.5 -139.5t-36.5 -139.5t-100.5 -96.5t-144 -35t-144 35t-100.5 96.5t-36.5 139.5t36.5 139.5t100.5 96t144 34.5t144 -34.5zM199 415.5q-51 -43.5 -61 -116.5h374q-10 73 -61 116.5t-126 43.5t-126 -43.5zM451 114.5q51 43.5 61 116.5 h-374q10 -73 61.5 -116.5t125.5 -43.5q75 0 126 43.5z" unicode="ѳ" horiz-adv-x="650"/>
<glyph glyph-name="uni0474" d="M14 700h109l229 -555l147 405q29 83 71 121.5t107 38.5q32 0 71 -9l-11 -98q-24 6 -43 6q-40 0 -66 -27.5t-50 -91.5l-178 -490h-98z" unicode="Ѵ" horiz-adv-x="761"/>
<glyph glyph-name="uni0475" d="M451 510.5q31 27.5 78 27.5q28 0 63 -9l-10 -95q-21 6 -37 6q-24 0 -38.5 -18.5t-34.5 -67.5l-139 -354h-96l-232 530h106l174 -407l112 297q23 63 54 90.5z" unicode="ѵ" horiz-adv-x="596"/>
<glyph glyph-name="uni048A" d="M283.5 784.5q-44.5 35.5 -45.5 101.5h71q1 -39 27.5 -60.5t73.5 -21.5q45 0 72.5 21.5t28.5 60.5h70q-1 -65 -45.5 -101t-125.5 -36q-82 0 -126.5 35.5zM815 87l-71 -240h-80l38 153h-86v539l-415 -539h-92v700h99v-540l414 540h92v-613h101z" unicode="Ҋ" horiz-adv-x="851"/>
<glyph glyph-name="uni048B" d="M226.5 638q-45.5 37 -47.5 99h65q1 -36 28.5 -58t68.5 -22t68.5 22t28.5 58h65q-2 -62 -47.5 -99t-114.5 -37t-114.5 37zM685 84l-58 -197h-78l29 113h-73v386l-324 -386h-88v530h96v-386l325 386h87v-446h84z" unicode="ҋ" horiz-adv-x="716"/>
<glyph glyph-name="uni048C" d="M634 395.5q65 -56.5 65 -164.5q0 -111 -70.5 -171t-202.5 -60h-292v555h-103v74h103v113h99v-113h214v-74h-214v-103h212q124 0 189 -56.5zM554 116.5q44 37.5 44 111.5q0 73 -43.5 109t-131.5 36h-190v-294h190q87 0 131 37.5z" unicode="Ҍ" horiz-adv-x="739"/>
<glyph glyph-name="uni048D" d="M524.5 295q52.5 -41 52.5 -122q0 -86 -57.5 -130.5t-165.5 -43.5l-229 1v398h-103v71h103v61h96v-61h196v-71h-196v-60l149 -1q102 -1 154.5 -42zM479 174q0 50 -32 71t-100 22l-126 1v-195l126 -1q132 -2 132 102z" unicode="ҍ" horiz-adv-x="606"/>
<glyph glyph-name="uni048E" d="M647 332.5q-27 -51.5 -78 -83.5l92 -120l-55 -45l-104 136q-51 -16 -119 -16h-174v-204h-100v700h274q136 0 213.5 -65.5t77.5 -182.5q0 -68 -27 -119.5zM444 296l-101 132l55 45l114 -150q62 42 62 129q0 78 -50 119.5t-145 41.5h-170v-323h170q35 0 65 6z" unicode="Ҏ" horiz-adv-x="733"/>
<glyph glyph-name="uni048F" d="M623.5 151.5q-20.5 -51.5 -57.5 -87.5l67 -85l-54 -42l-69 86q-55 -29 -122 -29t-118 28.5t-80 81.5v-298h-96v724h92v-111q29 57 80 86.5t122 29.5q72 0 130.5 -34t92 -95.5t33.5 -141.5q0 -61 -20.5 -112.5zM452 96l-73 92l55 43l73 -92q42 50 42 125q0 55 -23.5 97.5 t-64.5 66t-92 23.5t-92 -23.5t-64.5 -66t-23.5 -97.5q0 -56 23.5 -98t64.5 -65t92 -23q47 0 83 18z" unicode="ҏ" horiz-adv-x="699"/>
<glyph glyph-name="uni0490" d="M109 700h367v144h92v-231h-360v-613h-99v700z" unicode="Ґ" horiz-adv-x="581"/>
<glyph glyph-name="uni0491" d="M93 530h277v108h90v-192h-271v-446h-96v530z" unicode="ґ" horiz-adv-x="466"/>
<glyph glyph-name="uni0492" d="M234 613v-252h293v-75h-292v-286h-99v286h-106v75h106v339h459l-1 -87h-360z" unicode="Ғ" horiz-adv-x="618"/>
<glyph glyph-name="uni0493" d="M205 446v-183h226v-68h-226v-195h-96v195h-66v68h66v267h390v-84h-294z" unicode="ғ" horiz-adv-x="516"/>
<glyph glyph-name="uni0494" d="M395 397q74 0 133.5 -31t93.5 -89t34 -137q0 -83 -35 -147.5t-96.5 -100.5t-137.5 -36q-35 0 -67 7l17 83q25 -5 44 -5q50 0 90 24t63 68t23 100q0 85 -52 134t-132 49q-83 0 -165 -53v-263h-99v700h479v-87h-380v-263q95 47 187 47z" unicode="Ҕ" horiz-adv-x="703"/>
<glyph glyph-name="uni0495" d="M341 285q67 0 121 -27.5t85 -80.5t31 -125q0 -74 -32 -131.5t-90 -89t-134 -31.5q-33 0 -75 8l20 83q28 -5 49 -5q76 0 120 44t44 118q0 77 -44 116.5t-112 39.5q-71 0 -135 -38v-166h-96v530h379v-84h-283v-195q77 34 152 34z" unicode="ҕ" horiz-adv-x="601"/>
<glyph glyph-name="uni0496" d="M697 308h-133v-308h-98v308h-134l-196 -308h-117l231 364l-214 336h107l187 -304h136v304h98v-304h134l188 304h107l-214 -338l231 -362h-117zM1054 87v-240h-93v153h-68v87h161z" unicode="Җ" horiz-adv-x="1068"/>
<glyph glyph-name="uni0497" d="M575 224h-103v-224h-96v224h-103l-146 -224h-114l182 274l-168 256h102l143 -224h104v224h96v-224h104l143 224h103l-168 -257l182 -273h-114zM876 82v-195h-87v113h-67v82h154z" unicode="җ" horiz-adv-x="882"/>
<glyph glyph-name="uni0498" d="M547 302.5q37 -44.5 37 -106.5t-39.5 -108.5t-105 -71t-142.5 -24.5q-70 0 -139 21t-126 63l35 74q46 -36 103 -54t115 -18q84 0 141 35.5t57 97.5q0 53 -43 81.5t-121 28.5h-156v81h149q67 0 104.5 27.5t37.5 76.5q0 55 -49 87t-124 32q-49 0 -99.5 -14t-95.5 -42 l-32 82q53 30 112 45t118 15q74 0 136 -23t98.5 -67t36.5 -103q0 -53 -29.5 -93t-81.5 -60q66 -18 103 -62.5zM350 -153h-93v176h93v-176z" unicode="Ҙ" horiz-adv-x="642"/>
<glyph glyph-name="uni0499" d="M437.5 49q-53.5 -43 -140.5 -53v-109h-91v108q-49 4 -95 19t-83 39l29 73q38 -24 87 -37.5t99 -13.5q68 0 108.5 23.5t40.5 63.5q0 37 -32.5 57t-91.5 20h-97v69h90q54 0 85 19t31 52q0 36 -36.5 56t-98.5 20q-79 0 -167 -41l-26 74q97 49 203 49q64 0 115 -18t80 -51 t29 -75q0 -39 -26 -70t-70 -47q53 -14 82 -45t29 -77q0 -62 -53.5 -105z" unicode="ҙ" horiz-adv-x="544"/>
<glyph glyph-name="uni049A" d="M353 308h-146v-308h-98v700h98v-304h148l220 304h107l-250 -339l262 -361h-114zM741 87v-240h-93v153h-68v87h161z" unicode="Қ" horiz-adv-x="755"/>
<glyph glyph-name="uni049B" d="M299 224h-110v-224h-96v530h96v-224h112l172 224h103l-201 -255l215 -275h-113zM631 82v-195h-87v113h-67v82h154z" unicode="қ" horiz-adv-x="598"/>
<glyph glyph-name="uni049C" d="M399 308h-47v-140h-75v140h-70v-308h-98v700h98v-304h70v141h75v-141h48l196 304h107l-224 -339l243 -361h-117z" unicode="Ҝ" horiz-adv-x="740"/>
<glyph glyph-name="uni049D" d="M337 224h-30v-98h-70v98h-50v-224h-96v530h96v-224h50v100h70v-100h31l148 224h101l-174 -256l189 -274h-112z" unicode="ҝ" horiz-adv-x="614"/>
<glyph glyph-name="uni049E" d="M375 308h-146v-308h-98v541h-96v71h96v88h98v-88h169v-71h-169v-145h148l220 304h107l-250 -339l262 -361h-114z" unicode="Ҟ" horiz-adv-x="733"/>
<glyph glyph-name="uni049F" d="M298 224h-108v-224h-96v601h-94v69h94v72h96v-73h152v-68h-152v-295h110l173 224h103l-201 -256l215 -274h-114z" unicode="ҟ" horiz-adv-x="597"/>
<glyph glyph-name="uni04A0" d="M469 308h-146v-308h-98v613h-212v87h310v-304h148l220 304h107l-250 -339l262 -361h-113z" unicode="Ҡ" horiz-adv-x="827"/>
<glyph glyph-name="uni04A1" d="M372 224h-110v-224h-96v447h-162v83h258v-224h111l172 224h104l-201 -255l215 -275h-113z" unicode="ҡ" horiz-adv-x="670"/>
<glyph glyph-name="uni04A2" d="M711 700v-700h-100v312h-402v-312h-100v700h100v-301h402v301h100zM820 87v-240h-92v153h-113v87h205z" unicode="Ң" horiz-adv-x="847"/>
<glyph glyph-name="uni04A3" d="M93 530h96v-225h302v225h96v-530h-96v222h-302v-222h-96v530zM670 84v-197h-90v113h-89v84h179z" unicode="ң" horiz-adv-x="702"/>
<glyph glyph-name="uni04A4" d="M711 700v-700h-100v312h-402v-312h-100v700h100v-301h402v301h100zM1073 613h-360l1 -613h-99v700h459z" unicode="Ҥ" horiz-adv-x="1087"/>
<glyph glyph-name="uni04A5" d="M93 530h96v-225h302v225h96v-530h-96v222h-302v-222h-96v530zM881 446h-294v-446h-96v530h390v-84z" unicode="ҥ" horiz-adv-x="886"/>
<glyph glyph-name="uni04A6" d="M895 397q74 0 134 -31t94 -89t34 -137q0 -82 -35 -147t-96.5 -101t-136.5 -36q-36 0 -68 7l17 83q27 -5 45 -5q50 0 89.5 24.5t62.5 68t23 99.5q0 84 -51 132.5t-130 48.5q-81 0 -165 -50v-264h-98v613h-406v-613h-99v700h603v-348q91 45 183 45z" unicode="Ҧ" horiz-adv-x="1196"/>
<glyph glyph-name="uni04A7" d="M720 285q67 0 120.5 -27.5t84.5 -80.5t31 -125q0 -74 -32 -131.5t-90.5 -89t-134.5 -31.5q-33 0 -75 8l20 83q28 -5 50 -5q76 0 120 44t44 118q0 77 -44.5 116.5t-112.5 39.5q-69 0 -131 -36v-168h-96v446h-285v-446h-96v530h477v-278q77 33 150 33z" unicode="ҧ" horiz-adv-x="976"/>
<glyph glyph-name="uni04A8" d="M771 -16q-89 0 -167 32q-75 -26 -157 -26q-114 0 -202.5 48t-138 134.5t-49.5 197.5q0 106 46.5 196t129.5 146l78 -46q-72 -50 -113 -129.5t-41 -170.5q0 -89 38.5 -157.5t108.5 -106t161 -37.5q23 0 46 3q-75 56 -117.5 142t-42.5 189q0 93 35 164.5t97.5 111 t144.5 39.5q79 0 140 -37.5t94.5 -105t33.5 -155.5q0 -108 -51 -200.5t-140 -150.5q40 -7 71 -7q59 0 120 18l9 -74q-69 -18 -134 -18zM495.5 216.5q43.5 -78.5 120.5 -119.5q84 39 131.5 119.5t47.5 187.5q0 103 -45 162t-124 59q-80 0 -127 -61.5t-47 -165.5 q0 -103 43.5 -181.5z" unicode="Ҩ" horiz-adv-x="974"/>
<glyph glyph-name="uni04A9" d="M635 -15q-74 0 -140 26q-63 -19 -128 -19q-95 0 -167.5 36.5t-112.5 102.5t-40 152q0 80 36.5 148t102.5 109l75 -42q-57 -41 -87.5 -97t-30.5 -121t29.5 -114t84 -75.5t125.5 -26.5q14 0 21 1q-53 43 -82.5 104t-29.5 133q0 71 28 125.5t79.5 84t119.5 29.5 q66 0 115.5 -28t77 -79t27.5 -117q0 -78 -37 -145t-103 -112q21 -3 44 -3q47 0 96 12l6 -70q-52 -14 -109 -14zM418 176.5q33 -55.5 90 -86.5q64 29 100.5 86.5t36.5 134.5q0 67 -35.5 108t-92.5 41q-60 0 -96 -42.5t-36 -113.5q0 -72 33 -127.5z" unicode="ҩ" horiz-adv-x="806"/>
<glyph glyph-name="uni04AA" d="M232.5 38.5q-84.5 46.5 -132.5 128t-48 183.5t48 183.5t133 128t190 46.5q82 0 150 -27.5t116 -81.5l-65 -63q-79 83 -197 83q-78 0 -141 -35t-98.5 -96.5t-35.5 -137.5t35.5 -137.5t98.5 -96.5t141 -35q117 0 197 84l65 -63q-48 -54 -116.5 -82t-150.5 -28 q-105 0 -189.5 46.5zM453 -153h-93v176h93v-176z" unicode="Ҫ" horiz-adv-x="718"/>
<glyph glyph-name="uni04AB" d="M179.5 29q-63.5 35 -99.5 96.5t-36 139.5t36 139.5t99.5 96t144.5 34.5q72 0 128.5 -29t87.5 -84l-73 -47q-25 38 -62 57t-82 19q-52 0 -93.5 -23t-65 -65.5t-23.5 -97.5q0 -56 23.5 -98.5t65 -65.5t93.5 -23q45 0 82 19t62 57l73 -46q-31 -55 -87.5 -84.5t-128.5 -29.5 q-81 0 -144.5 35zM360 -113h-91v134h91v-134z" unicode="ҫ" horiz-adv-x="571"/>
<glyph glyph-name="uni04AC" d="M590 613h-240v-613h-98v613h-239v87h577v-87zM457 87v-240h-92v153h-113v87h205z" unicode="Ҭ" horiz-adv-x="603"/>
<glyph glyph-name="uni04AD" d="M488 446h-194v-446h-96v446h-194v84h484v-84zM377 84v-197h-90v113h-89v84h179z" unicode="ҭ" horiz-adv-x="493"/>
<glyph glyph-name="uni04AE" d="M383 242v-242h-99v244l-278 456h107l224 -369l225 369h99z" unicode="Ү" horiz-adv-x="667"/>
<glyph glyph-name="uni04AF" d="M335 -2v-192h-97v192l-232 532h101l182 -424l186 424h93z" unicode="ү" horiz-adv-x="574"/>
<glyph glyph-name="uni04B0" d="M373 242v-242h-99v244l-278 456h107l224 -369l225 369h99zM86.3516 287.283h470.468v-75.9639h-470.468v75.9639z" unicode="Ұ" horiz-adv-x="647"/>
<glyph glyph-name="uni04B1" d="M335 -2v-192h-97v192l-232 532h101l182 -424l186 424h93zM70.7168 39h430.418v-68h-430.418v68z" unicode="ұ" horiz-adv-x="574"/>
<glyph glyph-name="uni04B2" d="M149 700l183 -256l183 256h117l-237 -336l256 -364h-118l-201 279l-200 -279h-115l255 360l-238 340h115zM694 87v-240h-93v153h-68v87h161z" unicode="Ҳ" horiz-adv-x="705"/>
<glyph glyph-name="uni04B3" d="M424 0l-153 203l-155 -203h-107l209 271l-199 259h107l146 -191l145 191h105l-200 -259l211 -271h-109zM577 82v-195h-87v113h-67v82h154z" unicode="ҳ" horiz-adv-x="541"/>
<glyph glyph-name="uni04B4" d="M950 86v-246h-93v159h-603v614h-240v87h549v-87h-210v-527h390v613h99v-613h108z" unicode="Ҵ" horiz-adv-x="974"/>
<glyph glyph-name="uni04B5" d="M735 84v-197h-90v113h-446v446h-194v84h445v-84h-155v-362h268v446h96v-446h76z" unicode="ҵ" horiz-adv-x="771"/>
<glyph glyph-name="uni04B6" d="M627 700v-700h-99v277q-111 -43 -205 -43q-128 0 -198.5 62t-70.5 177v227h98v-216q0 -78 47.5 -120t134.5 -42q97 0 194 44v334h99zM733 87v-240h-92v153h-113v87h205z" unicode="Ҷ" horiz-adv-x="763"/>
<glyph glyph-name="uni04B7" d="M516 530v-530h-96v214q-86 -40 -171 -40q-99 0 -153 46t-54 138v172h96v-166q0 -55 34.5 -83t96.5 -28q70 0 151 35v242h96zM599 84v-197h-90v113h-89v84h179z" unicode="ҷ" horiz-adv-x="634"/>
<glyph glyph-name="uni04B8" d="M626 700v-700h-99v277q-84 -33 -157 -40v-143h-75v141q-116 6 -179 68t-63 170v227h98v-216q0 -69 37.5 -110t106.5 -50v140h75v-140q81 6 157 42v334h99z" unicode="Ҹ" horiz-adv-x="736"/>
<glyph glyph-name="uni04B9" d="M515 530v-530h-96v214q-54 -25 -108 -35v-104h-71v99q-95 2 -147 48t-52 136v172h96v-166q0 -49 27 -76.5t76 -32.5v104h71v-103q53 8 108 32v242h96z" unicode="ҹ" horiz-adv-x="609"/>
<glyph glyph-name="uni04BA" d="M611.5 404q70.5 -62 70.5 -177v-227h-98v216q0 78 -47.5 120t-134.5 42q-97 0 -194 -44v-334h-99v700h99v-277q111 43 205 43q128 0 198.5 -62z" unicode="Һ" horiz-adv-x="736"/>
<glyph glyph-name="uni04BB" d="M536.5 476.5q59.5 -58.5 59.5 -171.5v-305h-96v294q0 77 -37 116t-106 39q-78 0 -123 -45.5t-45 -130.5v-273h-96v742h96v-287q30 38 78.5 59t108.5 21q101 0 160.5 -58.5z" unicode="һ" horiz-adv-x="674"/>
<glyph glyph-name="uni04BC" d="M943 301h-609q11 -67 48.5 -117t93.5 -76.5t120 -26.5q56 0 110.5 21.5t101.5 63.5l72 -65q-61 -54 -134.5 -81.5t-149.5 -27.5q-90 0 -169 37t-131 107t-63 165h-28q-81 0 -127 45.5t-46 115.5q0 57 29 112l94 -19q-28 -41 -28 -84q0 -37 23.5 -61t66.5 -24h15 q9 97 59.5 170t129.5 112.5t170 39.5q97 0 178.5 -44t130 -125t48.5 -186q0 -27 -5 -52zM469 591q-56 -29 -92.5 -82.5t-44.5 -122.5h512q-7 69 -42 122.5t-90.5 82.5t-120.5 29q-66 0 -122 -29z" unicode="Ҽ" horiz-adv-x="989"/>
<glyph glyph-name="uni04BD" d="M727 233h-444q9 -70 63 -112.5t135 -42.5q99 0 159 64l54 -62q-37 -42 -92 -64t-123 -22q-81 0 -144.5 30t-102 84.5t-45.5 124.5h-22q-69 0 -106.5 30.5t-37.5 81.5q0 39 23 87l80 -17q-19 -31 -19 -58q0 -25 18.5 -40t53.5 -15h10q8 68 45.5 121t96 82.5t130.5 29.5 q78 0 140 -34.5t96.5 -96.5t34.5 -142q0 -15 -3 -29zM339.5 412q-48.5 -42 -56.5 -110h352q-8 67 -56.5 109.5t-119.5 42.5t-119.5 -42z" unicode="ҽ" horiz-adv-x="771"/>
<glyph glyph-name="uni04BE" d="M943 301h-609q11 -67 48.5 -117t93.5 -76.5t120 -26.5q56 0 110.5 21.5t101.5 63.5l72 -65q-61 -54 -134.5 -81.5t-149.5 -27.5q-90 0 -169 37t-131 107t-63 165h-28q-81 0 -127 45.5t-46 115.5q0 57 29 112l94 -19q-28 -41 -28 -84q0 -37 23.5 -61t66.5 -24h15 q9 97 59.5 170t129.5 112.5t170 39.5q97 0 178.5 -44t130 -125t48.5 -186q0 -27 -5 -52zM469 591q-56 -29 -92.5 -82.5t-44.5 -122.5h512q-7 69 -42 122.5t-90.5 82.5t-120.5 29q-66 0 -122 -29zM644 -153h-93v176h93v-176z" unicode="Ҿ" horiz-adv-x="989"/>
<glyph glyph-name="uni04BF" d="M727 233h-444q9 -70 63 -112.5t135 -42.5q99 0 159 64l54 -62q-37 -42 -92 -64t-123 -22q-81 0 -144.5 30t-102 84.5t-45.5 124.5h-22q-69 0 -106.5 30.5t-37.5 81.5q0 39 23 87l80 -17q-19 -31 -19 -58q0 -25 18.5 -40t53.5 -15h10q8 68 45.5 121t96 82.5t130.5 29.5 q78 0 140 -34.5t96.5 -96.5t34.5 -142q0 -15 -3 -29zM339.5 412q-48.5 -42 -56.5 -110h352q-8 67 -56.5 109.5t-119.5 42.5t-119.5 -42zM510 -113h-91v134h91v-134z" unicode="ҿ" horiz-adv-x="771"/>
<glyph glyph-name="uni04C0" d="M109 700h100v-700h-100v700z" unicode="Ӏ" horiz-adv-x="318"/>
<glyph glyph-name="uni04C1" d="M697 308h-133v-308h-98v308h-134l-196 -308h-117l231 364l-214 336h107l187 -304h136v304h98v-304h134l188 304h107l-214 -338l231 -362h-117zM389.5 784.5q-44.5 35.5 -45.5 101.5h71q1 -39 27.5 -60.5t73.5 -21.5q45 0 72.5 21.5t28.5 60.5h70q-1 -65 -45.5 -101 t-125.5 -36q-82 0 -126.5 35.5z" unicode="Ӂ" horiz-adv-x="1029"/>
<glyph glyph-name="uni04C2" d="M575 224h-103v-224h-96v224h-103l-146 -224h-114l182 274l-168 256h102l143 -224h104v224h96v-224h104l143 224h103l-168 -257l182 -273h-114zM309 634.5q-41 35.5 -42 102.5h65q1 -37 25.5 -59.5t65.5 -22.5t66 22.5t26 59.5h67q-1 -67 -43 -102.5t-115 -35.5 q-74 0 -115 35.5z" unicode="ӂ" horiz-adv-x="849"/>
<glyph glyph-name="uni04C3" d="M623.5 140.5q67.5 -98.5 67.5 -174.5q0 -78 -44.5 -123t-121.5 -45q-61 0 -118 30l26 76q38 -20 72 -20q36 0 57 22.5t21 62.5q0 61 -65.5 154t-165.5 185h-145v-308h-98v700h98v-304h148l219 304h107l-249 -340q124 -121 191.5 -219.5z" unicode="Ӄ" horiz-adv-x="714"/>
<glyph glyph-name="uni04C4" d="M522 116.5q50 -83.5 50 -156.5t-44.5 -116.5t-118.5 -43.5q-57 0 -115 29l27 72q40 -21 73 -21q38 0 60 22.5t22 62.5q0 54 -44 124t-117 135h-126v-224h-96v530h96v-223h113l171 223h103l-195 -248q91 -82 141 -165.5z" unicode="ӄ" horiz-adv-x="598"/>
<glyph glyph-name="uni04C6" d="M632 84l-58 -197h-78l29 113h-73v446h-228l-6 -118q-5 -107 -19 -178.5t-46 -114.5t-89 -43q-26 0 -59 9l6 81q13 -3 24 -3q40 0 60 35t26 83t11 137l9 196h407v-446h84z" unicode="ӆ" horiz-adv-x="663"/>
<glyph glyph-name="uni04C7" d="M450 -94q36 -24 74 -24q36 0 60 22t24 62v340h-400v-306h-99v700h99v-306h400v306h98v-739q0 -52 -23 -88.5t-61 -55t-82 -18.5q-63 0 -119 34z" unicode="Ӈ" horiz-adv-x="815"/>
<glyph glyph-name="uni04C8" d="M363 -191.5q-31 8.5 -52 24.5l30 73q30 -25 74 -25q39 0 60.5 24t21.5 69v248h-308v-222h-96v530h96v-225h308v225h96v-559q0 -79 -43.5 -125t-121.5 -46q-34 0 -65 8.5z" unicode="ӈ" horiz-adv-x="687"/>
<glyph glyph-name="uni04C9" d="M814 87l-71 -240h-80l38 153h-90v312h-402v-312h-100v700h100v-301h402v301h100v-613h103z" unicode="Ӊ" horiz-adv-x="848"/>
<glyph glyph-name="uni04CA" d="M671 84l-58 -197h-78l29 113h-73v222h-302v-222h-96v530h96v-225h302v225h96v-446h84z" unicode="ӊ" horiz-adv-x="703"/>
<glyph glyph-name="uni04CB" d="M623 700v-700h-127v-153h-93v240h121v211q-108 -44 -204 -44q-128 0 -198.5 60t-70.5 171v215h99v-204q0 -74 47 -114t133 -40q98 0 194 42v316h99z" unicode="Ӌ" horiz-adv-x="732"/>
<glyph glyph-name="uni04CC" d="M513 530v-530h-97v-113h-91v193h92v150q-84 -39 -171 -39q-99 0 -153 45.5t-54 137.5v156h96v-150q0 -54 34.5 -82t96.5 -28q72 0 151 35v225h96z" unicode="ӌ" horiz-adv-x="606"/>
<glyph glyph-name="uni04CD" d="M964 87l-71 -240h-80l38 153h-93l-1 510l-253 -425h-46l-253 422v-507h-96v700h82l292 -492l288 492h82l1 -613h110z" unicode="Ӎ" horiz-adv-x="1000"/>
<glyph glyph-name="uni04CE" d="M797 84l-58 -197h-78l29 113h-73v387l-198 -327h-42l-196 328v-388h-88v530h99l208 -358l214 358h90v-446h93z" unicode="ӎ" horiz-adv-x="829"/>
<glyph glyph-name="uni04CF" d="M93 742h96v-742h-96v742z" unicode="ӏ" horiz-adv-x="283"/>
<glyph glyph-name="uni04D0" d="M564 175h-372l-77 -175h-103l317 700h99l318 -700h-105zM529 255l-151 343l-151 -343h302zM252.5 784.5q-44.5 35.5 -45.5 101.5h71q1 -39 27.5 -60.5t73.5 -21.5q45 0 72.5 21.5t28.5 60.5h70q-1 -65 -45.5 -101t-125.5 -36q-82 0 -126.5 35.5z" unicode="Ӑ" horiz-adv-x="758"/>
<glyph glyph-name="uni04D1" d="M450.5 481q58.5 -54 58.5 -161v-320h-91v70q-24 -37 -68.5 -56.5t-105.5 -19.5q-89 0 -142.5 43t-53.5 113t51 112.5t162 42.5h152v19q0 62 -36 95t-106 33q-47 0 -92 -15.5t-76 -41.5l-40 72q41 33 98 50.5t121 17.5q110 0 168.5 -54zM355 92.5q40 24.5 58 69.5v74h-148 q-122 0 -122 -82q0 -40 31 -63t86 -23t95 24.5zM174 634.5q-41 35.5 -42 102.5h65q1 -37 25.5 -59.5t65.5 -22.5t66 22.5t26 59.5h67q-1 -67 -43 -102.5t-115 -35.5q-74 0 -115 35.5z" unicode="ӑ" horiz-adv-x="589"/>
<glyph glyph-name="uni04D2" d="M564 175h-372l-77 -175h-103l317 700h99l318 -700h-105zM529 255l-151 343l-151 -343h302zM250 788.5q-15 14.5 -15 36.5t15 37t36 15t36 -15t15 -37t-15 -36.5t-36 -14.5t-36 14.5zM436 788.5q-15 14.5 -15 36.5t15 37t36 15t36 -15t15 -37t-15 -36.5t-36 -14.5 t-36 14.5z" unicode="Ӓ" horiz-adv-x="758"/>
<glyph glyph-name="uni04D3" d="M450.5 481q58.5 -54 58.5 -161v-320h-91v70q-24 -37 -68.5 -56.5t-105.5 -19.5q-89 0 -142.5 43t-53.5 113t51 112.5t162 42.5h152v19q0 62 -36 95t-106 33q-47 0 -92 -15.5t-76 -41.5l-40 72q41 33 98 50.5t121 17.5q110 0 168.5 -54zM355 92.5q40 24.5 58 69.5v74h-148 q-122 0 -122 -82q0 -40 31 -63t86 -23t95 24.5zM160 638.5q-15 14.5 -15 36.5t15 37t36 15t36 -15t15 -37t-15 -36.5t-36 -14.5t-36 14.5zM346 638.5q-15 14.5 -15 36.5t15 37t36 15t36 -15t15 -37t-15 -36.5t-36 -14.5t-36 14.5z" unicode="ӓ" horiz-adv-x="589"/>
<glyph glyph-name="uni04D4" d="M999 87v-87h-508v175h-278l-103 -175h-103l417 700h561v-87h-395v-215h351v-85h-351v-226h409zM491 255v358h-20l-211 -358h231z" unicode="Ӕ" horiz-adv-x="1046"/>
<glyph glyph-name="uni04D5" d="M942 235h-432q8 -71 60 -114t132 -43q93 0 153 64l54 -62q-37 -42 -90.5 -64t-119.5 -22q-74 0 -134 26.5t-99 80.5q-31 -56 -87 -81.5t-125 -25.5q-96 0 -151 44t-55 116q0 66 51 108t162 42h152v20q0 62 -35.5 95t-105.5 33q-48 0 -93 -15.5t-76 -41.5l-40 72 q41 33 98 50.5t120 17.5q147 0 197 -94q35 44 87.5 69t115.5 25q75 0 135.5 -34.5t94.5 -95.5t34 -137q0 -19 -3 -33zM568 414q-48 -40 -57 -110h339q-8 70 -56.5 110t-113.5 40q-64 0 -112 -40zM372.5 104q40.5 36 40.5 97v34h-148q-122 0 -122 -79q0 -42 31.5 -65 t87.5 -23q70 0 110.5 36z" unicode="ӕ" horiz-adv-x="995"/>
<glyph glyph-name="uni04D6" d="M617 87v-87h-508v700h494v-87h-394v-215h351v-85h-351v-226h408zM230.5 784.5q-44.5 35.5 -45.5 101.5h71q1 -39 27.5 -60.5t73.5 -21.5q45 0 72.5 21.5t28.5 60.5h70q-1 -65 -45.5 -101t-125.5 -36q-82 0 -126.5 35.5z" unicode="Ӗ" horiz-adv-x="665"/>
<glyph glyph-name="uni04D7" d="M570 233h-430q9 -70 61.5 -112.5t130.5 -42.5q95 0 153 64l53 -62q-36 -42 -89.5 -64t-119.5 -22q-84 0 -149 34.5t-100.5 96.5t-35.5 140q0 77 34.5 139t95 96.5t136.5 34.5t135.5 -34.5t93 -96.5t33.5 -142q0 -11 -2 -29zM194.5 412q-46.5 -42 -54.5 -110h340 q-8 67 -54.5 109.5t-115.5 42.5t-115.5 -42zM194 634.5q-41 35.5 -42 102.5h65q1 -37 25.5 -59.5t65.5 -22.5t66 22.5t26 59.5h67q-1 -67 -43 -102.5t-115 -35.5q-74 0 -115 35.5z" unicode="ӗ" horiz-adv-x="628"/>
<glyph glyph-name="uni04D8" d="M583 665q85 -43 136.5 -123.5t51.5 -189.5q0 -107 -50 -189t-134.5 -126.5t-183.5 -44.5t-182 44t-131.5 124.5t-48.5 186.5q0 31 3 46h624q-10 69 -48.5 120t-97 78.5t-125.5 27.5q-56 0 -111.5 -21t-104.5 -64l-72 65q62 54 137.5 81.5t152.5 27.5q99 0 184 -43z M529.5 110q58.5 30 96 84.5t44.5 125.5h-528q6 -71 42 -125.5t93.5 -84.5t125.5 -30t126.5 30z" unicode="Ә" horiz-adv-x="823"/>
<glyph glyph-name="uni04D9" d="M448 501.5q65 -34.5 100.5 -96.5t35.5 -140q0 -77 -34.5 -139t-95 -96.5t-136.5 -34.5t-135.5 34.5t-93 96.5t-33.5 142q0 11 2 29h430q-9 70 -61.5 112.5t-130.5 42.5q-95 0 -153 -64l-53 62q36 42 89.5 64t119.5 22q84 0 149 -34.5zM433.5 118q46.5 42 54.5 110h-340 q8 -67 54.5 -109.5t115.5 -42.5t115.5 42z" unicode="ә" horiz-adv-x="627"/>
<glyph glyph-name="uni04DA" d="M583 665q85 -43 136.5 -123.5t51.5 -189.5q0 -107 -50 -189t-134.5 -126.5t-183.5 -44.5t-182 44t-131.5 124.5t-48.5 186.5q0 31 3 46h624q-10 69 -48.5 120t-97 78.5t-125.5 27.5q-56 0 -111.5 -21t-104.5 -64l-72 65q62 54 137.5 81.5t152.5 27.5q99 0 184 -43z M529.5 110q58.5 30 96 84.5t44.5 125.5h-528q6 -71 42 -125.5t93.5 -84.5t125.5 -30t126.5 30zM284 788.5q-15 14.5 -15 36.5t15 37t36 15t36 -15t15 -37t-15 -36.5t-36 -14.5t-36 14.5zM470 788.5q-15 14.5 -15 36.5t15 37t36 15t36 -15t15 -37t-15 -36.5t-36 -14.5 t-36 14.5z" unicode="Ӛ" horiz-adv-x="823"/>
<glyph glyph-name="uni04DB" d="M448 501.5q65 -34.5 100.5 -96.5t35.5 -140q0 -77 -34.5 -139t-95 -96.5t-136.5 -34.5t-135.5 34.5t-93 96.5t-33.5 142q0 11 2 29h430q-9 70 -61.5 112.5t-130.5 42.5q-95 0 -153 -64l-53 62q36 42 89.5 64t119.5 22q84 0 149 -34.5zM433.5 118q46.5 42 54.5 110h-340 q8 -67 54.5 -109.5t115.5 -42.5t115.5 42zM190 638.5q-15 14.5 -15 36.5t15 37t36 15t36 -15t15 -37t-15 -36.5t-36 -14.5t-36 14.5zM376 638.5q-15 14.5 -15 36.5t15 37t36 15t36 -15t15 -37t-15 -36.5t-36 -14.5t-36 14.5z" unicode="ӛ" horiz-adv-x="627"/>
<glyph glyph-name="uni04DC" d="M697 308h-133v-308h-98v308h-134l-196 -308h-117l231 364l-214 336h107l187 -304h136v304h98v-304h134l188 304h107l-214 -338l231 -362h-117zM387 788.5q-15 14.5 -15 36.5t15 37t36 15t36 -15t15 -37t-15 -36.5t-36 -14.5t-36 14.5zM573 788.5q-15 14.5 -15 36.5t15 37 t36 15t36 -15t15 -37t-15 -36.5t-36 -14.5t-36 14.5z" unicode="Ӝ" horiz-adv-x="1029"/>
<glyph glyph-name="uni04DD" d="M575 224h-103v-224h-96v224h-103l-146 -224h-114l182 274l-168 256h102l143 -224h104v224h96v-224h104l143 224h103l-168 -257l182 -273h-114zM295 638.5q-15 14.5 -15 36.5t15 37t36 15t36 -15t15 -37t-15 -36.5t-36 -14.5t-36 14.5zM481 638.5q-15 14.5 -15 36.5t15 37 t36 15t36 -15t15 -37t-15 -36.5t-36 -14.5t-36 14.5z" unicode="ӝ" horiz-adv-x="849"/>
<glyph glyph-name="uni04DE" d="M547 302.5q37 -44.5 37 -106.5t-39.5 -108.5t-105 -71t-142.5 -24.5q-70 0 -139 21t-126 63l35 74q46 -36 103 -54t115 -18q84 0 141 35.5t57 97.5q0 53 -43 81.5t-121 28.5h-156v81h149q67 0 104.5 27.5t37.5 76.5q0 55 -49 87t-124 32q-49 0 -99.5 -14t-95.5 -42 l-32 82q53 30 112 45t118 15q74 0 136 -23t98.5 -67t36.5 -103q0 -53 -29.5 -93t-81.5 -60q66 -18 103 -62.5zM190 788.5q-15 14.5 -15 36.5t15 37t36 15t36 -15t15 -37t-15 -36.5t-36 -14.5t-36 14.5zM376 788.5q-15 14.5 -15 36.5t15 37t36 15t36 -15t15 -37t-15 -36.5 t-36 -14.5t-36 14.5z" unicode="Ӟ" horiz-adv-x="642"/>
<glyph glyph-name="uni04DF" d="M462 231q29 -31 29 -77q0 -47 -32 -83.5t-88.5 -57t-126.5 -20.5q-59 0 -115.5 15.5t-100.5 44.5l29 73q38 -24 87 -37.5t99 -13.5q68 0 108.5 23.5t40.5 63.5q0 37 -32.5 57t-91.5 20h-97v69h90q54 0 85 19t31 52q0 36 -36.5 56t-98.5 20q-79 0 -167 -41l-26 74 q97 49 203 49q64 0 115 -18t80 -51t29 -75q0 -39 -26 -70t-70 -47q53 -14 82 -45zM134 638.5q-15 14.5 -15 36.5t15 37t36 15t36 -15t15 -37t-15 -36.5t-36 -14.5t-36 14.5zM320 638.5q-15 14.5 -15 36.5t15 37t36 15t36 -15t15 -37t-15 -36.5t-36 -14.5t-36 14.5z" unicode="ӟ" horiz-adv-x="544"/>
<glyph glyph-name="uni04E0" d="M514 344.5q60 -53.5 60 -138.5q0 -61 -31 -109.5t-93.5 -76.5t-152.5 -28q-81 0 -152.5 22.5t-113.5 61.5l37 79q38 -35 98.5 -55.5t128.5 -20.5q85 0 131.5 33.5t46.5 93.5q0 57 -46 89.5t-139 32.5h-58v69l192 218h-364v85h483v-68l-200 -227q113 -7 173 -60.5z" unicode="Ӡ" horiz-adv-x="623"/>
<glyph glyph-name="uni04E1" d="M438.5 162q55.5 -55 55.5 -143q0 -62 -29.5 -112t-88.5 -79t-144 -29q-76 0 -143.5 24t-108.5 64l37 80q35 -36 91.5 -57.5t119.5 -21.5q80 0 123.5 34.5t43.5 96.5q0 61 -42.5 95t-128.5 34h-57v68l182 229h-344v85h459v-69l-188 -236q107 -8 162.5 -63z" unicode="ӡ" horiz-adv-x="527"/>
<glyph glyph-name="uni04E2" d="M109 700h99v-540l414 540h92v-700h-98v539l-415 -539h-92v700zM247 852h326v-60h-326v60z" unicode="Ӣ" horiz-adv-x="823"/>
<glyph glyph-name="uni04E3" d="M93 530h96v-386l325 386h87v-530h-96v386l-324 -386h-88v530zM178 702h326v-60h-326v60z" unicode="ӣ" horiz-adv-x="694"/>
<glyph glyph-name="uni04E4" d="M109 700h99v-540l414 540h92v-700h-98v539l-415 -539h-92v700zM281 788.5q-15 14.5 -15 36.5t15 37t36 15t36 -15t15 -37t-15 -36.5t-36 -14.5t-36 14.5zM467 788.5q-15 14.5 -15 36.5t15 37t36 15t36 -15t15 -37t-15 -36.5t-36 -14.5t-36 14.5z" unicode="Ӥ" horiz-adv-x="823"/>
<glyph glyph-name="uni04E5" d="M93 530h96v-386l325 386h87v-530h-96v386l-324 -386h-88v530zM212 638.5q-15 14.5 -15 36.5t15 37t36 15t36 -15t15 -37t-15 -36.5t-36 -14.5t-36 14.5zM398 638.5q-15 14.5 -15 36.5t15 37t36 15t36 -15t15 -37t-15 -36.5t-36 -14.5t-36 14.5z" unicode="ӥ" horiz-adv-x="694"/>
<glyph glyph-name="uni04E6" d="M233 38.5q-85 46.5 -133.5 128.5t-48.5 183t48.5 183t133.5 128.5t191 46.5q105 0 190 -46.5t133 -128t48 -183.5t-48 -183.5t-133 -128t-190 -46.5q-106 0 -191 46.5zM562.5 116q61.5 35 97 96.5t35.5 137.5t-35.5 137.5t-97 96.5t-138.5 35t-139.5 -35t-98 -96.5 t-35.5 -137.5t35.5 -137.5t98 -96.5t139.5 -35t138.5 35zM295 788.5q-15 14.5 -15 36.5t15 37t36 15t36 -15t15 -37t-15 -36.5t-36 -14.5t-36 14.5zM481 788.5q-15 14.5 -15 36.5t15 37t36 15t36 -15t15 -37t-15 -36.5t-36 -14.5t-36 14.5z" unicode="Ӧ" horiz-adv-x="848"/>
<glyph glyph-name="uni04E7" d="M178 29q-63 35 -98.5 96.5t-35.5 139.5t35.5 139.5t98.5 96t142 34.5t141.5 -34.5t98 -96t35.5 -139.5t-35.5 -139.5t-98 -96.5t-141.5 -35t-142 35zM411.5 101.5q40.5 23.5 63.5 66t23 97.5t-23 97.5t-63.5 65.5t-91.5 23t-91.5 -23t-64 -65.5t-23.5 -97.5t23.5 -97.5 t64 -66t91.5 -23.5t91.5 23.5zM190 638.5q-15 14.5 -15 36.5t15 37t36 15t36 -15t15 -37t-15 -36.5t-36 -14.5t-36 14.5zM376 638.5q-15 14.5 -15 36.5t15 37t36 15t36 -15t15 -37t-15 -36.5t-36 -14.5t-36 14.5z" unicode="ӧ" horiz-adv-x="641"/>
<glyph glyph-name="uni04E8" d="M233 38.5q-85 46.5 -133.5 128.5t-48.5 183t48.5 183t133.5 128.5t191 46.5q105 0 190 -46.5t133 -128t48 -183.5t-48 -183.5t-133 -128t-190 -46.5q-106 0 -191 46.5zM562.5 116q61.5 35 97 96.5t35.5 137.5t-35.5 137.5t-97 96.5t-138.5 35t-139.5 -35t-98 -96.5 t-35.5 -137.5t35.5 -137.5t98 -96.5t139.5 -35t138.5 35zM85.2246 389h683.812v-79h-683.812v79z" unicode="Ө" horiz-adv-x="848"/>
<glyph glyph-name="uni04E9" d="M469 500.5q64 -34.5 100.5 -96t36.5 -139.5t-36.5 -139.5t-100.5 -96.5t-144 -35t-144 35t-100.5 96.5t-36.5 139.5t36.5 139.5t100.5 96t144 34.5t144 -34.5zM199 415.5q-51 -43.5 -61 -116.5h374q-10 73 -61 116.5t-126 43.5t-126 -43.5zM451 114.5q51 43.5 61 116.5 h-374q10 -73 61.5 -116.5t125.5 -43.5q75 0 126 43.5z" unicode="ө" horiz-adv-x="650"/>
<glyph glyph-name="uni04EA" d="M233 38.5q-85 46.5 -133.5 128.5t-48.5 183t48.5 183t133.5 128.5t191 46.5q105 0 190 -46.5t133 -128t48 -183.5t-48 -183.5t-133 -128t-190 -46.5q-106 0 -191 46.5zM562.5 116q61.5 35 97 96.5t35.5 137.5t-35.5 137.5t-97 96.5t-138.5 35t-139.5 -35t-98 -96.5 t-35.5 -137.5t35.5 -137.5t98 -96.5t139.5 -35t138.5 35zM85.2246 389h683.812v-79h-683.812v79zM295 788.5q-15 14.5 -15 36.5t15 37t36 15t36 -15t15 -37t-15 -36.5t-36 -14.5t-36 14.5zM481 788.5q-15 14.5 -15 36.5t15 37t36 15t36 -15t15 -37t-15 -36.5t-36 -14.5 t-36 14.5z" unicode="Ӫ" horiz-adv-x="848"/>
<glyph glyph-name="uni04EB" d="M469 500.5q64 -34.5 100.5 -96t36.5 -139.5t-36.5 -139.5t-100.5 -96.5t-144 -35t-144 35t-100.5 96.5t-36.5 139.5t36.5 139.5t100.5 96t144 34.5t144 -34.5zM199 415.5q-51 -43.5 -61 -116.5h374q-10 73 -61 116.5t-126 43.5t-126 -43.5zM451 114.5q51 43.5 61 116.5 h-374q10 -73 61.5 -116.5t125.5 -43.5q75 0 126 43.5zM196 638.5q-15 14.5 -15 36.5t15 37t36 15t36 -15t15 -37t-15 -36.5t-36 -14.5t-36 14.5zM382 638.5q-15 14.5 -15 36.5t15 37t36 15t36 -15t15 -37t-15 -36.5t-36 -14.5t-36 14.5z" unicode="ӫ" horiz-adv-x="650"/>
<glyph glyph-name="uni04EC" d="M482 661.5q80 -46.5 126 -128t46 -183.5t-46 -183.5t-126 -128t-180 -46.5q-86 0 -156 28t-117 82l63 63q79 -83 205 -83q67 0 122 29.5t90 82.5t42 121h-339v82h338q-10 65 -45 115t-89 78t-119 28q-125 0 -205 -83l-63 63q47 54 117.5 82t155.5 28q100 0 180 -46.5z M191 788.5q-15 14.5 -15 36.5t15 37t36 15t36 -15t15 -37t-15 -36.5t-36 -14.5t-36 14.5zM377 788.5q-15 14.5 -15 36.5t15 37t36 15t36 -15t15 -37t-15 -36.5t-36 -14.5t-36 14.5z" unicode="Ӭ" horiz-adv-x="707"/>
<glyph glyph-name="uni04ED" d="M392.5 501q65.5 -35 102.5 -97t37 -139q0 -78 -37 -140t-102.5 -97t-146.5 -35q-70 0 -126.5 22t-95.5 64l56 56q64 -63 162 -63q78 0 133 44.5t66 116.5h-266v71h264q-13 69 -67 111.5t-130 42.5q-97 0 -162 -64l-56 55q39 43 96 65t126 22q81 0 146.5 -35zM134 638.5 q-15 14.5 -15 36.5t15 37t36 15t36 -15t15 -37t-15 -36.5t-36 -14.5t-36 14.5zM320 638.5q-15 14.5 -15 36.5t15 37t36 15t36 -15t15 -37t-15 -36.5t-36 -14.5t-36 14.5z" unicode="ӭ" horiz-adv-x="575"/>
<glyph glyph-name="uni04EE" d="M682 700l-311 -577q-37 -69 -87 -103t-109 -34q-46 0 -94 21l26 80q37 -13 66 -13q66 0 109 70l16 25l-282 531h107l227 -444l233 444h99zM177 852h326v-60h-326v60z" unicode="Ӯ" horiz-adv-x="691"/>
<glyph glyph-name="uni04EF" d="M566 530l-257 -583q-34 -81 -79.5 -114t-109.5 -33q-39 0 -75.5 12.5t-60.5 36.5l41 72q41 -39 95 -39q35 0 58.5 18.5t42.5 63.5l17 37l-234 529h100l185 -424l183 424h94zM109 702h326v-60h-326v60z" unicode="ӯ" horiz-adv-x="571"/>
<glyph glyph-name="uni04F0" d="M682 700l-311 -577q-37 -69 -87 -103t-109 -34q-46 0 -94 21l26 80q37 -13 66 -13q66 0 109 70l16 25l-282 531h107l227 -444l233 444h99zM211 788.5q-15 14.5 -15 36.5t15 37t36 15t36 -15t15 -37t-15 -36.5t-36 -14.5t-36 14.5zM397 788.5q-15 14.5 -15 36.5t15 37 t36 15t36 -15t15 -37t-15 -36.5t-36 -14.5t-36 14.5z" unicode="Ӱ" horiz-adv-x="691"/>
<glyph glyph-name="uni04F1" d="M566 530l-257 -583q-34 -81 -79.5 -114t-109.5 -33q-39 0 -75.5 12.5t-60.5 36.5l41 72q41 -39 95 -39q35 0 58.5 18.5t42.5 63.5l17 37l-234 529h100l185 -424l183 424h94zM143 638.5q-15 14.5 -15 36.5t15 37t36 15t36 -15t15 -37t-15 -36.5t-36 -14.5t-36 14.5z M329 638.5q-15 14.5 -15 36.5t15 37t36 15t36 -15t15 -37t-15 -36.5t-36 -14.5t-36 14.5z" unicode="ӱ" horiz-adv-x="571"/>
<glyph glyph-name="uni04F2" d="M682 700l-311 -577q-37 -69 -87 -103t-109 -34q-46 0 -94 21l26 80q37 -13 66 -13q66 0 109 70l16 25l-282 531h107l227 -444l233 444h99zM302 887h102l-111 -130h-81zM476 887h101l-109 -130h-81z" unicode="Ӳ" horiz-adv-x="691"/>
<glyph glyph-name="uni04F3" d="M566 530l-257 -583q-34 -81 -79.5 -114t-109.5 -33q-39 0 -75.5 12.5t-60.5 36.5l41 72q41 -39 95 -39q35 0 58.5 18.5t42.5 63.5l17 37l-234 529h100l185 -424l183 424h94zM234 737h102l-111 -130h-81zM408 737h101l-109 -130h-81z" unicode="ӳ" horiz-adv-x="571"/>
<glyph glyph-name="uni04F4" d="M627 700v-700h-99v277q-111 -43 -205 -43q-128 0 -198.5 62t-70.5 177v227h98v-216q0 -78 47.5 -120t134.5 -42q97 0 194 44v334h99zM212 788.5q-15 14.5 -15 36.5t15 37t36 15t36 -15t15 -37t-15 -36.5t-36 -14.5t-36 14.5zM398 788.5q-15 14.5 -15 36.5t15 37t36 15 t36 -15t15 -37t-15 -36.5t-36 -14.5t-36 14.5z" unicode="Ӵ" horiz-adv-x="736"/>
<glyph glyph-name="uni04F5" d="M516 530v-530h-96v214q-86 -40 -171 -40q-99 0 -153 46t-54 138v172h96v-166q0 -55 34.5 -83t96.5 -28q70 0 151 35v242h96zM147 638.5q-15 14.5 -15 36.5t15 37t36 15t36 -15t15 -37t-15 -36.5t-36 -14.5t-36 14.5zM333 638.5q-15 14.5 -15 36.5t15 37t36 15t36 -15 t15 -37t-15 -36.5t-36 -14.5t-36 14.5z" unicode="ӵ" horiz-adv-x="609"/>
<glyph glyph-name="uni04F6" d="M567 613h-360l1 -613h-99v700h459zM314 87v-240h-92v153h-113v87h205z" unicode="Ӷ" horiz-adv-x="578"/>
<glyph glyph-name="uni04F7" d="M483 446h-294v-446h-96v530h390v-84zM272 84v-197h-90v113h-89v84h179z" unicode="ӷ" horiz-adv-x="488"/>
<glyph glyph-name="uni04F8" d="M607.5 400q66.5 -56 66.5 -165q0 -115 -71.5 -175t-204.5 -60h-289v700h99v-244h208q125 0 191.5 -56zM527.5 118.5q46.5 39.5 46.5 114.5q0 144 -180 144h-186v-298h186q87 0 133.5 39.5zM785 700h99v-700h-99v700zM369 788.5q-15 14.5 -15 36.5t15 37t36 15t36 -15 t15 -37t-15 -36.5t-36 -14.5t-36 14.5zM555 788.5q-15 14.5 -15 36.5t15 37t36 15t36 -15t15 -37t-15 -36.5t-36 -14.5t-36 14.5z" unicode="Ӹ" horiz-adv-x="993"/>
<glyph glyph-name="uni04F9" d="M485 304q53 -45 53 -127q0 -86 -57.5 -132.5t-164.5 -45.5l-223 1v530h96v-179l143 -1q100 -1 153 -46zM617 530h96v-530h-96v530zM407.5 98q33.5 27 33.5 80q0 52 -33 76t-99 25l-120 2v-208l120 -1q65 -1 98.5 26zM287 638.5q-15 14.5 -15 36.5t15 37t36 15t36 -15 t15 -37t-15 -36.5t-36 -14.5t-36 14.5zM473 638.5q-15 14.5 -15 36.5t15 37t36 15t36 -15t15 -37t-15 -36.5t-36 -14.5t-36 14.5z" unicode="ӹ" horiz-adv-x="807"/>
<glyph glyph-name="uni04FA" d="M234 613v-252h293v-74h-293v-200h100v-127q0 -75 -46.5 -117.5t-117.5 -42.5q-63 0 -121 34l29 71q36 -24 75 -24q38 0 61 23.5t23 67.5v28h-101v287h-107v74h107v339h460v-87h-362z" unicode="Ӻ" horiz-adv-x="619"/>
<glyph glyph-name="uni04FB" d="M213 446v-160h211v-68h-211v-134h82v-118q0 -76 -43.5 -121t-121.5 -45q-35 0 -65.5 9t-51.5 25l28 71q35 -26 77 -26q39 0 60 24.5t21 71.5v25h-82v218h-84v68h84v244h350v-84h-254z" unicode="ӻ" horiz-adv-x="492"/>
<glyph glyph-name="uni04FC" d="M434 316q75 -93 116 -148.5t67 -109t26 -99.5q0 -75 -47.5 -118t-119.5 -43q-60 0 -117 30l25 70q36 -20 71 -20q37 0 58.5 22.5t21.5 62.5q0 54 -49.5 128t-150.5 198l-206 -289h-115l262 359l-247 341h115l194 -268l192 268h110l-244 -336q26 -32 38 -48z" unicode="Ӽ" horiz-adv-x="672"/>
<glyph glyph-name="uni04FD" d="M448.5 129q40.5 -53 61.5 -96.5t21 -84.5q0 -68 -46 -108t-117 -40q-59 0 -116 31l28 72q38 -23 74 -23t58.5 21t22.5 54q0 38 -35 91t-125 157l-155 -203h-109l207 271l-197 259h108l144 -189l144 189h106l-194 -254q79 -94 119.5 -147z" unicode="ӽ" horiz-adv-x="541"/>
<glyph glyph-name="uni04FE" d="M661 0h-119l-201 279l-199 -279h-116l227 319h-159v75h164l-215 306h115l183 -256l184 256h116l-216 -306h159v-75h-148z" unicode="Ӿ" horiz-adv-x="684"/>
<glyph glyph-name="uni04FF" d="M434 0l-150 202l-155 -202h-107l178 232h-113v68h117l-172 230h111l143 -192l146 192h103l-175 -230h123v-68h-112l175 -232h-112z" unicode="ӿ" horiz-adv-x="569"/>
<glyph glyph-name="uni0510" d="M609 76q-57 -42 -126 -63t-139 -21q-77 0 -142.5 24.5t-105 71t-39.5 108.5t37.5 106.5t103.5 63.5q-52 19 -81.5 58.5t-29.5 93.5q0 59 36.5 103t98.5 67t136 23q59 0 118 -15t112 -45l-32 -82q-45 28 -95.5 42t-99.5 14q-75 0 -124 -32t-49 -87q0 -49 37 -76.5 t104 -27.5h149v-81h-155q-78 0 -121.5 -28.5t-43.5 -81.5q0 -62 57 -97.5t141 -35.5q58 0 115.5 18t103.5 54z" unicode="Ԑ" horiz-adv-x="642"/>
<glyph glyph-name="uni0511" d="M516 53q-44 -29 -100.5 -44.5t-115.5 -15.5q-70 0 -126.5 20.5t-88.5 57t-32 83.5q0 46 29 77t82 45q-44 16 -70 47t-26 70q0 42 29 75t80 51t115 18q106 0 203 -49l-26 -74q-88 41 -167 41q-62 0 -98.5 -20t-36.5 -56q0 -33 31 -52t85 -19h90v-69h-97q-59 0 -91.5 -20 t-32.5 -57q0 -40 40.5 -63.5t108.5 -23.5q50 0 99 13.5t87 37.5z" unicode="ԑ" horiz-adv-x="544"/>
<glyph glyph-name="uni0512" d="M425 -94q36 -24 74 -24q36 0 60 22t24 62v647h-309l-8 -205q-5 -146 -24 -236t-59 -135t-108 -45q-30 0 -63 8l8 89q16 -4 31 -4q43 0 69 34.5t39 103.5t18 182l11 295h493v-739q0 -52 -23 -88.5t-61 -55t-82 -18.5q-63 0 -119 34z" unicode="Ԓ" horiz-adv-x="791"/>
<glyph glyph-name="uni0513" d="M548 530v-559q0 -79 -43.5 -125t-122.5 -46q-34 0 -65 8.5t-51 24.5l29 73q30 -25 74 -25q40 0 61.5 24t21.5 69v472h-228l-6 -118q-5 -107 -19 -178.5t-46 -114.5t-89 -43q-26 0 -59 9l6 81q13 -3 24 -3q40 0 60 35t26.5 84.5t10.5 135.5l9 196h407z" unicode="ԓ" horiz-adv-x="641"/>
<glyph glyph-name="uni051A" d="M829 -64q-34 -40 -79 -61t-97 -21q-66 0 -123.5 31.5t-131.5 107.5q-99 5 -178.5 53t-124 127.5t-44.5 176.5q0 101 48.5 183t133.5 128.5t191 46.5q105 0 190 -46.5t133 -128t48 -183.5q0 -86 -34.5 -158t-97 -121t-143.5 -68q35 -37 67.5 -53.5t66.5 -16.5q74 0 128 60 zM186.5 212.5q35.5 -61.5 98 -96.5t139.5 -35q76 0 138 35t97.5 96.5t35.5 137.5t-35.5 137.5t-97.5 96.5t-138 35q-77 0 -139.5 -35t-98 -96.5t-35.5 -137.5t35.5 -137.5z" unicode="Ԛ" horiz-adv-x="854"/>
<glyph glyph-name="uni051B" d="M595 530v-724h-96v274q-33 -42 -80.5 -64t-104.5 -22q-77 0 -138 34t-95.5 95.5t-34.5 141.5t34.5 141t95.5 95t138 34q59 0 108 -22.5t81 -66.5v84h92zM413 101.5q41 23.5 64 66t23 97.5t-23.5 97t-64 65.5t-90.5 23.5q-51 0 -91.5 -23t-64 -65.5t-23.5 -97.5 t23.5 -97.5t64 -66t91.5 -23.5q50 0 91 23.5z" unicode="ԛ" horiz-adv-x="688"/>
<glyph glyph-name="uni051C" d="M1065 700l-231 -700h-105l-184 556l-188 -556h-104l-232 700h104l185 -565l190 565h93l187 -567l188 567h97z" unicode="Ԝ" horiz-adv-x="1085"/>
<glyph glyph-name="uni051D" d="M927 530l-203 -530h-99l-156 403l-156 -403h-99l-205 530h99l157 -418l162 418h89l159 -418l160 418h92z" unicode="ԝ" horiz-adv-x="938"/>
<glyph glyph-name="uni0524" d="M712 700v-700h-98v613h-406v-613h-99v700h603zM819 87v-240h-92v153h-113v87h205z" unicode="Ԥ" horiz-adv-x="848"/>
<glyph glyph-name="uni0525" d="M584 530v-530h-96v446h-299v-446h-96v530h491zM667 84v-197h-90v113h-89v84h179z" unicode="ԥ" horiz-adv-x="677"/>
<glyph glyph-name="uni0526" d="M611.5 404q70.5 -62 70.5 -177v-227h-98v216q0 78 -47.5 120t-134.5 42q-97 0 -194 -44v-334h-99v700h99v-277q111 43 205 43q128 0 198.5 -62zM789 87v-240h-92v153h-113v87h205z" unicode="Ԧ" horiz-adv-x="805"/>
<glyph glyph-name="uni0527" d="M675 84v-197h-90v113h-85v291q0 77 -37 116t-105 39q-78 0 -123.5 -46.5t-45.5 -128.5v-271h-96v742h96v-304q30 47 80.5 72t114.5 25q98 0 155 -57.5t57 -169.5v-224h79z" unicode="ԧ" horiz-adv-x="700"/>
<glyph glyph-name="uni0528" d="M-47 -94q34 -24 74 -24q36 0 59.5 22t23.5 62v734h98v-306h400v306h99v-700h-99v306h-400v-345q0 -52 -23 -88.5t-61 -55t-82 -18.5q-62 0 -118 34z" unicode="Ԩ" horiz-adv-x="816"/>
<glyph glyph-name="uni0529" d="M588 530v-530h-96v223h-302v-252q0 -78 -43 -124.5t-121 -46.5q-35 0 -65.5 8.5t-51.5 24.5l29 73q30 -25 74 -25q39 0 60.5 24t21.5 69v556h96v-223h302v223h96z" unicode="ԩ" horiz-adv-x="681"/>
<glyph glyph-name="uni052E" d="M681 700v-700h-98v613h-310l-7 -205q-5 -145 -23.5 -235t-58.5 -135.5t-108 -45.5q-31 0 -63 8l7 89q16 -4 32 -4q43 0 69 34.5t39 103.5t17 182l11 295h493zM788 87v-240h-92v153h-113v87h205z" unicode="Ԯ" horiz-adv-x="817"/>
<glyph glyph-name="uni052F" d="M548 530v-530h-96v446h-228l-6 -118q-5 -107 -19 -178.5t-46 -114.5t-89 -43q-26 0 -59 9l6 81q13 -3 24 -3q40 0 60 35t26 83t11 137l9 196h407zM631 84v-197h-90v113h-89v84h179z" unicode="ԯ" horiz-adv-x="662"/>
<glyph glyph-name="uni1E08" d="M228.5 38.5q-84.5 46.5 -132.5 128t-48 183.5t48 183.5t133 128t190 46.5q82 0 150 -27.5t116 -81.5l-65 -63q-79 83 -197 83q-78 0 -141 -35t-98.5 -96.5t-35.5 -137.5t35.5 -137.5t98.5 -96.5t141 -35q117 0 197 84l65 -63q-48 -54 -116.5 -82t-150.5 -28 q-105 0 -189.5 46.5zM288 -202l21 49q30 -17 68 -17q56 0 56 40q0 18 -14 28.5t-43 10.5h-27l25 98h55l-15 -57q42 -4 64.5 -26.5t22.5 -56.5q0 -42 -34 -66.5t-90 -24.5q-52 0 -89 22zM472 887h122l-168 -130h-90z" unicode="Ḉ" horiz-adv-x="723"/>
<glyph glyph-name="uni1E09" d="M177.5 29q-63.5 35 -99.5 96.5t-36 139.5t36 139.5t99.5 96t144.5 34.5q72 0 128.5 -29t87.5 -84l-73 -47q-25 38 -62 57t-82 19q-52 0 -93.5 -23t-65 -65.5t-23.5 -97.5q0 -56 23.5 -98.5t65 -65.5t93.5 -23q45 0 82 19t62 57l73 -46q-31 -55 -87.5 -84.5t-128.5 -29.5 q-81 0 -144.5 35zM186 -202l21 49q30 -17 68 -17q56 0 56 40q0 18 -14 28.5t-43 10.5h-27l25 98h55l-15 -57q42 -4 64.5 -26.5t22.5 -56.5q0 -42 -34 -66.5t-90 -24.5q-52 0 -89 22zM364 737h122l-168 -130h-90z" unicode="ḉ" horiz-adv-x="571"/>
<glyph glyph-name="uni1E0C" d="M105 700h295q111 0 197 -44t133.5 -123.5t47.5 -182.5t-47.5 -182.5t-133.5 -123.5t-197 -44h-295v700zM394 87q85 0 149.5 33t99.5 92.5t35 137.5t-35 137.5t-99.5 92.5t-149.5 33h-189v-526h189zM347 -182q-15 14 -15 36t15 37t36 15t36 -15t15 -37t-15 -36t-36 -14 t-36 14z" unicode="Ḍ" horiz-adv-x="826"/>
<glyph glyph-name="uni1E0D" d="M591 742v-742h-92v84q-32 -44 -81 -67t-108 -23q-77 0 -138 34t-95.5 95.5t-34.5 141.5t34.5 141t95.5 95t138 34q57 0 105 -21.5t80 -63.5v292h96zM409 101.5q41 23.5 64 66t23 97.5t-23 97.5t-64 65.5t-91 23q-51 0 -91.5 -23t-64 -65.5t-23.5 -97.5t23.5 -97.5t64 -66 t91.5 -23.5q50 0 91 23.5zM311 -182q-15 14 -15 36t15 37t36 15t36 -15t15 -37t-15 -36t-36 -14t-36 14z" unicode="ḍ" horiz-adv-x="682"/>
<glyph glyph-name="uni1E0E" d="M105 700h295q111 0 197 -44t133.5 -123.5t47.5 -182.5t-47.5 -182.5t-133.5 -123.5t-197 -44h-295v700zM394 87q85 0 149.5 33t99.5 92.5t35 137.5t-35 137.5t-99.5 92.5t-149.5 33h-189v-526h189zM220 -113h326v-61h-326v61z" unicode="Ḏ" horiz-adv-x="826"/>
<glyph glyph-name="uni1E0F" d="M591 742v-742h-92v84q-32 -44 -81 -67t-108 -23q-77 0 -138 34t-95.5 95.5t-34.5 141.5t34.5 141t95.5 95t138 34q57 0 105 -21.5t80 -63.5v292h96zM409 101.5q41 23.5 64 66t23 97.5t-23 97.5t-64 65.5t-91 23q-51 0 -91.5 -23t-64 -65.5t-23.5 -97.5t23.5 -97.5t64 -66 t91.5 -23.5q50 0 91 23.5zM184 -113h326v-61h-326v61z" unicode="ḏ" horiz-adv-x="682"/>
<glyph glyph-name="uni1E14" d="M613 87v-87h-508v700h494v-87h-394v-215h351v-85h-351v-226h408zM190 836h326v-57h-326v57zM196 1012h109l117 -113h-78z" unicode="Ḕ" horiz-adv-x="670"/>
<glyph glyph-name="uni1E15" d="M568 233h-430q9 -70 61.5 -112.5t130.5 -42.5q95 0 153 64l53 -62q-36 -42 -89.5 -64t-119.5 -22q-84 0 -149 34.5t-100.5 96.5t-35.5 140q0 77 34.5 139t95 96.5t136.5 34.5t135.5 -34.5t93 -96.5t33.5 -142q0 -11 -2 -29zM192.5 412q-46.5 -42 -54.5 -110h340 q-8 67 -54.5 109.5t-115.5 42.5t-115.5 -42zM144 686h326v-57h-326v57zM150 862h109l117 -113h-78z" unicode="ḕ" horiz-adv-x="612"/>
<glyph glyph-name="uni1E16" d="M613 87v-87h-508v700h494v-87h-394v-215h351v-85h-351v-226h408zM190 836h326v-57h-326v57zM402 1012h109l-148 -113h-79z" unicode="Ḗ" horiz-adv-x="670"/>
<glyph glyph-name="uni1E17" d="M568 233h-430q9 -70 61.5 -112.5t130.5 -42.5q95 0 153 64l53 -62q-36 -42 -89.5 -64t-119.5 -22q-84 0 -149 34.5t-100.5 96.5t-35.5 140q0 77 34.5 139t95 96.5t136.5 34.5t135.5 -34.5t93 -96.5t33.5 -142q0 -11 -2 -29zM192.5 412q-46.5 -42 -54.5 -110h340 q-8 67 -54.5 109.5t-115.5 42.5t-115.5 -42zM144 686h326v-57h-326v57zM356 862h109l-148 -113h-79z" unicode="ḗ" horiz-adv-x="612"/>
<glyph glyph-name="uni1E1C" d="M613 87v-87h-508v700h494v-87h-394v-215h351v-85h-351v-226h408zM249 -202l21 49q30 -17 68 -17q56 0 56 40q0 18 -14 28.5t-43 10.5h-27l25 98h55l-15 -57q42 -4 64.5 -26.5t22.5 -56.5q0 -42 -34 -66.5t-90 -24.5q-52 0 -89 22zM238.5 788q-45.5 37 -47.5 99h65 q1 -36 28.5 -58t68.5 -22t68.5 22t28.5 58h65q-2 -62 -47.5 -99t-114.5 -37t-114.5 37z" unicode="Ḝ" horiz-adv-x="670"/>
<glyph glyph-name="uni1E1D" d="M568 233h-430q9 -70 61.5 -112.5t130.5 -42.5q95 0 153 64l53 -62q-36 -42 -89.5 -64t-119.5 -22q-84 0 -149 34.5t-100.5 96.5t-35.5 140q0 77 34.5 139t95 96.5t136.5 34.5t135.5 -34.5t93 -96.5t33.5 -142q0 -11 -2 -29zM192.5 412q-46.5 -42 -54.5 -110h340 q-8 67 -54.5 109.5t-115.5 42.5t-115.5 -42zM193 -202l21 49q30 -17 68 -17q56 0 56 40q0 18 -14 28.5t-43 10.5h-27l25 98h55l-15 -57q42 -4 64.5 -26.5t22.5 -56.5q0 -42 -34 -66.5t-90 -24.5q-52 0 -89 22zM192.5 638q-45.5 37 -47.5 99h65q1 -36 28.5 -58t68.5 -22 t68.5 22t28.5 58h65q-2 -62 -47.5 -99t-114.5 -37t-114.5 37z" unicode="ḝ" horiz-adv-x="612"/>
<glyph glyph-name="uni1E20" d="M590 354h96v-273q-52 -43 -121 -66t-144 -23q-106 0 -191 46.5t-133.5 128t-48.5 183.5t48.5 184t134 128t192.5 46q84 0 152.5 -27.5t116.5 -80.5l-62 -62q-84 81 -203 81q-80 0 -143.5 -34.5t-99.5 -96t-36 -138.5q0 -76 36 -137.5t99.5 -96.5t142.5 -35q94 0 164 45 v228zM247 852h326v-60h-326v60z" unicode="Ḡ" horiz-adv-x="772"/>
<glyph glyph-name="uni1E21" d="M598 530v-458q0 -139 -69 -205.5t-206 -66.5q-75 0 -143 20.5t-110 58.5l46 74q37 -32 91.5 -50.5t112.5 -18.5q93 0 137.5 44t44.5 134v42q-34 -41 -83.5 -61.5t-107.5 -20.5q-76 0 -137.5 32.5t-96.5 91t-35 133.5t35 133.5t96.5 90.5t137.5 32q60 0 111.5 -22 t84.5 -65v82h91zM415.5 128q41.5 22 65 61.5t23.5 89.5q0 77 -51 124.5t-131 47.5q-81 0 -132 -47.5t-51 -124.5q0 -50 23.5 -89.5t65 -61.5t94.5 -22q52 0 93.5 22zM166 702h326v-60h-326v60z" unicode="ḡ" horiz-adv-x="690"/>
<glyph glyph-name="uni1E24" d="M707 700v-700h-100v312h-402v-312h-100v700h100v-301h402v301h100zM369 -182q-15 14 -15 36t15 37t36 15t36 -15t15 -37t-15 -36t-36 -14t-36 14z" unicode="Ḥ" horiz-adv-x="812"/>
<glyph glyph-name="uni1E25" d="M534.5 476.5q59.5 -58.5 59.5 -171.5v-305h-96v294q0 77 -37 116t-106 39q-78 0 -123 -45.5t-45 -130.5v-273h-96v742h96v-287q30 38 78.5 59t108.5 21q101 0 160.5 -58.5zM307 -182q-15 14 -15 36t15 37t36 15t36 -15t15 -37t-15 -36t-36 -14t-36 14z" unicode="ḥ" horiz-adv-x="681"/>
<glyph glyph-name="uni1E2A" d="M707 700v-700h-100v312h-402v-312h-100v700h100v-301h402v301h100zM290.5 -174q-45.5 35 -47.5 93h63q0 -34 28 -54.5t71 -20.5t71 20.5t28 54.5h63q-2 -58 -47.5 -93t-114.5 -35t-114.5 35z" unicode="Ḫ" horiz-adv-x="812"/>
<glyph glyph-name="uni1E2B" d="M534.5 476.5q59.5 -58.5 59.5 -171.5v-305h-96v294q0 77 -37 116t-106 39q-78 0 -123 -45.5t-45 -130.5v-273h-96v742h96v-287q30 38 78.5 59t108.5 21q101 0 160.5 -58.5zM228.5 -174q-45.5 35 -47.5 93h63q0 -34 28 -54.5t71 -20.5t71 20.5t28 54.5h63 q-2 -58 -47.5 -93t-114.5 -35t-114.5 35z" unicode="ḫ" horiz-adv-x="681"/>
<glyph glyph-name="uni1E2E" d="M105 700h100v-700h-100v700zM29.5 788q-14.5 14 -14.5 36q0 21 14.5 35t35.5 14q20 0 34.5 -14t14.5 -35t-14.5 -35.5t-34.5 -14.5q-21 0 -35.5 14zM211.5 788.5q-14.5 14.5 -14.5 35.5t14.5 35t34.5 14q21 0 35.5 -14t14.5 -35t-14.5 -35.5t-35.5 -14.5 q-20 0 -34.5 14.5zM204 1012h109l-148 -113h-79z" unicode="Ḯ" horiz-adv-x="310"/>
<glyph glyph-name="uni1E2F" d="M91 530h96v-530h-96v530zM13.5 638q-14.5 14 -14.5 36q0 21 14.5 35t35.5 14q20 0 34.5 -14t14.5 -35t-14.5 -35.5t-34.5 -14.5q-21 0 -35.5 14zM195.5 638.5q-14.5 14.5 -14.5 35.5t14.5 35t34.5 14q21 0 35.5 -14t14.5 -35t-14.5 -35.5t-35.5 -14.5q-20 0 -34.5 14.5z M188 862h109l-148 -113h-79z" unicode="ḯ" horiz-adv-x="279"/>
<glyph glyph-name="uni1E36" d="M105 700h100v-613h379v-87h-479v700zM320 -182q-15 14 -15 36t15 37t36 15t36 -15t15 -37t-15 -36t-36 -14t-36 14z" unicode="Ḷ" horiz-adv-x="594"/>
<glyph glyph-name="uni1E37" d="M91 742h96v-742h-96v742zM103 -182q-15 14 -15 36t15 37t36 15t36 -15t15 -37t-15 -36t-36 -14t-36 14z" unicode="ḷ" horiz-adv-x="279"/>
<glyph glyph-name="uni1E3A" d="M105 700h100v-613h379v-87h-479v700zM193 -113h326v-61h-326v61z" unicode="Ḻ" horiz-adv-x="594"/>
<glyph glyph-name="uni1E3B" d="M91 742h96v-742h-96v742zM-24 -113h326v-61h-326v61z" unicode="ḻ" horiz-adv-x="279"/>
<glyph glyph-name="uni1E42" d="M754 0l-1 510l-253 -425h-46l-253 422v-507h-96v700h82l292 -492l288 492h82l1 -700h-96zM441 -182q-15 14 -15 36t15 37t36 15t36 -15t15 -37t-15 -36t-36 -14t-36 14z" unicode="Ṃ" horiz-adv-x="955"/>
<glyph glyph-name="uni1E43" d="M912.5 477q58.5 -58 58.5 -172v-305h-96v294q0 77 -35.5 116t-101.5 39q-73 0 -116 -45.5t-43 -130.5v-273h-96v294q0 77 -35.5 116t-101.5 39q-73 0 -116 -45.5t-43 -130.5v-273h-96v530h92v-79q29 41 76 62.5t107 21.5q62 0 110 -25t74 -73q30 46 83.5 72t120.5 26 q100 0 158.5 -58zM494 -182q-15 14 -15 36t15 37t36 15t36 -15t15 -37t-15 -36t-36 -14t-36 14z" unicode="ṃ" horiz-adv-x="1057"/>
<glyph glyph-name="uni1E44" d="M707 700v-700h-82l-420 522v-522h-100v700h82l420 -522v522h100zM363 792q-17 17 -17 42t17 42t42 17t42 -17t17 -42t-17 -42t-42 -17t-42 17z" unicode="Ṅ" horiz-adv-x="812"/>
<glyph glyph-name="uni1E45" d="M534.5 476.5q59.5 -58.5 59.5 -171.5v-305h-96v294q0 77 -37 116t-106 39q-78 0 -123 -45.5t-45 -130.5v-273h-96v530h92v-80q29 41 78.5 63t112.5 22q101 0 160.5 -58.5zM301 642q-17 17 -17 42t17 42t42 17t42 -17t17 -42t-17 -42t-42 -17t-42 17z" unicode="ṅ" horiz-adv-x="681"/>
<glyph glyph-name="uni1E46" d="M707 700v-700h-82l-420 522v-522h-100v700h82l420 -522v522h100zM369 -182q-15 14 -15 36t15 37t36 15t36 -15t15 -37t-15 -36t-36 -14t-36 14z" unicode="Ṇ" horiz-adv-x="812"/>
<glyph glyph-name="uni1E47" d="M534.5 476.5q59.5 -58.5 59.5 -171.5v-305h-96v294q0 77 -37 116t-106 39q-78 0 -123 -45.5t-45 -130.5v-273h-96v530h92v-80q29 41 78.5 63t112.5 22q101 0 160.5 -58.5zM307 -182q-15 14 -15 36t15 37t36 15t36 -15t15 -37t-15 -36t-36 -14t-36 14z" unicode="ṇ" horiz-adv-x="681"/>
<glyph glyph-name="uni1E48" d="M707 700v-700h-82l-420 522v-522h-100v700h82l420 -522v522h100zM242 -113h326v-61h-326v61z" unicode="Ṉ" horiz-adv-x="812"/>
<glyph glyph-name="uni1E49" d="M534.5 476.5q59.5 -58.5 59.5 -171.5v-305h-96v294q0 77 -37 116t-106 39q-78 0 -123 -45.5t-45 -130.5v-273h-96v530h92v-80q29 41 78.5 63t112.5 22q101 0 160.5 -58.5zM180 -113h326v-61h-326v61z" unicode="ṉ" horiz-adv-x="681"/>
<glyph glyph-name="uni1E4C" d="M230 38.5q-85 46.5 -133.5 128.5t-48.5 183t48.5 183t133.5 128.5t191 46.5q105 0 190 -46.5t133 -128t48 -183.5t-48 -183.5t-133 -128t-190 -46.5q-106 0 -191 46.5zM559.5 116q61.5 35 97 96.5t35.5 137.5t-35.5 137.5t-97 96.5t-138.5 35t-139.5 -35t-98 -96.5 t-35.5 -137.5t35.5 -137.5t98 -96.5t139.5 -35t138.5 35zM447.5 770q-18.5 8 -42.5 24q-31 22 -49 22q-44 0 -46 -50h-54q1 48 26.5 75.5t69.5 27.5q23 0 41.5 -8t42.5 -24q17 -11 28 -16.5t23 -5.5q22 0 33.5 13t12.5 36h53q-1 -47 -26.5 -74.5t-68.5 -27.5q-25 0 -43.5 8z M470 1012h109l-148 -113h-79z" unicode="Ṍ" horiz-adv-x="840"/>
<glyph glyph-name="uni1E4D" d="M176 29q-63 35 -98.5 96.5t-35.5 139.5t35.5 139.5t98.5 96t142 34.5t141.5 -34.5t98 -96t35.5 -139.5t-35.5 -139.5t-98 -96.5t-141.5 -35t-142 35zM409.5 101.5q40.5 23.5 63.5 66t23 97.5t-23 97.5t-63.5 65.5t-91.5 23t-91.5 -23t-64 -65.5t-23.5 -97.5t23.5 -97.5 t64 -66t91.5 -23.5t91.5 23.5zM343.5 620q-18.5 8 -42.5 24q-31 22 -49 22q-44 0 -46 -50h-54q1 48 26.5 75.5t69.5 27.5q23 0 41.5 -8t42.5 -24q17 -11 28 -16.5t23 -5.5q22 0 33.5 13t12.5 36h53q-1 -47 -26.5 -74.5t-68.5 -27.5q-25 0 -43.5 8zM366 862h109l-148 -113 h-79z" unicode="ṍ" horiz-adv-x="635"/>
</font>
</defs>
</svg>
