<svg width="270" height="48" viewBox="0 0 270 48" fill="none" xmlns="http://www.w3.org/2000/svg">
<path d="M46.5493 16.8861C49.6967 16.8861 51.6722 18.9238 51.6722 21.7423C51.6722 24.675 49.6935 26.3667 46.5493 26.3667H40.2898V31.1626H37.6227V16.8798L46.5493 16.8861ZM46.703 24.0053C47.0013 24.0203 47.2995 23.9732 47.5783 23.8668C47.8571 23.7605 48.1103 23.5974 48.3215 23.388C48.5327 23.1786 48.6973 22.9276 48.8045 22.6512C48.9118 22.3749 48.9594 22.0793 48.9442 21.7835C48.9442 20.3775 48.0797 19.2444 46.5429 19.2444H40.2898V24.0053H46.703Z" fill="#ffffff"/>
<path d="M61.5625 31.5784C56.9743 31.5784 53.1738 28.5536 53.1738 24.0212C53.1738 19.5491 56.9743 16.4672 61.5625 16.4672C66.1507 16.4672 69.9128 19.5491 69.9128 24.0212C69.9128 28.5536 66.1699 31.5784 61.5625 31.5784V31.5784ZM61.5625 18.9048C58.2198 18.9048 55.937 21.1488 55.937 24.0212C55.937 26.973 58.1238 29.1598 61.5625 29.1598C65.0013 29.1598 67.1465 26.9381 67.1465 24.0212C67.1465 21.1646 64.9788 18.9048 61.5625 18.9048Z" fill="#ffffff"/>
<path d="M80.9719 31.5435C76.1532 31.5435 72.5223 28.5155 72.5223 23.9863C72.5223 19.5427 76.2076 16.4481 80.9719 16.4481C83.3849 16.3864 85.7475 17.1383 87.6733 18.581L86.2485 20.6758C84.7699 19.519 82.9354 18.9005 81.0519 18.9238C77.53 18.9238 75.3463 21.1456 75.3463 24.0021C75.3463 26.9539 77.5556 29.0805 81.0872 29.0805C82.9898 29.1131 84.8483 28.5106 86.3637 27.3697L87.7853 29.4613C85.9635 30.7944 83.8151 31.5562 80.9719 31.5562" fill="#ffffff"/>
<path d="M110.848 27.6966L109.183 31.1626H106.301L113.307 16.8798H116.108L123.136 31.1626H120.255L118.606 27.6966H110.848ZM111.959 25.3765H117.508L114.738 19.5871L111.959 25.3765Z" fill="#ffffff"/>
<path d="M137.279 31.1626V25.0527H127.856V31.1626H125.186V16.8861H127.856V22.7135H137.279V16.8861H139.952V31.1626H137.279Z" fill="#ffffff"/>
<path d="M143.903 31.1626V16.8861H146.574V23.5483L153.81 16.8861H157.092L149.644 23.7609L157.399 31.1626H153.81L146.574 24.2338V31.1626H143.903Z" fill="#ffffff"/>
<path d="M99.7216 22.1198H93.4685V19.1109H103.772V16.8892H90.7982V31.1529H99.7216C102.866 31.1529 105.03 29.458 105.03 26.6459C105.03 23.7164 102.866 22.1357 99.7216 22.1357V22.1198ZM99.8753 28.801H93.4717V24.4813H99.8753C101.55 24.4813 102.501 25.3541 102.501 26.6301C102.501 28.0361 101.745 28.7788 99.8753 28.7788" fill="#ffffff"/>
<path d="M30 9H0V24.4286H30V9Z" fill="#E9041E"/>
<path d="M30 23.9999H0V38.9999H30V23.9999Z" fill="black"/>
<path d="M24.1667 23.1667H5.83336V24.761H24.1667V23.1667Z" fill="white"/>
</svg>
