<svg viewBox="0 0 268 112" version="1.1" xmlns="http://www.w3.org/2000/svg" xmlns:xlink="http://www.w3.org/1999/xlink">
  <title>keb-logo-compact</title>
  <desc>Created with Sketch.</desc>
  <g id="keb-logo-compact" stroke="none" stroke-width="1" fill="none" fill-rule="evenodd">
    <g id="logo_ru" fill-rule="nonzero">
      <path d="M159.6,20.4 C159.6,22.6 159.4,24 159.1,24.3 C158.8,24.7 157.5,24.9 155.3,24.9 L150.6,24.9 L150.6,45.7 C148,45.7 146.4,45.5 146,45.1 C145.5,44.7 145.3,43.5 145.3,41.3 L145.3,24.9 L136.2,24.9 C136.2,22.6 136.4,21.3 136.7,21 C137,20.6 138.2,20.4 140.1,20.4 L159.6,20.4 L159.6,20.4 Z M109.6,45.7 L109.6,20.3 C112.3,20.3 113.9,20.5 114.4,20.8 C114.8,21.1 115.1,22.2 115.1,24.1 L115.1,39 L124.6,23.6 C125.7,22 126.5,21.1 127,20.8 C127.5,20.5 128.8,20.4 130.8,20.4 L133.6,20.4 L133.6,41.4 C133.6,43.6 133.4,44.8 132.9,45.2 C132.4,45.6 130.9,45.8 128.2,45.8 L128.2,26.9 L118.7,42.2 C117.6,44 116.7,45 116.2,45.3 C115.7,45.6 114.5,45.7 112.6,45.7 L109.6,45.7 L109.6,45.7 Z M5.9,45.9 C3.2,45.9 1.6,45.7 1.2,45.4 C0.7,45 0.5,43.7 0.5,41.5 L0.5,14.5 C3.2,14.5 4.8,14.7 5.2,15 C5.7,15.3 5.9,16.5 5.9,18.5 L5.9,45.9 Z M99.1,39.9 L99.1,24.5 L91.8,24.5 C91.8,26.1 91.7,28.9 91.3,31.9 C90.9,34.9 90.1,38.5 88.6,41.5 L97.5,41.5 C98.8,41.5 99.1,40.8 99.1,40.3 C99.2,40.1 99.1,39.9 99.1,39.9 L99.1,39.9 Z M107.1,45.7 L107.1,47.2 C107.1,49.4 106.9,50.6 106.5,50.9 C106,51.3 104.5,51.4 101.9,51.4 L101.9,45.8 L85.6,45.8 L85.6,51.4 C83,51.4 81.5,51.2 81,50.9 C80.6,50.6 80.4,49.3 80.4,47.2 L80.4,45.9 C80.4,43.7 80.6,42.5 80.9,42.2 C81.1,41.9 81.8,41.8 83,41.7 C86.3,38.6 87.2,29.7 87.2,24.7 L87.2,24.2 C87.2,22.4 87.4,21.4 87.8,21.1 C88.1,20.7 89.3,20.5 91.4,20.5 L100.1,20.5 C102.2,20.5 103.3,20.7 103.7,21.1 C104,21.4 104.2,22.5 104.3,24.4 L104.3,41.8 C105.5,41.9 106.3,42 106.5,42.3 C106.9,42.4 107.1,43.6 107.1,45.7 L107.1,45.7 Z M74.5,31 C74.6,26.4 72.5,24.2 68.2,24.2 C64.8,24.2 62.8,24.5 62.2,25.1 C61.6,25.7 61.3,27.6 61.3,31 L74.5,31 Z M80,31 C80,33.1 79.8,34.3 79.3,34.7 C78.9,35 77.3,35.2 74.6,35.2 L61.4,35.2 C61.4,37.1 62,38.7 63.2,39.8 C64.4,41 66.2,41.5 68.4,41.5 L73.9,41.5 C76,41.5 77.2,41.7 77.5,42 C77.9,42.3 78,43.6 78,45.7 L68.5,45.7 C60.2,45.7 56,41.5 56,32.9 C56,24.3 60.2,20.1 68.6,20.1 C72.2,20.1 75.1,21.1 77.1,23.2 C79,25.2 80,27.8 80,31 L80,31 Z M48.6,33.2 C48.6,30.4 48.2,28.3 47.3,26.9 C46.2,25.3 44.3,24.5 41.7,24.5 C38.2,24.5 36.1,24.9 35.5,25.6 C34.9,26.3 34.6,28.8 34.6,33.2 C34.6,36 35,38.1 35.8,39.3 C36.9,41 38.8,41.8 41.5,41.8 C45,41.8 47.1,41.4 47.6,40.7 C48.3,40 48.6,37.5 48.6,33.2 L48.6,33.2 Z M53.9,33.2 C53.9,41.8 50.3,46.2 43.3,46.2 C39,46.2 36.2,45 34.7,42.7 L34.7,55.4 C32.1,55.4 30.6,55.2 30.1,54.9 C29.7,54.6 29.5,53.3 29.5,51.1 L29.5,20.5 C31.5,20.5 32.6,20.7 32.9,21 C33.2,21.3 33.4,22.3 33.4,24.1 C34.9,21.5 38.1,20.2 43,20.2 C50.3,20.2 53.9,24.5 53.9,33.2 L53.9,33.2 Z M6.3,30.1 C6.2,29.7 6.2,29.2 6.3,28.8 C6.5,28.3 6.8,27.9 7.3,27.6 C7.3,27.6 10.1,26.6 12.4,22.9 C15.1,18.6 18.7,14.3 27.2,14.3 L27.2,16.5 C27.2,16.5 27.3,18.4 25.5,18.7 C23.4,19 19.2,20.6 16.5,25.3 C14.4,29.1 11.7,29.6 11.7,29.6 L27.3,45.9 C23.7,45.9 21.4,45.8 20.7,45.5 C19.8,45.3 18.6,44.3 17.1,42.6 L6.9,31.2 C6.6,30.9 6.4,30.5 6.3,30.1 Z" id="Shape" fill="#ffffff"></path>
      <path d="M225,29.6 C225,45.7 211.9,58.8 195.8,58.8 C179.7,58.8 166.6,45.7 166.6,29.6 C166.6,13.5 179.7,0.4 195.8,0.4 C211.9,0.4 225,13.5 225,29.6" id="Path" fill="#FFFFFE"></path>
      <path d="M168.7,29.6 C168.7,14.6 180.8,2.5 195.8,2.5 C210.8,2.5 222.9,14.7 222.9,29.6 C222.9,44.6 210.7,56.7 195.8,56.7 C180.8,56.8 168.7,44.6 168.7,29.6 Z M182.4,29.6 L195.8,43 L209.2,29.6 L195.8,16.2 L182.4,29.6 L182.4,29.6 Z" id="Shape" fill="#FF3333"></path>
      <path d="M23.1,102 L6.4,102 C3.7,102 2.2,101.8 1.7,101.5 C1.3,101.1 1,99.8 1,97.5 L1,74.8 C1,72.5 1.2,71.2 1.7,70.8 C2.2,70.4 3.7,70.2 6.4,70.2 L18.7,70.2 C20.9,70.2 22.2,70.4 22.6,70.8 C23,71.2 23.1,72.5 23.1,74.8 L6.4,74.8 L6.4,83.6 L17.1,83.6 C19.3,83.6 20.6,83.8 20.9,84.2 C21.3,84.6 21.5,85.9 21.5,88 L6.4,88 L6.4,97.5 L18.2,97.5 C20.6,97.5 22,97.7 22.4,98.1 C22.9,98.4 23.1,99.7 23.1,102 L23.1,102 Z M154,90.8 L154,90 L146.9,90 C144,90 142.3,90.2 141.8,90.5 C141.3,90.8 141.1,92 141.1,94.1 C141.1,96.5 143,97.7 146.8,97.7 C150.4,97.7 152.6,97.4 153.2,96.8 C153.7,96.4 154,94.3 154,90.8 L154,90.8 Z M159.1,101.6 C157.1,101.6 156,101.5 155.7,101.1 C155.4,100.8 155.2,99.7 155.2,97.8 C154.5,98.9 153.4,99.8 151.8,100.6 C150,101.5 147.8,101.9 145.4,101.9 C142.5,101.9 140.2,101.3 138.5,100.1 C136.6,98.8 135.6,96.8 135.6,94.3 C135.6,91.8 136.4,89.8 138.1,88.3 C139.9,86.7 142.6,85.9 146.1,85.9 L154,85.9 C154,84 153.4,82.7 152.3,82 C151.2,81.2 149.5,80.8 147.1,80.8 L141.9,80.8 C140,80.8 138.8,80.6 138.5,80.3 C138.2,79.9 138,78.7 138,76.5 L146.9,76.5 C151.6,76.5 154.9,77.4 156.7,79.4 C158.3,81 159.1,83.6 159.1,87.3 L159.1,101.6 L159.1,101.6 Z M132.2,101.1 C131.8,101.5 130.2,101.6 127.5,101.6 L127.5,81.6 L114.9,81.6 L114.9,101.6 C112.2,101.6 110.6,101.4 110.2,101.1 C109.8,100.7 109.5,99.5 109.5,97.3 L109.5,81.2 C109.5,78.8 109.7,77.4 110.1,76.9 C110.5,76.5 111.7,76.2 113.9,76.2 L128.6,76.2 C130.8,76.2 132,76.4 132.4,76.9 C132.8,77.3 132.9,78.7 132.9,81.2 L132.9,97.3 C132.8,99.5 132.6,100.7 132.2,101.1 L132.2,101.1 Z M101.3,89 C101.3,86.3 100.8,84.3 99.9,83 C98.8,81.3 96.8,80.5 94.1,80.5 C90.5,80.5 88.5,80.8 87.9,81.6 C87.3,82.3 87,84.8 87,89 C87,94.7 89.4,97.6 94.1,97.6 C97.7,97.6 99.8,97.2 100.4,96.6 C101,95.9 101.3,93.4 101.3,89 L101.3,89 Z M106.6,89 C106.6,97.6 102.4,101.9 94.1,101.9 C85.8,101.9 81.7,97.6 81.7,89 C81.7,80.4 85.9,76.1 94.2,76.1 C102.5,76.2 106.6,80.5 106.6,89 L106.6,89 Z M73.5,89.1 C73.5,86.3 73.1,84.2 72.2,82.8 C71.1,81.2 69.2,80.4 66.6,80.4 C63.1,80.4 61,80.8 60.4,81.5 C59.8,82.2 59.5,84.8 59.5,89.1 C59.5,91.9 59.9,94 60.7,95.3 C61.8,96.9 63.7,97.8 66.4,97.8 C69.9,97.8 72,97.4 72.6,96.7 C73.2,95.9 73.5,93.4 73.5,89.1 L73.5,89.1 Z M78.8,89.1 C78.8,97.8 75.3,102.1 68.2,102.1 C63.9,102.1 61.1,101 59.6,98.7 L59.6,111.5 C57,111.5 55.5,111.3 55,110.9 C54.6,110.6 54.4,109.3 54.4,107.2 L54.4,76.4 C56.4,76.4 57.5,76.6 57.8,76.9 C58.1,77.2 58.3,78.3 58.3,80.1 C59.8,77.5 63,76.2 68,76.2 C75.2,76.1 78.8,80.4 78.8,89.1 L78.8,89.1 Z M30.6,102 C28.5,102 27.3,101.8 27,101.6 C26.7,101.3 26.5,100.2 26.5,98.5 L26.5,80 C26.5,78.2 26.7,77.1 27,76.8 C27.4,76.5 28.6,76.4 30.6,76.4 L41.2,76.4 C47.5,76.4 50.7,78.6 50.7,83.1 C50.7,85.9 49.7,87.6 47.7,88.3 L47.3,88.4 L47.7,88.5 C48.8,88.9 49.7,89.7 50.4,90.8 C51.1,91.9 51.4,93.1 51.4,94.5 C51.4,99.5 48,102 41.2,102 L30.6,102 L30.6,102 Z M41.3,80.4 L31.3,80.4 L31.3,86.8 L41.6,86.8 C44.1,86.8 45.3,86.6 45.6,86.4 C45.8,86.3 46,85.5 46,83.6 C45.9,81.6 44.6,80.4 41.3,80.4 Z M46.6,94.4 C46.6,92.2 45.1,91 41.6,91 L31.3,91 L31.3,97.9 L41.5,97.9 C44.3,97.9 45.8,97.7 46.1,97.5 C46.3,97.3 46.6,96.5 46.6,94.4 Z" id="Shape" fill="#ffffff"></path>
      <path d="M241.1,101.6 C238.4,101.6 236.8,101.4 236.3,101.1 C235.9,100.7 235.6,99.4 235.6,97.2 L235.6,90.2 L223.1,90.2 L223.1,101.6 C220.4,101.6 218.8,101.4 218.4,101.1 C218,100.7 217.7,99.4 217.7,97.2 L217.7,76.2 C220.4,76.2 222,76.4 222.5,76.8 C223,77.2 223.2,78.4 223.2,80.6 L223.2,85.9 L235.7,85.9 L235.7,76.2 C238.4,76.2 240.1,76.4 240.5,76.8 C241,77.2 241.2,78.4 241.2,80.6 L241.2,101.6 L241.1,101.6 L241.1,101.6 Z M183.1,92.4 C183.1,89.3 180.9,87.7 176.4,87.7 L169,87.7 L169,97.2 L176.3,97.2 C179.7,97.2 181.7,97 182.3,96.6 C182.8,96.3 183.1,94.8 183.1,92.4 L183.1,92.4 Z M188.6,92.5 C188.6,98.6 184.4,101.7 176.1,101.7 L168.7,101.7 C166.2,101.7 164.7,101.5 164.2,101.1 C163.8,100.7 163.6,99.4 163.6,97.2 L163.6,74.5 C163.6,72.3 163.8,71 164.2,70.6 C164.6,70.2 166.1,70 168.7,70 L186.8,70 C186.8,70 186.6,72.5 186.4,73.2 C186.2,74 185.8,74.4 184.3,74.4 L169,74.4 L169,83.3 L177.2,83.3 C183,83.3 185.6,85.8 186.8,87.1 C187.2,87.6 187.4,88 187.6,88.2 C188.3,89.7 188.6,91 188.6,92.5 L188.6,92.5 Z M186.8,87.2 C187,87.4 187.1,87.7 187.3,87.9 L187.6,88.3 C187.4,87.9 187.1,87.5 186.8,87.2 Z M209,90.8 L209,90 L201.8,90 C198.9,90 197.2,90.2 196.7,90.5 C196.2,90.8 196,92 196,94.1 C196,96.5 197.9,97.7 201.7,97.7 C205.4,97.7 207.5,97.4 208.1,96.8 C208.6,96.4 209,94.3 209,90.8 L209,90.8 Z M214.1,101.6 C212.1,101.6 211,101.5 210.7,101.1 C210.4,100.8 210.2,99.7 210.2,97.8 C209.6,98.9 208.4,99.8 206.8,100.6 C205,101.5 202.8,101.9 200.4,101.9 C197.5,101.9 195.2,101.3 193.4,100.1 C191.5,98.8 190.5,96.8 190.5,94.3 C190.5,91.8 191.3,89.8 193,88.3 C194.8,86.7 197.5,85.9 201,85.9 L209,85.9 C209,84 208.4,82.7 207.3,82 C206.2,81.2 204.5,80.8 202.1,80.8 L196.9,80.8 C195,80.8 193.8,80.6 193.5,80.3 C193.2,79.9 193,78.7 193,76.5 L201.9,76.5 C206.6,76.5 209.9,77.4 211.7,79.4 C213.3,81 214.1,83.6 214.1,87.3 L214.1,101.6 L214.1,101.6 Z M267.9,101.7 C265,101.7 262.6,101.6 262,101.4 C261.3,101.2 260.3,100.4 259.1,99.1 L251.2,90 C250.9,89.6 250.7,89.1 250.7,88.6 C250.7,88.5 250.6,87.2 251.6,86.8 C251.6,86.8 254,85.7 256.1,82.7 C258.4,79.4 261.1,76.3 267.9,76.3 L267.9,78.3 C267.9,78.3 268.1,80.4 266.6,80.6 C264.9,80.8 262.6,81.3 259.4,85.7 C257.6,88.1 256.3,88.7 256.3,88.7 L267.9,101.7 L267.9,101.7 Z M250.2,101.8 C247.5,101.8 245.9,101.6 245.5,101.2 C245,100.8 244.8,99.5 244.8,97.3 L244.8,76.2 C247.5,76.2 249.1,76.4 249.5,76.7 C250,77 250.2,78.2 250.2,80.2 L250.2,101.8 L250.2,101.8 Z" id="Shape" fill="#FF3333"></path>
    </g>
  </g>
</svg>