<svg width="210" height="42" viewBox="0 0 210 42" fill="none" xmlns="http://www.w3.org/2000/svg">
<g clip-path="url(#clip0)">
<path d="M172.398 19.9634H164.348L165.437 22.3981H171.728C172.474 22.3981 173.072 22.9456 173.072 23.6168C173.072 23.6168 173.072 24.132 173.072 24.4723C171.21 24.4723 167.03 24.4723 167.03 24.4723C164.813 24.4723 163.007 26.1107 163.007 28.1271V28.4916C163.007 30.5066 164.813 32.1491 167.03 32.1491H176.424V23.6168C176.425 21.6018 174.621 19.9634 172.398 19.9634ZM173.074 29.713C171.211 29.713 167.704 29.713 167.704 29.713C166.962 29.713 166.363 29.1628 166.363 28.4916V28.1271C166.363 27.4518 166.962 26.9057 167.704 26.9057C167.704 26.9057 171.211 26.9057 173.074 26.9057V29.713Z" fill="white"/>
<path d="M189.912 24.4723H183.333V19.9634H179.98V32.1491H183.333V26.9043H189.912V32.1491H193.268V19.9634H189.912V24.4723Z" fill="white"/>
<path d="M209.06 19.9634H205.131L201.406 24.4723H200.175V19.9634H196.819V32.1491H200.175V26.9043H201.393L205.795 32.1491H210L203.947 25.6924L209.06 19.9634Z" fill="white"/>
<path d="M155.064 19.962H149.997V17.5273C152.051 17.5273 158.163 17.5273 158.163 17.5273L159.244 15.0899H146.64V32.1491H155.064C158.117 32.1491 160.596 29.904 160.596 27.129V24.9821C160.596 22.2057 158.115 19.962 155.064 19.962ZM157.238 27.1276C157.238 28.5522 155.959 29.713 154.395 29.713H149.996V22.3981H154.395C155.959 22.3981 157.238 23.5549 157.238 24.9767V27.1276Z" fill="white"/>
<path d="M86.4495 23.6168V28.4916C86.4495 29.1628 85.8465 29.713 85.1056 29.713H84.7041V32.1477H85.7768C87.9949 32.1477 89.8025 30.5053 89.8025 28.4903V23.6154C89.8025 22.9442 90.407 22.3967 91.1449 22.3967C91.1449 22.3967 93.9779 22.3967 95.8403 22.3967C95.8403 24.2665 95.8403 32.1477 95.8403 32.1477H99.1963V19.962H90.4752C88.2542 19.9634 86.4495 21.6018 86.4495 23.6168Z" fill="white"/>
<path d="M60.5245 22.3981H66.7001L67.7862 19.9634H59.8548C57.6323 19.9634 55.8291 21.6018 55.8291 23.6168V28.4916C55.8291 30.5066 57.6338 32.1491 59.8548 32.1491H67.7862L66.7001 29.7144H60.5245C59.7852 29.7144 59.1836 29.1642 59.1836 28.493V23.6181C59.1836 22.9456 59.7866 22.3981 60.5245 22.3981Z" fill="white"/>
<path d="M78.9299 19.9634H73.5618C71.3422 19.9634 69.5405 21.6018 69.5405 23.6168V28.4916C69.5405 30.5066 71.3422 32.1491 73.5618 32.1491H78.9299C81.1509 32.1491 82.957 30.5066 82.957 28.4916V23.6168C82.9585 21.6018 81.1509 19.9634 78.9299 19.9634ZM79.5981 28.4916C79.5981 29.1628 78.9995 29.713 78.2587 29.713H74.233C73.4981 29.713 72.8935 29.1628 72.8935 28.4916V23.6168C72.8935 22.9456 73.4996 22.3981 74.233 22.3981H78.2587C78.9995 22.3981 79.5981 22.9456 79.5981 23.6168V28.4916Z" fill="white"/>
<path d="M49.1203 19.9634H43.7508C43.5241 19.9634 43.3033 19.9822 43.0855 20.0172C43.1403 18.633 44.3879 17.5273 45.9259 17.5273H50.4494L51.5369 15.0899H45.2547C42.2009 15.0899 39.7266 17.3336 39.7266 20.106V25.8094V28.4903C39.7266 30.5053 41.5327 32.1477 43.7508 32.1477H49.1203C51.3399 32.1477 53.1431 30.5053 53.1431 28.4903V23.6155C53.1431 21.6018 51.3399 19.9634 49.1203 19.9634ZM49.7915 28.4916C49.7915 29.1628 49.187 29.713 48.4477 29.713H44.4205C43.6811 29.713 43.0811 29.1628 43.0811 28.4916V25.8874V23.6128C43.0855 22.9442 43.6856 22.3994 44.4205 22.3994H48.4477C49.187 22.3994 49.7915 22.9469 49.7915 23.6181V28.4916Z" fill="white"/>
<path d="M124.848 22.3981H129.018V32.1491H132.374V22.3981H137.069V19.9634H123.764L124.848 22.3981Z" fill="white"/>
<path d="M118.295 19.9634H112.93C110.71 19.9634 108.904 21.6018 108.904 23.6168V24.4723H106.092V19.9634H102.74V32.1491H106.092V26.9057H108.904V28.493C108.904 30.508 110.71 32.1504 112.93 32.1504H118.295C120.514 32.1504 122.321 30.508 122.321 28.493V23.6181C122.321 21.6018 120.514 19.9634 118.295 19.9634ZM118.963 28.4916C118.963 29.1628 118.364 29.713 117.622 29.713H113.596C112.86 29.713 112.258 29.1628 112.258 28.4916V23.6168C112.258 22.9456 112.86 22.3981 113.596 22.3981H117.622C118.364 22.3981 118.963 22.9456 118.963 23.6168V28.4916Z" fill="white"/>
<path d="M26.8716 15.0899L19.2617 32.1491H23.3985L24.8343 28.493H32.9849L34.4562 32.1491H38.4612L30.8499 15.0899H26.8716ZM25.7929 26.0556L28.8629 18.2604L32.007 26.0556H25.7929Z" fill="white"/>
<path d="M6.68233 32.1181L0 32.1719L7.76099 39.2192C9.19672 40.5267 12.0341 41.5866 14.0596 41.5826L20.8352 41.6203L12.9809 34.4829C11.5467 33.1835 8.71222 32.1181 6.68233 32.1181Z" fill="white"/>
<path d="M10.4857 32.2123L10.4812 22.1277C10.4812 20.2876 9.30479 17.7102 7.8735 16.4122L3.104 12.1588V15.5069V22.1264C3.104 23.9719 4.28045 26.5385 5.71767 27.8406L10.4857 32.2123Z" fill="white"/>
<path d="M20.9435 6.06663L20.8857 0L13.1247 7.05127C11.6875 8.35203 10.5155 10.928 10.5244 12.7682L10.4858 18.9182L18.3357 11.7862C19.7744 10.4814 20.9435 7.91352 20.9435 6.06663Z" fill="white"/>
<path d="M68.7866 33.6826H68.231C68.231 33.692 68.231 33.7 68.231 33.7108C68.4176 33.7 68.5984 33.692 68.7866 33.6826Z" fill="white"/>
</g>
<defs>
<clipPath id="clip0">
<rect width="210" height="41.6216" fill="white"/>
</clipPath>
</defs>
</svg>
