<svg width="180" height="48" viewBox="0 0 180 48" fill="none" xmlns="http://www.w3.org/2000/svg">
<path d="M75.7663 17.9472C73.4019 17.9472 71.6334 18.8222 70.7586 20.2694H70.5694V18.3918H66.2475V38.2785H70.5694V31.9743H70.7586C71.6287 33.4215 73.4019 34.2965 75.7663 34.2965C80.2017 34.2965 83.7198 30.6738 83.7198 26.1195C83.7198 21.5699 80.2017 17.9472 75.7663 17.9472ZM74.8915 30.3617C72.4798 30.3617 70.5694 28.4841 70.5694 26.1195C70.5694 23.7312 72.4798 21.8773 74.8915 21.8773C77.374 21.8773 79.2607 23.7312 79.2607 26.1195C79.2607 28.5078 77.3503 30.3617 74.8915 30.3617Z" fill="#6440BF"/>
<path d="M172.434 19.1148C169.962 19.1148 168.027 20.0512 166.849 21.6782H166.656C166.977 18.7365 168.642 17.3082 172.227 16.7975L178.501 15.8895V11.9121L171.81 12.8627C165.63 13.7234 162.664 16.996 162.664 22.8936C162.664 27.1593 162.939 28.5072 163.701 30.1199C164.896 32.7068 167.862 34.2958 171.445 34.2958C176.274 34.2958 180 30.8718 180 26.3885C179.995 22.0754 176.917 19.1148 172.434 19.1148ZM171.399 30.3421C168.94 30.3421 167.124 28.6632 167.124 26.3885C167.124 24.09 168.916 22.4112 171.399 22.4112C173.833 22.4112 175.63 24.09 175.63 26.3885C175.63 28.6632 173.811 30.3421 171.399 30.3421Z" fill="#6440BF"/>
<path d="M61.7165 13.7215L56.8507 23.53L50.2211 13.7215H45.0529L54.6755 27.9189L54.4108 28.458C53.9947 29.3187 53.4461 29.7822 52.1789 29.7822H48.7742V33.8683H52.6612C55.6261 33.8683 56.8223 33.1164 58.0613 30.6429L66.5681 13.7168H61.7165V13.7215Z" fill="#6440BF"/>
<path d="M108.687 18.4101L107.949 28.0201C107.835 29.524 107.33 30.0726 106.133 30.0726H105.074V33.9837H107.651C110.55 33.9837 111.836 32.6595 112.044 29.8976L112.611 22.4301H117.926V33.8512H122.296V18.4101H108.687Z" fill="#6440BF"/>
<path d="M133.56 21.9228C135.328 21.9228 136.733 22.9159 137.4 24.2449L141.263 22.7883C140.185 19.8513 137.125 17.9502 133.47 17.9502C128.571 17.9502 124.873 21.483 124.873 26.1271C124.873 30.7666 128.576 34.3041 133.47 34.3041C137.125 34.3041 140.185 32.4028 141.263 29.466L137.4 28.0093C136.733 29.3335 135.328 30.3315 133.56 30.3315C131.101 30.3315 129.328 28.5864 129.328 26.1318C129.328 23.6679 131.101 21.9228 133.56 21.9228Z" fill="#6440BF"/>
<path d="M154.911 18.3867L148.201 28.2048V18.3867H143.879V33.8515H148.66L155.326 24.1044V33.8515H159.649V18.3867H154.911Z" fill="#6440BF"/>
<path d="M98.5646 20.2635H98.3756C97.5054 18.8163 95.7323 17.9414 93.3678 17.9414C88.9325 17.9414 85.4144 21.564 85.4144 26.1183C85.4144 30.668 88.9325 34.2952 93.3678 34.2952C95.7323 34.2952 97.5008 33.4204 98.3756 31.9732H98.5646V33.8508H102.887V18.386H98.5646V20.2635ZM94.2474 30.3604C91.7885 30.3604 89.8782 28.5066 89.8782 26.1183C89.8782 23.73 91.7649 21.8761 94.2474 21.8761C96.659 21.8761 98.5694 23.73 98.5694 26.1183C98.5647 28.4831 96.659 30.3604 94.2474 30.3604Z" fill="#6440BF"/>
<path d="M32.8703 24.2449C32.8703 18.6454 29.8204 13.7222 25.2383 10.9178L25.2998 14.7201C28.0235 17.0612 29.7494 20.4661 29.7494 24.2449C29.7494 25.9711 29.3806 27.617 28.7327 29.1209C26.761 27.2479 25.3565 25.0441 24.4817 22.443C23.4272 19.2933 23.1814 15.8457 23.1436 11.6319L23.1482 9.82054C22.2025 9.41383 21.2143 9.09224 20.2024 8.86524L20.207 11.6271C20.3063 26.1744 22.8268 32.1713 26.5765 36.6782L26.5813 36.6735L26.5765 36.6782C30.4114 33.7839 32.8703 29.2911 32.8703 24.2449C32.8703 24.2496 32.8703 24.2496 32.8703 24.2449Z" fill="#6440BF"/>
<path d="M12.668 11.6301L12.6727 8.86817C11.6608 9.09517 10.6725 9.41676 9.7268 9.82348L9.73152 11.6348C9.68896 15.8439 9.44779 19.2963 8.39331 22.446C7.52325 25.047 6.11412 27.2462 4.14228 29.1237C3.49446 27.6198 3.12563 25.974 3.12563 24.2478C3.12563 20.4643 4.84684 17.064 7.57527 14.723L7.63674 10.9207C3.04996 13.7204 0 18.6437 0 24.2432V24.2478C0 29.294 2.46361 33.7867 6.29381 36.6811L6.28908 36.6764L6.29381 36.6811C10.0531 32.1789 12.5687 26.1774 12.668 11.6301Z" fill="#6440BF"/>
<path d="M17.9107 6.06148C17.3764 6.01891 16.8942 6 16.4401 6C15.9862 6 15.5038 6.01891 14.9649 6.06148V9.32942C14.9649 23.6498 14.4116 29.8734 12.2695 39.5402C14.9838 40.226 17.8683 40.226 20.5872 39.5448C18.4593 29.9492 17.9107 23.7254 17.9107 9.32942V6.06148Z" fill="#6440BF"/>
</svg>
