<?xml version="1.0" encoding="UTF-8" standalone="no"?>
<!DOCTYPE svg  PUBLIC '-//W3C//DTD SVG 1.1//EN'  'http://www.w3.org/Graphics/SVG/1.1/DTD/svg11.dtd'>
<svg xmlns="http://www.w3.org/2000/svg" version="1.1">
<defs>
<font id="Montserrat-Bold" horiz-adv-x="0">
<font-face font-family="Montserrat" underline-position="-150" font-weight="700" descent="-200" unicode-range="U+000D-FB02" x-height="538" underline-thickness="50" panose-1="0 0 8 0 0 0 0 0 0 0" cap-height="700" ascent="800" bbox="-882 -266 1679 1076" units-per-em="1000"/>
<missing-glyph d="M40 700h507v-700h-507v700zM467 70v560h-347v-560h347z" horiz-adv-x="587"/>
<glyph glyph-name="fi" unicode="fi" d="M243 526h138v-120h-134v-406h-156v406h-83v120h83v24q0 92 54.5 146t153.5 54q35 0 66.5 -7.5t52.5 -21.5l-41 -113q-27 19 -63 19q-71 0 -71 -78v-23zM539 538h156v-538h-156v538zM547 638q-27 25 -27 62t27 62t70 25t70 -24t27 -60q0 -39 -27 -64.5t-70 -25.5t-70 25z " horiz-adv-x="768"/>
<glyph glyph-name="fl" unicode="fl" d="M243 526h138v-120h-134v-406h-156v406h-83v120h83v24q0 92 54.5 146t153.5 54q35 0 66.5 -7.5t52.5 -21.5l-41 -113q-27 19 -63 19q-71 0 -71 -78v-23zM459 742h156v-742h-156v742z" horiz-adv-x="688"/>
<glyph glyph-name=".notdef" d="M40 700h507v-700h-507v700zM467 70v560h-347v-560h347z" horiz-adv-x="587"/>
<glyph glyph-name=".null"/>
<glyph glyph-name="nonmarkingreturn" unicode="" horiz-adv-x="283"/>
<glyph glyph-name="NULL"/>
<glyph glyph-name="NULL"/>
<glyph glyph-name="space" unicode=" " horiz-adv-x="283"/>
<glyph glyph-name="exclam" unicode="!" d="M52 700h186l-31 -457h-124zM76.5 18.5q-27.5 26.5 -27.5 64.5t27 63.5t69 25.5t69 -25.5t27 -63.5t-27.5 -64.5t-68.5 -26.5t-68.5 26.5z" horiz-adv-x="289"/>
<glyph glyph-name="quotedbl" unicode='&quot;' d="M49 700h133l-11 -284h-112zM255 700h133l-11 -284h-112z" horiz-adv-x="437"/>
<glyph glyph-name="numbersign" unicode="#" d="M536 269h130v-109h-143l-20 -160h-113l20 160h-147l-20 -160h-112l20 160h-131v109h144l21 162h-131v109h144l20 160h112l-20 -160h147l20 160h112l-20 -160h130l1 -109h-144zM423 269l21 162h-147l-21 -162h147z" horiz-adv-x="720"/>
<glyph glyph-name="dollar" unicode="$" d="M550 64.5q-60 -58.5 -173 -72.5v-112h-100v109q-74 4 -141 26t-108 54l55 122q38 -28 89 -47t105 -24v167q-71 17 -120 38t-82 61.5t-33 107.5q0 83 60.5 142.5t174.5 72.5v111h100v-109q123 -10 203 -61l-50 -123q-75 43 -153 52v-170q70 -16 118.5 -36.5t81.5 -61 t33 -106.5q0 -82 -60 -140.5zM222 461q19 -16 55 -27v142q-38 -9 -56 -28.5t-18 -45.5q0 -25 19 -41zM431 150q18 18 18 43t-18.5 41t-53.5 28v-138q36 8 54 26z" horiz-adv-x="638"/>
<glyph glyph-name="percent" unicode="%" d="M75.5 374.5q-48.5 52.5 -48.5 140.5t48.5 140.5t125.5 52.5t125 -52.5t48 -140.5t-48 -140.5t-125 -52.5t-125.5 52.5zM618 700h119l-478 -700h-119zM254.5 432q19.5 28 19.5 83t-19.5 83t-53.5 28q-33 0 -53 -28.5t-20 -82.5t20 -82.5t53 -28.5q34 0 53.5 28z M586.5 15.5q-39.5 23.5 -61.5 67.5t-22 102t22 102t61.5 67.5t89.5 23.5q77 0 125.5 -52.5t48.5 -140.5t-48.5 -140.5t-125.5 -52.5q-50 0 -89.5 23.5zM729.5 102.5q19.5 28.5 19.5 82.5t-19.5 82.5t-53.5 28.5q-33 0 -53 -28t-20 -83t20 -83t53 -28q34 0 53.5 28.5z" horiz-adv-x="877"/>
<glyph glyph-name="ampersand" unicode="&amp;" d="M621 -12l-84 78q-100 -78 -234 -78q-76 0 -137 24.5t-95.5 68.5t-34.5 99q0 65 36.5 114.5t117.5 94.5q-38 39 -55 74.5t-17 73.5q0 51 27 90t76.5 60.5t114.5 21.5q91 0 146 -43.5t55 -117.5q0 -54 -32.5 -96t-104.5 -81l128 -119q23 48 35 109l125 -39 q-20 -93 -64 -159l82 -76zM280.5 585q-20.5 -18 -20.5 -46q0 -21 11 -39.5t43 -49.5q51 27 71 48.5t20 46.5q0 26 -18 42t-51 16q-35 0 -55.5 -18zM445 151l-169 158q-47 -27 -67 -53t-20 -59q0 -39 34 -63t91 -24q73 0 131 41z" horiz-adv-x="728"/>
<glyph glyph-name="quotesingle" unicode="&apos;" d="M49 700h133l-11 -284h-112z" horiz-adv-x="230"/>
<glyph glyph-name="parenleft" unicode="(" d="M105.5 17q-32.5 120 -32.5 257t32.5 257.5t92.5 210.5h149q-63 -111 -92 -225.5t-29 -242.5t29 -242.5t92 -225.5h-149q-60 91 -92.5 211z" horiz-adv-x="357"/>
<glyph glyph-name="parenright" unicode=")" d="M10 -194q63 111 92.5 225.5t29.5 242.5t-29.5 242.5t-92.5 225.5h149q61 -89 93.5 -209.5t32.5 -258.5t-32 -257.5t-94 -210.5h-149z" horiz-adv-x="358"/>
<glyph glyph-name="asterisk" unicode="*" d="M312 544l109 -59l-49 -82l-110 65l2 -121h-94l1 122l-110 -66l-48 82l109 59l-109 60l48 82l110 -66l-1 122h94l-2 -122l110 66l49 -82z" horiz-adv-x="434"/>
<glyph glyph-name="plus" unicode="+" d="M538 289h-174v-170h-129v170h-173v122h173v170h129v-170h174v-122z" horiz-adv-x="599"/>
<glyph glyph-name="comma" unicode="," d="M201 159.5q27 -26.5 27 -69.5q0 -20 -5 -40t-22 -60l-57 -144h-99l44 159q-25 10 -39.5 32.5t-14.5 52.5q0 43 27.5 69.5t69.5 26.5t69 -26.5z" horiz-adv-x="262"/>
<glyph glyph-name="hyphen" unicode="-" d="M52 344h283v-125h-283v125z" horiz-adv-x="386"/>
<glyph glyph-name="period" unicode="." d="M62 20q-28 28 -28 70q0 43 28 69.5t69 26.5t69 -26.5t28 -69.5q0 -42 -28 -70t-69 -28t-69 28z" horiz-adv-x="262"/>
<glyph glyph-name="slash" unicode="/" d="M297 842h139l-330 -942h-139z" horiz-adv-x="392"/>
<glyph glyph-name="zero" unicode="0" d="M184 31q-68 43 -106.5 124.5t-38.5 194.5t38.5 194.5t106.5 124.5t155 43t155 -43t106.5 -124.5t38.5 -194.5t-38.5 -194.5t-106.5 -124.5t-155 -43t-155 43zM439.5 180q36.5 55 36.5 170t-36.5 170t-100.5 55q-63 0 -99.5 -55t-36.5 -170t36.5 -170t99.5 -55 q64 0 100.5 55z" horiz-adv-x="679"/>
<glyph glyph-name="one" unicode="1" d="M309 700v-700h-162v570h-140v130h302z" horiz-adv-x="392"/>
<glyph glyph-name="two" unicode="2" d="M562 132v-132h-529v105l270 255q43 41 58 70.5t15 58.5q0 42 -28.5 64.5t-83.5 22.5q-46 0 -83 -17.5t-62 -52.5l-118 76q41 61 113 95.5t165 34.5q78 0 136.5 -25.5t91 -72t32.5 -109.5q0 -57 -24 -107t-93 -114l-161 -152h301z" horiz-adv-x="590"/>
<glyph glyph-name="three" unicode="3" d="M507 346.5q49 -53.5 49 -132.5q0 -61 -32 -112.5t-97.5 -82.5t-160.5 -31q-74 0 -145.5 19.5t-121.5 55.5l63 124q40 -30 92.5 -46.5t107.5 -16.5q61 0 96 23.5t35 66.5q0 86 -131 86h-74v107l144 163h-298v130h490v-105l-158 -180q92 -15 141 -68.5z" horiz-adv-x="592"/>
<glyph glyph-name="four" unicode="4" d="M680 147h-114v-147h-158v147h-377v109l330 444h170l-306 -421h188v131h153v-131h114v-132z" horiz-adv-x="689"/>
<glyph glyph-name="five" unicode="5" d="M497.5 378q70.5 -59 70.5 -158q0 -64 -32 -116.5t-97.5 -84t-161.5 -31.5q-74 0 -145.5 19.5t-121.5 55.5l64 124q40 -30 92 -46.5t107 -16.5q61 0 96 24t35 67q0 45 -36.5 68t-126.5 23h-179l36 394h427v-130h-292l-11 -133h57q148 0 218.5 -59z" horiz-adv-x="595"/>
<glyph glyph-name="six" unicode="6" d="M498 412q55 -27 87 -76.5t32 -114.5q0 -70 -35 -123t-95.5 -81.5t-134.5 -28.5q-147 0 -230 90t-83 257q0 119 45 204t125.5 129t186.5 44q56 0 107.5 -12.5t87.5 -35.5l-60 -119q-52 35 -131 35q-89 0 -141 -52t-56 -151q62 62 173 62q67 0 122 -27zM427.5 137 q32.5 28 32.5 76t-32.5 76.5t-86.5 28.5q-53 0 -87 -29.5t-34 -75.5t33 -75t90 -29q52 0 84.5 28z" horiz-adv-x="637"/>
<glyph glyph-name="seven" unicode="7" d="M587 700v-105l-260 -595h-176l251 568h-232v-114h-144v246h561z" horiz-adv-x="620"/>
<glyph glyph-name="eight" unicode="8" d="M597.5 300q27.5 -42 27.5 -97q0 -65 -37 -113.5t-104 -75t-155 -26.5t-154.5 26.5t-103 75t-36.5 113.5q0 55 27.5 97t78.5 68q-39 24 -60 60.5t-21 83.5q0 61 34 106t95 69.5t140 24.5q80 0 141.5 -24.5t95.5 -69.5t34 -106q0 -47 -21 -83.5t-61 -60.5q52 -26 79.5 -68z M250.5 569.5q-29.5 -23.5 -29.5 -64.5q0 -40 29 -63t79 -23t80 23t30 63q0 41 -30 64.5t-80 23.5q-49 0 -78.5 -23.5zM425.5 134.5q35.5 27.5 35.5 73.5t-35.5 73t-96.5 27q-60 0 -95 -27t-35 -73q0 -47 35 -74t95 -27q61 0 96.5 27.5z" horiz-adv-x="660"/>
<glyph glyph-name="nine" unicode="9" d="M515 622.5q83 -89.5 83 -257.5q0 -119 -44.5 -204t-125.5 -129t-187 -44q-56 0 -107 12.5t-87 35.5l60 119q51 -35 131 -35q89 0 141 52.5t56 151.5q-63 -63 -174 -63q-67 0 -122 27t-87 76.5t-32 114.5q0 70 35 123t95.5 81.5t134.5 28.5q147 0 230 -89.5zM383.5 411.5 q33.5 29.5 33.5 75.5t-32.5 75t-89.5 29q-52 0 -84.5 -28t-32.5 -76t32.5 -76.5t86.5 -28.5q53 0 86.5 29.5z" horiz-adv-x="637"/>
<glyph glyph-name="colon" unicode=":" d="M62 379q-28 28 -28 70q0 43 28 69.5t69 26.5t69 -26.5t28 -69.5q0 -42 -28 -70t-69 -28t-69 28zM62 20q-28 28 -28 70q0 43 28 69.5t69 26.5t69 -26.5t28 -69.5q0 -42 -28 -70t-69 -28t-69 28z" horiz-adv-x="262"/>
<glyph glyph-name="semicolon" unicode=";" d="M62 379q-28 28 -28 70q0 43 28 69.5t69 26.5t69 -26.5t28 -69.5q0 -42 -28 -70t-69 -28t-69 28zM201 159.5q27 -26.5 27 -69.5q0 -20 -5 -40t-22 -60l-57 -144h-99l44 159q-25 10 -39.5 32.5t-14.5 52.5q0 43 27.5 69.5t69.5 26.5t69 -26.5z" horiz-adv-x="262"/>
<glyph glyph-name="less" unicode="&lt;" d="M538 472l-333 -122l333 -121v-125l-476 181v130l476 181v-124z" horiz-adv-x="599"/>
<glyph glyph-name="equal" unicode="=" d="M62 535h476v-122h-476v122zM62 287h476v-122h-476v122z" horiz-adv-x="599"/>
<glyph glyph-name="greater" unicode="&gt;" d="M538 415v-130l-476 -181v125l333 121l-333 122v124z" horiz-adv-x="599"/>
<glyph glyph-name="question" unicode="?" d="M240.5 329q23.5 34 68.5 75q33 30 48.5 50.5t15.5 46.5q0 37 -29.5 58.5t-78.5 21.5q-47 0 -83.5 -19.5t-61.5 -54.5l-121 71q42 64 113.5 99t169.5 35q115 0 184.5 -49t69.5 -136q0 -41 -13.5 -72t-33 -52.5t-50.5 -49.5q-37 -33 -54 -55.5t-17 -54.5h-151q0 52 23.5 86 zM224.5 18.5q-27.5 26.5 -27.5 64.5t27 63.5t69 25.5t69 -25.5t27 -63.5t-27.5 -64.5t-68.5 -26.5t-68.5 26.5z" horiz-adv-x="589"/>
<glyph glyph-name="at" unicode="@" d="M768.5 653.5q107.5 -56.5 167.5 -155.5t60 -224q0 -88 -25.5 -151.5t-71.5 -96.5t-108 -33q-51 0 -86 22t-51 65q-54 -87 -171 -87q-64 0 -117 32t-83.5 89.5t-30.5 131.5q0 73 30.5 130.5t83 89.5t117.5 32q99 0 154 -66v59h136v-324q0 -64 48 -64q35 0 54.5 42 t19.5 127q0 101 -46.5 178.5t-131 121t-194.5 43.5t-194.5 -46.5t-131 -128.5t-46.5 -186q0 -106 46 -188.5t129.5 -129t192.5 -46.5q108 0 197 44l32 -92q-45 -23 -106.5 -35.5t-122.5 -12.5q-142 0 -251 59.5t-169 164.5t-60 236q0 130 60.5 234t170.5 163t253 59 q138 0 245.5 -56.5zM604 144.5q35 36.5 35 101.5q0 64 -35 100t-90 36q-56 0 -90 -36.5t-34 -99.5q0 -64 34 -101t90 -37q55 0 90 36.5z" horiz-adv-x="1035"/>
<glyph glyph-name="A" unicode="A" d="M544 150h-325l-62 -150h-166l312 700h160l313 -700h-170zM493 273l-111 268l-111 -268h222z" horiz-adv-x="766"/>
<glyph glyph-name="B" unicode="B" d="M691 300.5q34 -44.5 34 -109.5q0 -92 -71.5 -141.5t-208.5 -49.5h-362v700h342q128 0 196.5 -49t68.5 -133q0 -51 -24.5 -91t-68.5 -63q60 -19 94 -63.5zM244 578v-165h161q60 0 91 21t31 62t-31 61.5t-91 20.5h-161zM529.5 143q32.5 21 32.5 65q0 87 -129 87h-189v-173 h189q64 0 96.5 21z" horiz-adv-x="765"/>
<glyph glyph-name="C" unicode="C" d="M224.5 34.5q-86.5 46.5 -136 129t-49.5 186.5t49.5 186.5t136 129t194.5 46.5q91 0 164.5 -32t123.5 -92l-104 -96q-71 82 -176 82q-65 0 -116 -28.5t-79.5 -79.5t-28.5 -116t28.5 -116t79.5 -79.5t116 -28.5q105 0 176 83l104 -96q-50 -61 -124 -93t-165 -32 q-107 0 -193.5 46.5z" horiz-adv-x="733"/>
<glyph glyph-name="D" unicode="D" d="M83 700h318q114 0 201.5 -43.5t136 -122.5t48.5 -184t-48.5 -184t-136 -122.5t-201.5 -43.5h-318v700zM393 133q105 0 167.5 58.5t62.5 158.5t-62.5 158.5t-167.5 58.5h-148v-434h148z" horiz-adv-x="826"/>
<glyph glyph-name="E" unicode="E" d="M625 130v-130h-542v700h529v-130h-368v-152h325v-126h-325v-162h381z" horiz-adv-x="671"/>
<glyph glyph-name="F" unicode="F" d="M245 570v-185h324v-130h-324v-255h-162v700h529v-130h-367z" horiz-adv-x="639"/>
<glyph glyph-name="G" unicode="G" d="M556 361h148v-284q-57 -43 -132 -66t-151 -23q-109 0 -196 46.5t-136.5 129t-49.5 186.5t49.5 186.5t137.5 129t198 46.5q92 0 167 -31t126 -90l-104 -96q-75 79 -181 79q-67 0 -119 -28t-81 -79t-29 -117q0 -65 29 -116t80.5 -79.5t117.5 -28.5q70 0 126 30v205z" horiz-adv-x="771"/>
<glyph glyph-name="H" unicode="H" d="M725 700v-700h-162v287h-318v-287h-162v700h162v-276h318v276h162z" horiz-adv-x="808"/>
<glyph glyph-name="I" unicode="I" d="M83 700h162v-700h-162v700z" horiz-adv-x="328"/>
<glyph glyph-name="J" unicode="J" d="M81.5 14.5q-59.5 26.5 -97.5 75.5l90 108q57 -77 130 -77q99 0 99 116v333h-246v130h407v-454q0 -129 -64 -193.5t-188 -64.5q-71 0 -130.5 26.5z" horiz-adv-x="541"/>
<glyph glyph-name="K" unicode="K" d="M338 275l-94 -98v-177h-161v700h161v-327l310 327h180l-290 -312l307 -388h-189z" horiz-adv-x="740"/>
<glyph glyph-name="L" unicode="L" d="M83 700h162v-568h351v-132h-513v700z" horiz-adv-x="604"/>
<glyph glyph-name="M" unicode="M" d="M720 0l-1 420l-206 -346h-73l-205 337v-411h-152v700h134l262 -435l258 435h133l2 -700h-152z" horiz-adv-x="955"/>
<glyph glyph-name="N" unicode="N" d="M725 700v-700h-133l-349 425v-425h-160v700h134l348 -425v425h160z" horiz-adv-x="808"/>
<glyph glyph-name="O" unicode="O" d="M225.5 35q-87.5 47 -137 129.5t-49.5 185.5t49.5 185.5t137 129.5t196.5 47t196 -47t137 -129.5t50 -185.5t-50 -185.5t-137 -129.5t-196 -47t-196.5 47zM534 154.5q50 28.5 78.5 79.5t28.5 116t-28.5 116t-78.5 79.5t-112 28.5t-112 -28.5t-78.5 -79.5t-28.5 -116 t28.5 -116t78.5 -79.5t112 -28.5t112 28.5z" horiz-adv-x="844"/>
<glyph glyph-name="P" unicode="P" d="M547.5 669q68.5 -31 105.5 -88t37 -135q0 -77 -37 -134.5t-105.5 -88t-161.5 -30.5h-141v-193h-162v700h303q93 0 161.5 -31zM488 356.5q38 31.5 38 89.5q0 59 -38 90.5t-111 31.5h-132v-243h132q73 0 111 31.5z" horiz-adv-x="732"/>
<glyph glyph-name="Q" unicode="Q" d="M840 -75q-34 -42 -82.5 -64t-106.5 -22q-78 0 -141 33.5t-144 118.5q-95 12 -169.5 61t-116 126.5t-41.5 171.5q0 103 49.5 185.5t137 129.5t196.5 47t196 -47t137 -129.5t50 -185.5q0 -122 -68.5 -214t-181.5 -128q25 -26 48.5 -37.5t50.5 -11.5q65 0 114 52zM231.5 234 q28.5 -51 78.5 -79.5t112 -28.5t112 28.5t78.5 79.5t28.5 116t-28.5 116t-78.5 79.5t-112 28.5t-112 -28.5t-78.5 -79.5t-28.5 -116t28.5 -116z" horiz-adv-x="844"/>
<glyph glyph-name="R" unicode="R" d="M529 0l-135 195h-8h-141v-195h-162v700h303q93 0 161.5 -31t105.5 -88t37 -135t-37.5 -134.5t-106.5 -86.5l157 -225h-174zM488 536.5q-38 31.5 -111 31.5h-132v-244h132q73 0 111 32t38 90q0 59 -38 90.5z" horiz-adv-x="735"/>
<glyph glyph-name="S" unicode="S" d="M152.5 10.5q-77.5 22.5 -124.5 58.5l55 122q45 -33 107 -53t124 -20q69 0 102 20.5t33 54.5q0 25 -19.5 41.5t-50 26.5t-82.5 22q-80 19 -131 38t-87.5 61t-36.5 112q0 61 33 110.5t99.5 78.5t162.5 29q67 0 131 -16t112 -46l-50 -123q-97 55 -194 55q-68 0 -100.5 -22 t-32.5 -58t37.5 -53.5t114.5 -34.5q80 -19 131 -38t87.5 -60t36.5 -111q0 -60 -33.5 -109.5t-100.5 -78.5t-163 -29q-83 0 -160.5 22.5z" horiz-adv-x="638"/>
<glyph glyph-name="T" unicode="T" d="M228 568h-224v132h610v-132h-224v-568h-162v568z" horiz-adv-x="618"/>
<glyph glyph-name="U" unicode="U" d="M160.5 71q-83.5 83 -83.5 237v392h162v-386q0 -188 156 -188q76 0 116 45.5t40 142.5v386h160v-392q0 -154 -83.5 -237t-233.5 -83t-233.5 83z" horiz-adv-x="788"/>
<glyph glyph-name="V" unicode="V" d="M756 700l-303 -700h-160l-302 700h175l213 -500l216 500h161z" horiz-adv-x="746"/>
<glyph glyph-name="W" unicode="W" d="M1141 700l-229 -700h-174l-154 474l-159 -474h-173l-230 700h168l158 -492l165 492h150l160 -496l163 496h155z" horiz-adv-x="1163"/>
<glyph glyph-name="X" unicode="X" d="M524 0l-169 243l-166 -243h-186l259 356l-246 344h184l161 -227l158 227h175l-244 -338l261 -362h-187z" horiz-adv-x="714"/>
<glyph glyph-name="Y" unicode="Y" d="M419 248v-248h-162v250l-271 450h172l187 -311l187 311h159z" horiz-adv-x="676"/>
<glyph glyph-name="Z" unicode="Z" d="M650 132v-132h-612v105l384 463h-376v132h589v-105l-383 -463h398z" horiz-adv-x="671"/>
<glyph glyph-name="bracketleft" unicode="[" d="M83 742h271v-122h-115v-692h115v-122h-271v936z" horiz-adv-x="368"/>
<glyph glyph-name="backslash" unicode="\" d="M287 -100l-330 942h139l330 -942h-139z" horiz-adv-x="392"/>
<glyph glyph-name="bracketright" unicode="]" d="M15 -194v122h114v692h-114v122h270v-936h-270z" horiz-adv-x="368"/>
<glyph glyph-name="asciicircum" unicode="^" d="M423 141l-123 295l-123 -295h-120l181 418h125l180 -418h-120z" horiz-adv-x="600"/>
<glyph glyph-name="underscore" unicode="_" d="M0 0h500v-90h-500v90z" horiz-adv-x="500"/>
<glyph glyph-name="grave" unicode="`" d="M88 751h168l135 -144h-122z" horiz-adv-x="600"/>
<glyph glyph-name="a" unicode="a" d="M481 486.5q67 -59.5 67 -179.5v-307h-146v67q-44 -75 -164 -75q-62 0 -107.5 21t-69.5 58t-24 84q0 75 56.5 118t174.5 43h124q0 51 -31 78.5t-93 27.5q-43 0 -84.5 -13.5t-70.5 -36.5l-56 109q44 31 105.5 48t126.5 17q125 0 192 -59.5zM348 115.5q31 18.5 44 54.5v55 h-107q-96 0 -96 -63q0 -30 23.5 -47.5t64.5 -17.5q40 0 71 18.5z" horiz-adv-x="617"/>
<glyph glyph-name="b" unicode="b" d="M526.5 511.5q61.5 -34.5 96.5 -97t35 -145.5t-35 -145.5t-96.5 -97t-136.5 -34.5q-111 0 -169 70v-62h-149v742h156v-261q59 65 162 65q75 0 136.5 -34.5zM461.5 160.5q38.5 40.5 38.5 108.5t-38.5 108.5t-98.5 40.5t-98.5 -40.5t-38.5 -108.5t38.5 -108.5t98.5 -40.5 t98.5 40.5z" horiz-adv-x="690"/>
<glyph glyph-name="c" unicode="c" d="M177.5 27.5q-68.5 35.5 -107 98.5t-38.5 143t38.5 143t107 98.5t154.5 35.5q85 0 148.5 -35.5t92.5 -101.5l-121 -65q-42 74 -121 74q-61 0 -101 -40t-40 -109t40 -109t101 -40q80 0 121 74l121 -66q-29 -64 -92.5 -100t-148.5 -36q-86 0 -154.5 35.5z" horiz-adv-x="591"/>
<glyph glyph-name="d" unicode="d" d="M620 742v-742h-149v62q-58 -70 -168 -70q-76 0 -137.5 34t-96.5 97t-35 146t35 146t96.5 97t137.5 34q103 0 161 -65v261h156zM428 160.5q39 40.5 39 108.5t-39 108.5t-98 40.5q-60 0 -99 -40.5t-39 -108.5t39 -108.5t99 -40.5q59 0 98 40.5z" horiz-adv-x="692"/>
<glyph glyph-name="e" unicode="e" d="M596 225h-407q11 -50 52 -79t102 -29q42 0 74.5 12.5t60.5 39.5l83 -90q-76 -87 -222 -87q-91 0 -161 35.5t-108 98.5t-38 143q0 79 37.5 142.5t103 99t146.5 35.5q79 0 143 -34t100.5 -97.5t36.5 -147.5q0 -3 -3 -42zM231 398q-36 -30 -44 -82h265q-8 51 -44 81.5 t-88 30.5q-53 0 -89 -30z" horiz-adv-x="631"/>
<glyph glyph-name="f" unicode="f" d="M243 526h138v-120h-134v-406h-156v406h-83v120h83v24q0 92 54.5 146t153.5 54q35 0 66.5 -7.5t52.5 -21.5l-41 -113q-27 19 -63 19q-71 0 -71 -78v-23z" horiz-adv-x="387"/>
<glyph glyph-name="g" unicode="g" d="M627 538v-448q0 -148 -77 -220t-225 -72q-78 0 -148 19t-116 55l62 112q34 -28 86 -44.5t104 -16.5q81 0 119.5 36.5t38.5 110.5v23q-61 -67 -170 -67q-74 0 -135.5 32.5t-97.5 91.5t-36 136t36 136t97.5 91.5t135.5 32.5q117 0 178 -77v69h148zM433.5 190.5 q39.5 36.5 39.5 95.5t-39.5 95.5t-101.5 36.5t-102 -36.5t-40 -95.5t40 -95.5t102 -36.5t101.5 36.5z" horiz-adv-x="700"/>
<glyph glyph-name="h" unicode="h" d="M560.5 486q61.5 -60 61.5 -178v-308h-156v284q0 64 -28 95.5t-81 31.5q-59 0 -94 -36.5t-35 -108.5v-266h-156v742h156v-260q31 31 75 47.5t96 16.5q100 0 161.5 -60z" horiz-adv-x="691"/>
<glyph glyph-name="i" unicode="i" d="M72 538h156v-538h-156v538zM80 638q-27 25 -27 62t27 62t70 25t70 -24t27 -60q0 -39 -27 -64.5t-70 -25.5t-70 25z" horiz-adv-x="301"/>
<glyph glyph-name="j" unicode="j" d="M-93 -172l42 113q27 -19 66 -19q30 0 47 19.5t17 58.5v538h156v-537q0 -94 -53.5 -148.5t-149.5 -54.5q-82 0 -125 30zM87 638q-27 25 -27 62t27 62t70 25t70 -24t27 -60q0 -39 -27 -64.5t-70 -25.5t-70 25z" horiz-adv-x="307"/>
<glyph glyph-name="k" unicode="k" d="M303 211l-75 -74v-137h-156v742h156v-420l228 216h186l-224 -228l244 -310h-189z" horiz-adv-x="660"/>
<glyph glyph-name="l" unicode="l" d="M72 742h156v-742h-156v742z" horiz-adv-x="301"/>
<glyph glyph-name="m" unicode="m" d="M921.5 486.5q59.5 -59.5 59.5 -178.5v-308h-156v284q0 64 -26.5 95.5t-75.5 31.5q-55 0 -87 -35.5t-32 -105.5v-270h-156v284q0 127 -102 127q-54 0 -86 -35.5t-32 -105.5v-270h-156v538h149v-62q30 34 73.5 52t95.5 18q57 0 103 -22.5t74 -65.5q33 42 83.5 65t110.5 23 q101 0 160.5 -59.5z" horiz-adv-x="1049"/>
<glyph glyph-name="n" unicode="n" d="M560.5 486q61.5 -60 61.5 -178v-308h-156v284q0 64 -28 95.5t-81 31.5q-59 0 -94 -36.5t-35 -108.5v-266h-156v538h149v-63q31 34 77 52.5t101 18.5q100 0 161.5 -60z" horiz-adv-x="691"/>
<glyph glyph-name="o" unicode="o" d="M175.5 27.5q-67.5 35.5 -105.5 98.5t-38 143t38 143t105.5 98.5t152.5 35.5t152 -35.5t105 -98.5t38 -143t-38 -143t-105 -98.5t-152 -35.5t-152.5 35.5zM426.5 160.5q38.5 40.5 38.5 108.5t-38.5 108.5t-98.5 40.5t-99 -40.5t-39 -108.5t39 -108.5t99 -40.5t98.5 40.5z " horiz-adv-x="655"/>
<glyph glyph-name="p" unicode="p" d="M526.5 511.5q61.5 -34.5 96.5 -97t35 -145.5t-35 -145.5t-96.5 -97t-136.5 -34.5q-103 0 -162 65v-251h-156v732h149v-62q58 70 169 70q75 0 136.5 -34.5zM461.5 160.5q38.5 40.5 38.5 108.5t-38.5 108.5t-98.5 40.5t-98.5 -40.5t-38.5 -108.5t38.5 -108.5t98.5 -40.5 t98.5 40.5z" horiz-adv-x="690"/>
<glyph glyph-name="q" unicode="q" d="M618 538v-732h-156v251q-58 -65 -161 -65q-76 0 -137.5 34t-96.5 97t-35 146t35 146t96.5 97t137.5 34q110 0 168 -70v62h149zM426 160.5q39 40.5 39 108.5t-39 108.5t-98 40.5q-60 0 -99 -40.5t-39 -108.5t39 -108.5t99 -40.5q59 0 98 40.5z" horiz-adv-x="690"/>
<glyph glyph-name="r" unicode="r" d="M296.5 526q47.5 20 109.5 20v-144q-26 2 -35 2q-67 0 -105 -37.5t-38 -112.5v-254h-156v538h149v-71q28 39 75.5 59z" horiz-adv-x="431"/>
<glyph glyph-name="s" unicode="s" d="M122 8.5q-64 16.5 -102 41.5l52 112q36 -23 87 -37.5t100 -14.5q99 0 99 49q0 23 -27 33t-83 17q-66 10 -109 23t-74.5 46t-31.5 94q0 51 29.5 90.5t86 61.5t133.5 22q57 0 113.5 -12.5t93.5 -34.5l-52 -111q-71 40 -155 40q-50 0 -75 -14t-25 -36q0 -25 27 -35t86 -19 q66 -11 108 -23.5t73 -45.5t31 -92q0 -50 -30 -89t-87.5 -60.5t-136.5 -21.5q-67 0 -131 16.5z" horiz-adv-x="531"/>
<glyph glyph-name="t" unicode="t" d="M419 26q-23 -17 -56.5 -25.5t-70.5 -8.5q-96 0 -148.5 49t-52.5 144v221h-83v120h83v131h156v-131h134v-120h-134v-219q0 -34 17.5 -52.5t49.5 -18.5q37 0 63 20z" horiz-adv-x="435"/>
<glyph glyph-name="u" unicode="u" d="M614 538v-538h-148v64q-31 -35 -74 -53.5t-93 -18.5q-106 0 -168 61t-62 181v304h156v-281q0 -130 109 -130q56 0 90 36.5t34 108.5v266h156z" horiz-adv-x="687"/>
<glyph glyph-name="v" unicode="v" d="M606 538l-227 -538h-161l-226 538h161l149 -366l154 366h150z" horiz-adv-x="598"/>
<glyph glyph-name="w" unicode="w" d="M936 538l-195 -538h-150l-121 334l-125 -334h-150l-194 538h147l127 -364l132 364h132l128 -364l131 364h138z" horiz-adv-x="937"/>
<glyph glyph-name="x" unicode="x" d="M414 0l-118 165l-122 -165h-170l207 271l-200 267h175l114 -157l117 157h166l-200 -263l208 -275h-177z" horiz-adv-x="595"/>
<glyph glyph-name="y" unicode="y" d="M606 538l-243 -571q-37 -93 -91.5 -131t-131.5 -38q-42 0 -83 13t-67 36l57 111q18 -16 41.5 -25t46.5 -9q32 0 52 15.5t36 51.5l2 5l-233 542h161l151 -365l152 365h150z" horiz-adv-x="598"/>
<glyph glyph-name="z" unicode="z" d="M515 120v-120h-480v94l274 324h-267v120h464v-94l-274 -324h283z" horiz-adv-x="543"/>
<glyph glyph-name="braceleft" unicode="{" d="M269 310q-16 -25 -51 -36q35 -11 51 -36t16 -76v-160q0 -36 18.5 -55t54.5 -19h18v-122h-58q-93 0 -141 46t-48 133v181q0 23 -11.5 35t-32.5 12h-33v122h33q21 0 32.5 12t11.5 35v181q0 87 48 133t141 46h58v-122h-18q-36 0 -54.5 -19t-18.5 -55v-160q0 -51 -16 -76z " horiz-adv-x="391"/>
<glyph glyph-name="bar" unicode="|" d="M83 742h143v-936h-143v936z" horiz-adv-x="309"/>
<glyph glyph-name="braceright" unicode="}" d="M339 335v-122h-33q-21 0 -32.5 -12t-11.5 -35v-181q0 -87 -48 -133t-141 -46h-58v122h18q36 0 54.5 19t18.5 55v160q0 51 16 76t51 36q-35 11 -51 36t-16 76v160q0 36 -18.5 55t-54.5 19h-18v122h58q93 0 141 -46t48 -133v-181q0 -23 11.5 -35t32.5 -12h33z" horiz-adv-x="391"/>
<glyph glyph-name="asciitilde" unicode="~" d="M336.5 265q-27.5 14 -59.5 39q-24 18 -38.5 26t-29.5 8q-27 0 -44 -21t-18 -57h-97q1 92 42 141.5t108 49.5q36 0 62 -13.5t61 -39.5q24 -18 38 -26t29 -8q28 0 44 21t18 57h98q-2 -92 -43 -141.5t-107 -49.5q-36 0 -63.5 14z" horiz-adv-x="599"/>
<glyph glyph-name="uni00A0" unicode=" " horiz-adv-x="283"/>
<glyph glyph-name="exclamdown" unicode="¡" d="M213.5 519.5q27.5 -26.5 27.5 -64.5q0 -39 -27 -64.5t-69 -25.5t-69 25.5t-27 64.5q0 38 27.5 64.5t68.5 26.5t68.5 -26.5zM238 -154h-186l31 449h124z" horiz-adv-x="289"/>
<glyph glyph-name="cent" unicode="¢" d="M452 194l121 -66q-25 -56 -77.5 -91t-122.5 -43v-114h-100v117q-71 11 -125.5 48.5t-85 95t-30.5 128.5t30.5 128.5t85 95t125.5 48.5v117h100v-114q71 -8 123 -43t77 -92l-121 -65q-29 52 -79 68v-286q51 17 79 68zM212.5 183q22.5 -36 60.5 -52v276q-38 -16 -60.5 -52 t-22.5 -86t22.5 -86z" horiz-adv-x="591"/>
<glyph glyph-name="sterling" unicode="£" d="M293 130h343v-130h-606v130h100v172h-100v97h100v26q0 134 85.5 210.5t239.5 76.5q120 0 201 -46l-49 -128q-60 36 -150 36q-80 0 -122 -37t-42 -109v-29h240v-97h-240v-172z" horiz-adv-x="668"/>
<glyph glyph-name="currency" unicode="¤" d="M573 184l101 -101l-87 -91l-106 105q-60 -35 -131 -35q-70 0 -132 35l-106 -105l-87 91l102 102q-40 60 -40 136q0 72 37 132l-99 99l87 91l101 -100q63 38 137 38t136 -38l101 100l87 -91l-98 -98q37 -63 37 -133q0 -73 -40 -137zM420.5 203.5q32.5 18.5 51.5 49.5 t19 68t-19 68t-51.5 49.5t-70.5 18.5t-70.5 -18.5t-51 -49.5t-18.5 -68t18.5 -68t51 -49.5t70.5 -18.5t70.5 18.5z" horiz-adv-x="700"/>
<glyph glyph-name="yen" unicode="¥" d="M486 311h150v-83h-187v-55h187v-83h-187v-90h-162v90h-187v83h187v55h-187v83h151l-265 389h173l214 -313l216 313h162z" horiz-adv-x="736"/>
<glyph glyph-name="brokenbar" unicode="¦" d="M83 742h143v-350h-143v350zM83 156h143v-350h-143v350z" horiz-adv-x="309"/>
<glyph glyph-name="section" unicode="§" d="M476.5 230.5q-16.5 -31.5 -47.5 -54.5q45 -38 45 -106q0 -52 -27.5 -92t-80 -63t-123.5 -23q-61 0 -123.5 16.5t-98.5 42.5l46 110q35 -25 83.5 -40t94.5 -15q43 0 67 16t24 43q0 29 -28 42.5t-87 25.5q-61 14 -99.5 28.5t-66 46.5t-27.5 88q0 81 64 129q-43 38 -43 104 q0 81 66 130t187 49q49 0 107.5 -13t92.5 -35l-45 -109q-70 43 -164 43q-54 0 -80 -15.5t-26 -43.5q0 -26 25.5 -38t82.5 -26q60 -14 100 -29.5t69 -50t29 -93.5q0 -36 -16.5 -67.5zM191.5 262q28.5 -14 89.5 -27l29 -7q22 10 35 27t13 39q0 30 -28.5 44t-89.5 29l-28 6 q-23 -10 -36 -27.5t-13 -38.5q0 -31 28.5 -45z" horiz-adv-x="522"/>
<glyph glyph-name="dieresis" unicode="¨" d="M149 631.5q-20 19.5 -20 49.5t20 49.5t50 19.5t49.5 -19.5t19.5 -49.5t-19.5 -49.5t-49.5 -19.5t-50 19.5zM351.5 631.5q-19.5 19.5 -19.5 49.5t19.5 49.5t49.5 19.5t50 -19.5t20 -49.5t-20 -49.5t-50 -19.5t-49.5 19.5z" horiz-adv-x="600"/>
<glyph glyph-name="copyright" unicode="©" d="M212.5 44q-80.5 47 -127 128t-46.5 178t46.5 178t127.5 128t180 47t179.5 -46t126.5 -126.5t46 -178.5t-47 -179.5t-128 -128.5t-179 -47t-178.5 47zM536.5 100.5q65.5 38.5 103 105t37.5 146.5q0 81 -36.5 146t-101.5 102.5t-146 37.5t-146 -38t-102 -104t-37 -146 t37 -146t101.5 -104t144.5 -38t145.5 38.5zM294.5 174q-48.5 26 -76 72t-27.5 104t27.5 104t76 72t109.5 26q59 0 104 -25.5t67 -69.5l-90 -53q-27 47 -82 47q-40 0 -67.5 -27.5t-27.5 -73.5t27.5 -73.5t67.5 -27.5q55 0 82 47l90 -52q-22 -45 -67 -70.5t-104 -25.5 q-61 0 -109.5 26z" horiz-adv-x="785"/>
<glyph glyph-name="ordfeminine" unicode="ª" d="M317.5 714q43.5 -36 43.5 -108v-182h-100v39q-13 -21 -40 -32.5t-65 -11.5q-61 0 -94.5 27.5t-33.5 70.5q0 45 36 70.5t111 25.5h78q-1 59 -77 59q-26 0 -53 -8.5t-46 -22.5l-37 68q28 19 69 30t82 11q83 0 126.5 -36zM253 523v33h-62q-61 0 -61 -35q0 -17 14.5 -26 t39.5 -9q51 0 69 37z" horiz-adv-x="412"/>
<glyph glyph-name="guillemotleft" unicode="«" d="M36 269l141 196h140l-137 -196l137 -195h-140zM262 269l141 196h140l-137 -196l137 -195h-140z" horiz-adv-x="568"/>
<glyph glyph-name="logicalnot" unicode="¬" d="M538 115h-129v175h-347v121h476v-296z" horiz-adv-x="599"/>
<glyph glyph-name="uni00AD" unicode="­" d="M52 344h283v-125h-283v125z" horiz-adv-x="386"/>
<glyph glyph-name="registered" unicode="®" d="M572.5 657q80.5 -46 126.5 -126.5t46 -178.5t-47 -179.5t-128 -128.5t-179 -47t-178.5 47t-127 128t-46.5 178t46.5 178t127.5 128t180 47t179.5 -46zM536.5 100.5q65.5 38.5 103 105t37.5 146.5q0 81 -36.5 146t-101.5 102.5t-146 37.5t-146 -38t-102 -104t-37 -146 t37 -146t101.5 -104t144.5 -38t145.5 38.5zM558.5 333.5q-18.5 -30.5 -54.5 -47.5l85 -130h-104l-73 112h-4h-65v-112h-104v388h169q79 0 124 -37.5t45 -100.5q0 -42 -18.5 -72.5zM401 346q35 0 54.5 15.5t19.5 44.5t-19.5 45t-54.5 16h-59v-121h59z" horiz-adv-x="785"/>
<glyph glyph-name="macron" unicode="¯" d="M115 723h370v-88h-370v88z" horiz-adv-x="600"/>
<glyph glyph-name="degree" unicode="°" d="M120.5 388.5q-40.5 22.5 -64 62t-23.5 86.5t23.5 86.5t64 62.5t88.5 23t88 -23t63.5 -62.5t23.5 -86.5t-23.5 -86.5t-63.5 -62t-88 -22.5t-88.5 22.5zM275.5 470q26.5 27 26.5 67t-26.5 67t-66.5 27t-66.5 -27t-26.5 -67t26.5 -67t66.5 -27t66.5 27z" horiz-adv-x="418"/>
<glyph glyph-name="plusminus" unicode="±" d="M538 490v-118h-174v-164h-129v164h-173v118h173v164h129v-164h174zM62 122h476v-122h-476v122z" horiz-adv-x="599"/>
<glyph glyph-name="uni00B2" unicode="²" d="M390 411v-84h-349v67l173 150q28 24 38.5 40.5t10.5 31.5q0 21 -18 34t-54 13q-30 0 -54.5 -11.5t-38.5 -31.5l-80 48q25 38 71 60t111 22q81 0 127.5 -35t46.5 -91q0 -32 -16.5 -60.5t-62.5 -68.5l-96 -84h191z" horiz-adv-x="430"/>
<glyph glyph-name="uni00B3" unicode="³" d="M365 535q32 -32 32 -80q0 -36 -21.5 -67t-65.5 -50t-108 -19q-54 0 -104.5 13t-79.5 34l40 80q28 -19 66 -29.5t76 -10.5q43 0 64.5 13t21.5 36q0 47 -79 47h-59v68l91 89h-203v83h338v-67l-101 -99q60 -9 92 -41z" horiz-adv-x="430"/>
<glyph glyph-name="acute" unicode="´" d="M344 751h168l-181 -144h-122z" horiz-adv-x="600"/>
<glyph glyph-name="uni00B5" unicode="µ" d="M618 538v-538h-141v66q-24 -38 -61.5 -56t-79.5 -18q-65 0 -108 35v-221h-156v732h156v-281q0 -66 28.5 -98t80.5 -32q57 0 91 36.5t34 108.5v266h156z" horiz-adv-x="690"/>
<glyph glyph-name="paragraph" unicode="¶" d="M228 360q-62 1 -110.5 24.5t-76 66.5t-27.5 100q0 58 29.5 101t84 66.5t126.5 23.5h349v-842h-127v729h-121v-729h-127v460z" horiz-adv-x="686"/>
<glyph glyph-name="periodcentered" unicode="·" d="M81.5 211q-27.5 27 -27.5 71t27 70.5t70 26.5t70 -26.5t27 -70.5t-27 -71t-70 -27q-42 0 -69.5 27z" horiz-adv-x="302"/>
<glyph glyph-name="cedilla" unicode="¸" d="M216 -226.5q-25 5.5 -42 15.5l24 67q32 -15 65 -15q52 0 52 32q0 29 -49 29h-34l26 106h83l-14 -58q44 -5 65.5 -27.5t21.5 -55.5q0 -46 -40 -72.5t-107 -26.5q-26 0 -51 5.5z" horiz-adv-x="600"/>
<glyph glyph-name="uni00B9" unicode="¹" d="M378 410v-83h-305v83h103v249h-94v83h206v-332h90z" horiz-adv-x="430"/>
<glyph glyph-name="ordmasculine" unicode="º" d="M116.5 440.5q-43.5 21.5 -68 59t-24.5 85.5q0 47 24.5 85t68 59t97.5 21t97 -21t67.5 -59t24.5 -85q0 -48 -24.5 -86t-67.5 -59t-97 -21t-97.5 21.5zM274 524.5q23 22.5 23 60.5t-23 60t-60 22t-60.5 -22t-23.5 -60t23.5 -60.5t60.5 -22.5t60 22.5z" horiz-adv-x="427"/>
<glyph glyph-name="guillemotright" unicode="»" d="M25 74l137 195l-137 196h140l141 -196l-141 -195h-140zM251 74l137 195l-137 196h140l141 -196l-141 -195h-140z" horiz-adv-x="568"/>
<glyph glyph-name="onequarter" unicode="¼" d="M378 368v-83h-305v83h103v249h-94v83h206v-332h90zM702 700h119l-478 -700h-119zM1025 84h-67v-84h-107v84h-225v70l189 261h119l-179 -246h107v70h96v-70h67v-85z" horiz-adv-x="1044"/>
<glyph glyph-name="onehalf" unicode="½" d="M378 368v-83h-305v83h103v249h-94v83h206v-332h90zM702 700h119l-478 -700h-119zM1004 84v-84h-349v67l173 150q28 24 38.5 40.5t10.5 31.5q0 21 -18 34t-54 13q-30 0 -54.5 -11.5t-38.5 -31.5l-80 48q25 38 71 60t111 22q81 0 127.5 -35t46.5 -91q0 -32 -16.5 -60.5 t-62.5 -68.5l-96 -84h191z" horiz-adv-x="1044"/>
<glyph glyph-name="threequarters" unicode="¾" d="M365 493q32 -32 32 -80q0 -36 -21.5 -67t-65.5 -50t-108 -19q-54 0 -104.5 13t-79.5 34l40 80q28 -19 66 -29.5t76 -10.5q43 0 64.5 13t21.5 36q0 47 -79 47h-59v68l91 89h-203v83h338v-67l-101 -99q60 -9 92 -41zM702 700h119l-478 -700h-119zM1025 84h-67v-84h-107v84 h-225v70l189 261h119l-179 -246h107v70h96v-70h67v-85z" horiz-adv-x="1044"/>
<glyph glyph-name="questiondown" unicode="¿" d="M226.5 390.5q-26.5 25.5 -26.5 64.5q0 38 27 64.5t68 26.5q42 0 69 -26.5t27 -64.5q0 -39 -27 -64.5t-69 -25.5t-68.5 25.5zM121.5 -116.5q-69.5 48.5 -69.5 133.5q0 40 14 70.5t33 51t50 48.5q36 31 53.5 54t17.5 54h151q0 -51 -23.5 -85.5t-67.5 -72.5 q-33 -30 -48.5 -50.5t-15.5 -46.5q0 -33 29.5 -53.5t77.5 -20.5q47 0 84 19t61 55l121 -71q-42 -64 -113 -99t-170 -35q-115 0 -184.5 48.5z" horiz-adv-x="589"/>
<glyph glyph-name="Agrave" unicode="À" d="M544 150h-325l-62 -150h-166l312 700h160l313 -700h-170zM493 273l-111 268l-111 -268h222zM171 901h168l135 -144h-122z" horiz-adv-x="766"/>
<glyph glyph-name="Aacute" unicode="Á" d="M544 150h-325l-62 -150h-166l312 700h160l313 -700h-170zM493 273l-111 268l-111 -268h222zM427 901h168l-181 -144h-122z" horiz-adv-x="766"/>
<glyph glyph-name="Acircumflex" unicode="Â" d="M544 150h-325l-62 -150h-166l312 700h160l313 -700h-170zM493 273l-111 268l-111 -268h222zM470 757l-87 76l-87 -76h-114l132 144h138l132 -144h-114z" horiz-adv-x="766"/>
<glyph glyph-name="Atilde" unicode="Ã" d="M544 150h-325l-62 -150h-166l312 700h160l313 -700h-170zM493 273l-111 268l-111 -268h222zM410.5 764.5q-20.5 10.5 -45.5 28.5q-16 12 -26.5 18t-20.5 6q-21 0 -34 -14.5t-14 -41.5h-79q2 67 33.5 106.5t83.5 39.5q26 0 46.5 -10.5t46.5 -29.5q16 -12 26.5 -18t20.5 -6 q20 0 33.5 14.5t14.5 39.5h79q-2 -65 -33.5 -104t-83.5 -39q-27 0 -47.5 10.5z" horiz-adv-x="766"/>
<glyph glyph-name="Adieresis" unicode="Ä" d="M544 150h-325l-62 -150h-166l312 700h160l313 -700h-170zM493 273l-111 268l-111 -268h222zM232 781.5q-20 19.5 -20 49.5t20 49.5t50 19.5t49.5 -19.5t19.5 -49.5t-19.5 -49.5t-49.5 -19.5t-50 19.5zM434.5 781.5q-19.5 19.5 -19.5 49.5t19.5 49.5t49.5 19.5t50 -19.5 t20 -49.5t-20 -49.5t-50 -19.5t-49.5 19.5z" horiz-adv-x="766"/>
<glyph glyph-name="Aring" unicode="Å" d="M544 150h-325l-62 -150h-166l312 700h160l313 -700h-170zM493 273l-111 268l-111 -268h222zM294.5 789q-35.5 35 -35.5 86t35.5 86t87.5 35q53 0 89 -35t36 -86t-36 -86t-89 -35q-52 0 -87.5 35zM425.5 831.5q17.5 17.5 17.5 43.5t-17.5 43.5t-43.5 17.5 q-25 0 -42.5 -17.5t-17.5 -43.5t17 -43.5t43 -17.5t43.5 17.5z" horiz-adv-x="766"/>
<glyph glyph-name="AE" unicode="Æ" d="M1034 130v-130h-542v150h-253l-82 -150h-166l395 700h635v-130h-368v-152h326v-126h-326v-162h381zM492 273v297h-23l-163 -297h186z" horiz-adv-x="1080"/>
<glyph glyph-name="Ccedilla" unicode="Ç" d="M224.5 34.5q-86.5 46.5 -136 129t-49.5 186.5t49.5 186.5t136 129t194.5 46.5q91 0 164.5 -32t123.5 -92l-104 -96q-71 82 -176 82q-65 0 -116 -28.5t-79.5 -79.5t-28.5 -116t28.5 -116t79.5 -79.5t116 -28.5q105 0 176 83l104 -96q-50 -61 -124 -93t-165 -32 q-107 0 -193.5 46.5zM313 -226.5q-25 5.5 -42 15.5l24 67q32 -15 65 -15q52 0 52 32q0 29 -49 29h-34l26 106h83l-14 -58q44 -5 65.5 -27.5t21.5 -55.5q0 -46 -40 -72.5t-107 -26.5q-26 0 -51 5.5z" horiz-adv-x="733"/>
<glyph glyph-name="Egrave" unicode="È" d="M625 130v-130h-542v700h529v-130h-368v-152h325v-126h-325v-162h381zM136 901h168l135 -144h-122z" horiz-adv-x="671"/>
<glyph glyph-name="Eacute" unicode="É" d="M625 130v-130h-542v700h529v-130h-368v-152h325v-126h-325v-162h381zM392 901h168l-181 -144h-122z" horiz-adv-x="671"/>
<glyph glyph-name="Ecircumflex" unicode="Ê" d="M625 130v-130h-542v700h529v-130h-368v-152h325v-126h-325v-162h381zM435 757l-87 76l-87 -76h-114l132 144h138l132 -144h-114z" horiz-adv-x="671"/>
<glyph glyph-name="Edieresis" unicode="Ë" d="M625 130v-130h-542v700h529v-130h-368v-152h325v-126h-325v-162h381zM197 781.5q-20 19.5 -20 49.5t20 49.5t50 19.5t49.5 -19.5t19.5 -49.5t-19.5 -49.5t-49.5 -19.5t-50 19.5zM399.5 781.5q-19.5 19.5 -19.5 49.5t19.5 49.5t49.5 19.5t50 -19.5t20 -49.5t-20 -49.5 t-50 -19.5t-49.5 19.5z" horiz-adv-x="671"/>
<glyph glyph-name="Igrave" unicode="Ì" d="M83 700h162v-700h-162v700zM-48 901h168l135 -144h-122z" horiz-adv-x="328"/>
<glyph glyph-name="Iacute" unicode="Í" d="M83 700h162v-700h-162v700zM208 901h168l-181 -144h-122z" horiz-adv-x="328"/>
<glyph glyph-name="Icircumflex" unicode="Î" d="M83 700h162v-700h-162v700zM251 757l-87 76l-87 -76h-114l132 144h138l132 -144h-114z" horiz-adv-x="328"/>
<glyph glyph-name="Idieresis" unicode="Ï" d="M83 700h162v-700h-162v700zM13 781.5q-20 19.5 -20 49.5t20 49.5t50 19.5t49.5 -19.5t19.5 -49.5t-19.5 -49.5t-49.5 -19.5t-50 19.5zM215.5 781.5q-19.5 19.5 -19.5 49.5t19.5 49.5t49.5 19.5t50 -19.5t20 -49.5t-20 -49.5t-50 -19.5t-49.5 19.5z" horiz-adv-x="328"/>
<glyph glyph-name="Eth" unicode="Ð" d="M96 700h318q114 0 201.5 -43.5t136 -122.5t48.5 -184t-48.5 -184t-136 -122.5t-201.5 -43.5h-318v700zM406 133q105 0 167.5 58.5t62.5 158.5t-62.5 158.5t-167.5 58.5h-148v-434h148zM1 410h432v-108h-432v108z" horiz-adv-x="839"/>
<glyph glyph-name="Ntilde" unicode="Ñ" d="M725 700v-700h-133l-349 425v-425h-160v700h134l348 -425v425h160zM431.5 764.5q-20.5 10.5 -45.5 28.5q-16 12 -26.5 18t-20.5 6q-21 0 -34 -14.5t-14 -41.5h-79q2 67 33.5 106.5t83.5 39.5q26 0 46.5 -10.5t46.5 -29.5q16 -12 26.5 -18t20.5 -6q20 0 33.5 14.5 t14.5 39.5h79q-2 -65 -33.5 -104t-83.5 -39q-27 0 -47.5 10.5z" horiz-adv-x="808"/>
<glyph glyph-name="Ograve" unicode="Ò" d="M225.5 35q-87.5 47 -137 129.5t-49.5 185.5t49.5 185.5t137 129.5t196.5 47t196 -47t137 -129.5t50 -185.5t-50 -185.5t-137 -129.5t-196 -47t-196.5 47zM534 154.5q50 28.5 78.5 79.5t28.5 116t-28.5 116t-78.5 79.5t-112 28.5t-112 -28.5t-78.5 -79.5t-28.5 -116 t28.5 -116t78.5 -79.5t112 -28.5t112 28.5zM210 901h168l135 -144h-122z" horiz-adv-x="844"/>
<glyph glyph-name="Oacute" unicode="Ó" d="M225.5 35q-87.5 47 -137 129.5t-49.5 185.5t49.5 185.5t137 129.5t196.5 47t196 -47t137 -129.5t50 -185.5t-50 -185.5t-137 -129.5t-196 -47t-196.5 47zM534 154.5q50 28.5 78.5 79.5t28.5 116t-28.5 116t-78.5 79.5t-112 28.5t-112 -28.5t-78.5 -79.5t-28.5 -116 t28.5 -116t78.5 -79.5t112 -28.5t112 28.5zM466 901h168l-181 -144h-122z" horiz-adv-x="844"/>
<glyph glyph-name="Ocircumflex" unicode="Ô" d="M225.5 35q-87.5 47 -137 129.5t-49.5 185.5t49.5 185.5t137 129.5t196.5 47t196 -47t137 -129.5t50 -185.5t-50 -185.5t-137 -129.5t-196 -47t-196.5 47zM534 154.5q50 28.5 78.5 79.5t28.5 116t-28.5 116t-78.5 79.5t-112 28.5t-112 -28.5t-78.5 -79.5t-28.5 -116 t28.5 -116t78.5 -79.5t112 -28.5t112 28.5zM509 757l-87 76l-87 -76h-114l132 144h138l132 -144h-114z" horiz-adv-x="844"/>
<glyph glyph-name="Otilde" unicode="Õ" d="M225.5 35q-87.5 47 -137 129.5t-49.5 185.5t49.5 185.5t137 129.5t196.5 47t196 -47t137 -129.5t50 -185.5t-50 -185.5t-137 -129.5t-196 -47t-196.5 47zM534 154.5q50 28.5 78.5 79.5t28.5 116t-28.5 116t-78.5 79.5t-112 28.5t-112 -28.5t-78.5 -79.5t-28.5 -116 t28.5 -116t78.5 -79.5t112 -28.5t112 28.5zM449.5 764.5q-20.5 10.5 -45.5 28.5q-16 12 -26.5 18t-20.5 6q-21 0 -34 -14.5t-14 -41.5h-79q2 67 33.5 106.5t83.5 39.5q26 0 46.5 -10.5t46.5 -29.5q16 -12 26.5 -18t20.5 -6q20 0 33.5 14.5t14.5 39.5h79q-2 -65 -33.5 -104 t-83.5 -39q-27 0 -47.5 10.5z" horiz-adv-x="844"/>
<glyph glyph-name="Odieresis" unicode="Ö" d="M225.5 35q-87.5 47 -137 129.5t-49.5 185.5t49.5 185.5t137 129.5t196.5 47t196 -47t137 -129.5t50 -185.5t-50 -185.5t-137 -129.5t-196 -47t-196.5 47zM534 154.5q50 28.5 78.5 79.5t28.5 116t-28.5 116t-78.5 79.5t-112 28.5t-112 -28.5t-78.5 -79.5t-28.5 -116 t28.5 -116t78.5 -79.5t112 -28.5t112 28.5zM271 781.5q-20 19.5 -20 49.5t20 49.5t50 19.5t49.5 -19.5t19.5 -49.5t-19.5 -49.5t-49.5 -19.5t-50 19.5zM473.5 781.5q-19.5 19.5 -19.5 49.5t19.5 49.5t49.5 19.5t50 -19.5t20 -49.5t-20 -49.5t-50 -19.5t-49.5 19.5z" horiz-adv-x="844"/>
<glyph glyph-name="multiply" unicode="×" d="M386 350l124 -125l-84 -88l-126 127l-126 -127l-84 88l124 125l-124 125l84 88l126 -127l126 127l84 -88z" horiz-adv-x="599"/>
<glyph glyph-name="Oslash" unicode="Ø" d="M225.5 35q-87.5 47 -137 129.5t-49.5 185.5t49.5 185.5t137 129.5t196.5 47t196 -47t137 -129.5t50 -185.5t-50 -185.5t-137 -129.5t-196 -47t-196.5 47zM534 154.5q50 28.5 78.5 79.5t28.5 116t-28.5 116t-78.5 79.5t-112 28.5t-112 -28.5t-78.5 -79.5t-28.5 -116 t28.5 -116t78.5 -79.5t112 -28.5t112 28.5zM669 770h105l-598 -840h-105z" horiz-adv-x="844"/>
<glyph glyph-name="Ugrave" unicode="Ù" d="M160.5 71q-83.5 83 -83.5 237v392h162v-386q0 -188 156 -188q76 0 116 45.5t40 142.5v386h160v-392q0 -154 -83.5 -237t-233.5 -83t-233.5 83zM183 901h168l135 -144h-122z" horiz-adv-x="788"/>
<glyph glyph-name="Uacute" unicode="Ú" d="M160.5 71q-83.5 83 -83.5 237v392h162v-386q0 -188 156 -188q76 0 116 45.5t40 142.5v386h160v-392q0 -154 -83.5 -237t-233.5 -83t-233.5 83zM439 901h168l-181 -144h-122z" horiz-adv-x="788"/>
<glyph glyph-name="Ucircumflex" unicode="Û" d="M160.5 71q-83.5 83 -83.5 237v392h162v-386q0 -188 156 -188q76 0 116 45.5t40 142.5v386h160v-392q0 -154 -83.5 -237t-233.5 -83t-233.5 83zM482 757l-87 76l-87 -76h-114l132 144h138l132 -144h-114z" horiz-adv-x="788"/>
<glyph glyph-name="Udieresis" unicode="Ü" d="M160.5 71q-83.5 83 -83.5 237v392h162v-386q0 -188 156 -188q76 0 116 45.5t40 142.5v386h160v-392q0 -154 -83.5 -237t-233.5 -83t-233.5 83zM244 781.5q-20 19.5 -20 49.5t20 49.5t50 19.5t49.5 -19.5t19.5 -49.5t-19.5 -49.5t-49.5 -19.5t-50 19.5zM446.5 781.5 q-19.5 19.5 -19.5 49.5t19.5 49.5t49.5 19.5t50 -19.5t20 -49.5t-20 -49.5t-50 -19.5t-49.5 19.5z" horiz-adv-x="788"/>
<glyph glyph-name="Yacute" unicode="Ý" d="M419 248v-248h-162v250l-271 450h172l187 -311l187 311h159zM382 901h168l-181 -144h-122z" horiz-adv-x="676"/>
<glyph glyph-name="Thorn" unicode="Þ" d="M547.5 592q68.5 -31 105.5 -88t37 -135t-37 -135t-105.5 -88t-161.5 -31h-141v-115h-162v700h162v-77h141q93 0 161.5 -31zM488 278.5q38 31.5 38 90.5t-38 90.5t-111 31.5h-132v-244h132q73 0 111 31.5z" horiz-adv-x="732"/>
<glyph glyph-name="germandbls" unicode="ß" d="M625 323q36 -47 36 -116q0 -100 -69 -157.5t-183 -57.5q-31 0 -63.5 4.5t-54.5 11.5l18 124q38 -12 84 -12q51 0 80.5 23.5t29.5 67.5t-32 67.5t-89 23.5h-54v123q56 1 89 29.5t33 75.5q0 42 -28 67.5t-77 25.5q-55 0 -86 -31.5t-31 -89.5v-502h-156v483q0 86 36 146 t97.5 90.5t139.5 30.5t136 -27.5t88.5 -75t30.5 -106.5q0 -46 -20.5 -84t-55.5 -65q65 -22 101 -69z" horiz-adv-x="693"/>
<glyph glyph-name="agrave" unicode="à" d="M481 486.5q67 -59.5 67 -179.5v-307h-146v67q-44 -75 -164 -75q-62 0 -107.5 21t-69.5 58t-24 84q0 75 56.5 118t174.5 43h124q0 51 -31 78.5t-93 27.5q-43 0 -84.5 -13.5t-70.5 -36.5l-56 109q44 31 105.5 48t126.5 17q125 0 192 -59.5zM348 115.5q31 18.5 44 54.5v55 h-107q-96 0 -96 -63q0 -30 23.5 -47.5t64.5 -17.5q40 0 71 18.5zM93 751h168l135 -144h-122z" horiz-adv-x="617"/>
<glyph glyph-name="aacute" unicode="á" d="M481 486.5q67 -59.5 67 -179.5v-307h-146v67q-44 -75 -164 -75q-62 0 -107.5 21t-69.5 58t-24 84q0 75 56.5 118t174.5 43h124q0 51 -31 78.5t-93 27.5q-43 0 -84.5 -13.5t-70.5 -36.5l-56 109q44 31 105.5 48t126.5 17q125 0 192 -59.5zM348 115.5q31 18.5 44 54.5v55 h-107q-96 0 -96 -63q0 -30 23.5 -47.5t64.5 -17.5q40 0 71 18.5zM349 751h168l-181 -144h-122z" horiz-adv-x="617"/>
<glyph glyph-name="acircumflex" unicode="â" d="M481 486.5q67 -59.5 67 -179.5v-307h-146v67q-44 -75 -164 -75q-62 0 -107.5 21t-69.5 58t-24 84q0 75 56.5 118t174.5 43h124q0 51 -31 78.5t-93 27.5q-43 0 -84.5 -13.5t-70.5 -36.5l-56 109q44 31 105.5 48t126.5 17q125 0 192 -59.5zM348 115.5q31 18.5 44 54.5v55 h-107q-96 0 -96 -63q0 -30 23.5 -47.5t64.5 -17.5q40 0 71 18.5zM392 607l-87 76l-87 -76h-114l132 144h138l132 -144h-114z" horiz-adv-x="617"/>
<glyph glyph-name="atilde" unicode="ã" d="M481 486.5q67 -59.5 67 -179.5v-307h-146v67q-44 -75 -164 -75q-62 0 -107.5 21t-69.5 58t-24 84q0 75 56.5 118t174.5 43h124q0 51 -31 78.5t-93 27.5q-43 0 -84.5 -13.5t-70.5 -36.5l-56 109q44 31 105.5 48t126.5 17q125 0 192 -59.5zM348 115.5q31 18.5 44 54.5v55 h-107q-96 0 -96 -63q0 -30 23.5 -47.5t64.5 -17.5q40 0 71 18.5zM332.5 614.5q-20.5 10.5 -45.5 28.5q-16 12 -26.5 18t-20.5 6q-21 0 -34 -14.5t-14 -41.5h-79q2 67 33.5 106.5t83.5 39.5q26 0 46.5 -10.5t46.5 -29.5q16 -12 26.5 -18t20.5 -6q20 0 33.5 14.5t14.5 39.5h79 q-2 -65 -33.5 -104t-83.5 -39q-27 0 -47.5 10.5z" horiz-adv-x="617"/>
<glyph glyph-name="adieresis" unicode="ä" d="M481 486.5q67 -59.5 67 -179.5v-307h-146v67q-44 -75 -164 -75q-62 0 -107.5 21t-69.5 58t-24 84q0 75 56.5 118t174.5 43h124q0 51 -31 78.5t-93 27.5q-43 0 -84.5 -13.5t-70.5 -36.5l-56 109q44 31 105.5 48t126.5 17q125 0 192 -59.5zM348 115.5q31 18.5 44 54.5v55 h-107q-96 0 -96 -63q0 -30 23.5 -47.5t64.5 -17.5q40 0 71 18.5zM154 631.5q-20 19.5 -20 49.5t20 49.5t50 19.5t49.5 -19.5t19.5 -49.5t-19.5 -49.5t-49.5 -19.5t-50 19.5zM356.5 631.5q-19.5 19.5 -19.5 49.5t19.5 49.5t49.5 19.5t50 -19.5t20 -49.5t-20 -49.5t-50 -19.5 t-49.5 19.5z" horiz-adv-x="617"/>
<glyph glyph-name="aring" unicode="å" d="M481 486.5q67 -59.5 67 -179.5v-307h-146v67q-44 -75 -164 -75q-62 0 -107.5 21t-69.5 58t-24 84q0 75 56.5 118t174.5 43h124q0 51 -31 78.5t-93 27.5q-43 0 -84.5 -13.5t-70.5 -36.5l-56 109q44 31 105.5 48t126.5 17q125 0 192 -59.5zM348 115.5q31 18.5 44 54.5v55 h-107q-96 0 -96 -63q0 -30 23.5 -47.5t64.5 -17.5q40 0 71 18.5zM216.5 627q-35.5 35 -35.5 86t35.5 86t87.5 35q53 0 89 -35t36 -86t-36 -86t-89 -35q-52 0 -87.5 35zM347.5 669.5q17.5 17.5 17.5 43.5t-17.5 43.5t-43.5 17.5q-25 0 -42.5 -17.5t-17.5 -43.5t17 -43.5 t43 -17.5t43.5 17.5z" horiz-adv-x="617"/>
<glyph glyph-name="ae" unicode="æ" d="M960 226h-408q11 -51 51 -80t102 -29q78 0 136 52l83 -90q-39 -43 -95.5 -65t-126.5 -22q-71 0 -131 23t-102 70q-62 -93 -206 -93q-105 0 -165.5 46t-60.5 123q0 70 57 113t174 43h124q0 50 -31 77.5t-92 27.5q-43 0 -85 -13.5t-71 -36.5l-56 109q44 31 105 48t126 17 q136 0 198 -76q37 36 88 56t110 20q77 0 141 -34t101 -97t37 -144q0 -25 -3 -45zM596 399q-37 -29 -46 -82h262q-8 53 -44.5 82t-85.5 29t-86 -29zM362 125q30 28 30 76v25h-107q-96 0 -96 -62q0 -32 23.5 -49.5t66.5 -17.5q53 0 83 28z" horiz-adv-x="996"/>
<glyph glyph-name="ccedilla" unicode="ç" d="M177.5 27.5q-68.5 35.5 -107 98.5t-38.5 143t38.5 143t107 98.5t154.5 35.5q85 0 148.5 -35.5t92.5 -101.5l-121 -65q-42 74 -121 74q-61 0 -101 -40t-40 -109t40 -109t101 -40q80 0 121 74l121 -66q-29 -64 -92.5 -100t-148.5 -36q-86 0 -154.5 35.5zM224 -226.5 q-25 5.5 -42 15.5l24 67q32 -15 65 -15q52 0 52 32q0 29 -49 29h-34l26 106h83l-14 -58q44 -5 65.5 -27.5t21.5 -55.5q0 -46 -40 -72.5t-107 -26.5q-26 0 -51 5.5z" horiz-adv-x="591"/>
<glyph glyph-name="egrave" unicode="è" d="M596 225h-407q11 -50 52 -79t102 -29q42 0 74.5 12.5t60.5 39.5l83 -90q-76 -87 -222 -87q-91 0 -161 35.5t-108 98.5t-38 143q0 79 37.5 142.5t103 99t146.5 35.5q79 0 143 -34t100.5 -97.5t36.5 -147.5q0 -3 -3 -42zM231 398q-36 -30 -44 -82h265q-8 51 -44 81.5 t-88 30.5q-53 0 -89 -30zM104 751h168l135 -144h-122z" horiz-adv-x="631"/>
<glyph glyph-name="eacute" unicode="é" d="M596 225h-407q11 -50 52 -79t102 -29q42 0 74.5 12.5t60.5 39.5l83 -90q-76 -87 -222 -87q-91 0 -161 35.5t-108 98.5t-38 143q0 79 37.5 142.5t103 99t146.5 35.5q79 0 143 -34t100.5 -97.5t36.5 -147.5q0 -3 -3 -42zM231 398q-36 -30 -44 -82h265q-8 51 -44 81.5 t-88 30.5q-53 0 -89 -30zM360 751h168l-181 -144h-122z" horiz-adv-x="631"/>
<glyph glyph-name="ecircumflex" unicode="ê" d="M596 225h-407q11 -50 52 -79t102 -29q42 0 74.5 12.5t60.5 39.5l83 -90q-76 -87 -222 -87q-91 0 -161 35.5t-108 98.5t-38 143q0 79 37.5 142.5t103 99t146.5 35.5q79 0 143 -34t100.5 -97.5t36.5 -147.5q0 -3 -3 -42zM231 398q-36 -30 -44 -82h265q-8 51 -44 81.5 t-88 30.5q-53 0 -89 -30zM403 607l-87 76l-87 -76h-114l132 144h138l132 -144h-114z" horiz-adv-x="631"/>
<glyph glyph-name="edieresis" unicode="ë" d="M596 225h-407q11 -50 52 -79t102 -29q42 0 74.5 12.5t60.5 39.5l83 -90q-76 -87 -222 -87q-91 0 -161 35.5t-108 98.5t-38 143q0 79 37.5 142.5t103 99t146.5 35.5q79 0 143 -34t100.5 -97.5t36.5 -147.5q0 -3 -3 -42zM231 398q-36 -30 -44 -82h265q-8 51 -44 81.5 t-88 30.5q-53 0 -89 -30zM165 631.5q-20 19.5 -20 49.5t20 49.5t50 19.5t49.5 -19.5t19.5 -49.5t-19.5 -49.5t-49.5 -19.5t-50 19.5zM367.5 631.5q-19.5 19.5 -19.5 49.5t19.5 49.5t49.5 19.5t50 -19.5t20 -49.5t-20 -49.5t-50 -19.5t-49.5 19.5z" horiz-adv-x="631"/>
<glyph glyph-name="igrave" unicode="ì" d="M72 538h156v-538h-156v538zM-62 751h168l135 -144h-122z" horiz-adv-x="301"/>
<glyph glyph-name="iacute" unicode="í" d="M72 538h156v-538h-156v538zM194 751h168l-181 -144h-122z" horiz-adv-x="301"/>
<glyph glyph-name="icircumflex" unicode="î" d="M72 538h156v-538h-156v538zM215 607l-65 70l-65 -70h-111l109 144h134l109 -144h-111z" horiz-adv-x="301"/>
<glyph glyph-name="idieresis" unicode="ï" d="M72 538h156v-538h-156v538zM21.5 632q-18.5 19 -18.5 49t18.5 49t46.5 19t47 -19t19 -49t-19 -49t-47 -19t-46.5 19zM185 632q-19 19 -19 49t19 49t47 19t46.5 -19t18.5 -49t-18.5 -49t-46.5 -19t-47 19z" horiz-adv-x="301"/>
<glyph glyph-name="eth" unicode="ð" d="M624 342q0 -110 -39 -189.5t-111.5 -122t-171.5 -42.5q-76 0 -137.5 29t-97 82t-35.5 122q0 67 33.5 118t91.5 79t129 28q115 0 176 -72v2q0 121 -58 184l-253 -97l-32 79l187 72q-29 7 -69 7q-72 0 -135 -21l-19 121q78 20 160 20q139 0 232 -63l90 35l32 -79l-53 -20 q80 -102 80 -272zM406.5 140q35.5 31 35.5 77q0 47 -35.5 77.5t-89.5 30.5q-58 0 -92 -29t-34 -79q0 -49 34 -78.5t89 -29.5q57 0 92.5 31z" horiz-adv-x="657"/>
<glyph glyph-name="ntilde" unicode="ñ" d="M560.5 486q61.5 -60 61.5 -178v-308h-156v284q0 64 -28 95.5t-81 31.5q-59 0 -94 -36.5t-35 -108.5v-266h-156v538h149v-63q31 34 77 52.5t101 18.5q100 0 161.5 -60zM375.5 614.5q-20.5 10.5 -45.5 28.5q-16 12 -26.5 18t-20.5 6q-21 0 -34 -14.5t-14 -41.5h-79 q2 67 33.5 106.5t83.5 39.5q26 0 46.5 -10.5t46.5 -29.5q16 -12 26.5 -18t20.5 -6q20 0 33.5 14.5t14.5 39.5h79q-2 -65 -33.5 -104t-83.5 -39q-27 0 -47.5 10.5z" horiz-adv-x="691"/>
<glyph glyph-name="ograve" unicode="ò" d="M175.5 27.5q-67.5 35.5 -105.5 98.5t-38 143t38 143t105.5 98.5t152.5 35.5t152 -35.5t105 -98.5t38 -143t-38 -143t-105 -98.5t-152 -35.5t-152.5 35.5zM426.5 160.5q38.5 40.5 38.5 108.5t-38.5 108.5t-98.5 40.5t-99 -40.5t-39 -108.5t39 -108.5t99 -40.5t98.5 40.5z M114 751h168l135 -144h-122z" horiz-adv-x="655"/>
<glyph glyph-name="oacute" unicode="ó" d="M175.5 27.5q-67.5 35.5 -105.5 98.5t-38 143t38 143t105.5 98.5t152.5 35.5t152 -35.5t105 -98.5t38 -143t-38 -143t-105 -98.5t-152 -35.5t-152.5 35.5zM426.5 160.5q38.5 40.5 38.5 108.5t-38.5 108.5t-98.5 40.5t-99 -40.5t-39 -108.5t39 -108.5t99 -40.5t98.5 40.5z M370 751h168l-181 -144h-122z" horiz-adv-x="655"/>
<glyph glyph-name="ocircumflex" unicode="ô" d="M175.5 27.5q-67.5 35.5 -105.5 98.5t-38 143t38 143t105.5 98.5t152.5 35.5t152 -35.5t105 -98.5t38 -143t-38 -143t-105 -98.5t-152 -35.5t-152.5 35.5zM426.5 160.5q38.5 40.5 38.5 108.5t-38.5 108.5t-98.5 40.5t-99 -40.5t-39 -108.5t39 -108.5t99 -40.5t98.5 40.5z M413 607l-87 76l-87 -76h-114l132 144h138l132 -144h-114z" horiz-adv-x="655"/>
<glyph glyph-name="otilde" unicode="õ" d="M175.5 27.5q-67.5 35.5 -105.5 98.5t-38 143t38 143t105.5 98.5t152.5 35.5t152 -35.5t105 -98.5t38 -143t-38 -143t-105 -98.5t-152 -35.5t-152.5 35.5zM426.5 160.5q38.5 40.5 38.5 108.5t-38.5 108.5t-98.5 40.5t-99 -40.5t-39 -108.5t39 -108.5t99 -40.5t98.5 40.5z M353.5 614.5q-20.5 10.5 -45.5 28.5q-16 12 -26.5 18t-20.5 6q-21 0 -34 -14.5t-14 -41.5h-79q2 67 33.5 106.5t83.5 39.5q26 0 46.5 -10.5t46.5 -29.5q16 -12 26.5 -18t20.5 -6q20 0 33.5 14.5t14.5 39.5h79q-2 -65 -33.5 -104t-83.5 -39q-27 0 -47.5 10.5z" horiz-adv-x="655"/>
<glyph glyph-name="odieresis" unicode="ö" d="M175.5 27.5q-67.5 35.5 -105.5 98.5t-38 143t38 143t105.5 98.5t152.5 35.5t152 -35.5t105 -98.5t38 -143t-38 -143t-105 -98.5t-152 -35.5t-152.5 35.5zM426.5 160.5q38.5 40.5 38.5 108.5t-38.5 108.5t-98.5 40.5t-99 -40.5t-39 -108.5t39 -108.5t99 -40.5t98.5 40.5z M175 631.5q-20 19.5 -20 49.5t20 49.5t50 19.5t49.5 -19.5t19.5 -49.5t-19.5 -49.5t-49.5 -19.5t-50 19.5zM377.5 631.5q-19.5 19.5 -19.5 49.5t19.5 49.5t49.5 19.5t50 -19.5t20 -49.5t-20 -49.5t-50 -19.5t-49.5 19.5z" horiz-adv-x="655"/>
<glyph glyph-name="divide" unicode="÷" d="M241 499q-24 24 -24 60t24 59t59 23t59 -23t24 -59t-24 -60t-59 -24t-59 24zM62 411h476v-122h-476v122zM241 83q-24 24 -24 60t24 59t59 23t59 -23t24 -59t-24 -60t-59 -24t-59 24z" horiz-adv-x="599"/>
<glyph glyph-name="oslash" unicode="ø" d="M175.5 27.5q-67.5 35.5 -105.5 98.5t-38 143t38 143t105.5 98.5t152.5 35.5t152 -35.5t105 -98.5t38 -143t-38 -143t-105 -98.5t-152 -35.5t-152.5 35.5zM426.5 160.5q38.5 40.5 38.5 108.5t-38.5 108.5t-98.5 40.5t-99 -40.5t-39 -108.5t39 -108.5t99 -40.5t98.5 40.5z M507 604h78l-441 -675h-77z" horiz-adv-x="655"/>
<glyph glyph-name="ugrave" unicode="ù" d="M614 538v-538h-148v64q-31 -35 -74 -53.5t-93 -18.5q-106 0 -168 61t-62 181v304h156v-281q0 -130 109 -130q56 0 90 36.5t34 108.5v266h156zM129 751h168l135 -144h-122z" horiz-adv-x="687"/>
<glyph glyph-name="uacute" unicode="ú" d="M614 538v-538h-148v64q-31 -35 -74 -53.5t-93 -18.5q-106 0 -168 61t-62 181v304h156v-281q0 -130 109 -130q56 0 90 36.5t34 108.5v266h156zM385 751h168l-181 -144h-122z" horiz-adv-x="687"/>
<glyph glyph-name="ucircumflex" unicode="û" d="M614 538v-538h-148v64q-31 -35 -74 -53.5t-93 -18.5q-106 0 -168 61t-62 181v304h156v-281q0 -130 109 -130q56 0 90 36.5t34 108.5v266h156zM428 607l-87 76l-87 -76h-114l132 144h138l132 -144h-114z" horiz-adv-x="687"/>
<glyph glyph-name="udieresis" unicode="ü" d="M614 538v-538h-148v64q-31 -35 -74 -53.5t-93 -18.5q-106 0 -168 61t-62 181v304h156v-281q0 -130 109 -130q56 0 90 36.5t34 108.5v266h156zM190 631.5q-20 19.5 -20 49.5t20 49.5t50 19.5t49.5 -19.5t19.5 -49.5t-19.5 -49.5t-49.5 -19.5t-50 19.5zM392.5 631.5 q-19.5 19.5 -19.5 49.5t19.5 49.5t49.5 19.5t50 -19.5t20 -49.5t-20 -49.5t-50 -19.5t-49.5 19.5z" horiz-adv-x="687"/>
<glyph glyph-name="yacute" unicode="ý" d="M606 538l-243 -571q-37 -93 -91.5 -131t-131.5 -38q-42 0 -83 13t-67 36l57 111q18 -16 41.5 -25t46.5 -9q32 0 52 15.5t36 51.5l2 5l-233 542h161l151 -365l152 365h150zM332 751h168l-181 -144h-122z" horiz-adv-x="598"/>
<glyph glyph-name="thorn" unicode="þ" d="M526.5 511.5q61.5 -34.5 96.5 -97t35 -145.5t-35 -145.5t-96.5 -97t-136.5 -34.5q-103 0 -162 65v-251h-156v936h156v-258q58 62 162 62q75 0 136.5 -34.5zM461.5 160.5q38.5 40.5 38.5 108.5t-38.5 108.5t-98.5 40.5t-98.5 -40.5t-38.5 -108.5t38.5 -108.5t98.5 -40.5 t98.5 40.5z" horiz-adv-x="690"/>
<glyph glyph-name="ydieresis" unicode="ÿ" d="M606 538l-243 -571q-37 -93 -91.5 -131t-131.5 -38q-42 0 -83 13t-67 36l57 111q18 -16 41.5 -25t46.5 -9q32 0 52 15.5t36 51.5l2 5l-233 542h161l151 -365l152 365h150zM137 631.5q-20 19.5 -20 49.5t20 49.5t50 19.5t49.5 -19.5t19.5 -49.5t-19.5 -49.5t-49.5 -19.5 t-50 19.5zM339.5 631.5q-19.5 19.5 -19.5 49.5t19.5 49.5t49.5 19.5t50 -19.5t20 -49.5t-20 -49.5t-50 -19.5t-49.5 19.5z" horiz-adv-x="598"/>
<glyph glyph-name="Amacron" unicode="Ā" d="M544 150h-325l-62 -150h-166l312 700h160l313 -700h-170zM493 273l-111 268l-111 -268h222zM198 873h370v-88h-370v88z" horiz-adv-x="766"/>
<glyph glyph-name="amacron" unicode="ā" d="M481 486.5q67 -59.5 67 -179.5v-307h-146v67q-44 -75 -164 -75q-62 0 -107.5 21t-69.5 58t-24 84q0 75 56.5 118t174.5 43h124q0 51 -31 78.5t-93 27.5q-43 0 -84.5 -13.5t-70.5 -36.5l-56 109q44 31 105.5 48t126.5 17q125 0 192 -59.5zM348 115.5q31 18.5 44 54.5v55 h-107q-96 0 -96 -63q0 -30 23.5 -47.5t64.5 -17.5q40 0 71 18.5zM120 723h370v-88h-370v88z" horiz-adv-x="617"/>
<glyph glyph-name="Abreve" unicode="Ă" d="M544 150h-325l-62 -150h-166l312 700h160l313 -700h-170zM493 273l-111 268l-111 -268h222zM253 790q-51 41 -54 111h98q1 -32 25.5 -51.5t60.5 -19.5t60.5 19.5t25.5 51.5h98q-3 -70 -54 -111t-130 -41t-130 41z" horiz-adv-x="766"/>
<glyph glyph-name="abreve" unicode="ă" d="M481 486.5q67 -59.5 67 -179.5v-307h-146v67q-44 -75 -164 -75q-62 0 -107.5 21t-69.5 58t-24 84q0 75 56.5 118t174.5 43h124q0 51 -31 78.5t-93 27.5q-43 0 -84.5 -13.5t-70.5 -36.5l-56 109q44 31 105.5 48t126.5 17q125 0 192 -59.5zM348 115.5q31 18.5 44 54.5v55 h-107q-96 0 -96 -63q0 -30 23.5 -47.5t64.5 -17.5q40 0 71 18.5zM175 640q-51 41 -54 111h98q1 -32 25.5 -51.5t60.5 -19.5t60.5 19.5t25.5 51.5h98q-3 -70 -54 -111t-130 -41t-130 41z" horiz-adv-x="617"/>
<glyph glyph-name="Aogonek" unicode="Ą" d="M544 150h-325l-62 -150h-166l312 700h160l313 -700h-170zM493 273l-111 268l-111 -268h222zM597 -201.5q-37 30.5 -37 81.5q0 49 38.5 91t115.5 70l62 -41q-63 -28 -90 -53.5t-27 -53.5q0 -21 15.5 -33.5t41.5 -12.5q34 0 61 15l22 -71q-19 -10 -46 -16.5t-55 -6.5 q-64 0 -101 30.5z" horiz-adv-x="766"/>
<glyph glyph-name="aogonek" unicode="ą" d="M481 486.5q67 -59.5 67 -179.5v-307h-146v67q-44 -75 -164 -75q-62 0 -107.5 21t-69.5 58t-24 84q0 75 56.5 118t174.5 43h124q0 51 -31 78.5t-93 27.5q-43 0 -84.5 -13.5t-70.5 -36.5l-56 109q44 31 105.5 48t126.5 17q125 0 192 -59.5zM348 115.5q31 18.5 44 54.5v55 h-107q-96 0 -96 -63q0 -30 23.5 -47.5t64.5 -17.5q40 0 71 18.5zM369 -201.5q-37 30.5 -37 81.5q0 49 38.5 91t115.5 70l62 -41q-63 -28 -90 -53.5t-27 -53.5q0 -21 15.5 -33.5t41.5 -12.5q34 0 61 15l22 -71q-19 -10 -46 -16.5t-55 -6.5q-64 0 -101 30.5z" horiz-adv-x="617"/>
<glyph glyph-name="Cacute" unicode="Ć" d="M224.5 34.5q-86.5 46.5 -136 129t-49.5 186.5t49.5 186.5t136 129t194.5 46.5q91 0 164.5 -32t123.5 -92l-104 -96q-71 82 -176 82q-65 0 -116 -28.5t-79.5 -79.5t-28.5 -116t28.5 -116t79.5 -79.5t116 -28.5q105 0 176 83l104 -96q-50 -61 -124 -93t-165 -32 q-107 0 -193.5 46.5zM458 901h168l-181 -144h-122z" horiz-adv-x="733"/>
<glyph glyph-name="cacute" unicode="ć" d="M177.5 27.5q-68.5 35.5 -107 98.5t-38.5 143t38.5 143t107 98.5t154.5 35.5q85 0 148.5 -35.5t92.5 -101.5l-121 -65q-42 74 -121 74q-61 0 -101 -40t-40 -109t40 -109t101 -40q80 0 121 74l121 -66q-29 -64 -92.5 -100t-148.5 -36q-86 0 -154.5 35.5zM357 751h168 l-181 -144h-122z" horiz-adv-x="591"/>
<glyph glyph-name="Ccircumflex" unicode="Ĉ" d="M224.5 34.5q-86.5 46.5 -136 129t-49.5 186.5t49.5 186.5t136 129t194.5 46.5q91 0 164.5 -32t123.5 -92l-104 -96q-71 82 -176 82q-65 0 -116 -28.5t-79.5 -79.5t-28.5 -116t28.5 -116t79.5 -79.5t116 -28.5q105 0 176 83l104 -96q-50 -61 -124 -93t-165 -32 q-107 0 -193.5 46.5zM501 757l-87 76l-87 -76h-114l132 144h138l132 -144h-114z" horiz-adv-x="733"/>
<glyph glyph-name="ccircumflex" unicode="ĉ" d="M177.5 27.5q-68.5 35.5 -107 98.5t-38.5 143t38.5 143t107 98.5t154.5 35.5q85 0 148.5 -35.5t92.5 -101.5l-121 -65q-42 74 -121 74q-61 0 -101 -40t-40 -109t40 -109t101 -40q80 0 121 74l121 -66q-29 -64 -92.5 -100t-148.5 -36q-86 0 -154.5 35.5zM400 607l-87 76 l-87 -76h-114l132 144h138l132 -144h-114z" horiz-adv-x="591"/>
<glyph glyph-name="Cdotaccent" unicode="Ċ" d="M224.5 34.5q-86.5 46.5 -136 129t-49.5 186.5t49.5 186.5t136 129t194.5 46.5q91 0 164.5 -32t123.5 -92l-104 -96q-71 82 -176 82q-65 0 -116 -28.5t-79.5 -79.5t-28.5 -116t28.5 -116t79.5 -79.5t116 -28.5q105 0 176 83l104 -96q-50 -61 -124 -93t-165 -32 q-107 0 -193.5 46.5zM353.5 786q-23.5 24 -23.5 61q0 36 23.5 60t60.5 24t60.5 -24t23.5 -60q0 -37 -23.5 -61t-60.5 -24t-60.5 24z" horiz-adv-x="733"/>
<glyph glyph-name="cdotaccent" unicode="ċ" d="M177.5 27.5q-68.5 35.5 -107 98.5t-38.5 143t38.5 143t107 98.5t154.5 35.5q85 0 148.5 -35.5t92.5 -101.5l-121 -65q-42 74 -121 74q-61 0 -101 -40t-40 -109t40 -109t101 -40q80 0 121 74l121 -66q-29 -64 -92.5 -100t-148.5 -36q-86 0 -154.5 35.5zM252.5 636 q-23.5 24 -23.5 61q0 36 23.5 60t60.5 24t60.5 -24t23.5 -60q0 -37 -23.5 -61t-60.5 -24t-60.5 24z" horiz-adv-x="591"/>
<glyph glyph-name="Ccaron" unicode="Č" d="M224.5 34.5q-86.5 46.5 -136 129t-49.5 186.5t49.5 186.5t136 129t194.5 46.5q91 0 164.5 -32t123.5 -92l-104 -96q-71 82 -176 82q-65 0 -116 -28.5t-79.5 -79.5t-28.5 -116t28.5 -116t79.5 -79.5t116 -28.5q105 0 176 83l104 -96q-50 -61 -124 -93t-165 -32 q-107 0 -193.5 46.5zM615 901l-132 -144h-138l-132 144h114l87 -75l87 75h114z" horiz-adv-x="733"/>
<glyph glyph-name="ccaron" unicode="č" d="M177.5 27.5q-68.5 35.5 -107 98.5t-38.5 143t38.5 143t107 98.5t154.5 35.5q85 0 148.5 -35.5t92.5 -101.5l-121 -65q-42 74 -121 74q-61 0 -101 -40t-40 -109t40 -109t101 -40q80 0 121 74l121 -66q-29 -64 -92.5 -100t-148.5 -36q-86 0 -154.5 35.5zM514 751l-132 -144 h-138l-132 144h114l87 -75l87 75h114z" horiz-adv-x="591"/>
<glyph glyph-name="Dcaron" unicode="Ď" d="M83 700h318q114 0 201.5 -43.5t136 -122.5t48.5 -184t-48.5 -184t-136 -122.5t-201.5 -43.5h-318v700zM393 133q105 0 167.5 58.5t62.5 158.5t-62.5 158.5t-167.5 58.5h-148v-434h148zM571 900l-132 -144h-138l-132 144h114l87 -75l87 75h114z" horiz-adv-x="826"/>
<glyph glyph-name="dcaron" unicode="ď" d="M620 742v-742h-149v62q-58 -70 -168 -70q-76 0 -137.5 34t-96.5 97t-35 146t35 146t96.5 97t137.5 34q103 0 161 -65v261h156zM428 160.5q39 40.5 39 108.5t-39 108.5t-98 40.5q-60 0 -99 -40.5t-39 -108.5t39 -108.5t99 -40.5q59 0 98 40.5zM702 783h117l-20 -201h-97 v201z" horiz-adv-x="692"/>
<glyph glyph-name="Dcroat" unicode="Đ" d="M96 700h318q114 0 201.5 -43.5t136 -122.5t48.5 -184t-48.5 -184t-136 -122.5t-201.5 -43.5h-318v700zM406 133q105 0 167.5 58.5t62.5 158.5t-62.5 158.5t-167.5 58.5h-148v-434h148zM1 410h432v-108h-432v108z" horiz-adv-x="839"/>
<glyph glyph-name="dcroat" unicode="đ" d="M620 742v-742h-149v62q-58 -70 -168 -70q-76 0 -137.5 34t-96.5 97t-35 146t35 146t96.5 97t137.5 34q103 0 161 -65v261h156zM428 160.5q39 40.5 39 108.5t-39 108.5t-98 40.5q-60 0 -99 -40.5t-39 -108.5t39 -108.5t99 -40.5q59 0 98 40.5zM281 683h412v-90h-412v90z " horiz-adv-x="692"/>
<glyph glyph-name="Emacron" unicode="Ē" d="M625 130v-130h-542v700h529v-130h-368v-152h325v-126h-325v-162h381zM163 873h370v-88h-370v88z" horiz-adv-x="671"/>
<glyph glyph-name="emacron" unicode="ē" d="M596 225h-407q11 -50 52 -79t102 -29q42 0 74.5 12.5t60.5 39.5l83 -90q-76 -87 -222 -87q-91 0 -161 35.5t-108 98.5t-38 143q0 79 37.5 142.5t103 99t146.5 35.5q79 0 143 -34t100.5 -97.5t36.5 -147.5q0 -3 -3 -42zM231 398q-36 -30 -44 -82h265q-8 51 -44 81.5 t-88 30.5q-53 0 -89 -30zM131 723h370v-88h-370v88z" horiz-adv-x="631"/>
<glyph glyph-name="Ebreve" unicode="Ĕ" d="M625 130v-130h-542v700h529v-130h-368v-152h325v-126h-325v-162h381zM218 790q-51 41 -54 111h98q1 -32 25.5 -51.5t60.5 -19.5t60.5 19.5t25.5 51.5h98q-3 -70 -54 -111t-130 -41t-130 41z" horiz-adv-x="671"/>
<glyph glyph-name="ebreve" unicode="ĕ" d="M596 225h-407q11 -50 52 -79t102 -29q42 0 74.5 12.5t60.5 39.5l83 -90q-76 -87 -222 -87q-91 0 -161 35.5t-108 98.5t-38 143q0 79 37.5 142.5t103 99t146.5 35.5q79 0 143 -34t100.5 -97.5t36.5 -147.5q0 -3 -3 -42zM231 398q-36 -30 -44 -82h265q-8 51 -44 81.5 t-88 30.5q-53 0 -89 -30zM186 640q-51 41 -54 111h98q1 -32 25.5 -51.5t60.5 -19.5t60.5 19.5t25.5 51.5h98q-3 -70 -54 -111t-130 -41t-130 41z" horiz-adv-x="631"/>
<glyph glyph-name="Edotaccent" unicode="Ė" d="M625 130v-130h-542v700h529v-130h-368v-152h325v-126h-325v-162h381zM287.5 786q-23.5 24 -23.5 61q0 36 23.5 60t60.5 24t60.5 -24t23.5 -60q0 -37 -23.5 -61t-60.5 -24t-60.5 24z" horiz-adv-x="671"/>
<glyph glyph-name="edotaccent" unicode="ė" d="M596 225h-407q11 -50 52 -79t102 -29q42 0 74.5 12.5t60.5 39.5l83 -90q-76 -87 -222 -87q-91 0 -161 35.5t-108 98.5t-38 143q0 79 37.5 142.5t103 99t146.5 35.5q79 0 143 -34t100.5 -97.5t36.5 -147.5q0 -3 -3 -42zM231 398q-36 -30 -44 -82h265q-8 51 -44 81.5 t-88 30.5q-53 0 -89 -30zM255.5 636q-23.5 24 -23.5 61q0 36 23.5 60t60.5 24t60.5 -24t23.5 -60q0 -37 -23.5 -61t-60.5 -24t-60.5 24z" horiz-adv-x="631"/>
<glyph glyph-name="Eogonek" unicode="Ę" d="M625 130v-130h-542v700h529v-130h-368v-152h325v-126h-325v-162h381zM446 -201.5q-37 30.5 -37 81.5q0 49 38.5 91t115.5 70l62 -41q-63 -28 -90 -53.5t-27 -53.5q0 -21 15.5 -33.5t41.5 -12.5q34 0 61 15l22 -71q-19 -10 -46 -16.5t-55 -6.5q-64 0 -101 30.5z" horiz-adv-x="671"/>
<glyph glyph-name="eogonek" unicode="ę" d="M596 225h-407q11 -50 52 -79t102 -29q42 0 74.5 12.5t60.5 39.5l84 -90q-20 -21 -41 -36q-63 -46 -87 -80t-24 -65q0 -24 15.5 -37.5t42.5 -13.5q32 0 59 15l23 -71q-19 -10 -46.5 -16.5t-54.5 -6.5q-64 0 -101 31.5t-37 84.5q0 28 12.5 56.5t36.5 52.5q-7 -1 -21 -1 q-91 0 -161 35.5t-108 98.5t-38 143q0 79 37.5 142.5t103 99t146.5 35.5q79 0 143 -34t100.5 -97.5t36.5 -147.5q0 -3 -3 -42zM231 398q-36 -30 -44 -82h265q-8 51 -44 81.5t-88 30.5q-53 0 -89 -30z" horiz-adv-x="631"/>
<glyph glyph-name="Ecaron" unicode="Ě" d="M625 130v-130h-542v700h529v-130h-368v-152h325v-126h-325v-162h381zM549 901l-132 -144h-138l-132 144h114l87 -75l87 75h114z" horiz-adv-x="671"/>
<glyph glyph-name="ecaron" unicode="ě" d="M596 225h-407q11 -50 52 -79t102 -29q42 0 74.5 12.5t60.5 39.5l83 -90q-76 -87 -222 -87q-91 0 -161 35.5t-108 98.5t-38 143q0 79 37.5 142.5t103 99t146.5 35.5q79 0 143 -34t100.5 -97.5t36.5 -147.5q0 -3 -3 -42zM231 398q-36 -30 -44 -82h265q-8 51 -44 81.5 t-88 30.5q-53 0 -89 -30zM517 751l-132 -144h-138l-132 144h114l87 -75l87 75h114z" horiz-adv-x="631"/>
<glyph glyph-name="Gcircumflex" unicode="Ĝ" d="M556 361h148v-284q-57 -43 -132 -66t-151 -23q-109 0 -196 46.5t-136.5 129t-49.5 186.5t49.5 186.5t137.5 129t198 46.5q92 0 167 -31t126 -90l-104 -96q-75 79 -181 79q-67 0 -119 -28t-81 -79t-29 -117q0 -65 29 -116t80.5 -79.5t117.5 -28.5q70 0 126 30v205z M504 757l-87 76l-87 -76h-114l132 144h138l132 -144h-114z" horiz-adv-x="771"/>
<glyph glyph-name="gcircumflex" unicode="ĝ" d="M627 538v-448q0 -148 -77 -220t-225 -72q-78 0 -148 19t-116 55l62 112q34 -28 86 -44.5t104 -16.5q81 0 119.5 36.5t38.5 110.5v23q-61 -67 -170 -67q-74 0 -135.5 32.5t-97.5 91.5t-36 136t36 136t97.5 91.5t135.5 32.5q117 0 178 -77v69h148zM433.5 190.5 q39.5 36.5 39.5 95.5t-39.5 95.5t-101.5 36.5t-102 -36.5t-40 -95.5t40 -95.5t102 -36.5t101.5 36.5zM428 607l-87 76l-87 -76h-114l132 144h138l132 -144h-114z" horiz-adv-x="700"/>
<glyph glyph-name="Gbreve" unicode="Ğ" d="M556 361h148v-284q-57 -43 -132 -66t-151 -23q-109 0 -196 46.5t-136.5 129t-49.5 186.5t49.5 186.5t137.5 129t198 46.5q92 0 167 -31t126 -90l-104 -96q-75 79 -181 79q-67 0 -119 -28t-81 -79t-29 -117q0 -65 29 -116t80.5 -79.5t117.5 -28.5q70 0 126 30v205z M287 790q-51 41 -54 111h98q1 -32 25.5 -51.5t60.5 -19.5t60.5 19.5t25.5 51.5h98q-3 -70 -54 -111t-130 -41t-130 41z" horiz-adv-x="771"/>
<glyph glyph-name="gbreve" unicode="ğ" d="M627 538v-448q0 -148 -77 -220t-225 -72q-78 0 -148 19t-116 55l62 112q34 -28 86 -44.5t104 -16.5q81 0 119.5 36.5t38.5 110.5v23q-61 -67 -170 -67q-74 0 -135.5 32.5t-97.5 91.5t-36 136t36 136t97.5 91.5t135.5 32.5q117 0 178 -77v69h148zM433.5 190.5 q39.5 36.5 39.5 95.5t-39.5 95.5t-101.5 36.5t-102 -36.5t-40 -95.5t40 -95.5t102 -36.5t101.5 36.5zM211 640q-51 41 -54 111h98q1 -32 25.5 -51.5t60.5 -19.5t60.5 19.5t25.5 51.5h98q-3 -70 -54 -111t-130 -41t-130 41z" horiz-adv-x="700"/>
<glyph glyph-name="Gdotaccent" unicode="Ġ" d="M556 361h148v-284q-57 -43 -132 -66t-151 -23q-109 0 -196 46.5t-136.5 129t-49.5 186.5t49.5 186.5t137.5 129t198 46.5q92 0 167 -31t126 -90l-104 -96q-75 79 -181 79q-67 0 -119 -28t-81 -79t-29 -117q0 -65 29 -116t80.5 -79.5t117.5 -28.5q70 0 126 30v205z M356.5 786q-23.5 24 -23.5 61q0 36 23.5 60t60.5 24t60.5 -24t23.5 -60q0 -37 -23.5 -61t-60.5 -24t-60.5 24z" horiz-adv-x="771"/>
<glyph glyph-name="gdotaccent" unicode="ġ" d="M627 538v-448q0 -148 -77 -220t-225 -72q-78 0 -148 19t-116 55l62 112q34 -28 86 -44.5t104 -16.5q81 0 119.5 36.5t38.5 110.5v23q-61 -67 -170 -67q-74 0 -135.5 32.5t-97.5 91.5t-36 136t36 136t97.5 91.5t135.5 32.5q117 0 178 -77v69h148zM433.5 190.5 q39.5 36.5 39.5 95.5t-39.5 95.5t-101.5 36.5t-102 -36.5t-40 -95.5t40 -95.5t102 -36.5t101.5 36.5zM280.5 636q-23.5 24 -23.5 61q0 36 23.5 60t60.5 24t60.5 -24t23.5 -60q0 -37 -23.5 -61t-60.5 -24t-60.5 24z" horiz-adv-x="700"/>
<glyph glyph-name="Gcommaaccent" unicode="Ģ" d="M556 361h148v-284q-57 -43 -132 -66t-151 -23q-109 0 -196 46.5t-136.5 129t-49.5 186.5t49.5 186.5t137.5 129t198 46.5q92 0 167 -31t126 -90l-104 -96q-75 79 -181 79q-67 0 -119 -28t-81 -79t-29 -117q0 -65 29 -116t80.5 -79.5t117.5 -28.5q70 0 126 30v205z M457.5 -89.5q18.5 -16.5 18.5 -43.5q0 -31 -18 -65l-35 -68h-73l25 80q-18 6 -27.5 19.5t-9.5 33.5q0 27 18.5 43.5t50.5 16.5t50.5 -16.5z" horiz-adv-x="771"/>
<glyph glyph-name="gcommaaccent" unicode="ģ" d="M627 538v-448q0 -148 -77 -220t-225 -72q-78 0 -148 19t-116 55l62 112q34 -28 86 -44.5t104 -16.5q81 0 119.5 36.5t38.5 110.5v23q-61 -67 -170 -67q-74 0 -135.5 32.5t-97.5 91.5t-36 136t36 136t97.5 91.5t135.5 32.5q117 0 178 -77v69h148zM433.5 190.5 q39.5 36.5 39.5 95.5t-39.5 95.5t-101.5 36.5t-102 -36.5t-40 -95.5t40 -95.5t102 -36.5t101.5 36.5zM420 659q0 -28 -20 -44t-59 -16t-59 16.5t-20 43.5q0 25 21 64l45 90h84l-34 -101q42 -12 42 -53z" horiz-adv-x="700"/>
<glyph glyph-name="Hcircumflex" unicode="Ĥ" d="M725 700v-700h-162v287h-318v-287h-162v700h162v-276h318v276h162zM491 757l-87 76l-87 -76h-114l132 144h138l132 -144h-114z" horiz-adv-x="808"/>
<glyph glyph-name="hcircumflex" unicode="ĥ" d="M560.5 486q61.5 -60 61.5 -178v-308h-156v284q0 64 -28 95.5t-81 31.5q-59 0 -94 -36.5t-35 -108.5v-266h-156v742h156v-260q31 31 75 47.5t96 16.5q100 0 161.5 -60zM237 799l-87 76l-87 -76h-114l132 144h138l132 -144h-114z" horiz-adv-x="691"/>
<glyph glyph-name="Hbar" unicode="Ħ" d="M738 700v-700h-162v287h-318v-287h-162v700h162v-276h318v276h162zM1 618h832v-108h-832v108z" horiz-adv-x="834"/>
<glyph glyph-name="hbar" unicode="ħ" d="M560.5 486q61.5 -60 61.5 -178v-308h-156v284q0 64 -28 95.5t-81 31.5q-59 0 -94 -36.5t-35 -108.5v-266h-156v742h156v-260q31 31 75 47.5t96 16.5q100 0 161.5 -60zM0 683h412v-90h-412v90z" horiz-adv-x="691"/>
<glyph glyph-name="Itilde" unicode="Ĩ" d="M83 700h162v-700h-162v700zM191.5 764.5q-20.5 10.5 -45.5 28.5q-16 12 -26.5 18t-20.5 6q-21 0 -34 -14.5t-14 -41.5h-79q2 67 33.5 106.5t83.5 39.5q26 0 46.5 -10.5t46.5 -29.5q16 -12 26.5 -18t20.5 -6q20 0 33.5 14.5t14.5 39.5h79q-2 -65 -33.5 -104t-83.5 -39 q-27 0 -47.5 10.5z" horiz-adv-x="328"/>
<glyph glyph-name="itilde" unicode="ĩ" d="M72 538h156v-538h-156v538zM172 615q-19 11 -41 31q-2 2 -10.5 9t-14.5 10.5t-12 3.5q-15 0 -23 -15t-8 -43h-78q0 71 25.5 108.5t73.5 37.5q25 0 44 -11t41 -31q2 -2 10.5 -9t14.5 -10.5t12 -3.5q15 0 23 14.5t8 40.5h78q0 -69 -25.5 -106t-73.5 -37q-25 0 -44 11z" horiz-adv-x="301"/>
<glyph glyph-name="Imacron" unicode="Ī" d="M83 700h162v-700h-162v700zM14 873h300v-88h-300v88z" horiz-adv-x="328"/>
<glyph glyph-name="imacron" unicode="ī" d="M72 538h156v-538h-156v538zM0 723h300v-88h-300v88z" horiz-adv-x="301"/>
<glyph glyph-name="Ibreve" unicode="Ĭ" d="M83 700h162v-700h-162v700zM34 790q-51 41 -54 111h98q1 -32 25.5 -51.5t60.5 -19.5t60.5 19.5t25.5 51.5h98q-3 -70 -54 -111t-130 -41t-130 41z" horiz-adv-x="328"/>
<glyph glyph-name="ibreve" unicode="ĭ" d="M72 538h156v-538h-156v538zM36.5 640.5q-44.5 41.5 -45.5 110.5h94q0 -33 17.5 -52.5t47.5 -19.5t47.5 19.5t17.5 52.5h94q-1 -69 -45.5 -110.5t-113.5 -41.5t-113.5 41.5z" horiz-adv-x="301"/>
<glyph glyph-name="Iogonek" unicode="Į" d="M83 700h162v-700h-162v700zM115 -201.5q-33 30.5 -33 80.5q0 47 29 88.5t86 73.5l48 -41q-36 -29 -50.5 -54.5t-14.5 -51.5q0 -21 12 -34t30 -13t32 10l22 -68q-29 -21 -74 -21q-54 0 -87 30.5z" horiz-adv-x="328"/>
<glyph glyph-name="iogonek" unicode="į" d="M72 538h156v-538h-156v538zM80 638q-27 25 -27 62t27 62t70 25t70 -24t27 -60q0 -39 -27 -64.5t-70 -25.5t-70 25zM98 -201.5q-33 30.5 -33 80.5q0 47 29 88.5t86 73.5l48 -41q-36 -29 -50.5 -54.5t-14.5 -51.5q0 -21 12 -34t30 -13t32 10l22 -68q-29 -21 -74 -21 q-54 0 -87 30.5z" horiz-adv-x="301"/>
<glyph glyph-name="Idotaccent" unicode="İ" d="M83 700h162v-700h-162v700zM103.5 786q-23.5 24 -23.5 61q0 36 23.5 60t60.5 24t60.5 -24t23.5 -60q0 -37 -23.5 -61t-60.5 -24t-60.5 24z" horiz-adv-x="328"/>
<glyph glyph-name="dotlessi" unicode="ı" d="M72 538h156v-538h-156v538z" horiz-adv-x="301"/>
<glyph glyph-name="IJ" unicode="Ĳ" d="M181.5 8.5q-68.5 20.5 -120.5 56.5l61 122q46 -31 98.5 -47t103.5 -16q161 0 161 183v393h162v-385q0 -105 -39.5 -178.5t-111.5 -111t-169 -37.5q-77 0 -145.5 20.5zM77 700h162v-378h-162v378z" horiz-adv-x="724"/>
<glyph glyph-name="ij" unicode="ĳ" d="M72 538h156v-538h-156v538zM80 638q-27 25 -27 62t27 62t70 25t70 -24t27 -60q0 -39 -27 -64.5t-70 -25.5t-70 25zM208 -172l42 113q27 -19 66 -19q30 0 47 19.5t17 58.5v538h156v-537q0 -94 -53.5 -148.5t-149.5 -54.5q-82 0 -125 30zM388 638q-27 25 -27 62t27 62 t70 25t70 -24t27 -60q0 -39 -27 -64.5t-70 -25.5t-70 25z" horiz-adv-x="608"/>
<glyph glyph-name="Jcircumflex" unicode="Ĵ" d="M81.5 14.5q-59.5 26.5 -97.5 75.5l90 108q57 -77 130 -77q99 0 99 116v333h-246v130h407v-454q0 -129 -64 -193.5t-188 -64.5q-71 0 -130.5 26.5zM348 757l-87 76l-87 -76h-114l132 144h138l132 -144h-114z" horiz-adv-x="541"/>
<glyph glyph-name="jcircumflex" unicode="ĵ" d="M-93 -172l42 113q27 -19 66 -19q30 0 47 19.5t17 58.5v538h156v-537q0 -94 -53.5 -148.5t-149.5 -54.5q-82 0 -125 30zM222 607l-65 70l-65 -70h-111l109 144h134l109 -144h-111z" horiz-adv-x="307"/>
<glyph glyph-name="Kcommaaccent" unicode="Ķ" d="M338 275l-94 -98v-177h-161v700h161v-327l310 327h180l-290 -312l307 -388h-189zM429.5 -89.5q18.5 -16.5 18.5 -43.5q0 -31 -18 -65l-35 -68h-73l25 80q-18 6 -27.5 19.5t-9.5 33.5q0 27 18.5 43.5t50.5 16.5t50.5 -16.5z" horiz-adv-x="740"/>
<glyph glyph-name="kcommaaccent" unicode="ķ" d="M303 211l-75 -74v-137h-156v742h156v-420l228 216h186l-224 -228l244 -310h-189zM368.5 -89.5q18.5 -16.5 18.5 -43.5q0 -31 -18 -65l-35 -68h-73l25 80q-18 6 -27.5 19.5t-9.5 33.5q0 27 18.5 43.5t50.5 16.5t50.5 -16.5z" horiz-adv-x="660"/>
<glyph glyph-name="kgreenlandic" unicode="ĸ" d="M303 211l-75 -74v-137h-156v538h156v-216l228 216h186l-224 -228l244 -310h-189z" horiz-adv-x="645"/>
<glyph glyph-name="Lacute" unicode="Ĺ" d="M83 700h162v-568h351v-132h-513v700zM208 901h168l-181 -144h-122z" horiz-adv-x="604"/>
<glyph glyph-name="lacute" unicode="ĺ" d="M72 742h156v-742h-156v742zM194 955h168l-181 -144h-122z" horiz-adv-x="301"/>
<glyph glyph-name="Lcommaaccent" unicode="Ļ" d="M83 700h162v-568h351v-132h-513v700zM401.5 -89.5q18.5 -16.5 18.5 -43.5q0 -31 -18 -65l-35 -68h-73l25 80q-18 6 -27.5 19.5t-9.5 33.5q0 27 18.5 43.5t50.5 16.5t50.5 -16.5z" horiz-adv-x="604"/>
<glyph glyph-name="lcommaaccent" unicode="ļ" d="M72 742h156v-742h-156v742zM200.5 -89.5q18.5 -16.5 18.5 -43.5q0 -31 -18 -65l-35 -68h-73l25 80q-18 6 -27.5 19.5t-9.5 33.5q0 27 18.5 43.5t50.5 16.5t50.5 -16.5z" horiz-adv-x="301"/>
<glyph glyph-name="Lcaron" unicode="Ľ" d="M83 700h162v-568h351v-132h-513v700zM431 741h117l-20 -201h-97v201z" horiz-adv-x="604"/>
<glyph glyph-name="lcaron" unicode="ľ" d="M72 742h156v-742h-156v742zM308 783h117l-20 -201h-97v201z" horiz-adv-x="301"/>
<glyph glyph-name="Ldot" unicode="Ŀ" d="M83 700h162v-568h351v-132h-513v700zM406 353.5q-24 24.5 -24 62.5t24 62.5t61 24.5t61 -24.5t24 -62.5t-24 -62.5t-61 -24.5t-61 24.5z" horiz-adv-x="604"/>
<glyph glyph-name="ldot" unicode="ŀ" d="M72 742h156v-742h-156v742zM304 306.5q-22 22.5 -22 56.5t22 56t56 22t56.5 -22t22.5 -56t-22.5 -56.5t-56.5 -22.5t-56 22.5z" horiz-adv-x="420"/>
<glyph glyph-name="Lslash" unicode="Ł" d="M96 700h162v-568h351v-132h-513v700zM-14 304l376 282l58 -78l-376 -282z" horiz-adv-x="617"/>
<glyph glyph-name="lslash" unicode="ł" d="M85 742h156v-742h-156v742zM-28 281l324 244l57 -80l-323 -242z" horiz-adv-x="327"/>
<glyph glyph-name="Nacute" unicode="Ń" d="M725 700v-700h-133l-349 425v-425h-160v700h134l348 -425v425h160zM448 901h168l-181 -144h-122z" horiz-adv-x="808"/>
<glyph glyph-name="nacute" unicode="ń" d="M560.5 486q61.5 -60 61.5 -178v-308h-156v284q0 64 -28 95.5t-81 31.5q-59 0 -94 -36.5t-35 -108.5v-266h-156v538h149v-63q31 34 77 52.5t101 18.5q100 0 161.5 -60zM392 751h168l-181 -144h-122z" horiz-adv-x="691"/>
<glyph glyph-name="Ncommaaccent" unicode="Ņ" d="M725 700v-700h-133l-349 425v-425h-160v700h134l348 -425v425h160zM454.5 -89.5q18.5 -16.5 18.5 -43.5q0 -31 -18 -65l-35 -68h-73l25 80q-18 6 -27.5 19.5t-9.5 33.5q0 27 18.5 43.5t50.5 16.5t50.5 -16.5z" horiz-adv-x="808"/>
<glyph glyph-name="ncommaaccent" unicode="ņ" d="M560.5 486q61.5 -60 61.5 -178v-308h-156v284q0 64 -28 95.5t-81 31.5q-59 0 -94 -36.5t-35 -108.5v-266h-156v538h149v-63q31 34 77 52.5t101 18.5q100 0 161.5 -60zM398.5 -89.5q18.5 -16.5 18.5 -43.5q0 -31 -18 -65l-35 -68h-73l25 80q-18 6 -27.5 19.5t-9.5 33.5 q0 27 18.5 43.5t50.5 16.5t50.5 -16.5z" horiz-adv-x="691"/>
<glyph glyph-name="Ncaron" unicode="Ň" d="M725 700v-700h-133l-349 425v-425h-160v700h134l348 -425v425h160zM605 901l-132 -144h-138l-132 144h114l87 -75l87 75h114z" horiz-adv-x="808"/>
<glyph glyph-name="ncaron" unicode="ň" d="M560.5 486q61.5 -60 61.5 -178v-308h-156v284q0 64 -28 95.5t-81 31.5q-59 0 -94 -36.5t-35 -108.5v-266h-156v538h149v-63q31 34 77 52.5t101 18.5q100 0 161.5 -60zM549 751l-132 -144h-138l-132 144h114l87 -75l87 75h114z" horiz-adv-x="691"/>
<glyph glyph-name="napostrophe" unicode="ŉ" d="M43 700h102l-22 -262h-82zM690.5 486q61.5 -60 61.5 -178v-308h-156v284q0 64 -28 95.5t-81 31.5q-59 0 -94 -36.5t-35 -108.5v-266h-156v538h149v-63q31 34 77 52.5t101 18.5q100 0 161.5 -60z" horiz-adv-x="820"/>
<glyph glyph-name="Eng" unicode="Ŋ" d="M725 700v-629q0 -139 -62.5 -206t-186.5 -67q-55 0 -103 16.5t-84 49.5l76 113q43 -46 103 -46q91 0 97 102l-322 392v-425h-160v700h134l348 -425v425h160z" horiz-adv-x="808"/>
<glyph glyph-name="eng" unicode="ŋ" d="M560.5 486q61.5 -60 61.5 -178v-307q0 -94 -53 -148.5t-149 -54.5q-82 0 -126 30l42 113q27 -19 66 -19q31 0 47.5 19.5t16.5 58.5v284q0 64 -28 95.5t-81 31.5q-59 0 -94 -36.5t-35 -108.5v-266h-156v538h149v-63q31 34 77 52.5t101 18.5q100 0 161.5 -60z" horiz-adv-x="691"/>
<glyph glyph-name="Omacron" unicode="Ō" d="M225.5 35q-87.5 47 -137 129.5t-49.5 185.5t49.5 185.5t137 129.5t196.5 47t196 -47t137 -129.5t50 -185.5t-50 -185.5t-137 -129.5t-196 -47t-196.5 47zM534 154.5q50 28.5 78.5 79.5t28.5 116t-28.5 116t-78.5 79.5t-112 28.5t-112 -28.5t-78.5 -79.5t-28.5 -116 t28.5 -116t78.5 -79.5t112 -28.5t112 28.5zM237 873h370v-88h-370v88z" horiz-adv-x="844"/>
<glyph glyph-name="omacron" unicode="ō" d="M175.5 27.5q-67.5 35.5 -105.5 98.5t-38 143t38 143t105.5 98.5t152.5 35.5t152 -35.5t105 -98.5t38 -143t-38 -143t-105 -98.5t-152 -35.5t-152.5 35.5zM426.5 160.5q38.5 40.5 38.5 108.5t-38.5 108.5t-98.5 40.5t-99 -40.5t-39 -108.5t39 -108.5t99 -40.5t98.5 40.5z M141 723h370v-88h-370v88z" horiz-adv-x="655"/>
<glyph glyph-name="Obreve" unicode="Ŏ" d="M225.5 35q-87.5 47 -137 129.5t-49.5 185.5t49.5 185.5t137 129.5t196.5 47t196 -47t137 -129.5t50 -185.5t-50 -185.5t-137 -129.5t-196 -47t-196.5 47zM534 154.5q50 28.5 78.5 79.5t28.5 116t-28.5 116t-78.5 79.5t-112 28.5t-112 -28.5t-78.5 -79.5t-28.5 -116 t28.5 -116t78.5 -79.5t112 -28.5t112 28.5zM292 790q-51 41 -54 111h98q1 -32 25.5 -51.5t60.5 -19.5t60.5 19.5t25.5 51.5h98q-3 -70 -54 -111t-130 -41t-130 41z" horiz-adv-x="844"/>
<glyph glyph-name="obreve" unicode="ŏ" d="M175.5 27.5q-67.5 35.5 -105.5 98.5t-38 143t38 143t105.5 98.5t152.5 35.5t152 -35.5t105 -98.5t38 -143t-38 -143t-105 -98.5t-152 -35.5t-152.5 35.5zM426.5 160.5q38.5 40.5 38.5 108.5t-38.5 108.5t-98.5 40.5t-99 -40.5t-39 -108.5t39 -108.5t99 -40.5t98.5 40.5z M196 640q-51 41 -54 111h98q1 -32 25.5 -51.5t60.5 -19.5t60.5 19.5t25.5 51.5h98q-3 -70 -54 -111t-130 -41t-130 41z" horiz-adv-x="655"/>
<glyph glyph-name="Ohungarumlaut" unicode="Ő" d="M225.5 35q-87.5 47 -137 129.5t-49.5 185.5t49.5 185.5t137 129.5t196.5 47t196 -47t137 -129.5t50 -185.5t-50 -185.5t-137 -129.5t-196 -47t-196.5 47zM534 154.5q50 28.5 78.5 79.5t28.5 116t-28.5 116t-78.5 79.5t-112 28.5t-112 -28.5t-78.5 -79.5t-28.5 -116 t28.5 -116t78.5 -79.5t112 -28.5t112 28.5zM336 901h146l-104 -144h-114zM538 901h146l-104 -144h-114z" horiz-adv-x="844"/>
<glyph glyph-name="ohungarumlaut" unicode="ő" d="M175.5 27.5q-67.5 35.5 -105.5 98.5t-38 143t38 143t105.5 98.5t152.5 35.5t152 -35.5t105 -98.5t38 -143t-38 -143t-105 -98.5t-152 -35.5t-152.5 35.5zM426.5 160.5q38.5 40.5 38.5 108.5t-38.5 108.5t-98.5 40.5t-99 -40.5t-39 -108.5t39 -108.5t99 -40.5t98.5 40.5z M240 751h146l-104 -144h-114zM442 751h146l-104 -144h-114z" horiz-adv-x="655"/>
<glyph glyph-name="OE" unicode="Œ" d="M1090 130v-130h-665q-114 0 -201.5 43.5t-136 122.5t-48.5 183q0 105 48.5 184.5t136 123t201.5 43.5h652v-130h-368v-152h325v-126h-325v-162h381zM548 133v434h-115q-105 0 -167.5 -58.5t-62.5 -159.5q0 -99 62.5 -157.5t167.5 -58.5h115z" horiz-adv-x="1136"/>
<glyph glyph-name="oe" unicode="œ" d="M1029 225h-408q11 -51 52 -79.5t103 -28.5q40 0 72.5 13t61.5 39l84 -90q-38 -43 -95 -65t-128 -22q-74 0 -132.5 24.5t-96.5 68.5q-38 -44 -93 -68.5t-123 -24.5q-84 0 -151 35.5t-105 98.5t-38 143t38 143t105 98.5t151 35.5q68 0 123.5 -24t91.5 -68q36 44 90.5 68 t120.5 24q79 0 142.5 -34t100.5 -97t37 -147q0 -23 -3 -43zM663 398q-36 -30 -44 -82h264q-8 51 -43 81.5t-88 30.5t-89 -30zM426.5 160.5q38.5 40.5 38.5 108.5t-38.5 108.5t-98.5 40.5t-99 -40.5t-39 -108.5t39 -108.5t99 -40.5t98.5 40.5z" horiz-adv-x="1064"/>
<glyph glyph-name="Racute" unicode="Ŕ" d="M529 0l-135 195h-8h-141v-195h-162v700h303q93 0 161.5 -31t105.5 -88t37 -135t-37.5 -134.5t-106.5 -86.5l157 -225h-174zM488 536.5q-38 31.5 -111 31.5h-132v-244h132q73 0 111 32t38 90q0 59 -38 90.5zM419 901h168l-181 -144h-122z" horiz-adv-x="735"/>
<glyph glyph-name="racute" unicode="ŕ" d="M296.5 526q47.5 20 109.5 20v-144q-26 2 -35 2q-67 0 -105 -37.5t-38 -112.5v-254h-156v538h149v-71q28 39 75.5 59zM283 751h168l-181 -144h-122z" horiz-adv-x="431"/>
<glyph glyph-name="Rcommaaccent" unicode="Ŗ" d="M529 0l-135 195h-8h-141v-195h-162v700h303q93 0 161.5 -31t105.5 -88t37 -135t-37.5 -134.5t-106.5 -86.5l157 -225h-174zM488 536.5q-38 31.5 -111 31.5h-132v-244h132q73 0 111 32t38 90q0 59 -38 90.5zM425.5 -89.5q18.5 -16.5 18.5 -43.5q0 -31 -18 -65l-35 -68h-73 l25 80q-18 6 -27.5 19.5t-9.5 33.5q0 27 18.5 43.5t50.5 16.5t50.5 -16.5z" horiz-adv-x="735"/>
<glyph glyph-name="rcommaaccent" unicode="ŗ" d="M296.5 526q47.5 20 109.5 20v-144q-26 2 -35 2q-67 0 -105 -37.5t-38 -112.5v-254h-156v538h149v-71q28 39 75.5 59zM200.5 -89.5q18.5 -16.5 18.5 -43.5q0 -31 -18 -65l-35 -68h-73l25 80q-18 6 -27.5 19.5t-9.5 33.5q0 27 18.5 43.5t50.5 16.5t50.5 -16.5z" horiz-adv-x="431"/>
<glyph glyph-name="Rcaron" unicode="Ř" d="M529 0l-135 195h-8h-141v-195h-162v700h303q93 0 161.5 -31t105.5 -88t37 -135t-37.5 -134.5t-106.5 -86.5l157 -225h-174zM488 536.5q-38 31.5 -111 31.5h-132v-244h132q73 0 111 32t38 90q0 59 -38 90.5zM576 901l-132 -144h-138l-132 144h114l87 -75l87 75h114z" horiz-adv-x="735"/>
<glyph glyph-name="rcaron" unicode="ř" d="M296.5 526q47.5 20 109.5 20v-144q-26 2 -35 2q-67 0 -105 -37.5t-38 -112.5v-254h-156v538h149v-71q28 39 75.5 59zM440 751l-132 -144h-138l-132 144h114l87 -75l87 75h114z" horiz-adv-x="431"/>
<glyph glyph-name="Sacute" unicode="Ś" d="M152.5 10.5q-77.5 22.5 -124.5 58.5l55 122q45 -33 107 -53t124 -20q69 0 102 20.5t33 54.5q0 25 -19.5 41.5t-50 26.5t-82.5 22q-80 19 -131 38t-87.5 61t-36.5 112q0 61 33 110.5t99.5 78.5t162.5 29q67 0 131 -16t112 -46l-50 -123q-97 55 -194 55q-68 0 -100.5 -22 t-32.5 -58t37.5 -53.5t114.5 -34.5q80 -19 131 -38t87.5 -60t36.5 -111q0 -60 -33.5 -109.5t-100.5 -78.5t-163 -29q-83 0 -160.5 22.5zM369 901h168l-181 -144h-122z" horiz-adv-x="638"/>
<glyph glyph-name="sacute" unicode="ś" d="M122 8.5q-64 16.5 -102 41.5l52 112q36 -23 87 -37.5t100 -14.5q99 0 99 49q0 23 -27 33t-83 17q-66 10 -109 23t-74.5 46t-31.5 94q0 51 29.5 90.5t86 61.5t133.5 22q57 0 113.5 -12.5t93.5 -34.5l-52 -111q-71 40 -155 40q-50 0 -75 -14t-25 -36q0 -25 27 -35t86 -19 q66 -11 108 -23.5t73 -45.5t31 -92q0 -50 -30 -89t-87.5 -60.5t-136.5 -21.5q-67 0 -131 16.5zM305 751h168l-181 -144h-122z" horiz-adv-x="531"/>
<glyph glyph-name="Scircumflex" unicode="Ŝ" d="M152.5 10.5q-77.5 22.5 -124.5 58.5l55 122q45 -33 107 -53t124 -20q69 0 102 20.5t33 54.5q0 25 -19.5 41.5t-50 26.5t-82.5 22q-80 19 -131 38t-87.5 61t-36.5 112q0 61 33 110.5t99.5 78.5t162.5 29q67 0 131 -16t112 -46l-50 -123q-97 55 -194 55q-68 0 -100.5 -22 t-32.5 -58t37.5 -53.5t114.5 -34.5q80 -19 131 -38t87.5 -60t36.5 -111q0 -60 -33.5 -109.5t-100.5 -78.5t-163 -29q-83 0 -160.5 22.5zM412 757l-87 76l-87 -76h-114l132 144h138l132 -144h-114z" horiz-adv-x="638"/>
<glyph glyph-name="scircumflex" unicode="ŝ" d="M122 8.5q-64 16.5 -102 41.5l52 112q36 -23 87 -37.5t100 -14.5q99 0 99 49q0 23 -27 33t-83 17q-66 10 -109 23t-74.5 46t-31.5 94q0 51 29.5 90.5t86 61.5t133.5 22q57 0 113.5 -12.5t93.5 -34.5l-52 -111q-71 40 -155 40q-50 0 -75 -14t-25 -36q0 -25 27 -35t86 -19 q66 -11 108 -23.5t73 -45.5t31 -92q0 -50 -30 -89t-87.5 -60.5t-136.5 -21.5q-67 0 -131 16.5zM348 607l-87 76l-87 -76h-114l132 144h138l132 -144h-114z" horiz-adv-x="531"/>
<glyph glyph-name="Scedilla" unicode="Ş" d="M152.5 10.5q-77.5 22.5 -124.5 58.5l55 122q45 -33 107 -53t124 -20q69 0 102 20.5t33 54.5q0 25 -19.5 41.5t-50 26.5t-82.5 22q-80 19 -131 38t-87.5 61t-36.5 112q0 61 33 110.5t99.5 78.5t162.5 29q67 0 131 -16t112 -46l-50 -123q-97 55 -194 55q-68 0 -100.5 -22 t-32.5 -58t37.5 -53.5t114.5 -34.5q80 -19 131 -38t87.5 -60t36.5 -111q0 -60 -33.5 -109.5t-100.5 -78.5t-163 -29q-83 0 -160.5 22.5zM241 -226.5q-25 5.5 -42 15.5l24 67q32 -15 65 -15q52 0 52 32q0 29 -49 29h-34l26 106h83l-14 -58q44 -5 65.5 -27.5t21.5 -55.5 q0 -46 -40 -72.5t-107 -26.5q-26 0 -51 5.5z" horiz-adv-x="638"/>
<glyph glyph-name="scedilla" unicode="ş" d="M122 8.5q-64 16.5 -102 41.5l52 112q36 -23 87 -37.5t100 -14.5q99 0 99 49q0 23 -27 33t-83 17q-66 10 -109 23t-74.5 46t-31.5 94q0 51 29.5 90.5t86 61.5t133.5 22q57 0 113.5 -12.5t93.5 -34.5l-52 -111q-71 40 -155 40q-50 0 -75 -14t-25 -36q0 -25 27 -35t86 -19 q66 -11 108 -23.5t73 -45.5t31 -92q0 -50 -30 -89t-87.5 -60.5t-136.5 -21.5q-67 0 -131 16.5zM177 -226.5q-25 5.5 -42 15.5l24 67q32 -15 65 -15q52 0 52 32q0 29 -49 29h-34l26 106h83l-14 -58q44 -5 65.5 -27.5t21.5 -55.5q0 -46 -40 -72.5t-107 -26.5q-26 0 -51 5.5z " horiz-adv-x="531"/>
<glyph glyph-name="Scaron" unicode="Š" d="M152.5 10.5q-77.5 22.5 -124.5 58.5l55 122q45 -33 107 -53t124 -20q69 0 102 20.5t33 54.5q0 25 -19.5 41.5t-50 26.5t-82.5 22q-80 19 -131 38t-87.5 61t-36.5 112q0 61 33 110.5t99.5 78.5t162.5 29q67 0 131 -16t112 -46l-50 -123q-97 55 -194 55q-68 0 -100.5 -22 t-32.5 -58t37.5 -53.5t114.5 -34.5q80 -19 131 -38t87.5 -60t36.5 -111q0 -60 -33.5 -109.5t-100.5 -78.5t-163 -29q-83 0 -160.5 22.5zM526 901l-132 -144h-138l-132 144h114l87 -75l87 75h114z" horiz-adv-x="638"/>
<glyph glyph-name="scaron" unicode="š" d="M122 8.5q-64 16.5 -102 41.5l52 112q36 -23 87 -37.5t100 -14.5q99 0 99 49q0 23 -27 33t-83 17q-66 10 -109 23t-74.5 46t-31.5 94q0 51 29.5 90.5t86 61.5t133.5 22q57 0 113.5 -12.5t93.5 -34.5l-52 -111q-71 40 -155 40q-50 0 -75 -14t-25 -36q0 -25 27 -35t86 -19 q66 -11 108 -23.5t73 -45.5t31 -92q0 -50 -30 -89t-87.5 -60.5t-136.5 -21.5q-67 0 -131 16.5zM462 751l-132 -144h-138l-132 144h114l87 -75l87 75h114z" horiz-adv-x="531"/>
<glyph glyph-name="uni0162" unicode="Ţ" d="M228 568h-224v132h610v-132h-224v-568h-162v568zM225 -226.5q-25 5.5 -42 15.5l24 67q32 -15 65 -15q52 0 52 32q0 29 -49 29h-34l26 106h83l-14 -58q44 -5 65.5 -27.5t21.5 -55.5q0 -46 -40 -72.5t-107 -26.5q-26 0 -51 5.5z" horiz-adv-x="618"/>
<glyph glyph-name="uni0163" unicode="ţ" d="M419 26q-23 -17 -56.5 -25.5t-70.5 -8.5q-96 0 -148.5 49t-52.5 144v221h-83v120h83v131h156v-131h134v-120h-134v-219q0 -34 17.5 -52.5t49.5 -18.5q37 0 63 20zM179 -226.5q-25 5.5 -42 15.5l24 67q32 -15 65 -15q52 0 52 32q0 29 -49 29h-34l26 106h83l-14 -58 q44 -5 65.5 -27.5t21.5 -55.5q0 -46 -40 -72.5t-107 -26.5q-26 0 -51 5.5z" horiz-adv-x="435"/>
<glyph glyph-name="Tcaron" unicode="Ť" d="M228 568h-224v132h610v-132h-224v-568h-162v568zM510 901l-132 -144h-138l-132 144h114l87 -75l87 75h114z" horiz-adv-x="618"/>
<glyph glyph-name="tcaron" unicode="ť" d="M419 26q-23 -17 -56.5 -25.5t-70.5 -8.5q-96 0 -148.5 49t-52.5 144v221h-83v120h83v131h156v-131h134v-120h-134v-219q0 -34 17.5 -52.5t49.5 -18.5q37 0 63 20zM315 768h111l-16 -186h-95v186z" horiz-adv-x="435"/>
<glyph glyph-name="Tbar" unicode="Ŧ" d="M228 568h-224v132h610v-132h-224v-568h-162v568zM93 382h432v-108h-432v108z" horiz-adv-x="618"/>
<glyph glyph-name="tbar" unicode="ŧ" d="M424 26q-23 -17 -56.5 -25.5t-70.5 -8.5q-96 0 -148.5 49t-52.5 144v221h-83v120h83v131h156v-131h134v-120h-134v-219q0 -34 17.5 -52.5t49.5 -18.5q37 0 63 20zM25 320h349v-90h-349v90z" horiz-adv-x="445"/>
<glyph glyph-name="Utilde" unicode="Ũ" d="M160.5 71q-83.5 83 -83.5 237v392h162v-386q0 -188 156 -188q76 0 116 45.5t40 142.5v386h160v-392q0 -154 -83.5 -237t-233.5 -83t-233.5 83zM422.5 764.5q-20.5 10.5 -45.5 28.5q-16 12 -26.5 18t-20.5 6q-21 0 -34 -14.5t-14 -41.5h-79q2 67 33.5 106.5t83.5 39.5 q26 0 46.5 -10.5t46.5 -29.5q16 -12 26.5 -18t20.5 -6q20 0 33.5 14.5t14.5 39.5h79q-2 -65 -33.5 -104t-83.5 -39q-27 0 -47.5 10.5z" horiz-adv-x="788"/>
<glyph glyph-name="utilde" unicode="ũ" d="M614 538v-538h-148v64q-31 -35 -74 -53.5t-93 -18.5q-106 0 -168 61t-62 181v304h156v-281q0 -130 109 -130q56 0 90 36.5t34 108.5v266h156zM368.5 614.5q-20.5 10.5 -45.5 28.5q-16 12 -26.5 18t-20.5 6q-21 0 -34 -14.5t-14 -41.5h-79q2 67 33.5 106.5t83.5 39.5 q26 0 46.5 -10.5t46.5 -29.5q16 -12 26.5 -18t20.5 -6q20 0 33.5 14.5t14.5 39.5h79q-2 -65 -33.5 -104t-83.5 -39q-27 0 -47.5 10.5z" horiz-adv-x="687"/>
<glyph glyph-name="Umacron" unicode="Ū" d="M160.5 71q-83.5 83 -83.5 237v392h162v-386q0 -188 156 -188q76 0 116 45.5t40 142.5v386h160v-392q0 -154 -83.5 -237t-233.5 -83t-233.5 83zM210 873h370v-88h-370v88z" horiz-adv-x="788"/>
<glyph glyph-name="umacron" unicode="ū" d="M614 538v-538h-148v64q-31 -35 -74 -53.5t-93 -18.5q-106 0 -168 61t-62 181v304h156v-281q0 -130 109 -130q56 0 90 36.5t34 108.5v266h156zM156 723h370v-88h-370v88z" horiz-adv-x="687"/>
<glyph glyph-name="Ubreve" unicode="Ŭ" d="M160.5 71q-83.5 83 -83.5 237v392h162v-386q0 -188 156 -188q76 0 116 45.5t40 142.5v386h160v-392q0 -154 -83.5 -237t-233.5 -83t-233.5 83zM265 790q-51 41 -54 111h98q1 -32 25.5 -51.5t60.5 -19.5t60.5 19.5t25.5 51.5h98q-3 -70 -54 -111t-130 -41t-130 41z" horiz-adv-x="788"/>
<glyph glyph-name="ubreve" unicode="ŭ" d="M614 538v-538h-148v64q-31 -35 -74 -53.5t-93 -18.5q-106 0 -168 61t-62 181v304h156v-281q0 -130 109 -130q56 0 90 36.5t34 108.5v266h156zM211 640q-51 41 -54 111h98q1 -32 25.5 -51.5t60.5 -19.5t60.5 19.5t25.5 51.5h98q-3 -70 -54 -111t-130 -41t-130 41z" horiz-adv-x="687"/>
<glyph glyph-name="Uring" unicode="Ů" d="M160.5 71q-83.5 83 -83.5 237v392h162v-386q0 -188 156 -188q76 0 116 45.5t40 142.5v386h160v-392q0 -154 -83.5 -237t-233.5 -83t-233.5 83zM306.5 789q-35.5 35 -35.5 86t35.5 86t87.5 35q53 0 89 -35t36 -86t-36 -86t-89 -35q-52 0 -87.5 35zM437.5 831.5 q17.5 17.5 17.5 43.5t-17.5 43.5t-43.5 17.5q-25 0 -42.5 -17.5t-17.5 -43.5t17 -43.5t43 -17.5t43.5 17.5z" horiz-adv-x="788"/>
<glyph glyph-name="uring" unicode="ů" d="M614 538v-538h-148v64q-31 -35 -74 -53.5t-93 -18.5q-106 0 -168 61t-62 181v304h156v-281q0 -130 109 -130q56 0 90 36.5t34 108.5v266h156zM252.5 627q-35.5 35 -35.5 86t35.5 86t87.5 35q53 0 89 -35t36 -86t-36 -86t-89 -35q-52 0 -87.5 35zM383.5 669.5 q17.5 17.5 17.5 43.5t-17.5 43.5t-43.5 17.5q-25 0 -42.5 -17.5t-17.5 -43.5t17 -43.5t43 -17.5t43.5 17.5z" horiz-adv-x="687"/>
<glyph glyph-name="Uhungarumlaut" unicode="Ű" d="M160.5 71q-83.5 83 -83.5 237v392h162v-386q0 -188 156 -188q76 0 116 45.5t40 142.5v386h160v-392q0 -154 -83.5 -237t-233.5 -83t-233.5 83zM309 901h146l-104 -144h-114zM511 901h146l-104 -144h-114z" horiz-adv-x="788"/>
<glyph glyph-name="uhungarumlaut" unicode="ű" d="M614 538v-538h-148v64q-31 -35 -74 -53.5t-93 -18.5q-106 0 -168 61t-62 181v304h156v-281q0 -130 109 -130q56 0 90 36.5t34 108.5v266h156zM255 751h146l-104 -144h-114zM457 751h146l-104 -144h-114z" horiz-adv-x="687"/>
<glyph glyph-name="Uogonek" unicode="Ų" d="M711 700v-392q0 -119 -49 -193t-138 -107q-78 -29 -109 -57.5t-31 -57.5q0 -21 15 -33.5t42 -12.5q35 0 60 15l23 -71q-19 -10 -46 -16.5t-55 -6.5q-64 0 -101 30.5t-37 81.5q0 62 59 111q-127 13 -197 95t-70 222v392h162v-386q0 -188 156 -188q76 0 116 45.5t40 142.5 v386h160z" horiz-adv-x="788"/>
<glyph glyph-name="uogonek" unicode="ų" d="M614 538v-538h-148v64q-31 -35 -74 -53.5t-93 -18.5q-106 0 -168 61t-62 181v304h156v-281q0 -130 109 -130q56 0 90 36.5t34 108.5v266h156zM435 -201.5q-37 30.5 -37 81.5q0 49 38.5 91t115.5 70l62 -41q-63 -28 -90 -53.5t-27 -53.5q0 -21 15.5 -33.5t41.5 -12.5 q34 0 61 15l22 -71q-19 -10 -46 -16.5t-55 -6.5q-64 0 -101 30.5z" horiz-adv-x="687"/>
<glyph glyph-name="Wcircumflex" unicode="Ŵ" d="M1141 700l-229 -700h-174l-154 474l-159 -474h-173l-230 700h168l158 -492l165 492h150l160 -496l163 496h155zM669 757l-87 76l-87 -76h-114l132 144h138l132 -144h-114z" horiz-adv-x="1163"/>
<glyph glyph-name="wcircumflex" unicode="ŵ" d="M936 538l-195 -538h-150l-121 334l-125 -334h-150l-194 538h147l127 -364l132 364h132l128 -364l131 364h138zM554 606l-87 76l-87 -76h-114l132 144h138l132 -144h-114z" horiz-adv-x="937"/>
<glyph glyph-name="Ycircumflex" unicode="Ŷ" d="M419 248v-248h-162v250l-271 450h172l187 -311l187 311h159zM425 757l-87 76l-87 -76h-114l132 144h138l132 -144h-114z" horiz-adv-x="676"/>
<glyph glyph-name="ycircumflex" unicode="ŷ" d="M606 538l-243 -571q-37 -93 -91.5 -131t-131.5 -38q-42 0 -83 13t-67 36l57 111q18 -16 41.5 -25t46.5 -9q32 0 52 15.5t36 51.5l2 5l-233 542h161l151 -365l152 365h150zM375 607l-87 76l-87 -76h-114l132 144h138l132 -144h-114z" horiz-adv-x="598"/>
<glyph glyph-name="Ydieresis" unicode="Ÿ" d="M419 248v-248h-162v250l-271 450h172l187 -311l187 311h159zM187 781.5q-20 19.5 -20 49.5t20 49.5t50 19.5t49.5 -19.5t19.5 -49.5t-19.5 -49.5t-49.5 -19.5t-50 19.5zM389.5 781.5q-19.5 19.5 -19.5 49.5t19.5 49.5t49.5 19.5t50 -19.5t20 -49.5t-20 -49.5t-50 -19.5 t-49.5 19.5z" horiz-adv-x="676"/>
<glyph glyph-name="Zacute" unicode="Ź" d="M650 132v-132h-612v105l384 463h-376v132h589v-105l-383 -463h398zM388 901h168l-181 -144h-122z" horiz-adv-x="671"/>
<glyph glyph-name="zacute" unicode="ź" d="M515 120v-120h-480v94l274 324h-267v120h464v-94l-274 -324h283zM319 751h168l-181 -144h-122z" horiz-adv-x="543"/>
<glyph glyph-name="Zdotaccent" unicode="Ż" d="M650 132v-132h-612v105l384 463h-376v132h589v-105l-383 -463h398zM283.5 786q-23.5 24 -23.5 61q0 36 23.5 60t60.5 24t60.5 -24t23.5 -60q0 -37 -23.5 -61t-60.5 -24t-60.5 24z" horiz-adv-x="671"/>
<glyph glyph-name="zdotaccent" unicode="ż" d="M515 120v-120h-480v94l274 324h-267v120h464v-94l-274 -324h283zM214.5 636q-23.5 24 -23.5 61q0 36 23.5 60t60.5 24t60.5 -24t23.5 -60q0 -37 -23.5 -61t-60.5 -24t-60.5 24z" horiz-adv-x="543"/>
<glyph glyph-name="Zcaron" unicode="Ž" d="M650 132v-132h-612v105l384 463h-376v132h589v-105l-383 -463h398zM545 901l-132 -144h-138l-132 144h114l87 -75l87 75h114z" horiz-adv-x="671"/>
<glyph glyph-name="zcaron" unicode="ž" d="M515 120v-120h-480v94l274 324h-267v120h464v-94l-274 -324h283zM476 751l-132 -144h-138l-132 144h114l87 -75l87 75h114z" horiz-adv-x="543"/>
<glyph glyph-name="longs" unicode="ſ" d="M376.5 742.5q31.5 -7.5 52.5 -21.5l-41 -113q-27 19 -63 19q-67 0 -67 -78v-549h-156v406h-83v120h83v24q0 92 55 146t153 54q35 0 66.5 -7.5z" horiz-adv-x="333"/>
<glyph glyph-name="uni018F" unicode="Ə" d="M594 665.5q87 -46.5 135.5 -129t48.5 -185.5q0 -104 -48 -187t-132 -129.5t-189 -46.5q-106 0 -190.5 47t-132 131t-47.5 191v34h573q-8 53 -38 94.5t-76 65t-101 23.5q-56 0 -111 -21.5t-92 -60.5l-97 105q51 52 131 83.5t170 31.5q109 0 196 -46.5zM543.5 161 q52.5 44 66.5 120h-403q14 -77 67 -120.5t135 -43.5t134.5 44z" horiz-adv-x="817"/>
<glyph glyph-name="florin" unicode="ƒ" d="M342.5 606.5q-21.5 -19.5 -26.5 -58.5l-4 -31h138l-14 -120h-133l-50 -399q-11 -92 -70 -146t-153 -54q-38 0 -70 7.5t-53 22.5l53 113q25 -19 62 -19q31 0 51 19.5t24 58.5l50 397h-84l15 120h84l4 33q11 92 70.5 146t156.5 54q34 0 67 -8t53 -22l-54 -113 q-29 19 -61 19q-34 0 -55.5 -19.5z" horiz-adv-x="481"/>
<glyph glyph-name="Ohorn" unicode="Ơ" d="M773.5 498.5q31.5 -68.5 31.5 -148.5q0 -103 -50 -185.5t-137 -129.5t-196 -47t-196.5 47t-137 129.5t-49.5 185.5t50 185.5t139 129.5t201 47q44 0 110 -8q52 -6 73 -6q39 0 60.5 17t21.5 49q0 31 -20 60l92 34q32 -45 32 -100t-29 -92t-82 -52q55 -47 86.5 -115.5z M534 154.5q50 28.5 78.5 79.5t28.5 116t-28.5 116t-78.5 79.5t-112 28.5t-112 -28.5t-78.5 -79.5t-28.5 -116t28.5 -116t78.5 -79.5t112 -28.5t112 28.5z" horiz-adv-x="844"/>
<glyph glyph-name="ohorn" unicode="ơ" d="M601.5 379.5q21.5 -50.5 21.5 -110.5q0 -80 -38 -143t-105 -98.5t-152 -35.5t-152.5 35.5t-105.5 98.5t-38 143t38.5 143t106 98.5t152.5 35.5q20 0 70 -5q34 -4 49 -4q31 0 47.5 18t16.5 47q0 32 -21 60l91 34q34 -46 34 -100q0 -43 -20 -76.5t-56 -52.5 q40 -37 61.5 -87.5zM426 160.5q39 40.5 39 108.5t-38.5 108.5t-98.5 40.5t-99 -40.5t-39 -108.5t39 -108.5t99 -40.5q59 0 98 40.5z" horiz-adv-x="655"/>
<glyph glyph-name="Uhorn" unicode="Ư" d="M160.5 71q-83.5 83 -83.5 237v392h162v-386q0 -188 156 -188q76 0 116 45.5t40 142.5v386h160v-392q0 -154 -83.5 -237t-233.5 -83t-233.5 83zM628 700h27q27 0 43.5 17.5t16.5 45.5q0 35 -20 60l92 34q32 -42 32 -100q0 -75 -44.5 -118t-123.5 -43h-23v104z" horiz-adv-x="801"/>
<glyph glyph-name="uhorn" unicode="ư" d="M614 538v-538h-148v64q-31 -35 -74 -53.5t-93 -18.5q-106 0 -168 61t-62 181v304h156v-281q0 -130 109 -130q56 0 90 36.5t34 108.5v266h156zM514 538h27q27 0 43.5 17.5t16.5 45.5q0 35 -20 60l92 34q32 -42 32 -100q0 -75 -44.5 -118t-123.5 -43h-23v104z" horiz-adv-x="701"/>
<glyph glyph-name="uni01B7" unicode="Ʒ" d="M548 348q53 -53 53 -133q0 -62 -33 -113.5t-101 -82.5t-168 -31q-78 0 -152 19.5t-122 54.5l55 125q42 -31 98.5 -48t115.5 -17q67 0 105 24.5t38 67.5q0 42 -35 65t-107 23h-75v105l156 164h-322v129h511v-105l-170 -179q100 -15 153 -68z" horiz-adv-x="638"/>
<glyph glyph-name="uni01C4" unicode="Ǆ" d="M83 700h318q114 0 201.5 -43.5t136 -122.5t48.5 -184t-48.5 -184t-136 -122.5t-201.5 -43.5h-318v700zM393 133q105 0 167.5 58.5t62.5 158.5t-62.5 158.5t-167.5 58.5h-148v-434h148zM1427 132v-132h-612v105l384 463h-376v132h589v-105l-383 -463h398zM1322 901 l-132 -144h-138l-132 144h114l87 -75l87 75h114z" horiz-adv-x="1449"/>
<glyph glyph-name="uni01C5" unicode="ǅ" d="M83 700h318q114 0 201.5 -43.5t136 -122.5t48.5 -184t-48.5 -184t-136 -122.5t-201.5 -43.5h-318v700zM393 133q105 0 167.5 58.5t62.5 158.5t-62.5 158.5t-167.5 58.5h-148v-434h148zM1341 120v-120h-480v94l274 324h-267v120h464v-94l-274 -324h283zM1302 751 l-132 -144h-138l-132 144h114l87 -75l87 75h114z" horiz-adv-x="1369"/>
<glyph glyph-name="uni01C6" unicode="ǆ" d="M620 742v-742h-149v62q-58 -70 -168 -70q-76 0 -137.5 34t-96.5 97t-35 146t35 146t96.5 97t137.5 34q103 0 161 -65v261h156zM428 160.5q39 40.5 39 108.5t-39 108.5t-98 40.5q-60 0 -99 -40.5t-39 -108.5t39 -108.5t99 -40.5q59 0 98 40.5zM1199 120v-120h-480v94 l274 324h-267v120h464v-94l-274 -324h283zM1160 751l-132 -144h-138l-132 144h114l87 -75l87 75h114z" horiz-adv-x="1233"/>
<glyph glyph-name="uni01C7" unicode="Ǉ" d="M83 700h162v-568h351v-132h-513v700zM685.5 14.5q-59.5 26.5 -97.5 75.5l90 108q57 -77 130 -77q99 0 99 116v333h-246v130h407v-454q0 -129 -64 -193.5t-188 -64.5q-71 0 -130.5 26.5z" horiz-adv-x="1145"/>
<glyph glyph-name="uni01C8" unicode="ǈ" d="M83 700h162v-568h351v-132h-513v700zM511 -172l42 113q27 -19 66 -19q30 0 47 19.5t17 58.5v538h156v-537q0 -94 -53.5 -148.5t-149.5 -54.5q-82 0 -125 30zM691 638q-27 25 -27 62t27 62t70 25t70 -24t27 -60q0 -39 -27 -64.5t-70 -25.5t-70 25z" horiz-adv-x="911"/>
<glyph glyph-name="uni01C9" unicode="ǉ" d="M72 742h156v-742h-156v742zM208 -172l42 113q27 -19 66 -19q30 0 47 19.5t17 58.5v538h156v-537q0 -94 -53.5 -148.5t-149.5 -54.5q-82 0 -125 30zM388 638q-27 25 -27 62t27 62t70 25t70 -24t27 -60q0 -39 -27 -64.5t-70 -25.5t-70 25z" horiz-adv-x="608"/>
<glyph glyph-name="uni01CA" unicode="Ǌ" d="M725 700v-700h-133l-349 425v-425h-160v700h134l348 -425v425h160zM889.5 14.5q-59.5 26.5 -97.5 75.5l90 108q57 -77 130 -77q99 0 99 116v333h-246v130h407v-454q0 -129 -64 -193.5t-188 -64.5q-71 0 -130.5 26.5z" horiz-adv-x="1349"/>
<glyph glyph-name="uni01CB" unicode="ǋ" d="M725 700v-700h-133l-349 425v-425h-160v700h134l348 -425v425h160zM715 -172l42 113q27 -19 66 -19q30 0 47 19.5t17 58.5v538h156v-537q0 -94 -53.5 -148.5t-149.5 -54.5q-82 0 -125 30zM895 638q-27 25 -27 62t27 62t70 25t70 -24t27 -60q0 -39 -27 -64.5t-70 -25.5 t-70 25z" horiz-adv-x="1115"/>
<glyph glyph-name="uni01CC" unicode="ǌ" d="M560.5 486q61.5 -60 61.5 -178v-308h-156v284q0 64 -28 95.5t-81 31.5q-59 0 -94 -36.5t-35 -108.5v-266h-156v538h149v-63q31 34 77 52.5t101 18.5q100 0 161.5 -60zM598 -172l42 113q27 -19 66 -19q30 0 47 19.5t17 58.5v538h156v-537q0 -94 -53.5 -148.5t-149.5 -54.5 q-82 0 -125 30zM778 638q-27 25 -27 62t27 62t70 25t70 -24t27 -60q0 -39 -27 -64.5t-70 -25.5t-70 25z" horiz-adv-x="998"/>
<glyph glyph-name="uni01CD" unicode="Ǎ" d="M544 150h-325l-62 -150h-166l312 700h160l313 -700h-170zM493 273l-111 268l-111 -268h222zM584 901l-132 -144h-138l-132 144h114l87 -75l87 75h114z" horiz-adv-x="766"/>
<glyph glyph-name="uni01CE" unicode="ǎ" d="M481 486.5q67 -59.5 67 -179.5v-307h-146v67q-44 -75 -164 -75q-62 0 -107.5 21t-69.5 58t-24 84q0 75 56.5 118t174.5 43h124q0 51 -31 78.5t-93 27.5q-43 0 -84.5 -13.5t-70.5 -36.5l-56 109q44 31 105.5 48t126.5 17q125 0 192 -59.5zM348 115.5q31 18.5 44 54.5v55 h-107q-96 0 -96 -63q0 -30 23.5 -47.5t64.5 -17.5q40 0 71 18.5zM506 751l-132 -144h-138l-132 144h114l87 -75l87 75h114z" horiz-adv-x="617"/>
<glyph glyph-name="uni01D3" unicode="Ǔ" d="M160.5 71q-83.5 83 -83.5 237v392h162v-386q0 -188 156 -188q76 0 116 45.5t40 142.5v386h160v-392q0 -154 -83.5 -237t-233.5 -83t-233.5 83zM596 901l-132 -144h-138l-132 144h114l87 -75l87 75h114z" horiz-adv-x="788"/>
<glyph glyph-name="uni01D4" unicode="ǔ" d="M614 538v-538h-148v64q-31 -35 -74 -53.5t-93 -18.5q-106 0 -168 61t-62 181v304h156v-281q0 -130 109 -130q56 0 90 36.5t34 108.5v266h156zM542 751l-132 -144h-138l-132 144h114l87 -75l87 75h114z" horiz-adv-x="687"/>
<glyph glyph-name="uni01E4" unicode="Ǥ" d="M556 361h148v-284q-57 -43 -132 -66t-151 -23q-109 0 -196 46.5t-136.5 129t-49.5 186.5t49.5 186.5t137.5 129t198 46.5q92 0 167 -31t126 -90l-104 -96q-75 79 -181 79q-67 0 -119 -28t-81 -79t-29 -117q0 -65 29 -116t80.5 -79.5t117.5 -28.5q70 0 126 30v205z M393.123 304.747h398.408v-107.144h-398.408v107.144z" horiz-adv-x="811"/>
<glyph glyph-name="uni01E5" unicode="ǥ" d="M691 -38h-83q-58 -164 -285 -164q-77 0 -146.5 19.5t-115.5 54.5l62 108q34 -28 86 -44.5t105 -16.5q86 0 125 43h-166v76h197q1 9 1 28v64q-62 -65 -174 -65q-77 0 -137 30.5t-94 85.5t-34 125t34 124t94 84.5t137 30.5q57 0 104 -18.5t78 -55.5v67h148v-448 q0 -27 -3 -51h67v-77zM434 215q39 34 39 91q0 56 -39 90t-102 34t-102.5 -34t-39.5 -90q0 -57 39.5 -91t102.5 -34t102 34z" horiz-adv-x="711"/>
<glyph glyph-name="Gcaron" unicode="Ǧ" d="M556 361h148v-284q-57 -43 -132 -66t-151 -23q-109 0 -196 46.5t-136.5 129t-49.5 186.5t49.5 186.5t137.5 129t198 46.5q92 0 167 -31t126 -90l-104 -96q-75 79 -181 79q-67 0 -119 -28t-81 -79t-29 -117q0 -65 29 -116t80.5 -79.5t117.5 -28.5q70 0 126 30v205z M618 901l-132 -144h-138l-132 144h114l87 -75l87 75h114z" horiz-adv-x="771"/>
<glyph glyph-name="gcaron" unicode="ǧ" d="M627 538v-448q0 -148 -77 -220t-225 -72q-78 0 -148 19t-116 55l62 112q34 -28 86 -44.5t104 -16.5q81 0 119.5 36.5t38.5 110.5v23q-61 -67 -170 -67q-74 0 -135.5 32.5t-97.5 91.5t-36 136t36 136t97.5 91.5t135.5 32.5q117 0 178 -77v69h148zM433.5 190.5 q39.5 36.5 39.5 95.5t-39.5 95.5t-101.5 36.5t-102 -36.5t-40 -95.5t40 -95.5t102 -36.5t101.5 36.5zM542 751l-132 -144h-138l-132 144h114l87 -75l87 75h114z" horiz-adv-x="700"/>
<glyph glyph-name="uni01E8" unicode="Ǩ" d="M338 275l-94 -98v-177h-161v700h161v-327l310 327h180l-290 -312l307 -388h-189zM580 901l-132 -144h-138l-132 144h114l87 -75l87 75h114z" horiz-adv-x="740"/>
<glyph glyph-name="uni01E9" unicode="ǩ" d="M303 211l-75 -74v-137h-156v742h156v-420l228 216h186l-224 -228l244 -310h-189zM351 955l-132 -144h-138l-132 144h114l87 -75l87 75h114z" horiz-adv-x="660"/>
<glyph glyph-name="uni01EA" unicode="Ǫ" d="M438 -44.5q-35 -29.5 -35 -62.5q0 -21 15.5 -33.5t42.5 -12.5q33 0 60 15l23 -71q-19 -10 -46.5 -16.5t-54.5 -6.5q-65 0 -101.5 30.5t-36.5 81.5q0 64 60 112q-95 12 -169 61t-115.5 126t-41.5 171q0 103 50 185.5t137 129.5t196 47t196 -47t137 -129.5t50 -185.5 q0 -85 -34.5 -155.5t-94 -118.5t-134.5 -70q-69 -21 -104 -50.5zM231.5 234q28.5 -51 78.5 -79.5t112 -28.5t112 28.5t78.5 79.5t28.5 116t-28.5 116t-78.5 79.5t-112 28.5t-112 -28.5t-78.5 -79.5t-28.5 -116t28.5 -116z" horiz-adv-x="844"/>
<glyph glyph-name="uni01EB" unicode="ǫ" d="M346.5 -45.5q-28.5 -29.5 -28.5 -60.5q0 -21 15.5 -34t42.5 -13q33 0 60 15l23 -71q-19 -10 -46.5 -16.5t-54.5 -6.5q-65 0 -101.5 30.5t-36.5 80.5q0 68 64 116q-74 9 -131 46t-89 96t-32 132q0 80 38 143t105.5 98.5t152.5 35.5t152 -35.5t105 -98.5t38 -143 q0 -88 -47 -155t-128 -101q-73 -29 -101.5 -58.5zM229 160.5q39 -40.5 99 -40.5t98.5 40.5t38.5 108.5t-38.5 108.5t-98.5 40.5t-99 -40.5t-39 -108.5t39 -108.5z" horiz-adv-x="655"/>
<glyph glyph-name="uni01EE" unicode="Ǯ" d="M548 348q53 -53 53 -133q0 -62 -33 -113.5t-101 -82.5t-168 -31q-78 0 -152 19.5t-122 54.5l55 125q42 -31 98.5 -48t115.5 -17q67 0 105 24.5t38 67.5q0 42 -35 65t-107 23h-75v105l156 164h-322v129h511v-105l-170 -179q100 -15 153 -68zM511 901l-132 -144h-138 l-132 144h114l87 -75l87 75h114z" horiz-adv-x="638"/>
<glyph glyph-name="uni01EF" unicode="ǯ" d="M480 170.5q50 -55.5 50 -139.5q0 -64 -31.5 -117t-96 -84.5t-159.5 -31.5q-75 0 -144.5 20.5t-116.5 57.5l55 125q39 -32 92 -50t108 -18q62 0 97 26t35 72q0 45 -32 70.5t-98 25.5h-74v104l148 178h-303v129h486v-105l-161 -193q95 -14 145 -69.5zM446 751l-132 -144 h-138l-132 144h114l87 -75l87 75h114z" horiz-adv-x="554"/>
<glyph glyph-name="Aringacute" unicode="Ǻ" d="M544 150h-325l-62 -150h-166l312 700h160l313 -700h-170zM493 273l-111 268l-111 -268h222zM490 938q17 -29 17 -63q0 -51 -36 -86t-89 -35q-52 0 -87.5 35t-35.5 86t35.5 86t87.5 35q25 0 52 -10l87 90l77 -60zM425.5 831.5q17.5 17.5 17.5 43.5t-17.5 43.5t-43.5 17.5 q-25 0 -42.5 -17.5t-17.5 -43.5t17 -43.5t43 -17.5t43.5 17.5z" horiz-adv-x="766"/>
<glyph glyph-name="aringacute" unicode="ǻ" d="M481 486.5q67 -59.5 67 -179.5v-307h-146v67q-44 -75 -164 -75q-62 0 -107.5 21t-69.5 58t-24 84q0 75 56.5 118t174.5 43h124q0 51 -31 78.5t-93 27.5q-43 0 -84.5 -13.5t-70.5 -36.5l-56 109q44 31 105.5 48t126.5 17q125 0 192 -59.5zM348 115.5q31 18.5 44 54.5v55 h-107q-96 0 -96 -63q0 -30 23.5 -47.5t64.5 -17.5q40 0 71 18.5zM412 776q17 -29 17 -63q0 -51 -36 -86t-89 -35q-52 0 -87.5 35t-35.5 86t35.5 86t87.5 35q25 0 52 -10l87 90l77 -60zM347.5 669.5q17.5 17.5 17.5 43.5t-17.5 43.5t-43.5 17.5q-25 0 -42.5 -17.5 t-17.5 -43.5t17 -43.5t43 -17.5t43.5 17.5z" horiz-adv-x="617"/>
<glyph glyph-name="AEacute" unicode="Ǽ" d="M1034 130v-130h-542v150h-253l-82 -150h-166l395 700h635v-130h-368v-152h326v-126h-326v-162h381zM492 273v297h-23l-163 -297h186zM616 901h168l-181 -144h-122z" horiz-adv-x="1080"/>
<glyph glyph-name="aeacute" unicode="ǽ" d="M960 226h-408q11 -51 51 -80t102 -29q78 0 136 52l83 -90q-39 -43 -95.5 -65t-126.5 -22q-71 0 -131 23t-102 70q-62 -93 -206 -93q-105 0 -165.5 46t-60.5 123q0 70 57 113t174 43h124q0 50 -31 77.5t-92 27.5q-43 0 -85 -13.5t-71 -36.5l-56 109q44 31 105 48t126 17 q136 0 198 -76q37 36 88 56t110 20q77 0 141 -34t101 -97t37 -144q0 -25 -3 -45zM596 399q-37 -29 -46 -82h262q-8 53 -44.5 82t-85.5 29t-86 -29zM362 125q30 28 30 76v25h-107q-96 0 -96 -62q0 -32 23.5 -49.5t66.5 -17.5q53 0 83 28zM514 751h168l-181 -144h-122z" horiz-adv-x="996"/>
<glyph glyph-name="Oslashacute" unicode="Ǿ" d="M225.5 35q-87.5 47 -137 129.5t-49.5 185.5t49.5 185.5t137 129.5t196.5 47t196 -47t137 -129.5t50 -185.5t-50 -185.5t-137 -129.5t-196 -47t-196.5 47zM534 154.5q50 28.5 78.5 79.5t28.5 116t-28.5 116t-78.5 79.5t-112 28.5t-112 -28.5t-78.5 -79.5t-28.5 -116 t28.5 -116t78.5 -79.5t112 -28.5t112 28.5zM669 770h105l-598 -840h-105zM466 901h168l-181 -144h-122z" horiz-adv-x="844"/>
<glyph glyph-name="oslashacute" unicode="ǿ" d="M175.5 27.5q-67.5 35.5 -105.5 98.5t-38 143t38 143t105.5 98.5t152.5 35.5t152 -35.5t105 -98.5t38 -143t-38 -143t-105 -98.5t-152 -35.5t-152.5 35.5zM426.5 160.5q38.5 40.5 38.5 108.5t-38.5 108.5t-98.5 40.5t-99 -40.5t-39 -108.5t39 -108.5t99 -40.5t98.5 40.5z M507 604h78l-441 -675h-77zM367 751h168l-181 -144h-122z" horiz-adv-x="655"/>
<glyph glyph-name="uni0200" unicode="Ȁ" d="M544 150h-325l-62 -150h-166l312 700h160l313 -700h-170zM493 273l-111 268l-111 -268h222zM121 901h146l72 -144h-114zM323 901h146l72 -144h-114z" horiz-adv-x="766"/>
<glyph glyph-name="uni0201" unicode="ȁ" d="M481 486.5q67 -59.5 67 -179.5v-307h-146v67q-44 -75 -164 -75q-62 0 -107.5 21t-69.5 58t-24 84q0 75 56.5 118t174.5 43h124q0 51 -31 78.5t-93 27.5q-43 0 -84.5 -13.5t-70.5 -36.5l-56 109q44 31 105.5 48t126.5 17q125 0 192 -59.5zM348 115.5q31 18.5 44 54.5v55 h-107q-96 0 -96 -63q0 -30 23.5 -47.5t64.5 -17.5q40 0 71 18.5zM43 751h146l72 -144h-114zM245 751h146l72 -144h-114z" horiz-adv-x="617"/>
<glyph glyph-name="uni0202" unicode="Ȃ" d="M544 150h-325l-62 -150h-166l312 700h160l313 -700h-170zM493 273l-111 268l-111 -268h222zM253 868q51 41 130 41t130 -41t54 -111h-98q-1 32 -25.5 51.5t-60.5 19.5t-60.5 -19.5t-25.5 -51.5h-98q3 70 54 111z" horiz-adv-x="766"/>
<glyph glyph-name="uni0203" unicode="ȃ" d="M481 486.5q67 -59.5 67 -179.5v-307h-146v67q-44 -75 -164 -75q-62 0 -107.5 21t-69.5 58t-24 84q0 75 56.5 118t174.5 43h124q0 51 -31 78.5t-93 27.5q-43 0 -84.5 -13.5t-70.5 -36.5l-56 109q44 31 105.5 48t126.5 17q125 0 192 -59.5zM348 115.5q31 18.5 44 54.5v55 h-107q-96 0 -96 -63q0 -30 23.5 -47.5t64.5 -17.5q40 0 71 18.5zM175 718q51 41 130 41t130 -41t54 -111h-98q-1 32 -25.5 51.5t-60.5 19.5t-60.5 -19.5t-25.5 -51.5h-98q3 70 54 111z" horiz-adv-x="617"/>
<glyph glyph-name="uni0204" unicode="Ȅ" d="M625 130v-130h-542v700h529v-130h-368v-152h325v-126h-325v-162h381zM86 901h146l72 -144h-114zM288 901h146l72 -144h-114z" horiz-adv-x="671"/>
<glyph glyph-name="uni0205" unicode="ȅ" d="M596 225h-407q11 -50 52 -79t102 -29q42 0 74.5 12.5t60.5 39.5l83 -90q-76 -87 -222 -87q-91 0 -161 35.5t-108 98.5t-38 143q0 79 37.5 142.5t103 99t146.5 35.5q79 0 143 -34t100.5 -97.5t36.5 -147.5q0 -3 -3 -42zM231 398q-36 -30 -44 -82h265q-8 51 -44 81.5 t-88 30.5q-53 0 -89 -30zM54 751h146l72 -144h-114zM256 751h146l72 -144h-114z" horiz-adv-x="631"/>
<glyph glyph-name="uni0206" unicode="Ȇ" d="M625 130v-130h-542v700h529v-130h-368v-152h325v-126h-325v-162h381zM218 868q51 41 130 41t130 -41t54 -111h-98q-1 32 -25.5 51.5t-60.5 19.5t-60.5 -19.5t-25.5 -51.5h-98q3 70 54 111z" horiz-adv-x="671"/>
<glyph glyph-name="uni0207" unicode="ȇ" d="M596 225h-407q11 -50 52 -79t102 -29q42 0 74.5 12.5t60.5 39.5l83 -90q-76 -87 -222 -87q-91 0 -161 35.5t-108 98.5t-38 143q0 79 37.5 142.5t103 99t146.5 35.5q79 0 143 -34t100.5 -97.5t36.5 -147.5q0 -3 -3 -42zM231 398q-36 -30 -44 -82h265q-8 51 -44 81.5 t-88 30.5q-53 0 -89 -30zM186 718q51 41 130 41t130 -41t54 -111h-98q-1 32 -25.5 51.5t-60.5 19.5t-60.5 -19.5t-25.5 -51.5h-98q3 70 54 111z" horiz-adv-x="631"/>
<glyph glyph-name="uni0208" unicode="Ȉ" d="M83 700h162v-700h-162v700zM-98 901h146l72 -144h-114zM104 901h146l72 -144h-114z" horiz-adv-x="328"/>
<glyph glyph-name="uni0209" unicode="ȉ" d="M72 538h156v-538h-156v538zM-112 751h146l72 -144h-114zM90 751h146l72 -144h-114z" horiz-adv-x="301"/>
<glyph glyph-name="uni020A" unicode="Ȋ" d="M83 700h162v-700h-162v700zM34 868q51 41 130 41t130 -41t54 -111h-98q-1 32 -25.5 51.5t-60.5 19.5t-60.5 -19.5t-25.5 -51.5h-98q3 70 54 111z" horiz-adv-x="328"/>
<glyph glyph-name="uni020B" unicode="ȋ" d="M72 538h156v-538h-156v538zM36.5 717.5q44.5 41.5 113.5 41.5t113.5 -41.5t45.5 -110.5h-94q0 33 -17 52.5t-48 19.5t-48 -19.5t-17 -52.5h-94q1 69 45.5 110.5z" horiz-adv-x="301"/>
<glyph glyph-name="uni020C" unicode="Ȍ" d="M225.5 35q-87.5 47 -137 129.5t-49.5 185.5t49.5 185.5t137 129.5t196.5 47t196 -47t137 -129.5t50 -185.5t-50 -185.5t-137 -129.5t-196 -47t-196.5 47zM534 154.5q50 28.5 78.5 79.5t28.5 116t-28.5 116t-78.5 79.5t-112 28.5t-112 -28.5t-78.5 -79.5t-28.5 -116 t28.5 -116t78.5 -79.5t112 -28.5t112 28.5zM160 901h146l72 -144h-114zM362 901h146l72 -144h-114z" horiz-adv-x="844"/>
<glyph glyph-name="uni020D" unicode="ȍ" d="M175.5 27.5q-67.5 35.5 -105.5 98.5t-38 143t38 143t105.5 98.5t152.5 35.5t152 -35.5t105 -98.5t38 -143t-38 -143t-105 -98.5t-152 -35.5t-152.5 35.5zM426.5 160.5q38.5 40.5 38.5 108.5t-38.5 108.5t-98.5 40.5t-99 -40.5t-39 -108.5t39 -108.5t99 -40.5t98.5 40.5z M64 751h146l72 -144h-114zM266 751h146l72 -144h-114z" horiz-adv-x="655"/>
<glyph glyph-name="uni020E" unicode="Ȏ" d="M225.5 35q-87.5 47 -137 129.5t-49.5 185.5t49.5 185.5t137 129.5t196.5 47t196 -47t137 -129.5t50 -185.5t-50 -185.5t-137 -129.5t-196 -47t-196.5 47zM534 154.5q50 28.5 78.5 79.5t28.5 116t-28.5 116t-78.5 79.5t-112 28.5t-112 -28.5t-78.5 -79.5t-28.5 -116 t28.5 -116t78.5 -79.5t112 -28.5t112 28.5zM292 868q51 41 130 41t130 -41t54 -111h-98q-1 32 -25.5 51.5t-60.5 19.5t-60.5 -19.5t-25.5 -51.5h-98q3 70 54 111z" horiz-adv-x="844"/>
<glyph glyph-name="uni020F" unicode="ȏ" d="M175.5 27.5q-67.5 35.5 -105.5 98.5t-38 143t38 143t105.5 98.5t152.5 35.5t152 -35.5t105 -98.5t38 -143t-38 -143t-105 -98.5t-152 -35.5t-152.5 35.5zM426.5 160.5q38.5 40.5 38.5 108.5t-38.5 108.5t-98.5 40.5t-99 -40.5t-39 -108.5t39 -108.5t99 -40.5t98.5 40.5z M196 718q51 41 130 41t130 -41t54 -111h-98q-1 32 -25.5 51.5t-60.5 19.5t-60.5 -19.5t-25.5 -51.5h-98q3 70 54 111z" horiz-adv-x="655"/>
<glyph glyph-name="uni0210" unicode="Ȑ" d="M529 0l-135 195h-8h-141v-195h-162v700h303q93 0 161.5 -31t105.5 -88t37 -135t-37.5 -134.5t-106.5 -86.5l157 -225h-174zM488 536.5q-38 31.5 -111 31.5h-132v-244h132q73 0 111 32t38 90q0 59 -38 90.5zM113 901h146l72 -144h-114zM315 901h146l72 -144h-114z" horiz-adv-x="735"/>
<glyph glyph-name="uni0211" unicode="ȑ" d="M296.5 526q47.5 20 109.5 20v-144q-26 2 -35 2q-67 0 -105 -37.5t-38 -112.5v-254h-156v538h149v-71q28 39 75.5 59zM-23 751h146l72 -144h-114zM179 751h146l72 -144h-114z" horiz-adv-x="431"/>
<glyph glyph-name="uni0212" unicode="Ȓ" d="M529 0l-135 195h-8h-141v-195h-162v700h303q93 0 161.5 -31t105.5 -88t37 -135t-37.5 -134.5t-106.5 -86.5l157 -225h-174zM488 536.5q-38 31.5 -111 31.5h-132v-244h132q73 0 111 32t38 90q0 59 -38 90.5zM245 868q51 41 130 41t130 -41t54 -111h-98q-1 32 -25.5 51.5 t-60.5 19.5t-60.5 -19.5t-25.5 -51.5h-98q3 70 54 111z" horiz-adv-x="735"/>
<glyph glyph-name="uni0213" unicode="ȓ" d="M296.5 526q47.5 20 109.5 20v-144q-26 2 -35 2q-67 0 -105 -37.5t-38 -112.5v-254h-156v538h149v-71q28 39 75.5 59zM109 718q51 41 130 41t130 -41t54 -111h-98q-1 32 -25.5 51.5t-60.5 19.5t-60.5 -19.5t-25.5 -51.5h-98q3 70 54 111z" horiz-adv-x="431"/>
<glyph glyph-name="uni0214" unicode="Ȕ" d="M160.5 71q-83.5 83 -83.5 237v392h162v-386q0 -188 156 -188q76 0 116 45.5t40 142.5v386h160v-392q0 -154 -83.5 -237t-233.5 -83t-233.5 83zM133 901h146l72 -144h-114zM335 901h146l72 -144h-114z" horiz-adv-x="788"/>
<glyph glyph-name="uni0215" unicode="ȕ" d="M614 538v-538h-148v64q-31 -35 -74 -53.5t-93 -18.5q-106 0 -168 61t-62 181v304h156v-281q0 -130 109 -130q56 0 90 36.5t34 108.5v266h156zM79 751h146l72 -144h-114zM281 751h146l72 -144h-114z" horiz-adv-x="687"/>
<glyph glyph-name="uni0216" unicode="Ȗ" d="M160.5 71q-83.5 83 -83.5 237v392h162v-386q0 -188 156 -188q76 0 116 45.5t40 142.5v386h160v-392q0 -154 -83.5 -237t-233.5 -83t-233.5 83zM265 868q51 41 130 41t130 -41t54 -111h-98q-1 32 -25.5 51.5t-60.5 19.5t-60.5 -19.5t-25.5 -51.5h-98q3 70 54 111z" horiz-adv-x="788"/>
<glyph glyph-name="uni0217" unicode="ȗ" d="M614 538v-538h-148v64q-31 -35 -74 -53.5t-93 -18.5q-106 0 -168 61t-62 181v304h156v-281q0 -130 109 -130q56 0 90 36.5t34 108.5v266h156zM211 718q51 41 130 41t130 -41t54 -111h-98q-1 32 -25.5 51.5t-60.5 19.5t-60.5 -19.5t-25.5 -51.5h-98q3 70 54 111z" horiz-adv-x="687"/>
<glyph glyph-name="Scommaaccent" unicode="Ș" d="M152.5 10.5q-77.5 22.5 -124.5 58.5l55 122q45 -33 107 -53t124 -20q69 0 102 20.5t33 54.5q0 25 -19.5 41.5t-50 26.5t-82.5 22q-80 19 -131 38t-87.5 61t-36.5 112q0 61 33 110.5t99.5 78.5t162.5 29q67 0 131 -16t112 -46l-50 -123q-97 55 -194 55q-68 0 -100.5 -22 t-32.5 -58t37.5 -53.5t114.5 -34.5q80 -19 131 -38t87.5 -60t36.5 -111q0 -60 -33.5 -109.5t-100.5 -78.5t-163 -29q-83 0 -160.5 22.5zM375.5 -89.5q18.5 -16.5 18.5 -43.5q0 -31 -18 -65l-35 -68h-73l25 80q-18 6 -27.5 19.5t-9.5 33.5q0 27 18.5 43.5t50.5 16.5 t50.5 -16.5z" horiz-adv-x="638"/>
<glyph glyph-name="scommaaccent" unicode="ș" d="M122 8.5q-64 16.5 -102 41.5l52 112q36 -23 87 -37.5t100 -14.5q99 0 99 49q0 23 -27 33t-83 17q-66 10 -109 23t-74.5 46t-31.5 94q0 51 29.5 90.5t86 61.5t133.5 22q57 0 113.5 -12.5t93.5 -34.5l-52 -111q-71 40 -155 40q-50 0 -75 -14t-25 -36q0 -25 27 -35t86 -19 q66 -11 108 -23.5t73 -45.5t31 -92q0 -50 -30 -89t-87.5 -60.5t-136.5 -21.5q-67 0 -131 16.5zM311.5 -89.5q18.5 -16.5 18.5 -43.5q0 -31 -18 -65l-35 -68h-73l25 80q-18 6 -27.5 19.5t-9.5 33.5q0 27 18.5 43.5t50.5 16.5t50.5 -16.5z" horiz-adv-x="531"/>
<glyph glyph-name="uni021A" unicode="Ț" d="M228 568h-224v132h610v-132h-224v-568h-162v568zM359.5 -89.5q18.5 -16.5 18.5 -43.5q0 -31 -18 -65l-35 -68h-73l25 80q-18 6 -27.5 19.5t-9.5 33.5q0 27 18.5 43.5t50.5 16.5t50.5 -16.5z" horiz-adv-x="618"/>
<glyph glyph-name="uni021B" unicode="ț" d="M419 26q-23 -17 -56.5 -25.5t-70.5 -8.5q-96 0 -148.5 49t-52.5 144v221h-83v120h83v131h156v-131h134v-120h-134v-219q0 -34 17.5 -52.5t49.5 -18.5q37 0 63 20zM313.5 -89.5q18.5 -16.5 18.5 -43.5q0 -31 -18 -65l-35 -68h-73l25 80q-18 6 -27.5 19.5t-9.5 33.5 q0 27 18.5 43.5t50.5 16.5t50.5 -16.5z" horiz-adv-x="435"/>
<glyph glyph-name="uni021E" unicode="Ȟ" d="M725 700v-700h-162v287h-318v-287h-162v700h162v-276h318v276h162zM605 901l-132 -144h-138l-132 144h114l87 -75l87 75h114z" horiz-adv-x="808"/>
<glyph glyph-name="uni021F" unicode="ȟ" d="M560.5 486q61.5 -60 61.5 -178v-308h-156v284q0 64 -28 95.5t-81 31.5q-59 0 -94 -36.5t-35 -108.5v-266h-156v742h156v-260q31 31 75 47.5t96 16.5q100 0 161.5 -60zM351 955l-132 -144h-138l-132 144h114l87 -75l87 75h114z" horiz-adv-x="691"/>
<glyph glyph-name="uni022A" unicode="Ȫ" d="M225.5 35q-87.5 47 -137 129.5t-49.5 185.5t49.5 185.5t137 129.5t196.5 47t196 -47t137 -129.5t50 -185.5t-50 -185.5t-137 -129.5t-196 -47t-196.5 47zM534 154.5q50 28.5 78.5 79.5t28.5 116t-28.5 116t-78.5 79.5t-112 28.5t-112 -28.5t-78.5 -79.5t-28.5 -116 t28.5 -116t78.5 -79.5t112 -28.5t112 28.5zM277 780.5q-19 18.5 -19 47.5q0 28 19 47t47 19q29 0 48 -19t19 -47q0 -29 -19 -47.5t-48 -18.5q-28 0 -47 18.5zM473 780.5q-19 18.5 -19 47.5q0 28 19.5 47t46.5 19q28 0 47 -19t19 -47q0 -29 -19 -47.5t-47 -18.5t-47 18.5z M237 1017h370v-83h-370v83z" horiz-adv-x="844"/>
<glyph glyph-name="uni022B" unicode="ȫ" d="M175.5 27.5q-67.5 35.5 -105.5 98.5t-38 143t38 143t105.5 98.5t152.5 35.5t152 -35.5t105 -98.5t38 -143t-38 -143t-105 -98.5t-152 -35.5t-152.5 35.5zM426.5 160.5q38.5 40.5 38.5 108.5t-38.5 108.5t-98.5 40.5t-99 -40.5t-39 -108.5t39 -108.5t99 -40.5t98.5 40.5z M181 630.5q-19 18.5 -19 47.5q0 28 19 47t47 19q29 0 48 -19t19 -47q0 -29 -19 -47.5t-48 -18.5q-28 0 -47 18.5zM377 630.5q-19 18.5 -19 47.5q0 28 19.5 47t46.5 19q28 0 47 -19t19 -47q0 -29 -19 -47.5t-47 -18.5t-47 18.5zM141 867h370v-83h-370v83z" horiz-adv-x="655"/>
<glyph glyph-name="uni022C" unicode="Ȭ" d="M225.5 35q-87.5 47 -137 129.5t-49.5 185.5t49.5 185.5t137 129.5t196.5 47t196 -47t137 -129.5t50 -185.5t-50 -185.5t-137 -129.5t-196 -47t-196.5 47zM534 154.5q50 28.5 78.5 79.5t28.5 116t-28.5 116t-78.5 79.5t-112 28.5t-112 -28.5t-78.5 -79.5t-28.5 -116 t28.5 -116t78.5 -79.5t112 -28.5t112 28.5zM448 763.5q-21 8.5 -46 24.5q-12 7 -23.5 13t-20.5 6q-20 0 -31 -12t-13 -34h-80q1 60 31.5 92.5t84.5 32.5q26 0 44.5 -8t46.5 -24q16 -10 26.5 -15t20.5 -5q20 0 31 12.5t13 32.5h78q-1 -58 -31 -91t-83 -33q-27 0 -48 8.5z M237 1017h370v-83h-370v83z" horiz-adv-x="844"/>
<glyph glyph-name="uni022D" unicode="ȭ" d="M175.5 27.5q-67.5 35.5 -105.5 98.5t-38 143t38 143t105.5 98.5t152.5 35.5t152 -35.5t105 -98.5t38 -143t-38 -143t-105 -98.5t-152 -35.5t-152.5 35.5zM426.5 160.5q38.5 40.5 38.5 108.5t-38.5 108.5t-98.5 40.5t-99 -40.5t-39 -108.5t39 -108.5t99 -40.5t98.5 40.5z M352 613.5q-21 8.5 -46 24.5q-12 7 -23.5 13t-20.5 6q-20 0 -31 -12t-13 -34h-80q1 60 31.5 92.5t84.5 32.5q26 0 44.5 -8t46.5 -24q16 -10 26.5 -15t20.5 -5q20 0 31 12.5t13 32.5h78q-1 -58 -31 -91t-83 -33q-27 0 -48 8.5zM141 867h370v-83h-370v83z" horiz-adv-x="655"/>
<glyph glyph-name="uni0230" unicode="Ȱ" d="M225.5 35q-87.5 47 -137 129.5t-49.5 185.5t49.5 185.5t137 129.5t196.5 47t196 -47t137 -129.5t50 -185.5t-50 -185.5t-137 -129.5t-196 -47t-196.5 47zM534 154.5q50 28.5 78.5 79.5t28.5 116t-28.5 116t-78.5 79.5t-112 28.5t-112 -28.5t-78.5 -79.5t-28.5 -116 t28.5 -116t78.5 -79.5t112 -28.5t112 28.5zM372.5 780q-19.5 19 -19.5 49t19.5 49.5t49.5 19.5t49.5 -19.5t19.5 -49.5t-19.5 -49t-49.5 -19t-49.5 19zM237 1024h370v-83h-370v83z" horiz-adv-x="844"/>
<glyph glyph-name="uni0231" unicode="ȱ" d="M175.5 27.5q-67.5 35.5 -105.5 98.5t-38 143t38 143t105.5 98.5t152.5 35.5t152 -35.5t105 -98.5t38 -143t-38 -143t-105 -98.5t-152 -35.5t-152.5 35.5zM426.5 160.5q38.5 40.5 38.5 108.5t-38.5 108.5t-98.5 40.5t-99 -40.5t-39 -108.5t39 -108.5t99 -40.5t98.5 40.5z M276.5 630q-19.5 19 -19.5 49t19.5 49.5t49.5 19.5t49.5 -19.5t19.5 -49.5t-19.5 -49t-49.5 -19t-49.5 19zM141 874h370v-83h-370v83z" horiz-adv-x="655"/>
<glyph glyph-name="uni0232" unicode="Ȳ" d="M419 248v-248h-162v250l-271 450h172l187 -311l187 311h159zM153 873h370v-88h-370v88z" horiz-adv-x="676"/>
<glyph glyph-name="uni0233" unicode="ȳ" d="M606 538l-243 -571q-37 -93 -91.5 -131t-131.5 -38q-42 0 -83 13t-67 36l57 111q18 -16 41.5 -25t46.5 -9q32 0 52 15.5t36 51.5l2 5l-233 542h161l151 -365l152 365h150zM103 723h370v-88h-370v88z" horiz-adv-x="598"/>
<glyph glyph-name="uni0237" unicode="ȷ" d="M-93 -172l42 113q27 -19 66 -19q30 0 47 19.5t17 58.5v538h156v-537q0 -94 -53.5 -148.5t-149.5 -54.5q-82 0 -125 30z" horiz-adv-x="307"/>
<glyph glyph-name="uni0259" unicode="ə" d="M35 313h407q-11 50 -52 79t-102 29q-42 0 -74.5 -12.5t-60.5 -39.5l-83 90q76 87 222 87q91 0 161 -35.5t108 -98.5t38 -143q0 -79 -37.5 -142.5t-103 -99t-146.5 -35.5q-79 0 -143 34t-100.5 97.5t-36.5 147.5q0 3 3 42zM400 140q36 30 44 82h-265q8 -51 44 -81.5 t88 -30.5q53 0 89 30z" horiz-adv-x="631"/>
<glyph glyph-name="uni0292" unicode="ʒ" d="M480 170.5q50 -55.5 50 -139.5q0 -64 -31.5 -117t-96 -84.5t-159.5 -31.5q-75 0 -144.5 20.5t-116.5 57.5l55 125q39 -32 92 -50t108 -18q62 0 97 26t35 72q0 45 -32 70.5t-98 25.5h-74v104l148 178h-303v129h486v-105l-161 -193q95 -14 145 -69.5z" horiz-adv-x="554"/>
<glyph glyph-name="uni02B9" unicode="ʹ" d="M49 700h133l-11 -284h-112z" horiz-adv-x="230"/>
<glyph glyph-name="uni02BA" unicode="ʺ" d="M49 700h133l-11 -284h-112zM255 700h133l-11 -284h-112z" horiz-adv-x="437"/>
<glyph glyph-name="uni02BB" unicode="ʻ" d="M223 720q14 -22 14 -52q0 -43 -27 -69.5t-69 -26.5t-69.5 27t-27.5 69q0 20 5 40t22 60l58 144h99l-44 -159q25 -11 39 -33z" horiz-adv-x="287"/>
<glyph glyph-name="uni02BC" unicode="ʼ" d="M43 700h102l-22 -262h-82z" horiz-adv-x="187"/>
<glyph glyph-name="uni02BE" unicode="ʾ" d="M299 653q26 0 43.5 17t17.5 43t-17.5 43t-43.5 17v61q54 0 90 -35t36 -86t-36 -86t-90 -35v61z" horiz-adv-x="600"/>
<glyph glyph-name="uni02BF" unicode="ʿ" d="M210 627q-36 35 -36 86t36 86t89 35v-61q-25 0 -42.5 -17t-17.5 -43t17 -43t43 -17v-61q-53 0 -89 35z" horiz-adv-x="600"/>
<glyph glyph-name="circumflex" unicode="ˆ" d="M387 607l-87 76l-87 -76h-114l132 144h138l132 -144h-114z" horiz-adv-x="600"/>
<glyph glyph-name="caron" unicode="ˇ" d="M501 751l-132 -144h-138l-132 144h114l87 -75l87 75h114z" horiz-adv-x="600"/>
<glyph glyph-name="uni02C8" unicode="ˈ" d="M42 700h102v-196h-102v196z" horiz-adv-x="186"/>
<glyph glyph-name="uni02C9" unicode="ˉ" d="M115 723h370v-88h-370v88z" horiz-adv-x="600"/>
<glyph glyph-name="uni02CA" unicode="ˊ" d="M344 751h168l-181 -144h-122z" horiz-adv-x="600"/>
<glyph glyph-name="uni02CB" unicode="ˋ" d="M88 751h168l135 -144h-122z" horiz-adv-x="600"/>
<glyph glyph-name="uni02CC" unicode="ˌ" d="M42 -30h104v-197h-104v197z" horiz-adv-x="188"/>
<glyph glyph-name="breve" unicode="˘" d="M170 640q-51 41 -54 111h98q1 -32 25.5 -51.5t60.5 -19.5t60.5 19.5t25.5 51.5h98q-3 -70 -54 -111t-130 -41t-130 41z" horiz-adv-x="600"/>
<glyph glyph-name="dotaccent" unicode="˙" d="M239.5 636q-23.5 24 -23.5 61q0 36 23.5 60t60.5 24t60.5 -24t23.5 -60q0 -37 -23.5 -61t-60.5 -24t-60.5 24z" horiz-adv-x="600"/>
<glyph glyph-name="ring" unicode="˚" d="M211.5 627q-35.5 35 -35.5 86t35.5 86t87.5 35q53 0 89 -35t36 -86t-36 -86t-89 -35q-52 0 -87.5 35zM342.5 669.5q17.5 17.5 17.5 43.5t-17.5 43.5t-43.5 17.5q-25 0 -42.5 -17.5t-17.5 -43.5t17 -43.5t43 -17.5t43.5 17.5z" horiz-adv-x="600"/>
<glyph glyph-name="ogonek" unicode="˛" d="M122 -201.5q-37 30.5 -37 81.5q0 49 38.5 91t115.5 70l62 -41q-63 -28 -90 -53.5t-27 -53.5q0 -21 15.5 -33.5t41.5 -12.5q34 0 61 15l22 -71q-19 -10 -46 -16.5t-55 -6.5q-64 0 -101 30.5z" horiz-adv-x="600"/>
<glyph glyph-name="tilde" unicode="˜" d="M327.5 614.5q-20.5 10.5 -45.5 28.5q-16 12 -26.5 18t-20.5 6q-21 0 -34 -14.5t-14 -41.5h-79q2 67 33.5 106.5t83.5 39.5q26 0 46.5 -10.5t46.5 -29.5q16 -12 26.5 -18t20.5 -6q20 0 33.5 14.5t14.5 39.5h79q-2 -65 -33.5 -104t-83.5 -39q-27 0 -47.5 10.5z" horiz-adv-x="600"/>
<glyph glyph-name="hungarumlaut" unicode="˝" d="M214 751h146l-104 -144h-114zM416 751h146l-104 -144h-114z" horiz-adv-x="600"/>
<glyph glyph-name="gravecomb" unicode="̀" d="M-512 751h168l135 -144h-122z"/>
<glyph glyph-name="acutecomb" unicode="́" d="M-256 751h168l-181 -144h-122z"/>
<glyph glyph-name="uni0302" unicode="̂" d="M-213 607l-87 76l-87 -76h-114l132 144h138l132 -144h-114z"/>
<glyph glyph-name="tildecomb" unicode="̃" d="M-272.5 614.5q-20.5 10.5 -45.5 28.5q-16 12 -26.5 18t-20.5 6q-21 0 -34 -14.5t-14 -41.5h-79q2 67 33.5 106.5t83.5 39.5q26 0 46.5 -10.5t46.5 -29.5q16 -12 26.5 -18t20.5 -6q20 0 33.5 14.5t14.5 39.5h79q-2 -65 -33.5 -104t-83.5 -39q-27 0 -47.5 10.5z"/>
<glyph glyph-name="uni0304" unicode="̄" d="M-485 723h370v-88h-370v88z"/>
<glyph glyph-name="uni0306" unicode="̆" d="M-430 640q-51 41 -54 111h98q1 -32 25.5 -51.5t60.5 -19.5t60.5 19.5t25.5 51.5h98q-3 -70 -54 -111t-130 -41t-130 41z"/>
<glyph glyph-name="uni0307" unicode="̇" d="M-360.5 636q-23.5 24 -23.5 61q0 36 23.5 60t60.5 24t60.5 -24t23.5 -60q0 -37 -23.5 -61t-60.5 -24t-60.5 24z"/>
<glyph glyph-name="uni0308" unicode="̈" d="M-451 631.5q-20 19.5 -20 49.5t20 49.5t50 19.5t49.5 -19.5t19.5 -49.5t-19.5 -49.5t-49.5 -19.5t-50 19.5zM-248.5 631.5q-19.5 19.5 -19.5 49.5t19.5 49.5t49.5 19.5t50 -19.5t20 -49.5t-20 -49.5t-50 -19.5t-49.5 19.5z"/>
<glyph glyph-name="hookabovecomb" unicode="̉" d="M-319 649q28 13 39.5 28t11.5 33q0 19 -13 30.5t-34 11.5q-30 0 -59 -19l-32 63q43 34 108 34q53 0 86.5 -29.5t33.5 -77.5q0 -84 -92 -126z"/>
<glyph glyph-name="uni030A" unicode="̊" d="M-388.5 627q-35.5 35 -35.5 86t35.5 86t87.5 35q53 0 89 -35t36 -86t-36 -86t-89 -35q-52 0 -87.5 35zM-257.5 669.5q17.5 17.5 17.5 43.5t-17.5 43.5t-43.5 17.5q-25 0 -42.5 -17.5t-17.5 -43.5t17 -43.5t43 -17.5t43.5 17.5z"/>
<glyph glyph-name="uni030B" unicode="̋" d="M-386 751h146l-104 -144h-114zM-184 751h146l-104 -144h-114z"/>
<glyph glyph-name="uni030C" unicode="̌" d="M-99 751l-132 -144h-138l-132 144h114l87 -75l87 75h114z"/>
<glyph glyph-name="uni030F" unicode="̏" d="M-562 751h146l72 -144h-114zM-360 751h146l72 -144h-114z"/>
<glyph glyph-name="uni0311" unicode="̑" d="M-430 718q51 41 130 41t130 -41t54 -111h-98q-1 32 -25.5 51.5t-60.5 19.5t-60.5 -19.5t-25.5 -51.5h-98q3 70 54 111z"/>
<glyph glyph-name="uni0312" unicode="̒" d="M-221 659q0 -28 -20 -44t-59 -16t-59 16.5t-20 43.5q0 25 21 64l45 90h84l-34 -101q42 -12 42 -53z"/>
<glyph glyph-name="uni031B" unicode="̛" d="M-323 538h27q27 0 43.5 17.5t16.5 45.5q0 35 -20 60l92 34q32 -42 32 -100q0 -75 -44.5 -118t-123.5 -43h-23v104z"/>
<glyph glyph-name="dotbelowcomb" unicode="̣" d="M-349.5 -191.5q-19.5 18.5 -19.5 48.5t19.5 50t49.5 20q29 0 49 -20t20 -50t-19.5 -48.5t-49.5 -18.5t-49.5 18.5z"/>
<glyph glyph-name="uni0324" unicode="̤" d="M-442.5 -186q-18.5 18 -18.5 47t19 47.5t46 18.5q28 0 47.5 -18.5t19.5 -47.5t-19.5 -47t-47.5 -18t-46.5 18zM-251.5 -186q-19.5 18 -19.5 47t19.5 47.5t47.5 18.5t47 -18.5t19 -47.5t-19 -47t-47 -18t-47.5 18z"/>
<glyph glyph-name="uni0326" unicode="̦" d="M-249.5 -89.5q18.5 -16.5 18.5 -43.5q0 -31 -18 -65l-35 -68h-73l25 80q-18 6 -27.5 19.5t-9.5 33.5q0 27 18.5 43.5t50.5 16.5t50.5 -16.5z"/>
<glyph glyph-name="uni0327" unicode="̧" d="M-384 -226.5q-25 5.5 -42 15.5l24 67q32 -15 65 -15q52 0 52 32q0 29 -49 29h-34l26 106h83l-14 -58q44 -5 65.5 -27.5t21.5 -55.5q0 -46 -40 -72.5t-107 -26.5q-26 0 -51 5.5z"/>
<glyph glyph-name="uni0328" unicode="̨" d="M-478 -201.5q-37 30.5 -37 81.5q0 49 38.5 91t115.5 70l62 -41q-63 -28 -90 -53.5t-27 -53.5q0 -21 15.5 -33.5t41.5 -12.5q34 0 61 15l22 -71q-19 -10 -46 -16.5t-55 -6.5q-64 0 -101 30.5z"/>
<glyph glyph-name="uni032E" unicode="̮" d="M-429 -177.5q-51 39.5 -55 103.5h93q1 -30 26.5 -48.5t64.5 -18.5t64.5 18.5t26.5 48.5h93q-4 -64 -55 -103.5t-129 -39.5t-129 39.5z"/>
<glyph glyph-name="uni0331" unicode="̱" d="M-485 -95h370v-87h-370v87z"/>
<glyph glyph-name="uni0335" unicode="̵" d="M-506 481h412v-90h-412v90z"/>
<glyph glyph-name="uni0336" unicode="̶" d="M-882 489h832v-108h-832v108z"/>
<glyph glyph-name="uni0337" unicode="̷" d="M-446 310l324 244l57 -80l-323 -242z"/>
<glyph glyph-name="uni0338" unicode="̸" d="M-134 605h78l-441 -675h-77z"/>
<glyph glyph-name="uni0394" unicode="Δ" d="M776 0h-785l312 700h160zM205 132h352l-175 415z" horiz-adv-x="766"/>
<glyph glyph-name="uni03A9" unicode="Ω" d="M9 132h156q-48 45 -74.5 106.5t-26.5 135.5q0 98 49.5 175t136.5 120t194 43t194 -43t137 -120t50 -175q0 -74 -27 -135.5t-75 -106.5h157v-132h-366v123q71 36 109.5 98t38.5 136q0 65 -28 114.5t-77.5 76t-112.5 26.5t-112.5 -26.5t-77.5 -76t-28 -114.5q0 -75 39 -137 t110 -97v-123h-366v132z" horiz-adv-x="889"/>
<glyph glyph-name="uni03BC" unicode="μ" d="M618 538v-538h-141v66q-24 -38 -61.5 -56t-79.5 -18q-65 0 -108 35v-221h-156v732h156v-281q0 -66 28.5 -98t80.5 -32q57 0 91 36.5t34 108.5v266h156z" horiz-adv-x="690"/>
<glyph glyph-name="pi" unicode="π" d="M717 422h-127v-422h-140v422h-94l-47 -422h-140l47 422h-27q-36 0 -56 -16.5t-20 -48.5q0 -30 24 -71l-111 -36q-19 27 -30 64t-11 69q0 44 23.5 79.5t65 55.5t95.5 20h548v-116z" horiz-adv-x="728"/>
<glyph glyph-name="uni0400" unicode="Ѐ" d="M629 130v-130h-542v700h529v-130h-368v-152h325v-126h-325v-162h381zM140 901h168l135 -144h-122z" horiz-adv-x="673"/>
<glyph glyph-name="uni0401" unicode="Ё" d="M629 130v-130h-542v700h529v-130h-368v-152h325v-126h-325v-162h381zM201 781.5q-20 19.5 -20 49.5t20 49.5t50 19.5t49.5 -19.5t19.5 -49.5t-19.5 -49.5t-49.5 -19.5t-50 19.5zM403.5 781.5q-19.5 19.5 -19.5 49.5t19.5 49.5t49.5 19.5t50 -19.5t20 -49.5t-20 -49.5 t-50 -19.5t-49.5 19.5z" horiz-adv-x="673"/>
<glyph glyph-name="uni0402" unicode="Ђ" d="M570 435q118 0 184.5 -58t66.5 -165q0 -110 -68.5 -164.5t-175.5 -54.5q-39 0 -84 8l17 127q21 -6 46 -6q43 0 73.5 21.5t30.5 65.5q0 46 -34.5 71t-91.5 25q-63 0 -135 -31v-274h-160v568h-224v132h637v-132h-253v-159q90 26 171 26z" horiz-adv-x="849"/>
<glyph glyph-name="uni0403" unicode="Ѓ" d="M580 568h-333l1 -568h-161v700h494zM369 901h168l-181 -144h-122z" horiz-adv-x="593"/>
<glyph glyph-name="uni0404" unicode="Є" d="M216.5 34.5q-82.5 46.5 -129.5 129t-47 186.5t47 186.5t129.5 129t186.5 46.5q93 0 167.5 -32t124.5 -93l-103 -96q-74 83 -181 83q-77 0 -130.5 -45t-69.5 -121h284v-124h-282q17 -72 70 -115t128 -43q107 0 181 83l103 -96q-50 -61 -124.5 -93t-167.5 -32 q-104 0 -186.5 46.5z" horiz-adv-x="715"/>
<glyph glyph-name="uni0405" unicode="Ѕ" d="M161.5 10.5q-77.5 22.5 -124.5 58.5l55 122q45 -33 107 -53t124 -20q69 0 102 20.5t33 54.5q0 25 -19.5 41.5t-50 26.5t-82.5 22q-80 19 -131 38t-87.5 61t-36.5 112q0 61 33 110.5t99.5 78.5t162.5 29q67 0 131 -16t112 -46l-50 -123q-97 55 -194 55q-68 0 -100.5 -22 t-32.5 -58t37.5 -53.5t114.5 -34.5q80 -19 131 -38t87.5 -60t36.5 -111q0 -60 -33.5 -109.5t-100.5 -78.5t-163 -29q-83 0 -160.5 22.5z" horiz-adv-x="653"/>
<glyph glyph-name="uni0406" unicode="І" d="M87 700h161v-700h-161v700z" horiz-adv-x="335"/>
<glyph glyph-name="uni0407" unicode="Ї" d="M83 700h162v-700h-162v700zM13 781.5q-20 19.5 -20 49.5t20 49.5t50 19.5t49.5 -19.5t19.5 -49.5t-19.5 -49.5t-49.5 -19.5t-50 19.5zM215.5 781.5q-19.5 19.5 -19.5 49.5t19.5 49.5t49.5 19.5t50 -19.5t20 -49.5t-20 -49.5t-50 -19.5t-49.5 19.5z" horiz-adv-x="328"/>
<glyph glyph-name="uni0408" unicode="Ј" d="M109.5 14.5q-59.5 26.5 -97.5 75.5l90 108q57 -77 130 -77q99 0 99 116v333h-246v130h407v-454q0 -129 -64 -193.5t-188 -64.5q-71 0 -130.5 26.5z" horiz-adv-x="568"/>
<glyph glyph-name="uni0409" unicode="Љ" d="M711 700v-700h-160v568h-240l-5 -146q-5 -149 -24 -241.5t-63.5 -142t-124.5 -49.5q-33 0 -80 11l10 137q13 -4 29 -4q58 0 81 68.5t29 214.5l10 284h538zM1086.5 413q68.5 -57 68.5 -169q0 -119 -75.5 -181.5t-212.5 -62.5h-316v700h161v-230h178q128 0 196.5 -57z M956.5 151q35.5 31 35.5 90q0 109 -134 109h-146v-230h146q63 0 98.5 31z" horiz-adv-x="1185"/>
<glyph glyph-name="uni040A" unicode="Њ" d="M1077.5 386q65.5 -56 65.5 -158q0 -108 -71 -168t-197 -60h-320v305h-307v-305h-161v700h161v-263h307v263h160v-258h177q120 0 185.5 -56zM947 146.5q32 26.5 32 75.5t-31.5 74.5t-90.5 25.5h-142v-202h142q58 0 90 26.5z" horiz-adv-x="1171"/>
<glyph glyph-name="uni040B" unicode="Ћ" d="M752 363q67 -63 67 -188v-175h-160v154q0 67 -34.5 101t-95.5 34q-60 0 -131 -32v-257h-160v568h-223v132h629v-132h-246v-170q90 28 169 28q118 0 185 -63z" horiz-adv-x="857"/>
<glyph glyph-name="uni040C" unicode="Ќ" d="M358 282h-112v-282h-161v700h161v-283h116l184 283h171l-229 -338l236 -362h-184zM419 901h168l-181 -144h-122z" horiz-adv-x="735"/>
<glyph glyph-name="uni040D" unicode="Ѝ" d="M87 700h161v-456l334 456h152v-700h-160v455l-334 -455h-153v700zM198 901h168l135 -144h-122z" horiz-adv-x="821"/>
<glyph glyph-name="uni040E" unicode="Ў" d="M719 700l-298 -554q-43 -80 -103.5 -121t-131.5 -41q-55 0 -114 24l39 123q42 -13 70 -13q30 0 54 14.5t44 45.5l6 8l-276 514h173l186 -376l192 376h159zM165 898h111q2 -73 83 -73q40 0 61 18.5t22 54.5h111q-1 -75 -49 -114t-145 -39q-192 0 -194 153z" horiz-adv-x="724"/>
<glyph glyph-name="uni040F" unicode="Џ" d="M721 0h-242v-148h-150v148h-242v700h161v-568h312v568h161v-700z" horiz-adv-x="808"/>
<glyph glyph-name="uni0410" unicode="А" d="M561 150h-325l-62 -150h-166l312 700h160l313 -700h-170zM510 273l-111 268l-111 -268h222z" horiz-adv-x="799"/>
<glyph glyph-name="uni0411" unicode="Б" d="M87 700h565v-129h-404v-144h194q127 0 193.5 -53t66.5 -153q0 -105 -74 -163t-209 -58h-332v700zM410 120q62 0 95 24.5t33 71.5q0 92 -128 92h-162v-188h162z" horiz-adv-x="738"/>
<glyph glyph-name="uni0412" unicode="В" d="M670 303q34 -43 34 -106q0 -93 -70.5 -145t-201.5 -52h-345v700h326q122 0 190 -47t68 -134q0 -52 -26 -91.5t-73 -62.5q64 -19 98 -62zM248 410h151q53 0 80 21.5t27 63.5q0 41 -27.5 63t-79.5 22h-151v-170zM540 210q0 87 -114 87h-178v-177h178q114 0 114 90z" horiz-adv-x="745"/>
<glyph glyph-name="uni0413" unicode="Г" d="M580 568h-333l1 -568h-161v700h494z" horiz-adv-x="593"/>
<glyph glyph-name="uni0414" unicode="Д" d="M809 132v-277h-150v145h-494v-145h-150l1 277h28q63 2 89 92t32 257l8 219h538v-568h98zM287 256.5q-16 -84.5 -49 -124.5h313v436h-240l-3 -102q-5 -125 -21 -209.5z" horiz-adv-x="831"/>
<glyph glyph-name="uni0415" unicode="Е" d="M629 130v-130h-542v700h529v-130h-368v-152h325v-126h-325v-162h381z" horiz-adv-x="673"/>
<glyph glyph-name="uni0416" unicode="Ж" d="M722 282h-102v-282h-159v282h-104l-157 -282h-187l210 366l-197 334h171l157 -283h107v283h159v-283h104l158 283h171l-196 -334l209 -366h-187z" horiz-adv-x="1079"/>
<glyph glyph-name="uni0417" unicode="З" d="M580.5 299.5q34.5 -44.5 34.5 -103.5q0 -64 -42 -111t-113.5 -72t-156.5 -25q-72 0 -143.5 18t-135.5 55l50 116q46 -28 101.5 -42.5t108.5 -14.5q72 0 119.5 26t47.5 73q0 39 -32.5 59t-88.5 20h-171v122h159q49 0 76.5 20t27.5 55q0 41 -39.5 64t-101.5 23 q-46 0 -95 -12.5t-93 -37.5l-49 126q111 57 240 57q82 0 151 -24t110 -70t41 -107q0 -50 -27 -89t-74 -60q61 -21 95.5 -65.5z" horiz-adv-x="656"/>
<glyph glyph-name="uni0418" unicode="И" d="M87 700h161v-456l334 456h152v-700h-160v455l-334 -455h-153v700z" horiz-adv-x="821"/>
<glyph glyph-name="uni0419" unicode="Й" d="M87 700h161v-456l334 456h152v-700h-160v455l-334 -455h-153v700zM216 898h111q2 -73 83 -73q40 0 61 18.5t22 54.5h111q-1 -75 -49 -114t-145 -39q-192 0 -194 153z" horiz-adv-x="821"/>
<glyph glyph-name="uni041A" unicode="К" d="M358 282h-112v-282h-161v700h161v-283h116l184 283h171l-229 -338l236 -362h-184z" horiz-adv-x="735"/>
<glyph glyph-name="uni041B" unicode="Л" d="M711 700v-700h-160v568h-240l-5 -146q-5 -149 -24 -241.5t-63.5 -142t-124.5 -49.5q-33 0 -80 11l10 137q13 -4 29 -4q58 0 81 68.5t29 214.5l10 284h538z" horiz-adv-x="799"/>
<glyph glyph-name="uni041C" unicode="М" d="M724 0l-1 419l-206 -345h-72l-206 337v-411h-152v700h134l262 -435l258 435h134l1 -700h-152z" horiz-adv-x="963"/>
<glyph glyph-name="uni041D" unicode="Н" d="M729 700v-700h-162v287h-318v-287h-162v700h162v-276h318v276h162z" horiz-adv-x="817"/>
<glyph glyph-name="uni041E" unicode="О" d="M224.5 35q-87.5 47 -137 129.5t-49.5 185.5t49.5 185.5t137 129.5t196.5 47t196 -47t137 -129.5t50 -185.5t-50 -185.5t-137 -129.5t-196 -47t-196.5 47zM533 154.5q50 28.5 78.5 79.5t28.5 116t-28.5 116t-78.5 79.5t-112 28.5t-112 -28.5t-78.5 -79.5t-28.5 -116 t28.5 -116t78.5 -79.5t112 -28.5t112 28.5z" horiz-adv-x="842"/>
<glyph glyph-name="uni041F" unicode="П" d="M725 700v-700h-161v568h-316v-568h-161v700h638z" horiz-adv-x="812"/>
<glyph glyph-name="uni0420" unicode="Р" d="M551.5 669q68.5 -31 105.5 -88t37 -135q0 -77 -37 -134.5t-105.5 -88t-161.5 -30.5h-141v-193h-162v700h303q93 0 161.5 -31zM492 356.5q38 31.5 38 89.5q0 59 -38 90.5t-111 31.5h-132v-243h132q73 0 111 31.5z" horiz-adv-x="724"/>
<glyph glyph-name="uni0421" unicode="С" d="M224.5 34.5q-86.5 46.5 -136 129t-49.5 186.5t49.5 186.5t136 129t194.5 46.5q91 0 164.5 -32t123.5 -92l-104 -96q-71 82 -176 82q-65 0 -116 -28.5t-79.5 -79.5t-28.5 -116t28.5 -116t79.5 -79.5t116 -28.5q105 0 176 83l104 -96q-50 -61 -124 -93t-165 -32 q-107 0 -193.5 46.5z" horiz-adv-x="726"/>
<glyph glyph-name="uni0422" unicode="Т" d="M622 568h-224v-568h-160v568h-223v132h607v-132z" horiz-adv-x="637"/>
<glyph glyph-name="uni0423" unicode="У" d="M719 700l-298 -554q-43 -80 -103.5 -121t-131.5 -41q-55 0 -114 24l39 123q42 -13 70 -13q30 0 54 14.5t44 45.5l6 8l-276 514h173l186 -376l192 376h159z" horiz-adv-x="724"/>
<glyph glyph-name="uni0424" unicode="Ф" d="M821.5 133.5q-94.5 -79.5 -271.5 -88.5v-76h-149v77q-178 10 -272.5 89.5t-94.5 216.5q0 138 94.5 216.5t272.5 89.5v72h149v-71q177 -10 271.5 -90t94.5 -217q0 -139 -94.5 -218.5zM708 226.5q52 44.5 52 126.5q0 160 -210 178v-359q106 10 158 54.5zM401 172v359 q-107 -10 -158.5 -53.5t-51.5 -125.5q0 -158 210 -180z" horiz-adv-x="950"/>
<glyph glyph-name="uni0425" unicode="Х" d="M213 700l145 -212l145 212h190l-233 -335l252 -365h-191l-163 232l-161 -232h-187l250 358l-234 342h187z" horiz-adv-x="722"/>
<glyph glyph-name="uni0426" unicode="Ц" d="M821 132v-280h-149v148h-585v700h161v-568h312v568h161v-568h100z" horiz-adv-x="841"/>
<glyph glyph-name="uni0427" unicode="Ч" d="M662 700v-700h-160v252q-91 -33 -169 -33q-141 0 -216 67.5t-75 194.5v219h160v-201q0 -72 38.5 -108.5t111.5 -36.5q80 0 150 31v315h160z" horiz-adv-x="749"/>
<glyph glyph-name="uni0428" unicode="Ш" d="M1011 700v-700h-924v700h161v-568h221v568h161v-568h220v568h161z" horiz-adv-x="1098"/>
<glyph glyph-name="uni0429" unicode="Щ" d="M1011 700v-700h-924v700h161v-568h221v568h161v-568h220v568h161zM1106 132v-277h-150v145h-109v132h259z" horiz-adv-x="1130"/>
<glyph glyph-name="uni042A" unicode="Ъ" d="M747 413q68 -57 68 -169q0 -119 -75.5 -181.5t-212.5 -62.5h-315v568h-197v132h357v-230h179q128 0 196 -57zM617 151q35 31 35 90q0 109 -134 109h-146v-230h146q64 0 99 31z" horiz-adv-x="845"/>
<glyph glyph-name="uni042B" unicode="Ы" d="M622.5 413q68.5 -57 68.5 -169q0 -119 -75.5 -181.5t-212.5 -62.5h-316v700h161v-230h178q128 0 196.5 -57zM492.5 151q35.5 31 35.5 90q0 109 -134 109h-146v-230h146q63 0 98.5 31zM780 700h161v-700h-161v700z" horiz-adv-x="1028"/>
<glyph glyph-name="uni042C" unicode="Ь" d="M622.5 413q68.5 -57 68.5 -169q0 -119 -75.5 -181.5t-212.5 -62.5h-316v700h161v-230h178q128 0 196.5 -57zM492.5 151q35.5 31 35.5 90q0 109 -134 109h-146v-230h146q63 0 98.5 31z" horiz-adv-x="721"/>
<glyph glyph-name="uni042D" unicode="Э" d="M497.5 665.5q82.5 -46.5 129.5 -129t47 -186.5t-47 -186.5t-129.5 -129t-186.5 -46.5q-93 0 -167.5 32t-124.5 93l103 96q74 -83 181 -83q77 0 130.5 45t69.5 121h-284v124h282q-17 72 -70 115t-128 43q-107 0 -181 -83l-103 96q50 61 124.5 93t167.5 32 q104 0 186.5 -46.5z" horiz-adv-x="714"/>
<glyph glyph-name="uni042E" unicode="Ю" d="M894.5 665q84.5 -47 132.5 -129.5t48 -185.5t-48 -185.5t-132.5 -129.5t-189.5 -47q-94 0 -172 37.5t-128.5 105t-64.5 154.5h-92v-285h-161v700h161v-275h94q16 84 66.5 149.5t127.5 101.5t169 36q105 0 189.5 -47zM810 154q47 28 74 79t27 117t-27 117t-74 79t-105 28 t-105 -28t-74 -79t-27 -117t27 -117t74 -79t105 -28t105 28z" horiz-adv-x="1114"/>
<glyph glyph-name="uni042F" unicode="Я" d="M646 700v-700h-160v186h-148l-124 -186h-171l146 211q-71 29 -109 87.5t-38 140.5q0 81 37 139.5t105 90t160 31.5h302zM242.5 536q-36.5 -32 -36.5 -95q0 -61 35 -94t103 -33h142v254h-138q-69 0 -105.5 -32z" horiz-adv-x="734"/>
<glyph glyph-name="uni0430" unicode="а" d="M476 486.5q67 -59.5 67 -179.5v-307h-146v67q-44 -75 -164 -75q-62 0 -107.5 21t-69.5 58t-24 84q0 75 56.5 118t174.5 43h124q0 51 -31 78.5t-93 27.5q-43 0 -84.5 -13.5t-70.5 -36.5l-56 109q44 31 105.5 48t126.5 17q125 0 192 -59.5zM343 115.5q31 18.5 44 54.5v55 h-107q-96 0 -96 -63q0 -30 23.5 -47.5t64.5 -17.5q40 0 71 18.5z" horiz-adv-x="604"/>
<glyph glyph-name="uni0431" unicode="б" d="M521 469.5q58 -31.5 89.5 -88.5t31.5 -132q0 -77 -37.5 -136.5t-104.5 -92t-152 -32.5q-141 0 -221.5 90.5t-80.5 265.5q0 162 70.5 258.5t216.5 126.5l256 51l21 -134l-226 -45q-92 -18 -136.5 -60t-52.5 -119q35 38 84 58.5t107 20.5q77 0 135 -31.5zM445.5 148 q36.5 39 36.5 99q0 61 -36.5 97t-96.5 36q-61 0 -98 -36t-37 -97t38 -99.5t97 -38.5q60 0 96.5 39z" horiz-adv-x="673"/>
<glyph glyph-name="uni0432" unicode="в" d="M581 153q0 -73 -55 -113t-164 -40h-287v538h275q101 0 158 -36.5t57 -102.5q0 -40 -20.5 -70.5t-58.5 -47.5q95 -32 95 -128zM218 317h118q82 0 82 58q0 57 -82 57h-118v-115zM435 165q0 31 -20 45.5t-63 14.5h-134v-119h131q86 0 86 59z" horiz-adv-x="622"/>
<glyph glyph-name="uni0433" unicode="г" d="M506 410h-276v-410h-155v538h431v-128z" horiz-adv-x="514"/>
<glyph glyph-name="uni0434" unicode="д" d="M678 128v-244h-145v116h-378v-116h-145v244h22q50 1 69 59t24 165l7 186h469v-410h77zM253.5 207q-9.5 -52 -35.5 -79h227v282h-176l-3 -69q-3 -82 -12.5 -134z" horiz-adv-x="701"/>
<glyph glyph-name="uni0435" unicode="е" d="M595 225h-407q11 -50 52 -79t102 -29q42 0 74.5 12.5t60.5 39.5l83 -90q-76 -87 -222 -87q-91 0 -161 35.5t-108 98.5t-38 143q0 79 37.5 142.5t103 99t146.5 35.5q79 0 143 -34t100.5 -97.5t36.5 -147.5q0 -3 -3 -42zM230 398q-36 -30 -44 -82h265q-8 51 -44 81.5 t-88 30.5q-53 0 -89 -30z" horiz-adv-x="643"/>
<glyph glyph-name="uni0436" unicode="ж" d="M608 204h-75v-204h-154v204h-75l-114 -204h-184l169 278l-157 260h165l119 -209h77v209h154v-209h76l120 209h165l-157 -260l170 -278h-185z" horiz-adv-x="913"/>
<glyph glyph-name="uni0437" unicode="з" d="M498.5 234q26.5 -31 26.5 -74q0 -51 -35 -89.5t-96 -59.5t-138 -21q-63 0 -124 13t-113 39l42 109q85 -41 188 -41q55 0 86.5 16.5t31.5 46.5q0 26 -22 39.5t-64 13.5h-110v97h96q41 0 63 13t22 38q0 26 -27.5 40t-78.5 14q-78 0 -170 -37l-38 108q112 49 218 49 q73 0 130.5 -18t90.5 -52.5t33 -80.5q0 -38 -23 -68.5t-63 -48.5q48 -15 74.5 -46z" horiz-adv-x="563"/>
<glyph glyph-name="uni0438" unicode="и" d="M75 538h155v-320l262 320h143v-538h-155v320l-261 -320h-144v538z" horiz-adv-x="710"/>
<glyph glyph-name="uni0439" unicode="й" d="M75 538h155v-320l262 320h143v-538h-155v320l-261 -320h-144v538zM168 751h102q1 -35 19.5 -54.5t54.5 -19.5t55.5 19.5t19.5 54.5h104q-1 -155 -178 -155q-176 0 -177 155z" horiz-adv-x="710"/>
<glyph glyph-name="uni043A" unicode="к" d="M312 204h-81v-204h-156v538h156v-209h84l146 209h166l-188 -258l201 -280h-184z" horiz-adv-x="642"/>
<glyph glyph-name="uni043B" unicode="л" d="M591 538v-538h-156v410h-170l-5 -95q-4 -106 -20 -176t-52 -110t-100 -40q-34 0 -81 12l8 128q16 -2 23 -2q35 0 52.5 25.5t23.5 65t9 104.5l8 216h460z" horiz-adv-x="666"/>
<glyph glyph-name="uni043C" unicode="м" d="M600 0v322l-161 -270h-66l-157 271v-323h-141v538h163l172 -311l183 311h146l2 -538h-141z" horiz-adv-x="815"/>
<glyph glyph-name="uni043D" unicode="н" d="M75 538h155v-210h234v210h156v-538h-156v201h-234v-201h-155v538z" horiz-adv-x="694"/>
<glyph glyph-name="uni043E" unicode="о" d="M174.5 27.5q-67.5 35.5 -105.5 98.5t-38 143t38 143t105.5 98.5t152.5 35.5t152 -35.5t105 -98.5t38 -143t-38 -143t-105 -98.5t-152 -35.5t-152.5 35.5zM425.5 160.5q38.5 40.5 38.5 108.5t-38.5 108.5t-98.5 40.5t-99 -40.5t-39 -108.5t39 -108.5t99 -40.5t98.5 40.5z " horiz-adv-x="654"/>
<glyph glyph-name="uni043F" unicode="п" d="M610 538v-538h-156v410h-224v-410h-155v538h535z" horiz-adv-x="685"/>
<glyph glyph-name="uni0440" unicode="р" d="M528.5 511.5q61.5 -34.5 96.5 -97t35 -145.5t-35 -145.5t-96.5 -97t-136.5 -34.5q-103 0 -162 65v-251h-156v732h149v-62q58 70 169 70q75 0 136.5 -34.5zM463.5 160.5q38.5 40.5 38.5 108.5t-38.5 108.5t-98.5 40.5t-98.5 -40.5t-38.5 -108.5t38.5 -108.5t98.5 -40.5 t98.5 40.5z" horiz-adv-x="694"/>
<glyph glyph-name="uni0441" unicode="с" d="M176.5 27.5q-68.5 35.5 -107 98.5t-38.5 143t38.5 143t107 98.5t154.5 35.5q85 0 148.5 -35.5t92.5 -101.5l-121 -65q-42 74 -121 74q-61 0 -101 -40t-40 -109t40 -109t101 -40q80 0 121 74l121 -66q-29 -64 -92.5 -100t-148.5 -36q-86 0 -154.5 35.5z" horiz-adv-x="592"/>
<glyph glyph-name="uni0442" unicode="т" d="M527 410h-182v-410h-155v410h-182v128h519v-128z" horiz-adv-x="535"/>
<glyph glyph-name="uni0443" unicode="у" d="M614 538l-243 -571q-37 -93 -91.5 -131t-131.5 -38q-42 0 -83 13t-67 36l57 111q18 -16 41.5 -25t46.5 -9q32 0 52 15.5t36 51.5l2 5l-233 542h161l151 -365l152 365h150z" horiz-adv-x="614"/>
<glyph glyph-name="uni0444" unicode="ф" d="M734.5 73.5q-83.5 -72.5 -238.5 -83.5v-184h-143v184q-155 11 -238.5 82.5t-83.5 198.5q0 125 82.5 194t239.5 80v197h143v-197q155 -11 238.5 -81t83.5 -193q0 -125 -83.5 -197.5zM223 160q41 -39 130 -49v313q-89 -9 -130 -46.5t-41 -106.5q0 -72 41 -111zM626.5 160 q41.5 39 41.5 111q0 69 -41.5 106.5t-130.5 46.5v-313q89 10 130.5 49z" horiz-adv-x="849"/>
<glyph glyph-name="uni0445" unicode="х" d="M413 0l-118 165l-122 -165h-170l207 271l-200 267h175l114 -157l117 157h166l-200 -263l208 -275h-177z" horiz-adv-x="592"/>
<glyph glyph-name="uni0446" unicode="ц" d="M681 128v-246h-145v118h-461v538h155v-410h217v410h156v-410h78z" horiz-adv-x="704"/>
<glyph glyph-name="uni0447" unicode="ч" d="M559 538v-538h-156v200q-68 -34 -150 -34q-109 0 -164.5 49.5t-55.5 153.5v169h156v-159q0 -49 25.5 -71t73.5 -22q61 0 115 26v226h156z" horiz-adv-x="634"/>
<glyph glyph-name="uni0448" unicode="ш" d="M896 538v-538h-821v538h155v-410h179v410h155v-410h177v410h155z" horiz-adv-x="971"/>
<glyph glyph-name="uni0449" unicode="щ" d="M896 538v-538h-821v538h155v-410h179v410h155v-410h177v410h155zM971 128v-235h-145v107h-89v128h234z" horiz-adv-x="971"/>
<glyph glyph-name="uni044A" unicode="ъ" d="M604.5 319.5q55.5 -46.5 55.5 -131.5q0 -89 -62.5 -138.5t-174.5 -49.5h-260v410h-155v128h311v-172h126q104 0 159.5 -46.5zM479 131q22 21 22 60q0 74 -87 74h-95v-155h95q43 0 65 21z" horiz-adv-x="682"/>
<glyph glyph-name="uni044B" unicode="ы" d="M517 319q54 -46 54 -132q0 -90 -61 -139t-173 -49l-262 1v538h155v-172h128q105 -1 159 -47zM629 538h155v-538h-155v538zM392 129q24 20 24 60q0 39 -23.5 57t-69.5 19l-93 1v-156h93q45 -1 69 19z" horiz-adv-x="859"/>
<glyph glyph-name="uni044C" unicode="ь" d="M527 318.5q56 -46.5 56 -131.5q0 -89 -62.5 -138.5t-175.5 -49.5l-270 1v538h155v-172h136q105 -1 161 -47.5zM400 129q24 20 24 60q0 39 -23.5 57t-69.5 19l-101 1v-156h101q45 -1 69 19z" horiz-adv-x="605"/>
<glyph glyph-name="uni044D" unicode="э" d="M412.5 512.5q68.5 -35.5 107.5 -99.5t39 -144t-39 -144t-107.5 -99.5t-155.5 -35.5q-77 0 -139.5 25.5t-103.5 73.5l89 84q61 -63 148 -63q58 0 100 29t57 79h-226v107h224q-16 48 -57 76t-98 28q-86 0 -148 -64l-89 83q41 49 103.5 74.5t139.5 25.5q87 0 155.5 -35.5z " horiz-adv-x="590"/>
<glyph glyph-name="uni044E" unicode="ю" d="M731 510.5q65 -35.5 102 -98.5t37 -143t-37 -143t-102 -98.5t-147 -35.5q-71 0 -130 26.5t-98 75t-52 111.5h-74v-205h-155v538h155v-198h75q23 94 98 150t181 56q82 0 147 -35.5zM678.5 160.5q37.5 40.5 37.5 108.5q0 69 -37.5 109t-94.5 40q-58 0 -95.5 -40t-37.5 -109 q0 -68 37.5 -108.5t95.5 -40.5q57 0 94.5 40.5z" horiz-adv-x="903"/>
<glyph glyph-name="uni044F" unicode="я" d="M553 538v-538h-139v154h-115l-102 -154h-166l123 176q-56 22 -85.5 63.5t-29.5 100.5q0 95 68.5 146.5t188.5 51.5h257zM223.5 393q-25.5 -18 -25.5 -58t24.5 -58.5t74.5 -18.5h117v153h-115q-50 0 -75.5 -18z" horiz-adv-x="628"/>
<glyph glyph-name="uni0450" unicode="ѐ" d="M595 225h-407q11 -50 52 -79t102 -29q42 0 74.5 12.5t60.5 39.5l83 -90q-76 -87 -222 -87q-91 0 -161 35.5t-108 98.5t-38 143q0 79 37.5 142.5t103 99t146.5 35.5q79 0 143 -34t100.5 -97.5t36.5 -147.5q0 -3 -3 -42zM230 398q-36 -30 -44 -82h265q-8 51 -44 81.5 t-88 30.5q-53 0 -89 -30zM103 751h168l135 -144h-122z" horiz-adv-x="643"/>
<glyph glyph-name="uni0451" unicode="ё" d="M595 225h-407q11 -50 52 -79t102 -29q42 0 74.5 12.5t60.5 39.5l83 -90q-76 -87 -222 -87q-91 0 -161 35.5t-108 98.5t-38 143q0 79 37.5 142.5t103 99t146.5 35.5q79 0 143 -34t100.5 -97.5t36.5 -147.5q0 -3 -3 -42zM230 398q-36 -30 -44 -82h265q-8 51 -44 81.5 t-88 30.5q-53 0 -89 -30zM164 631.5q-20 19.5 -20 49.5t20 49.5t50 19.5t49.5 -19.5t19.5 -49.5t-19.5 -49.5t-49.5 -19.5t-50 19.5zM366.5 631.5q-19.5 19.5 -19.5 49.5t19.5 49.5t49.5 19.5t50 -19.5t20 -49.5t-20 -49.5t-50 -19.5t-49.5 19.5z" horiz-adv-x="643"/>
<glyph glyph-name="uni0452" unicode="ђ" d="M563 486q61 -60 61 -178v-307q0 -94 -53 -148.5t-149 -54.5q-82 0 -125 30l41 113q29 -19 67 -19q30 0 46.5 19.5t16.5 58.5v284q0 64 -28 95.5t-80 31.5q-59 0 -94 -36.5t-35 -108.5v-266h-156v591h-96v91h96v60h148v-60h227v-91h-227v-117q31 35 77 53.5t101 18.5 q101 0 162 -60z" horiz-adv-x="685"/>
<glyph glyph-name="uni0453" unicode="ѓ" d="M506 410h-276v-410h-155v538h431v-128zM336 750h168l-181 -144h-122z" horiz-adv-x="514"/>
<glyph glyph-name="uni0454" unicode="є" d="M178.5 25.5q-68.5 35.5 -107.5 99.5t-39 144t39 144t107.5 99.5t155.5 35.5q77 0 139.5 -25.5t103.5 -73.5l-89 -84q-61 63 -148 63q-58 0 -100 -29t-57 -79h226v-107h-224q16 -48 57 -76t98 -28q86 0 148 64l89 -83q-41 -49 -103.5 -74.5t-139.5 -25.5 q-87 0 -155.5 35.5z" horiz-adv-x="592"/>
<glyph glyph-name="uni0455" unicode="ѕ" d="M134 8.5q-64 16.5 -102 41.5l52 112q36 -23 87 -37.5t100 -14.5q99 0 99 49q0 23 -27 33t-83 17q-66 10 -109 23t-74.5 46t-31.5 94q0 51 29.5 90.5t86 61.5t133.5 22q57 0 113.5 -12.5t93.5 -34.5l-52 -111q-71 40 -155 40q-50 0 -75 -14t-25 -36q0 -25 27 -35t86 -19 q66 -11 108 -23.5t73 -45.5t31 -92q0 -50 -30 -89t-87.5 -60.5t-136.5 -21.5q-67 0 -131 16.5z" horiz-adv-x="551"/>
<glyph glyph-name="uni0456" unicode="і" d="M74 538h156v-538h-156v538zM82 638q-27 25 -27 62t27 62t70 25t70 -24t27 -60q0 -39 -27 -64.5t-70 -25.5t-70 25z" horiz-adv-x="305"/>
<glyph glyph-name="uni0457" unicode="ї" d="M72 538h156v-538h-156v538zM21.5 632q-18.5 19 -18.5 49t18.5 49t46.5 19t47 -19t19 -49t-19 -49t-47 -19t-46.5 19zM185 632q-19 19 -19 49t19 49t47 19t46.5 -19t18.5 -49t-18.5 -49t-46.5 -19t-47 19z" horiz-adv-x="301"/>
<glyph glyph-name="uni0458" unicode="ј" d="M-96 -172l42 113q27 -19 66 -19q30 0 47 19.5t17 58.5v538h156v-537q0 -94 -53.5 -148.5t-149.5 -54.5q-82 0 -125 30zM84 638q-27 25 -27 62t27 62t70 25t70 -24t27 -60q0 -39 -27 -64.5t-70 -25.5t-70 25z" horiz-adv-x="306"/>
<glyph glyph-name="uni0459" unicode="љ" d="M591 538v-538h-156v410h-170l-5 -95q-4 -106 -20 -176t-52 -110t-100 -40q-34 0 -81 12l8 128q16 -2 23 -2q35 0 52.5 25.5t23.5 65t9 104.5l8 216h460zM887 318.5q56 -46.5 56 -131.5q0 -89 -62.5 -138.5t-175.5 -49.5l-270 1v538h155v-172h136q105 -1 161 -47.5z M760 129q24 20 24 60q0 39 -23.5 57t-69.5 19l-101 1v-156h101q45 -1 69 19z" horiz-adv-x="965"/>
<glyph glyph-name="uni045A" unicode="њ" d="M898 302q55 -43 55 -123q0 -83 -62 -131t-171 -48h-266v218h-224v-218h-155v538h155v-193h224v193h156v-193h132q101 0 156 -43zM772 125.5q22 17.5 22 48.5q0 30 -21.5 46t-62.5 16h-100v-128h100q40 0 62 17.5z" horiz-adv-x="972"/>
<glyph glyph-name="uni045B" unicode="ћ" d="M563 486q61 -60 61 -178v-308h-156v284q0 64 -28 95.5t-80 31.5q-59 0 -94 -36.5t-35 -108.5v-266h-156v594h-121v83h121v65h156v-65h208v-83h-208v-112q31 31 75 47.5t95 16.5q101 0 162 -60z" horiz-adv-x="685"/>
<glyph glyph-name="uni045C" unicode="ќ" d="M312 204h-81v-204h-156v538h156v-209h84l146 209h166l-188 -258l201 -280h-184zM374 751h168l-181 -144h-122z" horiz-adv-x="642"/>
<glyph glyph-name="uni045D" unicode="ѝ" d="M75 538h155v-320l262 320h143v-538h-155v320l-261 -320h-144v538zM133 751h168l135 -144h-122z" horiz-adv-x="710"/>
<glyph glyph-name="uni045E" unicode="ў" d="M614 538l-243 -571q-37 -93 -91.5 -131t-131.5 -38q-42 0 -83 13t-67 36l57 111q18 -16 41.5 -25t46.5 -9q32 0 52 15.5t36 51.5l2 5l-233 542h161l151 -365l152 365h150zM119 751h102q1 -35 19.5 -54.5t54.5 -19.5t55.5 19.5t19.5 54.5h104q-1 -155 -178 -155 q-176 0 -177 155z" horiz-adv-x="614"/>
<glyph glyph-name="uni045F" unicode="џ" d="M586 0h-182v-118h-146v118h-183v538h155v-410h200v410h156v-538z" horiz-adv-x="661"/>
<glyph glyph-name="uni0462" unicode="Ѣ" d="M732 405q67 -58 67 -167q0 -113 -74 -175.5t-209 -62.5h-322v544h-177v103h177v95h160v-95h214v-103h-214v-81h186q125 0 192 -58zM602.5 149q32.5 29 32.5 85q0 109 -128 109h-153v-223h153q63 0 95.5 29z" horiz-adv-x="829"/>
<glyph glyph-name="uni0463" unicode="ѣ" d="M570 318.5q56 -46.5 56 -130.5q0 -90 -62.5 -139.5t-175.5 -49.5l-270 1v474h-118v100h118v168h156v-168h191v-100h-191v-108h136q104 -1 160 -47.5zM443 129q24 20 24 60q0 39 -23.5 57t-69.5 19l-100 1v-156h100q45 -1 69 19z" horiz-adv-x="648"/>
<glyph glyph-name="uni046A" unicode="Ѫ" d="M933 0h-168l-37 110q-25 86 -62.5 124t-88.5 38h-31v-272h-148v272h-28q-53 0 -91 -37.5t-63 -124.5l-37 -110h-167l57 145q42 121 100.5 176.5t139.5 60.5l-204 218v100h735v-98l-205 -219q81 -5 141 -60.5t102 -177.5zM282 585l189 -202h2l190 202h-381z" horiz-adv-x="945"/>
<glyph glyph-name="uni046B" unicode="ѫ" d="M764 0h-152l-25 75q-18 67 -43.5 95t-66.5 28h-26v-198h-134v198h-23q-40 0 -66 -28.5t-44 -94.5l-25 -75h-152l42 107q34 96 77.5 140t106.5 50l-150 151v90h602v-90l-151 -151q65 -5 110 -48.5t79 -141.5zM243 439l140 -141l143 141h-283z" horiz-adv-x="771"/>
<glyph glyph-name="uni0472" unicode="Ѳ" d="M224.5 35q-87.5 47 -137 129.5t-49.5 185.5t49.5 185.5t137 129.5t196.5 47t196 -47t137 -129.5t50 -185.5t-50 -185.5t-137 -129.5t-196 -47t-196.5 47zM533 154.5q50 28.5 78.5 79.5t28.5 116t-28.5 116t-78.5 79.5t-112 28.5t-112 -28.5t-78.5 -79.5t-28.5 -116 t28.5 -116t78.5 -79.5t112 -28.5t112 28.5zM90.8721 404h666.098v-108h-666.098v108z" horiz-adv-x="842"/>
<glyph glyph-name="uni0473" unicode="ѳ" d="M484.5 510.5q68.5 -35.5 107 -98.5t38.5 -143t-38.5 -143t-107 -98.5t-154.5 -35.5t-154 35.5t-106.5 98.5t-38.5 143t38.5 143t106.5 98.5t154 35.5t154.5 -35.5zM237 402q-38 -30 -51 -83h289q-13 53 -51.5 83t-93.5 30t-93 -30zM423.5 136q38.5 30 51.5 83h-289 q13 -52 51.5 -82.5t92.5 -30.5q55 0 93.5 30z" horiz-adv-x="661"/>
<glyph glyph-name="uni0474" unicode="Ѵ" d="M9 700h175l191 -477l119 333q28 81 74.5 119.5t118.5 38.5q41 0 92 -12l-16 -151q-30 7 -45 7q-35 0 -57 -23t-41 -77l-166 -458h-161z" horiz-adv-x="793"/>
<glyph glyph-name="uni0475" unicode="ѵ" d="M462 523q37 29 95 29q37 0 84 -12l-15 -147q-28 7 -40 7q-22 0 -36 -15.5t-30 -56.5l-130 -328h-155l-234 538h170l143 -342l88 236q23 62 60 91z" horiz-adv-x="648"/>
<glyph glyph-name="uni048A" unicode="Ҋ" d="M216 898h111q2 -73 83 -73q40 0 61 18.5t22 54.5h111q-1 -75 -49 -114t-145 -39q-192 0 -194 153zM836 132l-79 -277h-128l29 145h-84v455l-334 -455h-153v700h161v-456l334 456h152v-568h102z" horiz-adv-x="860"/>
<glyph glyph-name="uni048B" unicode="ҋ" d="M215 640q-51 41 -54 111h98q1 -32 25.5 -51.5t60.5 -19.5t60.5 19.5t25.5 51.5h98q-3 -70 -54 -111t-130 -41t-130 41zM719 128l-69 -235h-123l23 107h-70v320l-261 -320h-144v538h155v-320l262 320h143v-410h84z" horiz-adv-x="737"/>
<glyph glyph-name="uni048C" unicode="Ҍ" d="M655.5 405q66.5 -58 66.5 -167q0 -113 -74 -175.5t-209 -62.5h-322v544h-94v103h94v95h160v-95h210v-103h-210v-81h186q126 0 192.5 -58zM525.5 149q32.5 29 32.5 85q0 109 -128 109h-153v-223h153q63 0 95.5 29z" horiz-adv-x="752"/>
<glyph glyph-name="uni048D" unicode="ҍ" d="M565 302.5q56 -42.5 56 -123.5q0 -87 -62.5 -133.5t-175.5 -46.5l-271 1v392h-96v96h96v50h156v-50h191v-96h-191v-46l136 -1q105 0 161 -42.5zM462 180q0 37 -23 52.5t-71 16.5h-100v-143l100 -1q94 -2 94 75z" horiz-adv-x="641"/>
<glyph glyph-name="uni048E" unicode="Ҏ" d="M666 315q-28 -54 -81 -87l75 -97l-65 -52l-89 114q-53 -14 -115 -14h-141v-179h-163v700h304q93 0 161.5 -31t105 -89.5t36.5 -139.5q0 -71 -28 -125zM414 313l-78 100l64 52l94 -121q37 34 37 96t-38 95t-111 33h-132v-257h132q12 0 32 2z" horiz-adv-x="735"/>
<glyph glyph-name="uni048F" unicode="ҏ" d="M642 149.5q-22 -53.5 -62 -90.5l57 -73l-62 -49l-62 78q-51 -23 -110 -23q-115 0 -172 78v-264h-156v732h149v-78q56 86 179 86q73 0 132.5 -34.5t94 -97.5t34.5 -146q0 -65 -22 -118.5zM422 129l-62 77l66 51l60 -77q23 35 23 88q0 69 -39 109.5t-101 40.5t-101 -40.5 t-39 -109.5q0 -68 39 -108t101 -40q29 0 53 9z" horiz-adv-x="703"/>
<glyph glyph-name="uni0490" unicode="Ґ" d="M87 700h344v144h150v-276h-333v-568h-161v700z" horiz-adv-x="595"/>
<glyph glyph-name="uni0491" unicode="ґ" d="M75 538h273v110h145v-238h-263v-410h-155v538z" horiz-adv-x="502"/>
<glyph glyph-name="uni0492" unicode="Ғ" d="M285 568v-196h273v-103h-272v-269h-161v269h-103v103h103v328h494l-1 -132h-333z" horiz-adv-x="640"/>
<glyph glyph-name="uni0493" unicode="ғ" d="M258 410v-135h199v-95h-199v-180h-155v180h-74v95h74v263h431v-128h-276z" horiz-adv-x="549"/>
<glyph glyph-name="uni0494" unicode="Ҕ" d="M403 397q78 0 139 -31t95.5 -90t34.5 -139q0 -85 -36.5 -150.5t-101 -102t-144.5 -36.5q-37 0 -72 7l26 125q16 -4 35 -4q59 0 96 41t37 108q0 69 -40 108t-103 39q-59 0 -121 -34v-238h-161v700h514v-132h-353v-200q82 29 155 29z" horiz-adv-x="706"/>
<glyph glyph-name="uni0495" unicode="ҕ" d="M357 295q74 0 131.5 -29t90 -82.5t32.5 -125.5q0 -75 -34 -134t-96.5 -92t-143.5 -33q-41 0 -86 9l32 127q21 -4 45 -4q59 0 91 33t32 87q0 60 -35 89.5t-89 29.5q-50 0 -97 -21v-149h-155v538h424v-128h-269v-135q64 20 127 20z" horiz-adv-x="627"/>
<glyph glyph-name="uni0496" unicode="Җ" d="M722 282h-102v-282h-159v282h-104l-157 -282h-187l210 366l-197 334h171l157 -283h107v283h159v-283h104l158 283h171l-196 -334l209 -366h-187zM1096 132v-277h-149v145h-68v132h217z" horiz-adv-x="1111"/>
<glyph glyph-name="uni0497" unicode="җ" d="M608 204h-75v-204h-154v204h-75l-114 -204h-184l169 278l-157 260h165l119 -209h77v209h154v-209h76l120 209h165l-157 -260l170 -278h-185zM930 125v-233h-141v108h-67v125h208z" horiz-adv-x="940"/>
<glyph glyph-name="uni0498" unicode="Ҙ" d="M580.5 299.5q34.5 -44.5 34.5 -103.5q0 -64 -42 -111t-113.5 -72t-156.5 -25q-72 0 -143.5 18t-135.5 55l50 116q46 -28 101.5 -42.5t108.5 -14.5q72 0 119.5 26t47.5 73q0 39 -32.5 59t-88.5 20h-171v122h159q49 0 76.5 20t27.5 55q0 41 -39.5 64t-101.5 23 q-46 0 -95 -12.5t-93 -37.5l-49 126q111 57 240 57q82 0 151 -24t110 -70t41 -107q0 -50 -27 -89t-74 -60q61 -21 95.5 -65.5zM381 -145h-149v176h149v-176z" horiz-adv-x="656"/>
<glyph glyph-name="uni0499" unicode="ҙ" d="M473.5 54q-51.5 -43 -137.5 -58v-103h-146v101q-95 9 -171 48l42 109q85 -41 188 -41q55 0 86.5 16.5t31.5 46.5q0 26 -22 39.5t-64 13.5h-110v97h96q41 0 63 13t22 38q0 26 -27.5 40t-78.5 14q-78 0 -170 -37l-38 108q112 49 218 49q73 0 130.5 -18t90.5 -52.5t33 -80.5 q0 -38 -23 -68.5t-63 -48.5q48 -15 74.5 -46t26.5 -74q0 -63 -51.5 -106z" horiz-adv-x="563"/>
<glyph glyph-name="uni049A" unicode="Қ" d="M358 282h-112v-282h-161v700h161v-283h116l184 283h171l-229 -338l236 -362h-184zM757 132v-277h-149v145h-68v132h217z" horiz-adv-x="772"/>
<glyph glyph-name="uni049B" unicode="қ" d="M312 204h-81v-204h-156v538h156v-209h84l146 209h166l-188 -258l201 -280h-184zM664 125v-233h-141v108h-67v125h208z" horiz-adv-x="642"/>
<glyph glyph-name="uni049C" unicode="Ҝ" d="M414 282h-30v-119h-87v119h-51v-282h-161v700h161v-283h51v120h87v-120h33l159 283h171l-200 -338l216 -362h-190z" horiz-adv-x="775"/>
<glyph glyph-name="uni049D" unicode="ҝ" d="M356 204h-18v-79h-78v79h-34v-204h-156v538h156v-209h35v85h77v-85h19l119 209h162l-157 -260l171 -278h-182z" horiz-adv-x="657"/>
<glyph glyph-name="uni049E" unicode="Ҟ" d="M381 282h-112v-282h-161v538h-83v88h83v74h161v-74h138v-88h-138v-121h116l184 283h171l-229 -338l236 -362h-184z" horiz-adv-x="758"/>
<glyph glyph-name="uni049F" unicode="ҟ" d="M310 204h-80v-204h-156v591h-87v92h87v59h156v-60h134v-91h-134v-262h83l147 209h166l-189 -258l201 -280h-184z" horiz-adv-x="640"/>
<glyph glyph-name="uni04A0" unicode="Ҡ" d="M483 282h-111v-282h-161v568h-196v132h357v-283h116l184 283h171l-229 -338l235 -362h-184z" horiz-adv-x="861"/>
<glyph glyph-name="uni04A1" unicode="ҡ" d="M399 204h-82v-204h-156v413h-153v125h309v-209h84l147 209h165l-188 -258l201 -280h-184z" horiz-adv-x="728"/>
<glyph glyph-name="uni04A2" unicode="Ң" d="M729 700v-700h-162v287h-318v-287h-162v700h162v-276h318v276h162zM829 132v-277h-150v145h-109v132h259z" horiz-adv-x="852"/>
<glyph glyph-name="uni04A3" unicode="ң" d="M75 538h155v-210h234v210h156v-538h-156v201h-234v-201h-155v538zM698 128v-235h-145v107h-89v128h234z" horiz-adv-x="720"/>
<glyph glyph-name="uni04A4" unicode="Ҥ" d="M729 700v-700h-162v287h-318v-287h-162v700h162v-276h318v276h162zM1063 568h-333l1 -568h-161v700h494z" horiz-adv-x="1078"/>
<glyph glyph-name="uni04A5" unicode="ҥ" d="M75 538h155v-210h234v210h156v-538h-156v201h-234v-201h-155v538zM895 410h-276v-410h-155v538h431v-128z" horiz-adv-x="903"/>
<glyph glyph-name="uni04A6" unicode="Ҧ" d="M879 396q79 0 140 -31t95 -90t34 -138q0 -85 -36.5 -150.5t-101 -102t-144.5 -36.5q-37 0 -72 7l26 125q16 -4 35 -4q59 0 96 41t37 108q0 68 -38 106.5t-101 38.5q-59 0 -124 -32v-238h-161v568h-316v-568h-161v700h638v-332q80 28 154 28z" horiz-adv-x="1178"/>
<glyph glyph-name="uni04A7" unicode="ҧ" d="M728 295q74 0 131.5 -29t89.5 -82.5t32 -125.5q0 -75 -34.5 -134t-97 -92t-143.5 -33q-41 0 -86 9l32 127q21 -4 45 -4q60 0 92 33t32 87q0 60 -35 89.5t-90 29.5q-49 0 -95 -20v-150h-155v410h-216v-410h-155v538h526v-263q68 20 127 20z" horiz-adv-x="995"/>
<glyph glyph-name="uni04A8" unicode="Ҩ" d="M785 -23q-95 0 -177 35q-78 -26 -161 -26q-113 0 -205 47.5t-145.5 136t-53.5 208.5q0 102 41 190.5t117 147.5l131 -65q-59 -52 -92.5 -126t-33.5 -154q0 -83 35 -144.5t96.5 -94.5t138.5 -33q-58 57 -90 133.5t-32 167.5q0 95 35.5 166.5t100.5 111t151 39.5 q83 0 145 -36.5t96 -103t34 -156.5q0 -100 -43 -185t-118 -144q21 -3 44 -3q54 0 114 17l12 -110q-70 -19 -140 -19zM538.5 540.5q-35.5 -49.5 -35.5 -138.5q0 -87 33.5 -155t93.5 -109q64 38 100.5 107.5t36.5 163.5q0 86 -34 133.5t-95 47.5q-64 0 -99.5 -49.5z" horiz-adv-x="977"/>
<glyph glyph-name="uni04A9" unicode="ҩ" d="M670 -22q-84 0 -156 30q-68 -19 -136 -19q-102 0 -179.5 37.5t-120.5 106.5t-43 161q0 78 33 146t93 112l125 -60q-46 -43 -70.5 -95t-24.5 -108q0 -84 51.5 -135t141.5 -56q-38 42 -59.5 96t-21.5 115q0 73 29.5 128t84.5 85t129 30q107 0 170.5 -60.5t63.5 -163.5 q0 -71 -30 -132.5t-85 -108.5q57 -3 112 11l7 -105q-52 -15 -114 -15zM470.5 401q-26.5 -32 -26.5 -89q0 -60 24 -107t68 -77q49 28 76 76.5t27 113.5q0 55 -25 85t-70 30q-47 0 -73.5 -32z" horiz-adv-x="833"/>
<glyph glyph-name="uni04AA" unicode="Ҫ" d="M224.5 34.5q-86.5 46.5 -136 129t-49.5 186.5t49.5 186.5t136 129t194.5 46.5q91 0 164.5 -32t123.5 -92l-104 -96q-71 82 -176 82q-65 0 -116 -28.5t-79.5 -79.5t-28.5 -116t28.5 -116t79.5 -79.5t116 -28.5q105 0 176 83l104 -96q-50 -61 -124 -93t-165 -32 q-107 0 -193.5 46.5zM473 -145h-149v176h149v-176z" horiz-adv-x="726"/>
<glyph glyph-name="uni04AB" unicode="ҫ" d="M176.5 27.5q-68.5 35.5 -107 98.5t-38.5 143t38.5 143t107 98.5t154.5 35.5q85 0 148.5 -35.5t92.5 -101.5l-121 -65q-42 74 -121 74q-61 0 -101 -40t-40 -109t40 -109t101 -40q80 0 121 74l121 -66q-29 -64 -92.5 -100t-148.5 -36q-86 0 -154.5 35.5zM388 -107h-146v135 h146v-135z" horiz-adv-x="592"/>
<glyph glyph-name="uni04AC" unicode="Ҭ" d="M622 568h-224v-568h-160v568h-223v132h607v-132zM497 132v-277h-150v145h-109v132h259z" horiz-adv-x="637"/>
<glyph glyph-name="uni04AD" unicode="ҭ" d="M527 410h-182v-410h-155v410h-182v128h519v-128zM424 128v-235h-145v107h-89v128h234z" horiz-adv-x="535"/>
<glyph glyph-name="uni04AE" unicode="Ү" d="M437 248v-248h-162v250l-271 450h172l187 -311l187 311h159z" horiz-adv-x="712"/>
<glyph glyph-name="uni04AF" unicode="ү" d="M385 -3v-191h-156v190l-228 542h162l149 -366l154 366h149z" horiz-adv-x="616"/>
<glyph glyph-name="uni04B0" unicode="Ұ" d="M419 248v-248h-162v250l-271 450h172l187 -311l187 311h159zM71.2578 312.521h524.154v-108.809h-524.154v108.809z" horiz-adv-x="676"/>
<glyph glyph-name="uni04B1" unicode="ұ" d="M385 -3v-191h-156v190l-228 542h162l149 -366l154 366h149zM68.5244 51h475.897v-90h-475.897v90z" horiz-adv-x="616"/>
<glyph glyph-name="uni04B2" unicode="Ҳ" d="M213 700l145 -212l145 212h190l-233 -335l252 -365h-191l-163 232l-161 -232h-187l250 358l-234 342h187zM738 132v-277h-149v145h-68v132h217z" horiz-adv-x="751"/>
<glyph glyph-name="uni04B3" unicode="ҳ" d="M413 0l-118 165l-122 -165h-170l207 271l-200 267h175l114 -157l117 157h166l-200 -263l208 -275h-177zM622 125v-233h-141v108h-67v125h208z" horiz-adv-x="592"/>
<glyph glyph-name="uni04B4" unicode="Ҵ" d="M973 131v-280h-149v148h-585v569h-223v132h564v-132h-180v-437h312v568h161v-568h100z" horiz-adv-x="993"/>
<glyph glyph-name="uni04B5" unicode="ҵ" d="M774 128v-235h-145v107h-439v410h-181v128h457v-128h-120v-282h201v410h155v-410h72z" horiz-adv-x="799"/>
<glyph glyph-name="uni04B6" unicode="Ҷ" d="M662 700v-700h-160v252q-91 -33 -169 -33q-141 0 -216 67.5t-75 194.5v219h160v-201q0 -72 38.5 -108.5t111.5 -36.5q80 0 150 31v315h160zM761 132v-277h-150v145h-109v132h259z" horiz-adv-x="784"/>
<glyph glyph-name="uni04B7" unicode="ҷ" d="M559 538v-538h-156v200q-68 -34 -150 -34q-109 0 -164.5 49.5t-55.5 153.5v169h156v-159q0 -49 25.5 -71t73.5 -22q61 0 115 26v226h156zM637 128v-235h-145v107h-89v128h234z" horiz-adv-x="667"/>
<glyph glyph-name="uni04B8" unicode="Ҹ" d="M661 700v-700h-160v252q-54 -20 -109 -28v-123h-87v119q-128 6 -196 73t-68 188v219h160v-201q0 -120 104 -141v118h87v-120q58 6 109 29v315h160z" horiz-adv-x="749"/>
<glyph glyph-name="uni04B9" unicode="ҹ" d="M558 538v-538h-156v200q-31 -16 -72 -25v-94h-79v85q-219 0 -219 203v169h156v-159q0 -75 64 -89v88h78v-89q36 6 72 23v226h156z" horiz-adv-x="634"/>
<glyph glyph-name="uni04BA" unicode="Һ" d="M632 413.5q75 -67.5 75 -194.5v-219h-160v201q0 72 -38.5 108.5t-111.5 36.5q-79 0 -149 -31v-315h-161v700h161v-252q92 33 169 33q140 0 215 -67.5z" horiz-adv-x="749"/>
<glyph glyph-name="uni04BB" unicode="һ" d="M562.5 486q61.5 -60 61.5 -178v-308h-156v284q0 64 -28 95.5t-81 31.5q-59 0 -94 -36.5t-35 -108.5v-266h-156v742h156v-260q31 31 75 47.5t96 16.5q100 0 161.5 -60z" horiz-adv-x="685"/>
<glyph glyph-name="uni04BC" unicode="Ҽ" d="M978 285h-561q19 -75 77 -117.5t132 -42.5q48 0 96 20.5t88 60.5l117 -99q-62 -59 -141 -89t-162 -30q-90 0 -169.5 35t-134.5 102t-69 160h-28q-93 0 -146 50t-53 130q0 56 27 117l137 -24q-25 -40 -25 -79q0 -34 21 -55t60 -21h5q13 95 66.5 165t133.5 107t170 37 q97 0 181 -43t134.5 -124t50.5 -191q0 -40 -7 -69zM487 529q-58 -47 -73 -126h403q-13 80 -69 126.5t-129 46.5q-74 0 -132 -47z" horiz-adv-x="1018"/>
<glyph glyph-name="uni04BD" unicode="ҽ" d="M783 225h-418q12 -50 54 -79t105 -29q43 0 76 12.5t63 39.5l85 -90q-79 -87 -229 -87q-85 0 -152 29.5t-108.5 82.5t-51.5 121h-21q-82 0 -125.5 34t-43.5 95q0 42 21 94l121 -21q-17 -32 -17 -58q0 -25 16 -39t46 -14h4q11 67 51 119.5t102 81.5t137 29q82 0 147.5 -34 t103.5 -97.5t38 -147.5q0 -16 -4 -42zM408.5 398q-36.5 -30 -45.5 -82h272q-8 51 -45 81.5t-91 30.5t-90.5 -30z" horiz-adv-x="815"/>
<glyph glyph-name="uni04BE" unicode="Ҿ" d="M978 285h-561q19 -75 77 -117.5t132 -42.5q48 0 96 20.5t88 60.5l117 -99q-62 -59 -141 -89t-162 -30q-90 0 -169.5 35t-134.5 102t-69 160h-28q-93 0 -146 50t-53 130q0 56 27 117l137 -24q-25 -40 -25 -79q0 -34 21 -55t60 -21h5q13 95 66.5 165t133.5 107t170 37 q97 0 181 -43t134.5 -124t50.5 -191q0 -40 -7 -69zM487 529q-58 -47 -73 -126h403q-13 80 -69 126.5t-129 46.5q-74 0 -132 -47zM702 -145h-149v176h149v-176z" horiz-adv-x="1018"/>
<glyph glyph-name="uni04BF" unicode="ҿ" d="M783 225h-418q12 -50 54 -79t105 -29q43 0 76 12.5t63 39.5l85 -90q-79 -87 -229 -87q-85 0 -152 29.5t-108.5 82.5t-51.5 121h-21q-82 0 -125.5 34t-43.5 95q0 42 21 94l121 -21q-17 -32 -17 -58q0 -25 16 -39t46 -14h4q11 67 51 119.5t102 81.5t137 29q82 0 147.5 -34 t103.5 -97.5t38 -147.5q0 -16 -4 -42zM408.5 398q-36.5 -30 -45.5 -82h272q-8 51 -45 81.5t-91 30.5t-90.5 -30zM574 -107h-146v135h146v-135z" horiz-adv-x="815"/>
<glyph glyph-name="uni04C0" unicode="Ӏ" d="M87 700h162v-700h-162v700z" horiz-adv-x="337"/>
<glyph glyph-name="uni04C1" unicode="Ӂ" d="M722 282h-102v-282h-159v282h-104l-157 -282h-187l210 366l-197 334h171l157 -283h107v283h159v-283h104l158 283h171l-196 -334l209 -366h-187zM347 898h111q2 -73 83 -73q40 0 61 18.5t22 54.5h111q-1 -75 -49 -114t-145 -39q-192 0 -194 153z" horiz-adv-x="1079"/>
<glyph glyph-name="uni04C2" unicode="ӂ" d="M608 204h-75v-204h-154v204h-75l-114 -204h-184l169 278l-157 260h165l119 -209h77v209h154v-209h76l120 209h165l-157 -260l170 -278h-185zM280 751h102q1 -35 19.5 -54.5t54.5 -19.5t55.5 19.5t19.5 54.5h104q-1 -155 -178 -155q-176 0 -177 155z" horiz-adv-x="913"/>
<glyph glyph-name="uni04C3" unicode="Ӄ" d="M667.5 148q58.5 -88 58.5 -161q0 -90 -54 -141t-147 -51q-69 0 -131 30l38 116q34 -16 58 -16q27 0 42.5 17.5t15.5 49.5q0 51 -52.5 129.5t-131.5 160.5h-115v-282h-162v700h162v-283h115l184 283h171l-228 -337q118 -127 176.5 -215z" horiz-adv-x="744"/>
<glyph glyph-name="uni04C4" unicode="ӄ" d="M446 290q89 -91 134 -166.5t45 -143.5q0 -85 -53.5 -134t-140.5 -49q-64 0 -128 29l39 111q35 -16 62 -16q30 0 47 17.5t17 49.5q0 41 -36 97t-100 119h-101v-204h-156v538h156v-208h85l145 208h166z" horiz-adv-x="642"/>
<glyph glyph-name="uni04C6" unicode="ӆ" d="M674 128l-69 -235h-123l23 107h-70v410h-170l-5 -95q-4 -106 -20 -176t-52 -110t-100 -40q-34 0 -81 12l8 128q16 -2 23 -2q35 0 52.5 25.5t23.5 65t9 104.5l8 216h460v-410h83z" horiz-adv-x="693"/>
<glyph glyph-name="uni04C7" unicode="Ӈ" d="M436 -59q30 -18 61 -18t50 18t19 52v287h-318v-280h-161v700h161v-287h318v287h160v-711q0 -63 -27.5 -106.5t-73 -65t-99.5 -21.5q-68 0 -130 32z" horiz-adv-x="814"/>
<glyph glyph-name="uni04C8" unicode="ӈ" d="M353.5 -194.5q-33.5 7.5 -56.5 22.5l41 112q27 -19 63 -19q31 0 48.5 20t17.5 59v201h-237v-201h-155v538h155v-210h237v210h156v-540q0 -92 -52.5 -146t-146.5 -54q-37 0 -70.5 7.5z" horiz-adv-x="697"/>
<glyph glyph-name="uni04C9" unicode="Ӊ" d="M832 132l-79 -277h-128l29 145h-87v287h-318v-287h-162v700h162v-276h318v276h162v-568h103z" horiz-adv-x="856"/>
<glyph glyph-name="uni04CA" unicode="ӊ" d="M703 128l-69 -235h-123l23 107h-70v201h-234v-201h-155v538h155v-210h234v210h156v-410h83z" horiz-adv-x="721"/>
<glyph glyph-name="uni04CB" unicode="Ӌ" d="M657 700v-700h-136v-145h-149v277h125v154q-90 -33 -167 -33q-141 0 -216 63.5t-75 184.5v199h160v-181q0 -64 38.5 -97.5t111.5 -33.5q81 0 148 30v282h160z" horiz-adv-x="744"/>
<glyph glyph-name="uni04CC" unicode="ӌ" d="M555 538v-538h-102v-107h-146v228h92v106q-69 -33 -150 -33q-220 0 -220 202v142h155v-132q0 -48 25.5 -70t75.5 -22q60 0 114 26v198h156z" horiz-adv-x="629"/>
<glyph glyph-name="uni04CD" unicode="Ӎ" d="M993 132l-79 -277h-128l29 145h-91l-1 419l-206 -345h-72l-206 337v-411h-152v700h134l262 -435l258 435h134l1 -568h117z" horiz-adv-x="1017"/>
<glyph glyph-name="uni04CE" unicode="ӎ" d="M839 128l-69 -235h-123l23 107h-70v322l-161 -270h-66l-157 271v-323h-141v538h163l172 -311l183 311h146l2 -410h98z" horiz-adv-x="858"/>
<glyph glyph-name="uni04CF" unicode="ӏ" d="M74 742h156v-742h-156v742z" horiz-adv-x="305"/>
<glyph glyph-name="uni04D0" unicode="Ӑ" d="M561 150h-325l-62 -150h-166l312 700h160l313 -700h-170zM510 273l-111 268l-111 -268h222zM206 898h111q2 -73 83 -73q40 0 61 18.5t22 54.5h111q-1 -75 -49 -114t-145 -39q-192 0 -194 153z" horiz-adv-x="799"/>
<glyph glyph-name="uni04D1" unicode="ӑ" d="M476 486.5q67 -59.5 67 -179.5v-307h-146v67q-44 -75 -164 -75q-62 0 -107.5 21t-69.5 58t-24 84q0 75 56.5 118t174.5 43h124q0 51 -31 78.5t-93 27.5q-43 0 -84.5 -13.5t-70.5 -36.5l-56 109q44 31 105.5 48t126.5 17q125 0 192 -59.5zM343 115.5q31 18.5 44 54.5v55 h-107q-96 0 -96 -63q0 -30 23.5 -47.5t64.5 -17.5q40 0 71 18.5zM123 751h102q1 -35 19.5 -54.5t54.5 -19.5t55.5 19.5t19.5 54.5h104q-1 -155 -178 -155q-176 0 -177 155z" horiz-adv-x="604"/>
<glyph glyph-name="uni04D2" unicode="Ӓ" d="M561 150h-325l-62 -150h-166l312 700h160l313 -700h-170zM510 273l-111 268l-111 -268h222zM249 781.5q-20 19.5 -20 49.5t20 49.5t50 19.5t49.5 -19.5t19.5 -49.5t-19.5 -49.5t-49.5 -19.5t-50 19.5zM451.5 781.5q-19.5 19.5 -19.5 49.5t19.5 49.5t49.5 19.5t50 -19.5 t20 -49.5t-20 -49.5t-50 -19.5t-49.5 19.5z" horiz-adv-x="799"/>
<glyph glyph-name="uni04D3" unicode="ӓ" d="M476 486.5q67 -59.5 67 -179.5v-307h-146v67q-44 -75 -164 -75q-62 0 -107.5 21t-69.5 58t-24 84q0 75 56.5 118t174.5 43h124q0 51 -31 78.5t-93 27.5q-43 0 -84.5 -13.5t-70.5 -36.5l-56 109q44 31 105.5 48t126.5 17q125 0 192 -59.5zM343 115.5q31 18.5 44 54.5v55 h-107q-96 0 -96 -63q0 -30 23.5 -47.5t64.5 -17.5q40 0 71 18.5zM149 631.5q-20 19.5 -20 49.5t20 49.5t50 19.5t49.5 -19.5t19.5 -49.5t-19.5 -49.5t-49.5 -19.5t-50 19.5zM351.5 631.5q-19.5 19.5 -19.5 49.5t19.5 49.5t49.5 19.5t50 -19.5t20 -49.5t-20 -49.5t-50 -19.5 t-49.5 19.5z" horiz-adv-x="604"/>
<glyph glyph-name="uni04D4" unicode="Ӕ" d="M1047 130v-130h-542v150h-253l-82 -150h-166l395 700h635v-130h-368v-152h326v-126h-326v-162h381zM505 273v297h-23l-163 -297h186z" horiz-adv-x="1091"/>
<glyph glyph-name="uni04D5" unicode="ӕ" d="M955 226h-408q11 -51 51 -80t102 -29q78 0 136 52l83 -90q-39 -43 -95.5 -65t-126.5 -22q-71 0 -131 23t-102 70q-62 -93 -206 -93q-105 0 -165.5 46t-60.5 123q0 70 57 113t174 43h124q0 50 -31 77.5t-92 27.5q-43 0 -85 -13.5t-71 -36.5l-56 109q44 31 105 48t126 17 q136 0 198 -76q37 36 88 56t110 20q77 0 141 -34t101 -97t37 -144q0 -25 -3 -45zM591 399q-37 -29 -46 -82h262q-8 53 -44.5 82t-85.5 29t-86 -29zM357 125q30 28 30 76v25h-107q-96 0 -96 -62q0 -32 23.5 -49.5t66.5 -17.5q53 0 83 28z" horiz-adv-x="995"/>
<glyph glyph-name="uni04D6" unicode="Ӗ" d="M629 130v-130h-542v700h529v-130h-368v-152h325v-126h-325v-162h381zM158 898h111q2 -73 83 -73q40 0 61 18.5t22 54.5h111q-1 -75 -49 -114t-145 -39q-192 0 -194 153z" horiz-adv-x="673"/>
<glyph glyph-name="uni04D7" unicode="ӗ" d="M595 225h-407q11 -50 52 -79t102 -29q42 0 74.5 12.5t60.5 39.5l83 -90q-76 -87 -222 -87q-91 0 -161 35.5t-108 98.5t-38 143q0 79 37.5 142.5t103 99t146.5 35.5q79 0 143 -34t100.5 -97.5t36.5 -147.5q0 -3 -3 -42zM230 398q-36 -30 -44 -82h265q-8 51 -44 81.5 t-88 30.5q-53 0 -89 -30zM138 751h102q1 -35 19.5 -54.5t54.5 -19.5t55.5 19.5t19.5 54.5h104q-1 -155 -178 -155q-176 0 -177 155z" horiz-adv-x="643"/>
<glyph glyph-name="uni04D8" unicode="Ә" d="M587 669.5q88 -42.5 141.5 -124.5t53.5 -194q0 -111 -53 -193.5t-140 -126t-187 -43.5q-99 0 -183.5 43t-135.5 124t-51 191q0 32 6 65h573q-19 76 -79 120t-137 44q-49 0 -97.5 -20.5t-89.5 -60.5l-117 99q62 58 142.5 88.5t163.5 30.5q102 0 190 -42.5zM540 172.5 q59 48.5 74 129.5h-415q12 -82 69.5 -130t134.5 -48q78 0 137 48.5z" horiz-adv-x="821"/>
<glyph glyph-name="uni04D9" unicode="ә" d="M466 510.5q70 -35.5 108 -98.5t38 -143q0 -79 -37.5 -142.5t-103 -99t-146.5 -35.5q-79 0 -143 34t-100.5 97.5t-36.5 147.5q0 3 3 42h407q-11 50 -52 79t-102 29q-42 0 -74.5 -12.5t-60.5 -39.5l-83 90q76 87 222 87q91 0 161 -35.5zM413 140q36 30 44 82h-265 q8 -51 44 -81.5t88 -30.5q53 0 89 30z" horiz-adv-x="643"/>
<glyph glyph-name="uni04DA" unicode="Ӛ" d="M587 669.5q88 -42.5 141.5 -124.5t53.5 -194q0 -111 -53 -193.5t-140 -126t-187 -43.5q-99 0 -183.5 43t-135.5 124t-51 191q0 32 6 65h573q-19 76 -79 120t-137 44q-49 0 -97.5 -20.5t-89.5 -60.5l-117 99q62 58 142.5 88.5t163.5 30.5q102 0 190 -42.5zM540 172.5 q59 48.5 74 129.5h-415q12 -82 69.5 -130t134.5 -48q78 0 137 48.5zM260 781.5q-20 19.5 -20 49.5t20 49.5t50 19.5t49.5 -19.5t19.5 -49.5t-19.5 -49.5t-49.5 -19.5t-50 19.5zM462.5 781.5q-19.5 19.5 -19.5 49.5t19.5 49.5t49.5 19.5t50 -19.5t20 -49.5t-20 -49.5 t-50 -19.5t-49.5 19.5z" horiz-adv-x="821"/>
<glyph glyph-name="uni04DB" unicode="ӛ" d="M466 510.5q70 -35.5 108 -98.5t38 -143q0 -79 -37.5 -142.5t-103 -99t-146.5 -35.5q-79 0 -143 34t-100.5 97.5t-36.5 147.5q0 3 3 42h407q-11 50 -52 79t-102 29q-42 0 -74.5 -12.5t-60.5 -39.5l-83 90q76 87 222 87q91 0 161 -35.5zM413 140q36 30 44 82h-265 q8 -51 44 -81.5t88 -30.5q53 0 89 30zM177 631.5q-20 19.5 -20 49.5t20 49.5t50 19.5t49.5 -19.5t19.5 -49.5t-19.5 -49.5t-49.5 -19.5t-50 19.5zM379.5 631.5q-19.5 19.5 -19.5 49.5t19.5 49.5t49.5 19.5t50 -19.5t20 -49.5t-20 -49.5t-50 -19.5t-49.5 19.5z" horiz-adv-x="643"/>
<glyph glyph-name="uni04DC" unicode="Ӝ" d="M722 282h-102v-282h-159v282h-104l-157 -282h-187l210 366l-197 334h171l157 -283h107v283h159v-283h104l158 283h171l-196 -334l209 -366h-187zM390 781.5q-20 19.5 -20 49.5t20 49.5t50 19.5t49.5 -19.5t19.5 -49.5t-19.5 -49.5t-49.5 -19.5t-50 19.5zM592.5 781.5 q-19.5 19.5 -19.5 49.5t19.5 49.5t49.5 19.5t50 -19.5t20 -49.5t-20 -49.5t-50 -19.5t-49.5 19.5z" horiz-adv-x="1079"/>
<glyph glyph-name="uni04DD" unicode="ӝ" d="M608 204h-75v-204h-154v204h-75l-114 -204h-184l169 278l-157 260h165l119 -209h77v209h154v-209h76l120 209h165l-157 -260l170 -278h-185zM306 631.5q-20 19.5 -20 49.5t20 49.5t50 19.5t49.5 -19.5t19.5 -49.5t-19.5 -49.5t-49.5 -19.5t-50 19.5zM508.5 631.5 q-19.5 19.5 -19.5 49.5t19.5 49.5t49.5 19.5t50 -19.5t20 -49.5t-20 -49.5t-50 -19.5t-49.5 19.5z" horiz-adv-x="913"/>
<glyph glyph-name="uni04DE" unicode="Ӟ" d="M580.5 299.5q34.5 -44.5 34.5 -103.5q0 -64 -42 -111t-113.5 -72t-156.5 -25q-72 0 -143.5 18t-135.5 55l50 116q46 -28 101.5 -42.5t108.5 -14.5q72 0 119.5 26t47.5 73q0 39 -32.5 59t-88.5 20h-171v122h159q49 0 76.5 20t27.5 55q0 41 -39.5 64t-101.5 23 q-46 0 -95 -12.5t-93 -37.5l-49 126q111 57 240 57q82 0 151 -24t110 -70t41 -107q0 -50 -27 -89t-74 -60q61 -21 95.5 -65.5zM173 781.5q-20 19.5 -20 49.5t20 49.5t50 19.5t49.5 -19.5t19.5 -49.5t-19.5 -49.5t-49.5 -19.5t-50 19.5zM375.5 781.5q-19.5 19.5 -19.5 49.5 t19.5 49.5t49.5 19.5t50 -19.5t20 -49.5t-20 -49.5t-50 -19.5t-49.5 19.5z" horiz-adv-x="656"/>
<glyph glyph-name="uni04DF" unicode="ӟ" d="M498.5 234q26.5 -31 26.5 -74q0 -51 -35 -89.5t-96 -59.5t-138 -21q-63 0 -124 13t-113 39l42 109q85 -41 188 -41q55 0 86.5 16.5t31.5 46.5q0 26 -22 39.5t-64 13.5h-110v97h96q41 0 63 13t22 38q0 26 -27.5 40t-78.5 14q-78 0 -170 -37l-38 108q112 49 218 49 q73 0 130.5 -18t90.5 -52.5t33 -80.5q0 -38 -23 -68.5t-63 -48.5q48 -15 74.5 -46zM126 631.5q-20 19.5 -20 49.5t20 49.5t50 19.5t49.5 -19.5t19.5 -49.5t-19.5 -49.5t-49.5 -19.5t-50 19.5zM328.5 631.5q-19.5 19.5 -19.5 49.5t19.5 49.5t49.5 19.5t50 -19.5t20 -49.5 t-20 -49.5t-50 -19.5t-49.5 19.5z" horiz-adv-x="563"/>
<glyph glyph-name="uni04E0" unicode="Ӡ" d="M548 348q53 -53 53 -133q0 -62 -33 -113.5t-101 -82.5t-168 -31q-78 0 -152 19.5t-122 54.5l55 125q42 -31 98.5 -48t115.5 -17q67 0 105 24.5t38 67.5q0 42 -35 65t-107 23h-75v105l156 164h-322v129h511v-105l-170 -179q100 -15 153 -68z" horiz-adv-x="638"/>
<glyph glyph-name="uni04E1" unicode="ӡ" d="M480 170.5q50 -55.5 50 -139.5q0 -64 -31.5 -117t-96 -84.5t-159.5 -31.5q-75 0 -144.5 20.5t-116.5 57.5l55 125q39 -32 92 -50t108 -18q62 0 97 26t35 72q0 45 -32 70.5t-98 25.5h-74v104l148 178h-303v129h486v-105l-161 -193q95 -14 145 -69.5z" horiz-adv-x="554"/>
<glyph glyph-name="uni04E2" unicode="Ӣ" d="M87 700h161v-456l334 456h152v-700h-160v455l-334 -455h-153v700zM225 873h370v-88h-370v88z" horiz-adv-x="821"/>
<glyph glyph-name="uni04E3" unicode="ӣ" d="M75 538h155v-320l262 320h143v-538h-155v320l-261 -320h-144v538zM160 723h370v-88h-370v88z" horiz-adv-x="710"/>
<glyph glyph-name="uni04E4" unicode="Ӥ" d="M87 700h161v-456l334 456h152v-700h-160v455l-334 -455h-153v700zM259 781.5q-20 19.5 -20 49.5t20 49.5t50 19.5t49.5 -19.5t19.5 -49.5t-19.5 -49.5t-49.5 -19.5t-50 19.5zM461.5 781.5q-19.5 19.5 -19.5 49.5t19.5 49.5t49.5 19.5t50 -19.5t20 -49.5t-20 -49.5 t-50 -19.5t-49.5 19.5z" horiz-adv-x="821"/>
<glyph glyph-name="uni04E5" unicode="ӥ" d="M75 538h155v-320l262 320h143v-538h-155v320l-261 -320h-144v538zM194 631.5q-20 19.5 -20 49.5t20 49.5t50 19.5t49.5 -19.5t19.5 -49.5t-19.5 -49.5t-49.5 -19.5t-50 19.5zM396.5 631.5q-19.5 19.5 -19.5 49.5t19.5 49.5t49.5 19.5t50 -19.5t20 -49.5t-20 -49.5 t-50 -19.5t-49.5 19.5z" horiz-adv-x="710"/>
<glyph glyph-name="uni04E6" unicode="Ӧ" d="M224.5 35q-87.5 47 -137 129.5t-49.5 185.5t49.5 185.5t137 129.5t196.5 47t196 -47t137 -129.5t50 -185.5t-50 -185.5t-137 -129.5t-196 -47t-196.5 47zM533 154.5q50 28.5 78.5 79.5t28.5 116t-28.5 116t-78.5 79.5t-112 28.5t-112 -28.5t-78.5 -79.5t-28.5 -116 t28.5 -116t78.5 -79.5t112 -28.5t112 28.5zM270 781.5q-20 19.5 -20 49.5t20 49.5t50 19.5t49.5 -19.5t19.5 -49.5t-19.5 -49.5t-49.5 -19.5t-50 19.5zM472.5 781.5q-19.5 19.5 -19.5 49.5t19.5 49.5t49.5 19.5t50 -19.5t20 -49.5t-20 -49.5t-50 -19.5t-49.5 19.5z" horiz-adv-x="842"/>
<glyph glyph-name="uni04E7" unicode="ӧ" d="M174.5 27.5q-67.5 35.5 -105.5 98.5t-38 143t38 143t105.5 98.5t152.5 35.5t152 -35.5t105 -98.5t38 -143t-38 -143t-105 -98.5t-152 -35.5t-152.5 35.5zM425.5 160.5q38.5 40.5 38.5 108.5t-38.5 108.5t-98.5 40.5t-99 -40.5t-39 -108.5t39 -108.5t99 -40.5t98.5 40.5z M174 631.5q-20 19.5 -20 49.5t20 49.5t50 19.5t49.5 -19.5t19.5 -49.5t-19.5 -49.5t-49.5 -19.5t-50 19.5zM376.5 631.5q-19.5 19.5 -19.5 49.5t19.5 49.5t49.5 19.5t50 -19.5t20 -49.5t-20 -49.5t-50 -19.5t-49.5 19.5z" horiz-adv-x="654"/>
<glyph glyph-name="uni04E8" unicode="Ө" d="M224.5 35q-87.5 47 -137 129.5t-49.5 185.5t49.5 185.5t137 129.5t196.5 47t196 -47t137 -129.5t50 -185.5t-50 -185.5t-137 -129.5t-196 -47t-196.5 47zM533 154.5q50 28.5 78.5 79.5t28.5 116t-28.5 116t-78.5 79.5t-112 28.5t-112 -28.5t-78.5 -79.5t-28.5 -116 t28.5 -116t78.5 -79.5t112 -28.5t112 28.5zM90.8721 404h666.098v-108h-666.098v108z" horiz-adv-x="842"/>
<glyph glyph-name="uni04E9" unicode="ө" d="M484.5 510.5q68.5 -35.5 107 -98.5t38.5 -143t-38.5 -143t-107 -98.5t-154.5 -35.5t-154 35.5t-106.5 98.5t-38.5 143t38.5 143t106.5 98.5t154 35.5t154.5 -35.5zM237 402q-38 -30 -51 -83h289q-13 53 -51.5 83t-93.5 30t-93 -30zM423.5 136q38.5 30 51.5 83h-289 q13 -52 51.5 -82.5t92.5 -30.5q55 0 93.5 30z" horiz-adv-x="661"/>
<glyph glyph-name="uni04EA" unicode="Ӫ" d="M224.5 35q-87.5 47 -137 129.5t-49.5 185.5t49.5 185.5t137 129.5t196.5 47t196 -47t137 -129.5t50 -185.5t-50 -185.5t-137 -129.5t-196 -47t-196.5 47zM533 154.5q50 28.5 78.5 79.5t28.5 116t-28.5 116t-78.5 79.5t-112 28.5t-112 -28.5t-78.5 -79.5t-28.5 -116 t28.5 -116t78.5 -79.5t112 -28.5t112 28.5zM90.8721 404h666.098v-108h-666.098v108zM270 781.5q-20 19.5 -20 49.5t20 49.5t50 19.5t49.5 -19.5t19.5 -49.5t-19.5 -49.5t-49.5 -19.5t-50 19.5zM472.5 781.5q-19.5 19.5 -19.5 49.5t19.5 49.5t49.5 19.5t50 -19.5t20 -49.5 t-20 -49.5t-50 -19.5t-49.5 19.5z" horiz-adv-x="842"/>
<glyph glyph-name="uni04EB" unicode="ӫ" d="M484.5 510.5q68.5 -35.5 107 -98.5t38.5 -143t-38.5 -143t-107 -98.5t-154.5 -35.5t-154 35.5t-106.5 98.5t-38.5 143t38.5 143t106.5 98.5t154 35.5t154.5 -35.5zM237 402q-38 -30 -51 -83h289q-13 53 -51.5 83t-93.5 30t-93 -30zM423.5 136q38.5 30 51.5 83h-289 q13 -52 51.5 -82.5t92.5 -30.5q55 0 93.5 30zM180 631.5q-20 19.5 -20 49.5t20 49.5t50 19.5t49.5 -19.5t19.5 -49.5t-19.5 -49.5t-49.5 -19.5t-50 19.5zM382.5 631.5q-19.5 19.5 -19.5 49.5t19.5 49.5t49.5 19.5t50 -19.5t20 -49.5t-20 -49.5t-50 -19.5t-49.5 19.5z" horiz-adv-x="661"/>
<glyph glyph-name="uni04EC" unicode="Ӭ" d="M497.5 665.5q82.5 -46.5 129.5 -129t47 -186.5t-47 -186.5t-129.5 -129t-186.5 -46.5q-93 0 -167.5 32t-124.5 93l103 96q74 -83 181 -83q77 0 130.5 45t69.5 121h-284v124h282q-17 72 -70 115t-128 43q-107 0 -181 -83l-103 96q50 61 124.5 93t167.5 32 q104 0 186.5 -46.5zM178 781.5q-20 19.5 -20 49.5t20 49.5t50 19.5t49.5 -19.5t19.5 -49.5t-19.5 -49.5t-49.5 -19.5t-50 19.5zM380.5 781.5q-19.5 19.5 -19.5 49.5t19.5 49.5t49.5 19.5t50 -19.5t20 -49.5t-20 -49.5t-50 -19.5t-49.5 19.5z" horiz-adv-x="714"/>
<glyph glyph-name="uni04ED" unicode="ӭ" d="M412.5 512.5q68.5 -35.5 107.5 -99.5t39 -144t-39 -144t-107.5 -99.5t-155.5 -35.5q-77 0 -139.5 25.5t-103.5 73.5l89 84q61 -63 148 -63q58 0 100 29t57 79h-226v107h224q-16 48 -57 76t-98 28q-86 0 -148 -64l-89 83q41 49 103.5 74.5t139.5 25.5q87 0 155.5 -35.5z M126 631.5q-20 19.5 -20 49.5t20 49.5t50 19.5t49.5 -19.5t19.5 -49.5t-19.5 -49.5t-49.5 -19.5t-50 19.5zM328.5 631.5q-19.5 19.5 -19.5 49.5t19.5 49.5t49.5 19.5t50 -19.5t20 -49.5t-20 -49.5t-50 -19.5t-49.5 19.5z" horiz-adv-x="590"/>
<glyph glyph-name="uni04EE" unicode="Ӯ" d="M719 700l-298 -554q-43 -80 -103.5 -121t-131.5 -41q-55 0 -114 24l39 123q42 -13 70 -13q30 0 54 14.5t44 45.5l6 8l-276 514h173l186 -376l192 376h159zM174 873h370v-88h-370v88z" horiz-adv-x="724"/>
<glyph glyph-name="uni04EF" unicode="ӯ" d="M614 538l-243 -571q-37 -93 -91.5 -131t-131.5 -38q-42 0 -83 13t-67 36l57 111q18 -16 41.5 -25t46.5 -9q32 0 52 15.5t36 51.5l2 5l-233 542h161l151 -365l152 365h150zM111 723h370v-88h-370v88z" horiz-adv-x="614"/>
<glyph glyph-name="uni04F0" unicode="Ӱ" d="M719 700l-298 -554q-43 -80 -103.5 -121t-131.5 -41q-55 0 -114 24l39 123q42 -13 70 -13q30 0 54 14.5t44 45.5l6 8l-276 514h173l186 -376l192 376h159zM208 781.5q-20 19.5 -20 49.5t20 49.5t50 19.5t49.5 -19.5t19.5 -49.5t-19.5 -49.5t-49.5 -19.5t-50 19.5z M410.5 781.5q-19.5 19.5 -19.5 49.5t19.5 49.5t49.5 19.5t50 -19.5t20 -49.5t-20 -49.5t-50 -19.5t-49.5 19.5z" horiz-adv-x="724"/>
<glyph glyph-name="uni04F1" unicode="ӱ" d="M614 538l-243 -571q-37 -93 -91.5 -131t-131.5 -38q-42 0 -83 13t-67 36l57 111q18 -16 41.5 -25t46.5 -9q32 0 52 15.5t36 51.5l2 5l-233 542h161l151 -365l152 365h150zM145 631.5q-20 19.5 -20 49.5t20 49.5t50 19.5t49.5 -19.5t19.5 -49.5t-19.5 -49.5t-49.5 -19.5 t-50 19.5zM347.5 631.5q-19.5 19.5 -19.5 49.5t19.5 49.5t49.5 19.5t50 -19.5t20 -49.5t-20 -49.5t-50 -19.5t-49.5 19.5z" horiz-adv-x="614"/>
<glyph glyph-name="uni04F2" unicode="Ӳ" d="M719 700l-298 -554q-43 -80 -103.5 -121t-131.5 -41q-55 0 -114 24l39 123q42 -13 70 -13q30 0 54 14.5t44 45.5l6 8l-276 514h173l186 -376l192 376h159zM273 901h146l-104 -144h-114zM475 901h146l-104 -144h-114z" horiz-adv-x="724"/>
<glyph glyph-name="uni04F3" unicode="ӳ" d="M614 538l-243 -571q-37 -93 -91.5 -131t-131.5 -38q-42 0 -83 13t-67 36l57 111q18 -16 41.5 -25t46.5 -9q32 0 52 15.5t36 51.5l2 5l-233 542h161l151 -365l152 365h150zM210 751h146l-104 -144h-114zM412 751h146l-104 -144h-114z" horiz-adv-x="614"/>
<glyph glyph-name="uni04F4" unicode="Ӵ" d="M662 700v-700h-160v252q-91 -33 -169 -33q-141 0 -216 67.5t-75 194.5v219h160v-201q0 -72 38.5 -108.5t111.5 -36.5q80 0 150 31v315h160zM204 781.5q-20 19.5 -20 49.5t20 49.5t50 19.5t49.5 -19.5t19.5 -49.5t-19.5 -49.5t-49.5 -19.5t-50 19.5zM406.5 781.5 q-19.5 19.5 -19.5 49.5t19.5 49.5t49.5 19.5t50 -19.5t20 -49.5t-20 -49.5t-50 -19.5t-49.5 19.5z" horiz-adv-x="749"/>
<glyph glyph-name="uni04F5" unicode="ӵ" d="M559 538v-538h-156v200q-68 -34 -150 -34q-109 0 -164.5 49.5t-55.5 153.5v169h156v-159q0 -49 25.5 -71t73.5 -22q61 0 115 26v226h156zM142 631.5q-20 19.5 -20 49.5t20 49.5t50 19.5t49.5 -19.5t19.5 -49.5t-19.5 -49.5t-49.5 -19.5t-50 19.5zM344.5 631.5 q-19.5 19.5 -19.5 49.5t19.5 49.5t49.5 19.5t50 -19.5t20 -49.5t-20 -49.5t-50 -19.5t-49.5 19.5z" horiz-adv-x="634"/>
<glyph glyph-name="uni04F6" unicode="Ӷ" d="M580 568h-333l1 -568h-161v700h494zM346 132v-277h-150v145h-109v132h259z" horiz-adv-x="593"/>
<glyph glyph-name="uni04F7" unicode="ӷ" d="M506 410h-276v-410h-155v538h431v-128zM309 128v-235h-145v107h-89v128h234z" horiz-adv-x="514"/>
<glyph glyph-name="uni04F8" unicode="Ӹ" d="M622.5 413q68.5 -57 68.5 -169q0 -119 -75.5 -181.5t-212.5 -62.5h-316v700h161v-230h178q128 0 196.5 -57zM492.5 151q35.5 31 35.5 90q0 109 -134 109h-146v-230h146q63 0 98.5 31zM780 700h161v-700h-161v700zM366 781.5q-20 19.5 -20 49.5t20 49.5t50 19.5 t49.5 -19.5t19.5 -49.5t-19.5 -49.5t-49.5 -19.5t-50 19.5zM568.5 781.5q-19.5 19.5 -19.5 49.5t19.5 49.5t49.5 19.5t50 -19.5t20 -49.5t-20 -49.5t-50 -19.5t-49.5 19.5z" horiz-adv-x="1028"/>
<glyph glyph-name="uni04F9" unicode="ӹ" d="M517 319q54 -46 54 -132q0 -90 -61 -139t-173 -49l-262 1v538h155v-172h128q105 -1 159 -47zM629 538h155v-538h-155v538zM392 129q24 20 24 60q0 39 -23.5 57t-69.5 19l-93 1v-156h93q45 -1 69 19zM285 631.5q-20 19.5 -20 49.5t20 49.5t50 19.5t49.5 -19.5t19.5 -49.5 t-19.5 -49.5t-49.5 -19.5t-50 19.5zM487.5 631.5q-19.5 19.5 -19.5 49.5t19.5 49.5t49.5 19.5t50 -19.5t20 -49.5t-20 -49.5t-50 -19.5t-49.5 19.5z" horiz-adv-x="859"/>
<glyph glyph-name="uni04FA" unicode="Ӻ" d="M285 568v-196h273v-102h-273v-160h85v-121q0 -61 -26 -104.5t-71 -65.5t-101 -22q-68 0 -133 32l39 105q30 -17 62 -17q33 0 53 20.5t20 59.5v3h-90v270h-103v102h103v328h496v-132h-334z" horiz-adv-x="641"/>
<glyph glyph-name="uni04FB" unicode="ӻ" d="M264 410v-108h188v-94h-188v-100h78v-113q0 -92 -54 -144.5t-145 -52.5q-70 0 -127 31l38 104q29 -19 64 -19q33 0 50.5 21t17.5 62v3h-78v208h-86v94h86v236h393v-128h-237z" horiz-adv-x="522"/>
<glyph glyph-name="uni04FC" unicode="Ӽ" d="M457 366q86 -103 133.5 -165.5t76 -118.5t28.5 -105q0 -57 -27 -98.5t-73 -63t-102 -21.5q-68 0 -130 31l38 111q32 -15 57 -15q27 0 43.5 17t16.5 47q0 41 -41 103.5t-118 153.5l-166 -242h-185l257 357l-246 343h185l160 -225l158 225h176z" horiz-adv-x="719"/>
<glyph glyph-name="uni04FD" unicode="ӽ" d="M504.5 152q38.5 -50 60 -96t21.5 -91q0 -52 -25.5 -90t-69 -58t-97.5 -20q-62 0 -130 30l40 112q36 -18 64 -18t45 15.5t17 40.5q0 32 -29 75.5t-95 118.5l-130 -171h-172l207 272l-200 266h176l114 -155l116 155h167l-191 -252q73 -84 111.5 -134z" horiz-adv-x="594"/>
<glyph glyph-name="uni04FE" unicode="Ӿ" d="M718 0h-192l-163 232l-161 -232h-188l216 307h-142v103h142l-199 290h186l146 -212l146 212h188l-201 -290h141v-103h-132z" horiz-adv-x="731"/>
<glyph glyph-name="uni04FF" unicode="ӿ" d="M418 0l-116 163l-122 -163h-170l169 221h-103v94h106l-164 223h177l113 -158l117 158h165l-168 -223h113v-94h-101l164 -221h-180z" horiz-adv-x="609"/>
<glyph glyph-name="uni0510" unicode="Ԑ" d="M632 61q-63 -36 -135.5 -54.5t-143.5 -18.5q-85 0 -156.5 25t-113.5 72t-42 111q0 59 34.5 103.5t94.5 65.5q-47 21 -74 60t-27 89q0 61 41 107t110.5 70t151.5 24q61 0 122.5 -14t117.5 -43l-49 -126q-44 25 -93 37.5t-95 12.5q-62 0 -101.5 -23t-39.5 -64 q0 -35 27.5 -55t76.5 -20h158v-122h-171q-56 0 -88 -20t-32 -59q0 -47 47.5 -73t119.5 -26q53 0 108.5 14.5t101.5 42.5z" horiz-adv-x="656"/>
<glyph glyph-name="uni0511" unicode="ԑ" d="M543 42q-52 -26 -113 -39t-124 -13q-77 0 -138 21t-96 59.5t-35 89.5q0 43 26.5 74t74.5 46q-40 18 -63 48.5t-23 68.5q0 46 33 80.5t90.5 52.5t130.5 18q106 0 218 -49l-38 -108q-93 37 -170 37q-51 0 -78.5 -14t-27.5 -40q0 -25 22 -38t63 -13h96v-97h-110 q-42 0 -64 -13.5t-22 -39.5q0 -30 31.5 -46.5t86.5 -16.5q103 0 188 41z" horiz-adv-x="562"/>
<glyph glyph-name="uni0512" unicode="Ԓ" d="M421 -59q30 -18 61 -18t50 18t19 52v575h-240l-5 -146q-5 -148 -24 -241t-64 -142.5t-125 -49.5q-31 0 -80 11l10 137q15 -4 29 -4q40 0 63 32.5t33.5 93t14.5 157.5l10 284h538v-711q0 -63 -27.5 -106.5t-73.5 -65t-100 -21.5q-68 0 -130 32z" horiz-adv-x="799"/>
<glyph glyph-name="uni0513" unicode="ԓ" d="M592 538v-539q0 -92 -53 -146.5t-148 -54.5q-36 0 -69.5 7.5t-56.5 22.5l41 112q29 -19 62 -19t50.5 20t17.5 59v410h-171l-5 -95q-4 -106 -20 -176t-52 -110t-100 -40q-34 0 -81 12l8 128q16 -2 23 -2q35 0 52.5 25.5t23.5 65t9 104.5l8 216h461z" horiz-adv-x="666"/>
<glyph glyph-name="uni051A" unicode="Ԛ" d="M839 -75q-34 -42 -82.5 -64t-106.5 -22q-78 0 -141 33.5t-144 118.5q-95 12 -169.5 61t-116 126.5t-41.5 171.5q0 103 49.5 185.5t137 129.5t196.5 47t196 -47t137 -129.5t50 -185.5q0 -122 -68.5 -214t-181.5 -128q25 -26 48.5 -37.5t50.5 -11.5q65 0 114 52zM230.5 234 q28.5 -51 78.5 -79.5t112 -28.5t112 28.5t78.5 79.5t28.5 116t-28.5 116t-78.5 79.5t-112 28.5t-112 -28.5t-78.5 -79.5t-28.5 -116t28.5 -116z" horiz-adv-x="847"/>
<glyph glyph-name="uni051B" unicode="ԛ" d="M619 538v-732h-156v251q-58 -65 -161 -65q-76 0 -137.5 34t-96.5 97t-35 146t35 146t96.5 97t137.5 34q110 0 168 -70v62h149zM427 160.5q39 40.5 39 108.5t-39 108.5t-98 40.5q-60 0 -99 -40.5t-39 -108.5t39 -108.5t99 -40.5q59 0 98 40.5z" horiz-adv-x="694"/>
<glyph glyph-name="uni051C" unicode="Ԝ" d="M1113 700l-227 -700h-171l-149 471l-154 -471h-171l-228 700h168l155 -485l159 485h150l153 -488l160 488h155z" horiz-adv-x="1127"/>
<glyph glyph-name="uni051D" unicode="ԝ" d="M965 538l-198 -538h-161l-120 338l-122 -338h-162l-198 538h158l125 -355l131 355h143l126 -356l131 356h147z" horiz-adv-x="970"/>
<glyph glyph-name="uni0524" unicode="Ԥ" d="M725 700v-700h-161v568h-316v-568h-161v700h638zM823 132v-277h-150v145h-109v132h259z" horiz-adv-x="847"/>
<glyph glyph-name="uni0525" unicode="ԥ" d="M610 538v-538h-156v410h-224v-410h-155v538h535zM688 128v-235h-145v107h-89v128h234z" horiz-adv-x="685"/>
<glyph glyph-name="uni0526" unicode="Ԧ" d="M632 413.5q75 -67.5 75 -194.5v-219h-160v201q0 72 -38.5 108.5t-111.5 36.5q-79 0 -149 -31v-315h-161v700h161v-252q92 33 169 33q140 0 215 -67.5zM806 132v-277h-150v145h-109v132h259z" horiz-adv-x="822"/>
<glyph glyph-name="uni0527" unicode="ԧ" d="M704 128v-235h-145v107h-91v283q0 63 -28 94.5t-79 31.5q-60 0 -95 -37t-35 -108v-264h-156v742h156v-269q31 36 76 54.5t99 18.5q99 0 158.5 -59.5t59.5 -176.5v-182h80z" horiz-adv-x="722"/>
<glyph glyph-name="uni0528" unicode="Ԩ" d="M-42 -59q30 -18 60 -18q31 0 50 18t19 52v707h160v-287h319v287h160v-700h-160v280h-319v-291q0 -63 -27.5 -106.5t-73.5 -65t-100 -21.5q-67 0 -129 32z" horiz-adv-x="813"/>
<glyph glyph-name="uni0529" unicode="ԩ" d="M621 538v-538h-156v204h-234v-206q0 -92 -52.5 -146t-145.5 -54q-38 0 -71 7.5t-57 22.5l41 112q27 -19 64 -19q31 0 48 20t17 59v538h156v-206h234v206h156z" horiz-adv-x="695"/>
<glyph glyph-name="uni052E" unicode="Ԯ" d="M711 700v-700h-160v568h-240l-5 -146q-5 -149 -24 -241.5t-63.5 -142t-124.5 -49.5q-33 0 -80 11l10 137q13 -4 29 -4q58 0 81 68.5t29 214.5l10 284h538zM810 132v-277h-150v145h-109v132h259z" horiz-adv-x="834"/>
<glyph glyph-name="uni052F" unicode="ԯ" d="M591 538v-538h-156v410h-170l-5 -95q-4 -106 -20 -176t-52 -110t-100 -40q-34 0 -81 12l8 128q16 -2 23 -2q35 0 52.5 25.5t23.5 65t9 104.5l8 216h460zM669 128v-235h-145v107h-89v128h234z" horiz-adv-x="692"/>
<glyph glyph-name="uni1E08" unicode="Ḉ" d="M224.5 34.5q-86.5 46.5 -136 129t-49.5 186.5t49.5 186.5t136 129t194.5 46.5q91 0 164.5 -32t123.5 -92l-104 -96q-71 82 -176 82q-65 0 -116 -28.5t-79.5 -79.5t-28.5 -116t28.5 -116t79.5 -79.5t116 -28.5q105 0 176 83l104 -96q-50 -61 -124 -93t-165 -32 q-107 0 -193.5 46.5zM313 -226.5q-25 5.5 -42 15.5l24 67q32 -15 65 -15q52 0 52 32q0 29 -49 29h-34l26 106h83l-14 -58q44 -5 65.5 -27.5t21.5 -55.5q0 -46 -40 -72.5t-107 -26.5q-26 0 -51 5.5zM458 901h168l-181 -144h-122z" horiz-adv-x="733"/>
<glyph glyph-name="uni1E09" unicode="ḉ" d="M177.5 27.5q-68.5 35.5 -107 98.5t-38.5 143t38.5 143t107 98.5t154.5 35.5q85 0 148.5 -35.5t92.5 -101.5l-121 -65q-42 74 -121 74q-61 0 -101 -40t-40 -109t40 -109t101 -40q80 0 121 74l121 -66q-29 -64 -92.5 -100t-148.5 -36q-86 0 -154.5 35.5zM224 -226.5 q-25 5.5 -42 15.5l24 67q32 -15 65 -15q52 0 52 32q0 29 -49 29h-34l26 106h83l-14 -58q44 -5 65.5 -27.5t21.5 -55.5q0 -46 -40 -72.5t-107 -26.5q-26 0 -51 5.5zM357 751h168l-181 -144h-122z" horiz-adv-x="591"/>
<glyph glyph-name="uni1E0C" unicode="Ḍ" d="M83 700h318q114 0 201.5 -43.5t136 -122.5t48.5 -184t-48.5 -184t-136 -122.5t-201.5 -43.5h-318v700zM393 133q105 0 167.5 58.5t62.5 158.5t-62.5 158.5t-167.5 58.5h-148v-434h148zM323.5 -191.5q-19.5 18.5 -19.5 48.5t19.5 50t49.5 20q29 0 49 -20t20 -50 t-19.5 -48.5t-49.5 -18.5t-49.5 18.5z" horiz-adv-x="826"/>
<glyph glyph-name="uni1E0D" unicode="ḍ" d="M620 742v-742h-149v62q-58 -70 -168 -70q-76 0 -137.5 34t-96.5 97t-35 146t35 146t96.5 97t137.5 34q103 0 161 -65v261h156zM428 160.5q39 40.5 39 108.5t-39 108.5t-98 40.5q-60 0 -99 -40.5t-39 -108.5t39 -108.5t99 -40.5q59 0 98 40.5zM313.5 -191.5 q-19.5 18.5 -19.5 48.5t19.5 50t49.5 20q29 0 49 -20t20 -50t-19.5 -48.5t-49.5 -18.5t-49.5 18.5z" horiz-adv-x="692"/>
<glyph glyph-name="uni1E0E" unicode="Ḏ" d="M83 700h318q114 0 201.5 -43.5t136 -122.5t48.5 -184t-48.5 -184t-136 -122.5t-201.5 -43.5h-318v700zM393 133q105 0 167.5 58.5t62.5 158.5t-62.5 158.5t-167.5 58.5h-148v-434h148zM188 -95h370v-87h-370v87z" horiz-adv-x="826"/>
<glyph glyph-name="uni1E0F" unicode="ḏ" d="M620 742v-742h-149v62q-58 -70 -168 -70q-76 0 -137.5 34t-96.5 97t-35 146t35 146t96.5 97t137.5 34q103 0 161 -65v261h156zM428 160.5q39 40.5 39 108.5t-39 108.5t-98 40.5q-60 0 -99 -40.5t-39 -108.5t39 -108.5t99 -40.5q59 0 98 40.5zM178 -95h370v-87h-370v87z " horiz-adv-x="692"/>
<glyph glyph-name="uni1E14" unicode="Ḕ" d="M625 130v-130h-542v700h529v-130h-368v-152h325v-126h-325v-162h381zM163 856h370v-83h-370v83zM165 1039h159l110 -121h-112z" horiz-adv-x="671"/>
<glyph glyph-name="uni1E15" unicode="ḕ" d="M596 225h-407q11 -50 52 -79t102 -29q42 0 74.5 12.5t60.5 39.5l83 -90q-76 -87 -222 -87q-91 0 -161 35.5t-108 98.5t-38 143q0 79 37.5 142.5t103 99t146.5 35.5q79 0 143 -34t100.5 -97.5t36.5 -147.5q0 -3 -3 -42zM231 398q-36 -30 -44 -82h265q-8 51 -44 81.5 t-88 30.5q-53 0 -89 -30zM131 706h370v-83h-370v83zM133 889h159l110 -121h-112z" horiz-adv-x="631"/>
<glyph glyph-name="uni1E16" unicode="Ḗ" d="M625 130v-130h-542v700h529v-130h-368v-152h325v-126h-325v-162h381zM163 856h370v-83h-370v83zM373 1039h159l-157 -121h-113z" horiz-adv-x="671"/>
<glyph glyph-name="uni1E17" unicode="ḗ" d="M596 225h-407q11 -50 52 -79t102 -29q42 0 74.5 12.5t60.5 39.5l83 -90q-76 -87 -222 -87q-91 0 -161 35.5t-108 98.5t-38 143q0 79 37.5 142.5t103 99t146.5 35.5q79 0 143 -34t100.5 -97.5t36.5 -147.5q0 -3 -3 -42zM231 398q-36 -30 -44 -82h265q-8 51 -44 81.5 t-88 30.5q-53 0 -89 -30zM131 706h370v-83h-370v83zM341 889h159l-157 -121h-113z" horiz-adv-x="631"/>
<glyph glyph-name="uni1E1C" unicode="Ḝ" d="M625 130v-130h-542v700h529v-130h-368v-152h325v-126h-325v-162h381zM269 -226.5q-25 5.5 -42 15.5l24 67q32 -15 65 -15q52 0 52 32q0 29 -49 29h-34l26 106h83l-14 -58q44 -5 65.5 -27.5t21.5 -55.5q0 -46 -40 -72.5t-107 -26.5q-26 0 -51 5.5zM218 790q-51 41 -54 111 h98q1 -32 25.5 -51.5t60.5 -19.5t60.5 19.5t25.5 51.5h98q-3 -70 -54 -111t-130 -41t-130 41z" horiz-adv-x="671"/>
<glyph glyph-name="uni1E1D" unicode="ḝ" d="M596 225h-407q11 -50 52 -79t102 -29q42 0 74.5 12.5t60.5 39.5l83 -90q-76 -87 -222 -87q-91 0 -161 35.5t-108 98.5t-38 143q0 79 37.5 142.5t103 99t146.5 35.5q79 0 143 -34t100.5 -97.5t36.5 -147.5q0 -3 -3 -42zM231 398q-36 -30 -44 -82h265q-8 51 -44 81.5 t-88 30.5q-53 0 -89 -30zM232 -226.5q-25 5.5 -42 15.5l24 67q32 -15 65 -15q52 0 52 32q0 29 -49 29h-34l26 106h83l-14 -58q44 -5 65.5 -27.5t21.5 -55.5q0 -46 -40 -72.5t-107 -26.5q-26 0 -51 5.5zM186 640q-51 41 -54 111h98q1 -32 25.5 -51.5t60.5 -19.5t60.5 19.5 t25.5 51.5h98q-3 -70 -54 -111t-130 -41t-130 41z" horiz-adv-x="631"/>
<glyph glyph-name="uni1E20" unicode="Ḡ" d="M556 361h148v-284q-57 -43 -132 -66t-151 -23q-109 0 -196 46.5t-136.5 129t-49.5 186.5t49.5 186.5t137.5 129t198 46.5q92 0 167 -31t126 -90l-104 -96q-75 79 -181 79q-67 0 -119 -28t-81 -79t-29 -117q0 -65 29 -116t80.5 -79.5t117.5 -28.5q70 0 126 30v205z M232 873h370v-88h-370v88z" horiz-adv-x="771"/>
<glyph glyph-name="uni1E21" unicode="ḡ" d="M627 538v-448q0 -148 -77 -220t-225 -72q-78 0 -148 19t-116 55l62 112q34 -28 86 -44.5t104 -16.5q81 0 119.5 36.5t38.5 110.5v23q-61 -67 -170 -67q-74 0 -135.5 32.5t-97.5 91.5t-36 136t36 136t97.5 91.5t135.5 32.5q117 0 178 -77v69h148zM433.5 190.5 q39.5 36.5 39.5 95.5t-39.5 95.5t-101.5 36.5t-102 -36.5t-40 -95.5t40 -95.5t102 -36.5t101.5 36.5zM156 723h370v-88h-370v88z" horiz-adv-x="700"/>
<glyph glyph-name="uni1E24" unicode="Ḥ" d="M725 700v-700h-162v287h-318v-287h-162v700h162v-276h318v276h162zM354.5 -191.5q-19.5 18.5 -19.5 48.5t19.5 50t49.5 20q29 0 49 -20t20 -50t-19.5 -48.5t-49.5 -18.5t-49.5 18.5z" horiz-adv-x="808"/>
<glyph glyph-name="uni1E25" unicode="ḥ" d="M560.5 486q61.5 -60 61.5 -178v-308h-156v284q0 64 -28 95.5t-81 31.5q-59 0 -94 -36.5t-35 -108.5v-266h-156v742h156v-260q31 31 75 47.5t96 16.5q100 0 161.5 -60zM298.5 -191.5q-19.5 18.5 -19.5 48.5t19.5 50t49.5 20q29 0 49 -20t20 -50t-19.5 -48.5t-49.5 -18.5 t-49.5 18.5z" horiz-adv-x="691"/>
<glyph glyph-name="uni1E2A" unicode="Ḫ" d="M725 700v-700h-162v287h-318v-287h-162v700h162v-276h318v276h162zM275 -177.5q-51 39.5 -55 103.5h93q1 -30 26.5 -48.5t64.5 -18.5t64.5 18.5t26.5 48.5h93q-4 -64 -55 -103.5t-129 -39.5t-129 39.5z" horiz-adv-x="808"/>
<glyph glyph-name="uni1E2B" unicode="ḫ" d="M560.5 486q61.5 -60 61.5 -178v-308h-156v284q0 64 -28 95.5t-81 31.5q-59 0 -94 -36.5t-35 -108.5v-266h-156v742h156v-260q31 31 75 47.5t96 16.5q100 0 161.5 -60zM219 -177.5q-51 39.5 -55 103.5h93q1 -30 26.5 -48.5t64.5 -18.5t64.5 18.5t26.5 48.5h93 q-4 -64 -55 -103.5t-129 -39.5t-129 39.5z" horiz-adv-x="691"/>
<glyph glyph-name="uni1E2E" unicode="Ḯ" d="M83 700h162v-700h-162v700zM19 780.5q-19 18.5 -19 47.5q0 28 19 47t47 19q29 0 48 -19t19 -47q0 -29 -19 -47.5t-48 -18.5q-28 0 -47 18.5zM215 780.5q-19 18.5 -19 47.5q0 28 19.5 47t46.5 19q28 0 47 -19t19 -47q0 -29 -19 -47.5t-47 -18.5t-47 18.5zM189 1039h159 l-157 -121h-113z" horiz-adv-x="328"/>
<glyph glyph-name="uni1E2F" unicode="ḯ" d="M72 538h156v-538h-156v538zM5 630.5q-19 18.5 -19 47.5q0 28 19 47t47 19q29 0 48 -19t19 -47q0 -29 -19 -47.5t-48 -18.5q-28 0 -47 18.5zM201 630.5q-19 18.5 -19 47.5q0 28 19.5 47t46.5 19q28 0 47 -19t19 -47q0 -29 -19 -47.5t-47 -18.5t-47 18.5zM175 889h159 l-157 -121h-113z" horiz-adv-x="301"/>
<glyph glyph-name="uni1E36" unicode="Ḷ" d="M83 700h162v-568h351v-132h-513v700zM301.5 -191.5q-19.5 18.5 -19.5 48.5t19.5 50t49.5 20q29 0 49 -20t20 -50t-19.5 -48.5t-49.5 -18.5t-49.5 18.5z" horiz-adv-x="604"/>
<glyph glyph-name="uni1E37" unicode="ḷ" d="M72 742h156v-742h-156v742zM100.5 -191.5q-19.5 18.5 -19.5 48.5t19.5 50t49.5 20q29 0 49 -20t20 -50t-19.5 -48.5t-49.5 -18.5t-49.5 18.5z" horiz-adv-x="301"/>
<glyph glyph-name="uni1E3A" unicode="Ḻ" d="M83 700h162v-568h351v-132h-513v700zM166 -95h370v-87h-370v87z" horiz-adv-x="604"/>
<glyph glyph-name="uni1E3B" unicode="ḻ" d="M72 742h156v-742h-156v742zM-35 -95h370v-87h-370v87z" horiz-adv-x="301"/>
<glyph glyph-name="uni1E42" unicode="Ṃ" d="M720 0l-1 420l-206 -346h-73l-205 337v-411h-152v700h134l262 -435l258 435h133l2 -700h-152zM427.5 -191.5q-19.5 18.5 -19.5 48.5t19.5 50t49.5 20q29 0 49 -20t20 -50t-19.5 -48.5t-49.5 -18.5t-49.5 18.5z" horiz-adv-x="955"/>
<glyph glyph-name="uni1E43" unicode="ṃ" d="M921.5 486.5q59.5 -59.5 59.5 -178.5v-308h-156v284q0 64 -26.5 95.5t-75.5 31.5q-55 0 -87 -35.5t-32 -105.5v-270h-156v284q0 127 -102 127q-54 0 -86 -35.5t-32 -105.5v-270h-156v538h149v-62q30 34 73.5 52t95.5 18q57 0 103 -22.5t74 -65.5q33 42 83.5 65t110.5 23 q101 0 160.5 -59.5zM475.5 -191.5q-19.5 18.5 -19.5 48.5t19.5 50t49.5 20q29 0 49 -20t20 -50t-19.5 -48.5t-49.5 -18.5t-49.5 18.5z" horiz-adv-x="1049"/>
<glyph glyph-name="uni1E44" unicode="Ṅ" d="M725 700v-700h-133l-349 425v-425h-160v700h134l348 -425v425h160zM343.5 786q-23.5 24 -23.5 61q0 36 23.5 60t60.5 24t60.5 -24t23.5 -60q0 -37 -23.5 -61t-60.5 -24t-60.5 24z" horiz-adv-x="808"/>
<glyph glyph-name="uni1E45" unicode="ṅ" d="M560.5 486q61.5 -60 61.5 -178v-308h-156v284q0 64 -28 95.5t-81 31.5q-59 0 -94 -36.5t-35 -108.5v-266h-156v538h149v-63q31 34 77 52.5t101 18.5q100 0 161.5 -60zM287.5 636q-23.5 24 -23.5 61q0 36 23.5 60t60.5 24t60.5 -24t23.5 -60q0 -37 -23.5 -61t-60.5 -24 t-60.5 24z" horiz-adv-x="691"/>
<glyph glyph-name="uni1E46" unicode="Ṇ" d="M725 700v-700h-133l-349 425v-425h-160v700h134l348 -425v425h160zM354.5 -191.5q-19.5 18.5 -19.5 48.5t19.5 50t49.5 20q29 0 49 -20t20 -50t-19.5 -48.5t-49.5 -18.5t-49.5 18.5z" horiz-adv-x="808"/>
<glyph glyph-name="uni1E47" unicode="ṇ" d="M560.5 486q61.5 -60 61.5 -178v-308h-156v284q0 64 -28 95.5t-81 31.5q-59 0 -94 -36.5t-35 -108.5v-266h-156v538h149v-63q31 34 77 52.5t101 18.5q100 0 161.5 -60zM298.5 -191.5q-19.5 18.5 -19.5 48.5t19.5 50t49.5 20q29 0 49 -20t20 -50t-19.5 -48.5t-49.5 -18.5 t-49.5 18.5z" horiz-adv-x="691"/>
<glyph glyph-name="uni1E48" unicode="Ṉ" d="M725 700v-700h-133l-349 425v-425h-160v700h134l348 -425v425h160zM219 -95h370v-87h-370v87z" horiz-adv-x="808"/>
<glyph glyph-name="uni1E49" unicode="ṉ" d="M560.5 486q61.5 -60 61.5 -178v-308h-156v284q0 64 -28 95.5t-81 31.5q-59 0 -94 -36.5t-35 -108.5v-266h-156v538h149v-63q31 34 77 52.5t101 18.5q100 0 161.5 -60zM163 -95h370v-87h-370v87z" horiz-adv-x="691"/>
<glyph glyph-name="uni1E4C" unicode="Ṍ" d="M225.5 35q-87.5 47 -137 129.5t-49.5 185.5t49.5 185.5t137 129.5t196.5 47t196 -47t137 -129.5t50 -185.5t-50 -185.5t-137 -129.5t-196 -47t-196.5 47zM534 154.5q50 28.5 78.5 79.5t28.5 116t-28.5 116t-78.5 79.5t-112 28.5t-112 -28.5t-78.5 -79.5t-28.5 -116 t28.5 -116t78.5 -79.5t112 -28.5t112 28.5zM448 763.5q-21 8.5 -46 24.5q-12 7 -23.5 13t-20.5 6q-20 0 -31 -12t-13 -34h-80q1 60 31.5 92.5t84.5 32.5q26 0 44.5 -8t46.5 -24q16 -10 26.5 -15t20.5 -5q20 0 31 12.5t13 32.5h78q-1 -58 -31 -91t-83 -33q-27 0 -48 8.5z M447 1039h159l-157 -121h-113z" horiz-adv-x="844"/>
<glyph glyph-name="uni1E4D" unicode="ṍ" d="M175.5 27.5q-67.5 35.5 -105.5 98.5t-38 143t38 143t105.5 98.5t152.5 35.5t152 -35.5t105 -98.5t38 -143t-38 -143t-105 -98.5t-152 -35.5t-152.5 35.5zM426.5 160.5q38.5 40.5 38.5 108.5t-38.5 108.5t-98.5 40.5t-99 -40.5t-39 -108.5t39 -108.5t99 -40.5t98.5 40.5z M352 613.5q-21 8.5 -46 24.5q-12 7 -23.5 13t-20.5 6q-20 0 -31 -12t-13 -34h-80q1 60 31.5 92.5t84.5 32.5q26 0 44.5 -8t46.5 -24q16 -10 26.5 -15t20.5 -5q20 0 31 12.5t13 32.5h78q-1 -58 -31 -91t-83 -33q-27 0 -48 8.5zM351 889h159l-157 -121h-113z" horiz-adv-x="655"/>
<glyph glyph-name="uni1E4E" unicode="Ṏ" d="M225.5 35q-87.5 47 -137 129.5t-49.5 185.5t49.5 185.5t137 129.5t196.5 47t196 -47t137 -129.5t50 -185.5t-50 -185.5t-137 -129.5t-196 -47t-196.5 47zM534 154.5q50 28.5 78.5 79.5t28.5 116t-28.5 116t-78.5 79.5t-112 28.5t-112 -28.5t-78.5 -79.5t-28.5 -116 t28.5 -116t78.5 -79.5t112 -28.5t112 28.5zM448 763.5q-21 8.5 -46 24.5q-12 7 -23.5 13t-20.5 6q-20 0 -31 -12t-13 -34h-80q1 60 31.5 92.5t84.5 32.5q26 0 44.5 -8t46.5 -24q16 -10 26.5 -15t20.5 -5q20 0 31 12.5t13 32.5h78q-1 -58 -31 -91t-83 -33q-27 0 -48 8.5z M277 941.5q-19 18.5 -19 47.5q0 28 19 47t47 19q29 0 48 -19t19 -47q0 -29 -19 -47.5t-48 -18.5q-28 0 -47 18.5zM473 941.5q-19 18.5 -19 47.5q0 28 19.5 47t46.5 19q28 0 47 -19t19 -47q0 -29 -19 -47.5t-47 -18.5t-47 18.5z" horiz-adv-x="844"/>
</font>
</defs>
</svg>
