<svg width="232" height="53" viewBox="0 0 232 53" fill="none" xmlns="http://www.w3.org/2000/svg">
<path d="M52.7482 4.53426H63.4329C68.843 4.53426 72.4947 8.92123 72.4947 13.1753C72.4947 17.5622 68.843 21.9493 63.4329 21.9493H56.8057V28.9949H52.7482V4.53426ZM63.0272 18.227C66.5436 18.227 68.4372 15.5682 68.4372 13.1753C68.4372 10.6494 66.5436 8.12361 63.0272 8.12361H56.8057V18.227H63.0272Z" fill="#323E48"/>
<path d="M73.712 20.0884C73.712 14.9037 77.3638 10.7827 83.0443 10.7827C88.8601 10.7827 91.7004 15.5685 91.7004 20.3542V21.2848H77.7695C78.3105 24.3423 81.0156 26.0706 84.6673 26.0706C86.9666 26.0706 88.8601 25.406 90.4831 24.4753V27.7988C88.9954 28.8623 86.5608 29.527 83.8557 29.527C78.1752 29.527 73.712 25.8047 73.712 20.0884ZM87.6428 18.2273C87.6428 16.3661 86.1551 13.9732 82.909 13.9732C79.7983 13.9732 78.0401 16.1001 77.9048 18.2273H87.6428Z" fill="#323E48"/>
<path d="M95.2163 11.181H99.2738V18.0939H108.471V11.181H112.528V28.9948H108.471V21.5502H99.2738V28.9948H95.2163V11.181Z" fill="#323E48"/>
<path d="M115.91 20.0884C115.91 14.9037 119.562 10.7827 125.242 10.7827C131.058 10.7827 133.898 15.5685 133.898 20.3542V21.2848H119.967C120.508 24.3423 123.214 26.0706 126.865 26.0706C129.164 26.0706 131.058 25.406 132.681 24.4754V27.7988C131.193 28.8623 128.759 29.527 126.054 29.527C120.373 29.527 115.91 25.8047 115.91 20.0884ZM129.841 18.2273C129.841 16.3661 128.353 13.9732 125.107 13.9732C121.996 13.9732 120.238 16.1001 120.103 18.2273H129.841Z" fill="#323E48"/>
<path d="M136.197 20.0884C136.197 14.505 140.66 10.7827 146.071 10.7827C148.234 10.7827 149.857 11.1815 151.481 11.9791V15.3025C149.857 14.505 148.37 14.1061 146.611 14.1061C143.095 14.1061 140.12 16.499 140.12 20.0884C140.12 23.6777 142.959 26.0706 146.611 26.0706C148.639 26.0706 150.263 25.6718 151.75 24.7412V28.0646C149.992 28.9952 148.234 29.527 145.935 29.527C140.66 29.527 136.197 25.6718 136.197 20.0884Z" fill="#323E48"/>
<path d="M153.781 20.0884C153.781 14.505 158.245 10.7827 163.655 10.7827C165.818 10.7827 167.441 11.1815 169.065 11.9791V15.3025C167.441 14.505 165.954 14.1061 164.196 14.1061C160.68 14.1061 157.704 16.499 157.704 20.0884C157.704 23.6777 160.544 26.0706 164.196 26.0706C166.224 26.0706 167.848 25.6718 169.335 24.7412V28.0646C167.577 28.9952 165.818 29.527 163.519 29.527C158.38 29.527 153.781 25.6718 153.781 20.0884Z" fill="#323E48"/>
<path d="M191.516 25.6718V28.5964C190.975 28.9952 190.029 29.1282 189.217 29.1282C187.459 29.1282 185.97 28.3306 185.429 26.6024C184.078 28.0646 181.913 29.3941 178.802 29.3941C175.016 29.3941 172.041 27.2671 172.041 23.4118C172.041 19.4237 175.016 18.2273 178.938 18.2273C181.643 18.2273 185.16 18.2273 185.16 18.2273V17.9613C185.16 14.9037 182.59 14.1061 179.885 14.1061C177.72 14.1061 175.557 14.9037 174.204 15.7014V12.245C175.557 11.5803 177.585 10.7827 180.831 10.7827C185.701 10.7827 189.217 13.0426 189.217 17.5625V24.2094C189.217 25.2729 189.893 25.9376 190.704 25.9376C190.704 25.9376 191.111 25.9376 191.516 25.6718ZM184.889 21.2848C184.889 21.2848 182.049 21.2848 180.155 21.2848C177.585 21.2848 175.827 21.8166 175.827 23.5447C175.827 25.5389 177.585 26.2035 179.75 26.2035C181.913 26.2035 183.942 25.14 184.889 24.0765V21.2848Z" fill="#323E48"/>
<path d="M194.354 11.181H198.413V18.0939H207.609V11.181H211.668V28.9948H207.609V21.5502H198.413V28.9948H194.354V11.181Z" fill="#323E48"/>
<path d="M215.049 20.0884C215.049 14.505 219.513 10.7827 224.923 10.7827C227.086 10.7827 228.709 11.1815 230.333 11.9791V15.3025C228.709 14.505 227.222 14.1061 225.463 14.1061C221.947 14.1061 218.972 16.499 218.972 20.0884C218.972 23.6777 221.812 26.0706 225.463 26.0706C227.491 26.0706 229.115 25.6718 230.602 24.7412V28.0646C228.844 28.9952 227.086 29.527 224.787 29.527C219.513 29.527 215.049 25.6718 215.049 20.0884Z" fill="#323E48"/>
<path d="M52.7482 38.5664H54.6416V42.0227L57.8877 38.5664H60.187L56.3999 42.5545L60.8631 47.3403H58.564L54.7769 43.3522V47.3403H52.7482V38.5664Z" fill="#323E48"/>
<path d="M63.2982 38.5664H67.2206C69.114 38.5664 70.3313 39.6299 70.3313 41.2252C70.3313 42.8204 69.114 43.8839 67.2206 43.8839H65.1918V47.3403H63.2982V38.5664ZM67.0853 42.2887C67.8967 42.2887 68.4377 41.8898 68.4377 41.2252C68.4377 40.5605 67.8967 40.1616 67.0853 40.1616H65.1918V42.2887H67.0853Z" fill="#323E48"/>
<path d="M73.035 38.5664H79.5271V40.1616H74.7933V41.8898H78.5804V43.4851H74.7933V45.7451H79.7976V47.3403H73.035V38.5664Z" fill="#323E48"/>
<path d="M82.2328 45.7456H83.0443C83.8558 44.5491 84.2616 42.9538 84.2616 40.0292V38.6999H90.4831V45.8786H91.7004V49.3349H89.9421V47.6067H83.8558V49.3349H82.0975V45.7456H82.2328ZM88.7248 45.7456V40.1621H86.155C86.155 42.0233 86.0197 43.8844 85.2083 45.7456H88.7248Z" fill="#323E48"/>
<path d="M94.5393 38.5664H96.4329V44.2828L100.761 38.5664H102.384V47.3403H100.626V41.624L96.027 47.3403H94.5393V38.5664Z" fill="#323E48"/>
<path d="M112.393 38.5664V40.1616H109.553V47.3403H107.66V40.1616H104.819V38.5664H112.393Z" fill="#323E48"/>
<path d="M6.31363 47.7992H0V20.9033C0 11.7441 7.63509 4.18421 16.8853 4.18421H37.7349V20.7579C37.7349 30.0624 30.0999 37.477 20.8497 37.477H10.278L12.6273 31.2255H20.7028C26.576 31.2255 31.2744 26.5732 31.2744 20.7579V10.4357H16.7385C10.8653 10.4357 6.1668 15.088 6.1668 20.9033V47.7992H6.31363Z" fill="#D41367"/>
</svg>
