<svg width="1440" height="990" viewBox="0 0 1440 990" fill="none" xmlns="http://www.w3.org/2000/svg">
<path d="M553 80H319C310.716 80 304 86.7157 304 95V225C304 233.284 310.716 240 319 240H553C561.284 240 568 233.284 568 225V95C568 86.7157 561.284 80 553 80Z" fill="white"/>
<path d="M481 114H323V127H481V114Z" fill="#DDDDDD"/>
<path d="M391 135H323V148H391V135Z" fill="#DDDDDD"/>
<path d="M437 206H323V219H437V206Z" fill="#DDDDDD"/>
<path d="M269 80H35C26.7157 80 20 86.7157 20 95V225C20 233.284 26.7157 240 35 240H269C277.284 240 284 233.284 284 225V95C284 86.7157 277.284 80 269 80Z" fill="white"/>
<path d="M197 114H39V127H197V114Z" fill="#DDDDDD"/>
<path d="M107 135H39V148H107V135Z" fill="#DDDDDD"/>
<path d="M153 206H39V219H153V206Z" fill="#DDDDDD"/>
<path d="M1121 80H887C878.716 80 872 86.7157 872 95V225C872 233.284 878.716 240 887 240H1121C1129.28 240 1136 233.284 1136 225V95C1136 86.7157 1129.28 80 1121 80Z" fill="white"/>
<path d="M1049 114H891V127H1049V114Z" fill="#DDDDDD"/>
<path d="M959 135H891V148H959V135Z" fill="#DDDDDD"/>
<path d="M1005 206H891V219H1005V206Z" fill="#DDDDDD"/>
<path d="M1405 80H1171C1162.72 80 1156 86.7157 1156 95V225C1156 233.284 1162.72 240 1171 240H1405C1413.28 240 1420 233.284 1420 225V95C1420 86.7157 1413.28 80 1405 80Z" fill="white"/>
<path d="M1333 114H1175V127H1333V114Z" fill="#DDDDDD"/>
<path d="M1243 135H1175V148H1243V135Z" fill="#DDDDDD"/>
<path d="M1289 206H1175V219H1289V206Z" fill="#DDDDDD"/>
<path d="M837 80H603C594.716 80 588 86.7157 588 95V225C588 233.284 594.716 240 603 240H837C845.284 240 852 233.284 852 225V95C852 86.7157 845.284 80 837 80Z" fill="white"/>
<path d="M765 114H607V127H765V114Z" fill="#DDDDDD"/>
<path d="M675 135H607V148H675V135Z" fill="#DDDDDD"/>
<path d="M721 206H607V219H721V206Z" fill="#DDDDDD"/>
<path d="M556 800H322C313.716 800 307 806.716 307 815V945C307 953.284 313.716 960 322 960H556C564.284 960 571 953.284 571 945V815C571 806.716 564.284 800 556 800Z" fill="white"/>
<path d="M484 834H326V847H484V834Z" fill="#DDDDDD"/>
<path d="M394 855H326V868H394V855Z" fill="#DDDDDD"/>
<path d="M440 926H326V939H440V926Z" fill="#DDDDDD"/>
<path d="M272 800H38C29.7157 800 23 806.716 23 815V945C23 953.284 29.7157 960 38 960H272C280.284 960 287 953.284 287 945V815C287 806.716 280.284 800 272 800Z" fill="white"/>
<path d="M200 834H42V847H200V834Z" fill="#DDDDDD"/>
<path d="M110 855H42V868H110V855Z" fill="#DDDDDD"/>
<path d="M156 926H42V939H156V926Z" fill="#DDDDDD"/>
<path d="M1124 800H890C881.716 800 875 806.716 875 815V945C875 953.284 881.716 960 890 960H1124C1132.28 960 1139 953.284 1139 945V815C1139 806.716 1132.28 800 1124 800Z" fill="white"/>
<path d="M1052 834H894V847H1052V834Z" fill="#DDDDDD"/>
<path d="M962 855H894V868H962V855Z" fill="#DDDDDD"/>
<path d="M1008 926H894V939H1008V926Z" fill="#DDDDDD"/>
<path d="M1408 800H1174C1165.72 800 1159 806.716 1159 815V945C1159 953.284 1165.72 960 1174 960H1408C1416.28 960 1423 953.284 1423 945V815C1423 806.716 1416.28 800 1408 800Z" fill="white"/>
<path d="M1336 834H1178V847H1336V834Z" fill="#DDDDDD"/>
<path d="M1246 855H1178V868H1246V855Z" fill="#DDDDDD"/>
<path d="M1292 926H1178V939H1292V926Z" fill="#DDDDDD"/>
<path d="M840 800H606C597.716 800 591 806.716 591 815V945C591 953.284 597.716 960 606 960H840C848.284 960 855 953.284 855 945V815C855 806.716 848.284 800 840 800Z" fill="white"/>
<path d="M768 834H610V847H768V834Z" fill="#DDDDDD"/>
<path d="M678 855H610V868H678V855Z" fill="#DDDDDD"/>
<path d="M724 926H610V939H724V926Z" fill="#DDDDDD"/>
<path d="M555 620H321C312.716 620 306 626.716 306 635V765C306 773.284 312.716 780 321 780H555C563.284 780 570 773.284 570 765V635C570 626.716 563.284 620 555 620Z" fill="white"/>
<path d="M483 654H325V667H483V654Z" fill="#DDDDDD"/>
<path d="M393 675H325V688H393V675Z" fill="#DDDDDD"/>
<path d="M439 746H325V759H439V746Z" fill="#DDDDDD"/>
<path d="M271 620H37C28.7157 620 22 626.716 22 635V765C22 773.284 28.7157 780 37 780H271C279.284 780 286 773.284 286 765V635C286 626.716 279.284 620 271 620Z" fill="white"/>
<path d="M199 654H41V667H199V654Z" fill="#DDDDDD"/>
<path d="M109 675H41V688H109V675Z" fill="#DDDDDD"/>
<path d="M155 746H41V759H155V746Z" fill="#DDDDDD"/>
<path d="M1123 620H889C880.716 620 874 626.716 874 635V765C874 773.284 880.716 780 889 780H1123C1131.28 780 1138 773.284 1138 765V635C1138 626.716 1131.28 620 1123 620Z" fill="white"/>
<path d="M1051 654H893V667H1051V654Z" fill="#DDDDDD"/>
<path d="M961 675H893V688H961V675Z" fill="#DDDDDD"/>
<path d="M1007 746H893V759H1007V746Z" fill="#DDDDDD"/>
<path d="M1407 620H1173C1164.72 620 1158 626.716 1158 635V765C1158 773.284 1164.72 780 1173 780H1407C1415.28 780 1422 773.284 1422 765V635C1422 626.716 1415.28 620 1407 620Z" fill="white"/>
<path d="M1335 654H1177V667H1335V654Z" fill="#DDDDDD"/>
<path d="M1245 675H1177V688H1245V675Z" fill="#DDDDDD"/>
<path d="M1291 746H1177V759H1291V746Z" fill="#DDDDDD"/>
<path d="M839 620H605C596.716 620 590 626.716 590 635V765C590 773.284 596.716 780 605 780H839C847.284 780 854 773.284 854 765V635C854 626.716 847.284 620 839 620Z" fill="white"/>
<path d="M767 654H609V667H767V654Z" fill="#DDDDDD"/>
<path d="M677 675H609V688H677V675Z" fill="#DDDDDD"/>
<path d="M723 746H609V759H723V746Z" fill="#DDDDDD"/>
<path d="M554 440H320C311.716 440 305 446.716 305 455V585C305 593.284 311.716 600 320 600H554C562.284 600 569 593.284 569 585V455C569 446.716 562.284 440 554 440Z" fill="white"/>
<path d="M482 474H324V487H482V474Z" fill="#DDDDDD"/>
<path d="M392 495H324V508H392V495Z" fill="#DDDDDD"/>
<path d="M438 566H324V579H438V566Z" fill="#DDDDDD"/>
<path d="M270 440H36C27.7157 440 21 446.716 21 455V585C21 593.284 27.7157 600 36 600H270C278.284 600 285 593.284 285 585V455C285 446.716 278.284 440 270 440Z" fill="white"/>
<path d="M198 474H40V487H198V474Z" fill="#DDDDDD"/>
<path d="M108 495H40V508H108V495Z" fill="#DDDDDD"/>
<path d="M154 566H40V579H154V566Z" fill="#DDDDDD"/>
<path d="M1122 440H888C879.716 440 873 446.716 873 455V585C873 593.284 879.716 600 888 600H1122C1130.28 600 1137 593.284 1137 585V455C1137 446.716 1130.28 440 1122 440Z" fill="white"/>
<path d="M1050 474H892V487H1050V474Z" fill="#DDDDDD"/>
<path d="M960 495H892V508H960V495Z" fill="#DDDDDD"/>
<path d="M1006 566H892V579H1006V566Z" fill="#DDDDDD"/>
<path d="M1406 440H1172C1163.72 440 1157 446.716 1157 455V585C1157 593.284 1163.72 600 1172 600H1406C1414.28 600 1421 593.284 1421 585V455C1421 446.716 1414.28 440 1406 440Z" fill="white"/>
<path d="M1334 474H1176V487H1334V474Z" fill="#DDDDDD"/>
<path d="M1244 495H1176V508H1244V495Z" fill="#DDDDDD"/>
<path d="M1290 566H1176V579H1290V566Z" fill="#DDDDDD"/>
<path d="M838 440H604C595.716 440 589 446.716 589 455V585C589 593.284 595.716 600 604 600H838C846.284 600 853 593.284 853 585V455C853 446.716 846.284 440 838 440Z" fill="white"/>
<path d="M766 474H608V487H766V474Z" fill="#DDDDDD"/>
<path d="M676 495H608V508H676V495Z" fill="#DDDDDD"/>
<path d="M722 566H608V579H722V566Z" fill="#DDDDDD"/>
<path d="M553 260H319C310.716 260 304 266.716 304 275V405C304 413.284 310.716 420 319 420H553C561.284 420 568 413.284 568 405V275C568 266.716 561.284 260 553 260Z" fill="white"/>
<path d="M481 294H323V307H481V294Z" fill="#DDDDDD"/>
<path d="M391 315H323V328H391V315Z" fill="#DDDDDD"/>
<path d="M437 386H323V399H437V386Z" fill="#DDDDDD"/>
<path d="M269 260H35C26.7157 260 20 266.716 20 275V405C20 413.284 26.7157 420 35 420H269C277.284 420 284 413.284 284 405V275C284 266.716 277.284 260 269 260Z" fill="white"/>
<path d="M197 294H39V307H197V294Z" fill="#DDDDDD"/>
<path d="M107 315H39V328H107V315Z" fill="#DDDDDD"/>
<path d="M153 386H39V399H153V386Z" fill="#DDDDDD"/>
<path d="M1121 260H887C878.716 260 872 266.716 872 275V405C872 413.284 878.716 420 887 420H1121C1129.28 420 1136 413.284 1136 405V275C1136 266.716 1129.28 260 1121 260Z" fill="white"/>
<path d="M1049 294H891V307H1049V294Z" fill="#DDDDDD"/>
<path d="M959 315H891V328H959V315Z" fill="#DDDDDD"/>
<path d="M1005 386H891V399H1005V386Z" fill="#DDDDDD"/>
<path d="M1405 260H1171C1162.72 260 1156 266.716 1156 275V405C1156 413.284 1162.72 420 1171 420H1405C1413.28 420 1420 413.284 1420 405V275C1420 266.716 1413.28 260 1405 260Z" fill="white"/>
<path d="M1333 294H1175V307H1333V294Z" fill="#DDDDDD"/>
<path d="M1243 315H1175V328H1243V315Z" fill="#DDDDDD"/>
<path d="M1289 386H1175V399H1289V386Z" fill="#DDDDDD"/>
<path d="M837 260H603C594.716 260 588 266.716 588 275V405C588 413.284 594.716 420 603 420H837C845.284 420 852 413.284 852 405V275C852 266.716 845.284 260 837 260Z" fill="white"/>
<path d="M765 294H607V307H765V294Z" fill="#DDDDDD"/>
<path d="M675 315H607V328H675V315Z" fill="#DDDDDD"/>
<path d="M721 386H607V399H721V386Z" fill="#DDDDDD"/>
<g filter="url(#filter0_d)">
<path d="M1396 906H1380C1366.75 906 1356 916.745 1356 930V946C1356 959.255 1366.75 970 1380 970H1396C1409.25 970 1420 959.255 1420 946V930C1420 916.745 1409.25 906 1396 906Z" fill="#ef3124"/>
<path d="M1396 906H1380C1366.75 906 1356 916.745 1356 930V946C1356 959.255 1366.75 970 1380 970H1396C1409.25 970 1420 959.255 1420 946V930C1420 916.745 1409.25 906 1396 906Z" fill="#F3942D"/>
</g>
<g filter="url(#filter1_d)">
<path d="M1415 859C1415 844.088 1402.91 832 1388 832C1373.09 832 1361 844.088 1361 859C1361 873.912 1373.09 886 1388 886C1402.91 886 1415 873.912 1415 859Z" fill="#F8E71C"/>
<path d="M1415 859C1415 844.088 1402.91 832 1388 832C1373.09 832 1361 844.088 1361 859C1361 873.912 1373.09 886 1388 886C1402.91 886 1415 873.912 1415 859Z" fill="#0099CC"/>
</g>
<g filter="url(#filter2_d)">
<path fill-rule="evenodd" clip-rule="evenodd" d="M20 942.8C20 938.32 20 936.079 20.8719 934.368C21.6389 932.863 22.8628 931.639 24.3681 930.872C26.0794 930 28.3196 930 32.8 930H177.2C181.68 930 183.921 930 185.632 930.872C187.137 931.639 188.361 932.863 189.128 934.368C190 936.079 190 938.32 190 942.8V957.2C190 961.68 190 963.921 189.128 965.632C188.361 967.137 187.137 968.361 185.632 969.128C183.921 970 181.68 970 177.2 970H32.8C28.3196 970 26.0794 970 24.3681 969.128C22.8628 968.361 21.6389 967.137 20.8719 965.632C20 963.921 20 961.68 20 957.2V942.8Z" fill="white"/>
<path fill-rule="evenodd" clip-rule="evenodd" d="M20 942.8C20 938.32 20 936.079 20.8719 934.368C21.6389 932.863 22.8628 931.639 24.3681 930.872C26.0794 930 28.3196 930 32.8 930H177.2C181.68 930 183.921 930 185.632 930.872C187.137 931.639 188.361 932.863 189.128 934.368C190 936.079 190 938.32 190 942.8V957.2C190 961.68 190 963.921 189.128 965.632C188.361 967.137 187.137 968.361 185.632 969.128C183.921 970 181.68 970 177.2 970H32.8C28.3196 970 26.0794 970 24.3681 969.128C22.8628 968.361 21.6389 967.137 20.8719 965.632C20 963.921 20 961.68 20 957.2V942.8Z" stroke="#EEEEEE"/>
</g>
<path fill-rule="evenodd" clip-rule="evenodd" d="M167.677 948.012L166.327 949.492L170.585 953.417L171 953.825L171.416 953.417L175.673 949.492L174.219 948.012L171 951.162L167.677 948.012Z" fill="#9B9B9B"/>
<g opacity="0.64">
<path opacity="0.64" fill-rule="evenodd" clip-rule="evenodd" d="M42.3333 946.667C42.3333 945.194 43.5272 944 45 944C46.4728 944 47.6667 945.194 47.6667 946.667C47.6667 948.139 46.4728 949.333 45 949.333C43.5272 949.333 42.3333 948.139 42.3333 946.667ZM39 954.333C39 952.923 40.9957 952.011 42.8737 951.595C43.3604 952.242 44.128 952.667 45 952.667C45.872 952.667 46.6396 952.242 47.1263 951.595C49.0043 952.011 51 952.923 51 954.333V956H39V954.333Z" fill="black"/>
</g>
<path d="M965 20.5H835C826.992 20.5 820.5 26.9919 820.5 35V45C820.5 53.0081 826.992 59.5 835 59.5H965C973.008 59.5 979.5 53.0081 979.5 45V35C979.5 26.9919 973.008 20.5 965 20.5Z" fill="white" stroke="#EEEEEE"/>
<path d="M795 20.5H595C586.992 20.5 580.5 26.9919 580.5 35V45C580.5 53.0081 586.992 59.5 595 59.5H795C803.008 59.5 809.5 53.0081 809.5 45V35C809.5 26.9919 803.008 20.5 795 20.5Z" fill="white" stroke="#EEEEEE"/>
<path d="M555 20.5H425C416.992 20.5 410.5 26.9919 410.5 35V45C410.5 53.0081 416.992 59.5 425 59.5H555C563.008 59.5 569.5 53.0081 569.5 45V35C569.5 26.9919 563.008 20.5 555 20.5Z" fill="white" stroke="#EEEEEE"/>
<path d="M385 20.5H235C226.992 20.5 220.5 26.9919 220.5 35V45C220.5 53.0081 226.992 59.5 235 59.5H385C393.008 59.5 399.5 53.0081 399.5 45V35C399.5 26.9919 393.008 20.5 385 20.5Z" fill="white" stroke="#EEEEEE"/>
<path d="M185 20.5H35C26.9919 20.5 20.5 26.9919 20.5 35V45C20.5 53.0081 26.9919 59.5 35 59.5H185C193.008 59.5 199.5 53.0081 199.5 45V35C199.5 26.9919 193.008 20.5 185 20.5Z" fill="white" stroke="#EEEEEE"/>
<path opacity="0.5" d="M1440 0H0V990H1440V0Z" fill="black"/>
<defs>
<filter id="filter0_d" x="1348" y="902" width="80" height="80" filterUnits="userSpaceOnUse" color-interpolation-filters="sRGB">
<feFlood flood-opacity="0" result="BackgroundImageFix"/>
<feColorMatrix in="SourceAlpha" type="matrix" values="0 0 0 0 0 0 0 0 0 0 0 0 0 0 0 0 0 0 127 0"/>
<feOffset dy="4"/>
<feGaussianBlur stdDeviation="4"/>
<feColorMatrix type="matrix" values="0 0 0 0 1 0 0 0 0 0.223529 0 0 0 0 0 0 0 0 0.48 0"/>
<feBlend mode="normal" in2="BackgroundImageFix" result="effect1_dropShadow"/>
<feBlend mode="normal" in="SourceGraphic" in2="effect1_dropShadow" result="shape"/>
</filter>
<filter id="filter1_d" x="1357" y="830" width="62" height="62" filterUnits="userSpaceOnUse" color-interpolation-filters="sRGB">
<feFlood flood-opacity="0" result="BackgroundImageFix"/>
<feColorMatrix in="SourceAlpha" type="matrix" values="0 0 0 0 0 0 0 0 0 0 0 0 0 0 0 0 0 0 127 0"/>
<feOffset dy="2"/>
<feGaussianBlur stdDeviation="2"/>
<feColorMatrix type="matrix" values="0 0 0 0 0 0 0 0 0 0 0 0 0 0 0 0 0 0 0.5 0"/>
<feBlend mode="normal" in2="BackgroundImageFix" result="effect1_dropShadow"/>
<feBlend mode="normal" in="SourceGraphic" in2="effect1_dropShadow" result="shape"/>
</filter>
<filter id="filter2_d" x="11.5" y="925.5" width="187" height="57" filterUnits="userSpaceOnUse" color-interpolation-filters="sRGB">
<feFlood flood-opacity="0" result="BackgroundImageFix"/>
<feColorMatrix in="SourceAlpha" type="matrix" values="0 0 0 0 0 0 0 0 0 0 0 0 0 0 0 0 0 0 127 0"/>
<feOffset dy="4"/>
<feGaussianBlur stdDeviation="4"/>
<feColorMatrix type="matrix" values="0 0 0 0 0 0 0 0 0 0 0 0 0 0 0 0 0 0 0.12 0"/>
<feBlend mode="normal" in2="BackgroundImageFix" result="effect1_dropShadow"/>
<feBlend mode="normal" in="SourceGraphic" in2="effect1_dropShadow" result="shape"/>
</filter>
</defs>
</svg>
