<svg width="338" height="44" viewBox="0 0 338 44" fill="none" xmlns="http://www.w3.org/2000/svg">
<g clip-path="url(#clip0)">
<path d="M281.216 10.0171H284.058C285.266 10.0171 285.976 9.25934 285.976 8.27261C285.976 7.20695 285.187 6.67017 284.058 6.67017H281.216V10.0171ZM287.579 0.0078125V2.09177H281.216V4.59411H284.35C286.687 4.59411 288.479 6.00709 288.479 8.40681C288.479 10.7828 286.734 12.0853 284.319 12.0853H278.698V0.0078125H287.579Z" fill="#DB0334"/>
<path d="M297.43 7.51481H300.651L299.009 2.73906H298.977L297.43 7.51481ZM300.469 0.0078125L304.7 12.0853H301.969L301.196 9.59877H296.751L295.899 12.0853H293.262L297.549 0.0078125H300.469Z" fill="#DB0334"/>
<path d="M312.215 4.58621H316.928V0.0078125H319.438V12.0853H316.928V6.66228H312.215V12.0853H309.713V0.0078125H312.215V4.58621Z" fill="#DB0334"/>
<path d="M327.348 4.91775L331.95 0.0078125H335.21L330.284 4.94933L335.486 12.0853H332.25L328.524 6.77279L327.348 7.99633V12.0853H324.837V0.0078125H327.348V4.91775Z" fill="#DB0334"/>
<path fill-rule="evenodd" clip-rule="evenodd" d="M100.18 39.0196L100.591 39.2169L99.9117 41.9166C98.1356 42.8244 96.0911 43.2664 93.7072 43.2664C92.0653 43.2664 90.526 43.0059 89.0893 42.5244C87.6448 42.035 86.4055 41.3246 85.3398 40.3852C84.2583 39.4616 83.4295 38.3249 82.8454 36.9988C82.2533 35.7279 81.9534 34.2675 81.9534 32.6966C81.9534 30.6995 82.3007 28.9708 82.9243 27.4631C83.5637 25.9396 84.4399 24.7002 85.5924 23.7135C86.7212 22.7347 88.0395 22.0084 89.5472 21.5269C91.0233 21.0533 92.6573 20.8086 94.394 20.8086C95.4675 20.8086 96.5727 20.9349 97.7409 21.2191C98.8934 21.4875 99.9117 21.8585 100.764 22.3558C100.654 22.8294 100.527 23.382 100.385 24.0293C100.259 24.6608 100.149 25.1896 100.046 25.5764H99.6197C99.0197 24.7081 98.2698 24.0135 97.3226 23.4925C96.3595 22.9636 95.4123 22.7031 94.4255 22.7031C93.1862 22.7031 92.089 22.9794 91.1654 23.5083C90.226 24.0529 89.4682 24.7871 88.8762 25.7264C88.2684 26.6421 87.8342 27.6841 87.5658 28.7813C87.2738 29.9101 87.1475 31.0705 87.1475 32.2783C87.1475 34.0623 87.4237 35.6568 88.0079 37.0067C88.5841 38.4196 89.4288 39.4774 90.5576 40.2273C91.6706 40.993 93.0283 41.3956 94.5834 41.3956C95.5307 41.3956 96.5174 41.1667 97.5515 40.7167C98.5935 40.2905 99.4697 39.7142 100.18 39.0196Z" fill="#DB0334"/>
<path fill-rule="evenodd" clip-rule="evenodd" d="M125.622 28.047C125.235 26.7446 124.596 25.5763 123.688 24.479C122.812 23.3739 121.62 22.5135 120.112 21.8346C118.604 21.1558 116.812 20.8242 114.689 20.8242C112.779 20.8242 111.058 21.1084 109.518 21.6925C108.003 22.2609 106.7 23.0582 105.651 24.0844C104.577 25.1263 103.772 26.3341 103.219 27.6997C102.675 29.0732 102.382 30.5336 102.382 32.0729C102.382 34.4173 102.848 36.4303 103.835 38.1195C104.766 39.793 106.132 41.0876 107.861 41.9717C109.605 42.8321 111.634 43.2742 113.947 43.2742C115.794 43.2742 117.499 42.9663 119.015 42.3901C120.538 41.798 121.856 41.0008 122.93 39.943C124.004 38.8931 124.84 37.6854 125.401 36.2961C125.945 34.9462 126.222 33.5095 126.222 31.9703C126.222 30.6283 126.032 29.31 125.622 28.047ZM117.452 23.4686C118.288 23.9502 118.991 24.6369 119.512 25.4737C120.065 26.3341 120.443 27.2498 120.704 28.2681C120.964 29.2785 121.083 30.3205 121.083 31.3703C121.083 33.1622 120.822 34.8278 120.325 36.3355C119.82 37.8827 119.03 39.1062 117.996 40.014C116.923 40.9297 115.636 41.3954 114.105 41.3954C112.621 41.3954 111.389 40.9929 110.41 40.2035C109.432 39.3825 108.69 38.3721 108.24 37.0854C107.782 35.8066 107.545 34.4568 107.545 33.0043C107.545 30.6994 107.813 28.7812 108.366 27.2498C108.919 25.7105 109.708 24.5738 110.734 23.8239C111.776 23.0897 113.008 22.7108 114.468 22.7108C115.597 22.7108 116.591 22.9634 117.452 23.4686Z" fill="#DB0334"/>
<path fill-rule="evenodd" clip-rule="evenodd" d="M135.315 21.3359C135.315 21.3359 135.521 21.3596 135.868 21.4149C136.192 21.4701 136.444 21.4859 136.618 21.4859C136.705 21.4859 136.815 21.4859 136.926 21.4701C137.052 21.4701 137.163 21.4543 137.289 21.4228C137.415 21.4149 137.502 21.3991 137.605 21.3675C137.699 21.3596 137.826 21.3438 137.976 21.3438C138.662 23.2304 139.286 24.9276 139.831 26.3801C140.383 27.8246 141.07 29.6165 141.899 31.7715C142.736 33.8871 143.399 35.5527 143.856 36.7446C144.354 37.9445 145.191 39.9574 146.335 42.8149C145.94 42.7834 145.585 42.7439 145.293 42.7281C144.993 42.6886 144.685 42.6808 144.354 42.6571C144.038 42.6334 143.785 42.6255 143.604 42.6255C143.399 42.6255 143.146 42.6413 142.807 42.6571C142.499 42.6808 142.175 42.7044 141.875 42.7281C141.567 42.7597 141.228 42.7834 140.833 42.8149C140.494 41.6388 140.099 40.3994 139.673 39.1128C139.223 37.7945 138.812 36.6815 138.465 35.7184C138.094 34.7396 137.573 33.4292 136.965 31.7084C136.318 30.0033 135.765 28.543 135.315 27.3036C132.774 33.4529 130.863 38.6155 129.521 42.8149C129.024 42.7439 128.519 42.7044 128.053 42.7044C127.564 42.7044 127.082 42.7439 126.609 42.8149C127.501 40.7468 128.314 38.8286 129.04 37.1156C129.766 35.4027 130.476 33.6897 131.171 32.032C131.874 30.3506 132.568 28.6219 133.263 26.8458C133.958 25.0381 134.644 23.1989 135.315 21.3359Z" fill="#DB0334"/>
<path fill-rule="evenodd" clip-rule="evenodd" d="M149.824 42.936V21.5123C150.172 21.536 150.464 21.5597 150.732 21.607C150.977 21.6228 151.237 21.6544 151.506 21.6781C151.758 21.6938 151.971 21.7017 152.145 21.7017C152.311 21.7017 152.524 21.6938 152.784 21.6781C153.061 21.6465 153.313 21.6149 153.582 21.607C153.818 21.5597 154.126 21.5439 154.466 21.5123V36.1868C155.405 35.1764 156.447 34.0476 157.521 32.7609C158.626 31.4821 159.66 30.227 160.654 28.9956C161.649 27.7326 162.652 26.4538 163.678 25.1119C164.704 23.7383 165.596 22.5306 166.354 21.457C166.559 21.457 166.883 21.457 167.341 21.457C167.964 21.457 168.422 21.457 168.706 21.457V42.936C168.461 42.936 168.083 42.9124 167.554 42.8808C167.041 42.8413 166.646 42.8334 166.354 42.8334C166.109 42.8334 165.738 42.8413 165.209 42.8808C164.712 42.8966 164.333 42.936 164.057 42.936V28.1431C163.133 29.2008 162.21 30.2744 161.294 31.3716C160.347 32.4847 159.289 33.795 158.073 35.2791C156.881 36.7789 155.784 38.1445 154.797 39.4154C153.811 40.6942 152.919 41.8625 152.137 42.9281C151.9 42.8966 151.585 42.8729 151.166 42.8729C150.59 42.8808 150.14 42.8966 149.824 42.936Z" fill="#DB0334"/>
<path fill-rule="evenodd" clip-rule="evenodd" d="M172.479 42.1283C172.479 42.7913 172.432 43.3597 172.322 43.8018H172.795C173.182 43.3439 173.813 43.0361 174.698 42.9255C175.597 42.7835 176.718 42.7203 178.123 42.7203H187.359C188.599 42.7203 189.68 42.7835 190.572 42.9255C191.448 43.0518 192.095 43.3597 192.474 43.8018H192.948C192.806 43.2097 192.759 42.6493 192.759 42.1283C192.759 42.0256 192.806 41.4573 192.948 40.4627H191.432C188.559 33.3741 186.096 26.9959 184.02 21.3281C183.854 21.3281 183.633 21.3518 183.365 21.3755C183.081 21.3992 182.844 21.415 182.71 21.415C182.568 21.415 182.331 21.3992 182.07 21.3755C181.786 21.3597 181.549 21.3281 181.384 21.3281C180.918 22.6464 180.357 24.1304 179.734 25.7881C179.102 27.4221 178.423 29.1035 177.705 30.848C176.995 32.6241 176.371 34.124 175.818 35.387C175.29 36.6658 174.571 38.3392 173.671 40.4548H172.329C172.432 41.1415 172.479 41.6862 172.479 42.1283ZM178.471 40.5337C177.516 40.4864 176.805 40.4785 176.324 40.4548C177.342 37.4551 179.039 33.0583 181.384 27.28C182.473 30.2086 183.404 32.6873 184.154 34.7002C184.904 36.7052 185.567 38.6234 186.159 40.4627C185.646 40.4864 184.857 40.4943 183.815 40.5416C182.804 40.5732 181.873 40.5811 181.028 40.5811C180.271 40.5732 179.434 40.5574 178.471 40.5337Z" fill="#DB0334"/>
<path fill-rule="evenodd" clip-rule="evenodd" d="M209.178 42.8093C209.462 42.8093 209.896 42.7935 210.488 42.7541C211.064 42.7225 211.506 42.6988 211.822 42.6988C212.138 42.6988 212.572 42.7225 213.164 42.7541C213.772 42.7856 214.222 42.8093 214.545 42.8093L205.815 21.1172C205.428 21.1724 205.033 21.1882 204.631 21.1882C204.244 21.1882 203.849 21.1724 203.447 21.1172L194.519 42.762C194.708 42.7462 194.945 42.7304 195.277 42.7304C195.608 42.7146 195.845 42.6909 196.019 42.6909C196.184 42.6909 196.437 42.7067 196.769 42.7304C197.116 42.7304 197.337 42.7462 197.479 42.762C197.613 42.2252 197.818 41.6016 198.039 40.899C198.268 40.2123 198.568 39.415 198.876 38.5072C199.224 37.5836 199.484 36.8495 199.65 36.3127H206.936C207.473 37.6389 208.222 39.7939 209.178 42.8093ZM203.455 27.1086L206.225 34.4261H200.526L203.455 27.1086Z" fill="#DB0334"/>
<path fill-rule="evenodd" clip-rule="evenodd" d="M226.307 32.892C227.72 32.5052 228.81 31.8264 229.623 30.8239C230.42 29.8135 230.83 28.4242 230.83 26.6717C230.83 24.9193 230.262 23.5774 229.133 22.6933C227.981 21.8249 226.331 21.375 224.16 21.375H216.471V42.7988C216.74 42.7988 217.127 42.783 217.624 42.7435C218.137 42.7119 218.54 42.6882 218.784 42.6882C219.053 42.6882 219.432 42.7119 219.953 42.7435C220.458 42.7751 220.853 42.7988 221.113 42.7988L221.121 33.4604C223.158 33.4683 224.886 33.2709 226.307 32.892ZM223.086 23.1195C223.915 23.1195 224.618 23.4984 225.186 24.2562C225.747 25.0377 226.047 26.0244 226.047 27.248C226.047 28.2979 225.81 29.2056 225.352 29.9713C224.894 30.7213 224.192 31.2422 223.213 31.5027C222.763 31.5975 222.06 31.6764 221.137 31.7317L221.145 23.1274L223.086 23.1195Z" fill="#DB0334"/>
<path fill-rule="evenodd" clip-rule="evenodd" d="M233.854 42.8066V21.3828C234.201 21.4065 234.493 21.4381 234.754 21.4775C235.014 21.5091 235.282 21.5328 235.527 21.5565C235.788 21.5644 236.009 21.5723 236.166 21.5723C236.34 21.5723 236.561 21.5644 236.845 21.5565C237.098 21.5328 237.358 21.5091 237.603 21.4775C237.879 21.4381 238.148 21.4144 238.503 21.3828V29.8607C241.116 29.9713 242.695 30.0265 243.287 30.0265C243.768 30.0265 245.379 29.9713 248.102 29.8607V21.3828C248.449 21.4065 248.741 21.4381 249.002 21.4775C249.247 21.5091 249.499 21.5328 249.752 21.5565C250.028 21.5644 250.249 21.5723 250.415 21.5723C250.596 21.5723 250.825 21.5644 251.117 21.5486C251.386 21.5328 251.646 21.5012 251.883 21.4696C252.12 21.446 252.42 21.4144 252.775 21.3907V42.8145C252.522 42.8145 252.144 42.7987 251.615 42.7592C251.086 42.7276 250.683 42.7039 250.423 42.7039C250.17 42.7039 249.799 42.7276 249.278 42.7592C248.757 42.7908 248.378 42.8145 248.118 42.8145V32.371C245.955 32.292 244.337 32.2526 243.302 32.2526C242.189 32.2526 240.603 32.2841 238.519 32.371V42.8066C238.258 42.8066 237.879 42.7908 237.351 42.7513C236.837 42.7197 236.451 42.6961 236.182 42.6961C235.914 42.6961 235.543 42.7197 235.03 42.7513C234.501 42.7829 234.114 42.8066 233.854 42.8066Z" fill="#DB0334"/>
<path fill-rule="evenodd" clip-rule="evenodd" d="M279.851 28.047C279.44 26.7446 278.809 25.5763 277.909 24.479C277.041 23.3739 275.833 22.5135 274.333 21.8346C272.825 21.1558 271.018 20.8242 268.894 20.8242C266.984 20.8242 265.279 21.1084 263.763 21.6925C262.224 22.2609 260.914 23.0582 259.864 24.0844C258.798 25.1263 257.993 26.3341 257.44 27.6997C256.872 29.0732 256.588 30.5336 256.588 32.0729C256.604 34.4173 257.085 36.4303 258.032 38.1195C258.987 39.793 260.329 41.0876 262.074 41.9717C263.826 42.8321 265.847 43.2742 268.144 43.2742C270.007 43.2742 271.696 42.9663 273.228 42.3901C274.775 41.798 276.078 41.0008 277.151 39.943C278.217 38.8931 279.038 37.6854 279.606 36.2961C280.174 34.9462 280.466 33.5095 280.466 31.9703C280.451 30.6283 280.23 29.31 279.851 28.047ZM271.657 23.4686C272.502 23.9502 273.188 24.6369 273.725 25.4737C274.27 26.3341 274.657 27.2498 274.909 28.2681C275.162 29.2785 275.296 30.3205 275.296 31.3703C275.312 33.1622 275.043 34.8278 274.538 36.3355C274.041 37.8827 273.236 39.1062 272.186 40.014C271.128 40.9297 269.841 41.3954 268.31 41.3954C266.826 41.3954 265.602 40.9929 264.608 40.2035C263.637 39.3825 262.911 38.3721 262.453 37.0854C261.979 35.8066 261.766 34.4568 261.766 33.0043C261.766 30.6994 262.042 28.7812 262.579 27.2498C263.14 25.7105 263.929 24.5738 264.971 23.8239C266.005 23.0897 267.244 22.7108 268.689 22.7108C269.818 22.7108 270.804 22.9634 271.657 23.4686Z" fill="#DB0334"/>
<path fill-rule="evenodd" clip-rule="evenodd" d="M300.84 38.7421L301.235 38.9316L300.556 41.6313C298.804 42.5391 296.736 42.9811 294.391 42.9811C291.368 42.9811 288.289 42.1286 285.984 40.1078C284.926 39.1842 284.09 38.0554 283.513 36.7292C282.921 35.4425 282.637 33.9901 282.637 32.4271C282.637 30.4379 282.945 28.6933 283.592 27.1935C284.232 25.67 285.124 24.4228 286.245 23.4519C287.397 22.473 288.708 21.7468 290.215 21.2495C291.699 20.7917 293.333 20.5391 295.046 20.5391C296.128 20.5391 297.225 20.6812 298.401 20.9416C299.554 21.2179 300.564 21.6047 301.424 22.0862C301.322 22.5678 301.188 23.1045 301.053 23.7518C300.927 24.3912 300.801 24.9201 300.706 25.3069H300.28C299.672 24.4149 298.906 23.736 297.967 23.2072C297.02 22.6783 296.057 22.4257 295.086 22.4257C293.831 22.4257 292.741 22.6862 291.818 23.2151C290.886 23.7676 290.136 24.5175 289.521 25.4411C288.936 26.3568 288.487 27.3988 288.218 28.496C287.934 29.6248 287.792 30.7773 287.792 31.993C287.792 33.7612 288.076 35.3715 288.652 36.7213C289.229 38.1028 290.073 39.1763 291.21 39.9341C292.323 40.6998 293.673 41.0866 295.236 41.0866C296.167 41.0866 297.162 40.8577 298.22 40.4235C299.254 39.9894 300.13 39.4289 300.84 38.7421Z" fill="#DB0334"/>
<path fill-rule="evenodd" clip-rule="evenodd" d="M314.654 23.6829V42.9122C314.386 42.8964 313.991 42.8885 313.47 42.849C312.941 42.8333 312.563 42.8175 312.318 42.8175C312.057 42.8175 311.679 42.8333 311.165 42.849C310.621 42.8885 310.25 42.9043 309.989 42.9122V23.6829C308.253 23.6829 306.311 23.825 304.124 24.125C304.227 23.3908 304.29 22.933 304.29 22.7909C304.29 22.6409 304.227 22.1989 304.124 21.4727H320.204C320.188 21.6779 320.141 21.8358 320.125 21.9621C320.109 22.1121 320.07 22.2462 320.062 22.3962C320.038 22.562 320.038 22.6804 320.038 22.783C320.038 22.8935 320.038 23.0119 320.062 23.1698C320.077 23.3119 320.109 23.4777 320.125 23.6119C320.141 23.7382 320.18 23.9197 320.204 24.1092C317.773 23.825 315.917 23.6829 314.654 23.6829Z" fill="#DB0334"/>
<path fill-rule="evenodd" clip-rule="evenodd" d="M326.85 21.4383C326.353 21.462 325.943 21.4778 325.627 21.4778C325.303 21.4778 324.885 21.462 324.411 21.4383C323.945 21.4067 323.574 21.3831 323.314 21.3673V42.8068H329.59C331.958 42.8068 333.9 42.2937 335.391 41.307C336.899 40.3203 337.657 38.5442 337.657 35.9866C337.657 34.242 337.089 32.908 335.952 32.016C334.815 31.1161 333.15 30.6741 330.971 30.6741H327.948V21.3594C327.687 21.3831 327.324 21.3988 326.85 21.4383ZM329.921 32.4265C330.774 32.4265 331.445 32.8133 332.005 33.579C332.565 34.3605 332.865 35.3472 332.865 36.5865C332.865 37.6285 332.629 38.5284 332.155 39.2862C331.721 40.0677 331.003 40.565 330.016 40.8491C329.526 40.9991 328.824 41.0702 327.948 41.0702V32.4265H329.921Z" fill="#DB0334"/>
<path fill-rule="evenodd" clip-rule="evenodd" d="M57.451 16.0086C57.8615 16.0086 58.3114 15.8823 58.7772 15.685L73.3097 10.1356C71.3046 6.9939 65.8895 0.607822 57.5931 0.0631503C56.9458 0.0236814 56.2985 0 55.6907 0C47.6706 0.0157876 41.4661 3.62325 37.4876 10.033C34.9063 14.2246 34.2985 18.5504 34.2985 21.7711C34.2985 23.8787 34.559 25.5048 34.709 26.3337C34.9616 28.2282 35.9325 30.1227 36.4693 30.4464C36.8166 30.699 37.3534 30.8332 37.906 30.8332C38.277 30.8332 38.648 30.77 38.9953 30.6595L53.4252 25.197C52.9831 24.4629 52.1227 22.8683 50.4729 19.3872C47.9469 13.7668 46.9286 10.4356 46.6997 7.94116C46.6681 7.70434 46.6523 7.52278 46.6523 7.33333C46.6523 6.59132 47.0391 5.84141 47.7653 5.84141C48.7126 5.90456 49.5888 6.72551 50.5676 7.70434C52.3911 9.5357 55.0197 13.9878 55.9038 15.1955C56.409 15.8192 56.8827 16.0086 57.451 16.0086Z" fill="#DB0334"/>
<path fill-rule="evenodd" clip-rule="evenodd" d="M54.4987 27.8089C54.0804 27.8089 53.6304 27.9352 53.1647 28.1247L38.648 33.674C40.653 36.8157 46.0524 43.1702 54.3488 43.7307C54.9961 43.786 55.6197 43.7938 56.2591 43.7938C64.2634 43.7859 70.4837 40.1864 74.4543 33.7608C77.0355 29.585 77.6355 25.2671 77.6355 22.0307C77.6355 19.923 77.3829 18.3048 77.2408 17.4917C76.9882 15.5735 76.0172 13.6869 75.4647 13.3712C75.1173 13.1265 74.5884 12.9844 74.0201 12.9844C73.657 12.9844 73.2781 13.0396 72.9386 13.158L58.493 18.6284C58.9351 19.3468 59.7876 20.9571 61.4453 24.4304C63.9634 30.0508 64.9817 33.3583 65.2185 35.8922C65.258 36.0974 65.258 36.3026 65.258 36.4763C65.258 37.2183 64.8791 37.9682 64.1686 37.9682C63.2056 37.8893 62.3373 37.0762 61.3506 36.0974C59.5271 34.266 56.8985 29.8139 56.0223 28.6062C55.5328 27.9905 55.0592 27.8089 54.4987 27.8089Z" fill="#DB0334"/>
<path d="M87.7079 0.758463H87.8579L88.0395 0.734781L88.2052 0.718994L88.3789 0.695312C88.5447 1.14526 88.7025 1.58731 88.8762 2.02936C89.0657 2.53457 89.2156 2.92926 89.3183 3.19764L90.3523 5.86575L91.3312 8.3444L92.5547 11.3677L92.0337 11.3204L91.568 11.2967L91.1812 11.2809L90.7944 11.2967C90.6997 11.2967 90.6286 11.2967 90.5734 11.3046C90.5181 11.3125 90.4313 11.3204 90.3208 11.3361L89.8156 11.3756C89.6498 10.7915 89.4446 10.1758 89.2156 9.52847C88.9788 8.81802 88.7736 8.25757 88.6157 7.83919L87.8658 5.84996L87.0527 3.66338C85.7818 6.74985 84.8109 9.32323 84.1478 11.3756C83.911 11.344 83.6584 11.3283 83.4216 11.3283C83.1848 11.3283 82.9401 11.344 82.7112 11.3756L83.9189 8.54174L84.9925 6.00783L86.0265 3.42656C86.1844 3.03188 86.3581 2.58193 86.5475 2.08462C86.737 1.58731 86.9028 1.12158 87.0606 0.695312L87.3369 0.718994C87.4711 0.750569 87.5974 0.758463 87.7079 0.758463Z" fill="#DB0334"/>
<path d="M99.9828 0.710938C99.9275 1.06616 99.9038 1.29508 99.9038 1.38191C99.9038 1.46874 99.9275 1.68977 99.9828 2.05288C98.9013 1.91079 97.7015 1.83975 96.3674 1.83975V5.20251H98.0014C98.4593 5.20251 99.1066 5.14725 99.9275 5.06042C99.8723 5.36827 99.8486 5.58141 99.8486 5.7156C99.8486 5.8419 99.8723 6.06293 99.9275 6.39447C99.3039 6.30764 98.6645 6.26817 98.0014 6.26817H96.3674V10.2072C97.7015 10.2072 98.9092 10.1361 99.9828 9.98614C99.9275 10.3493 99.9038 10.5703 99.9038 10.6571L99.9828 11.3281H94.0309V0.710938H99.9828Z" fill="#DB0334"/>
<path d="M106.187 11.3754L105.603 11.3517L105.027 11.328L104.443 11.3596L103.859 11.3833V1.82388C103.03 1.82388 102.059 1.89492 100.962 2.04491C101.017 1.69758 101.041 1.47655 101.041 1.37393C101.041 1.2871 101.017 1.06608 100.962 0.71875H108.99L108.942 0.963458L108.903 1.18448L108.895 1.36604L108.903 1.56339L108.942 1.79231L108.99 2.03701C107.742 1.89492 106.811 1.82388 106.195 1.82388L106.187 11.3754Z" fill="#DB0334"/>
<path d="M27.3994 2.2176L15.2824 17.1763C16.8296 17.2158 18.4004 17.5237 19.9871 18.0762C21.5737 18.5893 23.0183 19.3866 24.305 20.4602C25.5917 21.4942 26.6258 22.8204 27.3994 24.4544C28.2124 26.0411 28.6229 27.9356 28.6229 30.13C28.6229 32.3245 28.2124 34.2743 27.3994 35.9951C26.5863 37.716 25.4891 39.1527 24.1076 40.313C22.7736 41.5129 21.2264 42.4207 19.4661 43.0206C17.7058 43.6679 15.8586 43.9915 13.9246 43.9915C12.2038 43.9915 10.6329 43.7547 9.21995 43.2811C7.80696 42.8075 6.51238 42.1602 5.35199 41.3471C4.1916 40.5814 3.15752 39.6736 2.25762 38.6474C1.3972 37.6528 0.647291 36.6503 0 35.6162L2.38393 33.8717C2.94438 34.7321 3.58378 35.5926 4.3179 36.453C5.05203 37.3134 5.88877 38.0633 6.83602 38.7106C7.78328 39.3974 8.83315 39.9341 9.99354 40.3209C11.1934 40.7472 12.5274 40.9682 13.9878 40.9682C15.6218 40.9682 17.1216 40.6919 18.503 40.1315C19.8766 39.6184 21.0606 38.8843 22.0474 37.937C23.0341 36.9898 23.8077 35.853 24.3681 34.519C24.9286 33.1849 25.2049 31.7009 25.2049 30.0669C25.2049 26.9725 24.1708 24.5412 22.1105 22.7809C20.0502 20.9732 17.1216 20.0734 13.3405 20.0734H10.0488V18.9761L21.9842 4.15158H2.70757V1.19141H27.3994V2.2176Z" fill="#DB0334"/>
</g>
<defs>
<clipPath id="clip0">
<rect width="337.657" height="44" fill="white"/>
</clipPath>
</defs>
</svg>
