<svg width="304" height="44" viewBox="0 0 304 44" fill="none" xmlns="http://www.w3.org/2000/svg">
<path d="M247.333 10.0903H250.137C251.373 10.0903 252.033 9.3459 252.033 8.35341C252.033 7.27822 251.208 6.78198 250.137 6.78198H247.333V10.0903ZM253.682 0V2.06768H247.333V4.54889H250.466C252.775 4.54889 254.589 5.95491 254.589 8.35341C254.589 10.7519 252.857 12.0752 250.384 12.0752H244.778V0H253.682Z" fill="#DB0334"/>
<path d="M263.575 7.52634H266.79L265.141 2.72933L263.575 7.52634ZM266.625 0L270.83 12.1579H268.109L267.367 9.67672H262.915L262.091 12.1579H259.453L263.657 0H266.625Z" fill="#DB0334"/>
<path d="M278.333 4.63159H283.032V0H285.588V12.1579H283.032V6.69927H278.333V12.1579H275.859V0H278.333V4.63159Z" fill="#DB0334"/>
<path d="M293.502 4.96242L298.119 0H301.334L296.47 4.96242L301.664 12.1579H298.366L294.656 6.78198L293.502 8.02258V12.1579H290.946V0H293.502V4.96242Z" fill="#DB0334"/>
<path fill-rule="evenodd" clip-rule="evenodd" d="M65.9554 39.2037L66.3676 39.3691L65.708 42.0984C63.8942 43.0082 61.9156 43.4217 59.5247 43.4217C57.8758 43.4217 56.3093 43.1736 54.9078 42.6774C53.5062 42.1811 52.1871 41.4368 51.1978 40.527C50.126 39.6172 49.3016 38.4593 48.7245 37.136C48.1473 35.8954 47.8176 34.4067 47.8176 32.8352C47.8176 30.8503 48.1473 29.1134 48.8069 27.542C49.4665 26.0533 50.2909 24.7299 51.4451 23.7375C52.5993 22.745 53.9185 22.0006 55.4025 21.5044C56.8865 21.0081 58.5353 20.76 60.2667 20.76C61.3385 20.76 62.4102 20.9254 63.6469 21.1735C64.8011 21.4217 65.7905 21.8352 66.6974 22.3314C66.6149 22.8277 66.45 23.3239 66.2851 23.9856C66.1202 24.6472 66.0378 25.1435 65.9554 25.557H65.5431C64.966 24.6472 64.224 23.9856 63.2347 23.4893C62.2453 22.9931 61.3385 22.6623 60.3491 22.6623C59.1125 22.6623 58.0407 22.9104 57.0513 23.4893C56.1445 24.0683 55.32 24.8127 54.7429 25.7224C54.1658 26.6322 53.6711 27.7074 53.4238 28.7826C53.094 29.9405 53.0116 31.0984 53.0116 32.2563C53.0116 34.0758 53.2589 35.6473 53.836 36.9706C54.4131 38.3766 55.2376 39.4518 56.3918 40.1962C57.546 40.9405 58.8651 41.3541 60.4316 41.3541C61.4209 41.3541 62.4102 41.1059 63.3996 40.6924C64.3889 40.4443 65.2958 39.8653 65.9554 39.2037Z" fill="#DB0334"/>
<path fill-rule="evenodd" clip-rule="evenodd" d="M91.4309 28.2038C91.0187 26.8805 90.4416 25.7226 89.5347 24.6474C88.6278 23.5722 87.4736 22.6624 85.9896 22.0008C84.5056 21.3391 82.6918 21.0083 80.5483 21.0083C78.652 21.0083 76.9207 21.3391 75.3543 21.9181C73.7878 22.3316 72.5511 23.1587 71.4794 24.1512C70.4076 25.2264 69.5831 26.3843 69.006 27.7903C68.4289 29.1963 68.1816 30.6023 68.1816 32.1738C68.1816 34.4895 68.6762 36.5572 69.6656 38.2114C70.5725 39.8655 71.974 41.1888 73.7054 42.0986C75.4367 43.0084 77.4978 43.4219 79.8063 43.4219C81.7025 43.4219 83.3514 43.0911 84.9178 42.5121C86.4843 41.9332 87.7209 41.1061 88.8752 40.0309C89.9469 38.9557 90.7714 37.7978 91.3485 36.3918C91.9256 35.0685 92.1729 33.5798 92.1729 32.0083C92.0905 30.7677 91.8431 29.4444 91.4309 28.2038ZM83.2689 23.5722C84.0934 24.0685 84.8354 24.7301 85.33 25.5572C85.9071 26.3843 86.2369 27.3767 86.4843 28.3692C86.7316 29.3617 86.8965 30.4369 86.8965 31.5121C86.8965 33.3316 86.6491 34.9858 86.1545 36.4745C85.6598 38.0459 84.8354 39.2866 83.846 40.1963C82.7743 41.1061 81.4551 41.6024 79.9711 41.6024C78.4871 41.6024 77.2505 41.1888 76.2611 40.3617C75.2718 39.5347 74.5298 38.5422 74.1176 37.2189C73.6229 35.8956 73.458 34.5723 73.458 33.0835C73.458 30.7677 73.7054 28.8655 74.2825 27.294C74.8596 25.7226 75.6016 24.6474 76.6734 23.8203C77.7451 23.076 78.9818 22.6624 80.3834 22.6624C81.4551 22.8279 82.4445 23.076 83.2689 23.5722Z" fill="#DB0334"/>
<path fill-rule="evenodd" clip-rule="evenodd" d="M101.16 21.4214C101.16 21.4214 101.407 21.4214 101.737 21.5041C102.066 21.5868 102.314 21.5868 102.479 21.5868C102.561 21.5868 102.644 21.5868 102.808 21.5868C102.891 21.5868 103.056 21.5868 103.138 21.5041C103.303 21.5041 103.386 21.5041 103.468 21.4214C103.55 21.4214 103.715 21.4214 103.798 21.4214C104.457 23.3236 105.117 25.0605 105.694 26.4665C106.271 27.9552 106.931 29.6921 107.755 31.8425C108.58 33.9929 109.239 35.647 109.734 36.8049C110.228 38.0455 111.053 40.0305 112.207 42.9252C111.795 42.9252 111.465 42.8425 111.135 42.8425C110.806 42.8425 110.558 42.7598 110.228 42.7598C109.899 42.7598 109.651 42.7598 109.486 42.7598C109.322 42.7598 108.992 42.7598 108.662 42.7598C108.332 42.7598 108.002 42.8425 107.755 42.8425C107.425 42.8425 107.096 42.9252 106.683 42.9252C106.354 41.7673 105.941 40.5267 105.529 39.2034C105.117 37.8801 104.705 36.7222 104.292 35.8124C103.963 34.8199 103.386 33.4966 102.808 31.7598C102.149 30.0229 101.572 28.6169 101.16 27.3763C98.6037 33.5793 96.7075 38.7072 95.3884 42.9252C94.8937 42.8425 94.3991 42.8425 93.9044 42.8425C93.4097 42.8425 92.9151 42.8425 92.4204 42.9252C93.3273 40.8575 94.1517 38.9553 94.8937 37.2184C95.6357 35.4816 96.2953 33.7447 97.0373 32.0906C97.6969 30.4365 98.4389 28.6996 99.0984 26.8801C99.8404 25.1432 100.5 23.3236 101.16 21.4214Z" fill="#DB0334"/>
<path fill-rule="evenodd" clip-rule="evenodd" d="M115.67 43.0898V21.5859C116 21.5859 116.329 21.6686 116.577 21.6686C116.824 21.6686 117.071 21.7514 117.319 21.7514C117.566 21.7514 117.813 21.7514 117.978 21.7514C118.143 21.7514 118.391 21.7514 118.638 21.7514C118.885 21.7514 119.133 21.6686 119.462 21.6686C119.71 21.5859 120.039 21.5859 120.369 21.5859V36.3905C121.276 35.398 122.348 34.2401 123.42 32.9168C124.491 31.5935 125.563 30.3529 126.553 29.1123C127.542 27.8717 128.531 26.5484 129.603 25.225C130.592 23.819 131.499 22.6611 132.324 21.5859C132.571 21.5859 132.818 21.5859 133.313 21.5859C133.973 21.5859 134.385 21.5859 134.715 21.5859V43.1725C134.467 43.1725 134.055 43.1725 133.56 43.0898C133.066 43.0898 132.653 43.0071 132.324 43.0071C132.076 43.0071 131.664 43.0071 131.169 43.0898C130.675 43.0898 130.263 43.1725 130.015 43.1725V28.2852C129.108 29.3604 128.201 30.4356 127.212 31.5108C126.223 32.6687 125.233 33.9093 123.997 35.398C122.76 36.8867 121.688 38.2928 120.699 39.5334C119.71 40.8567 118.803 42.0146 118.061 43.0898C117.813 43.0898 117.484 43.0071 117.071 43.0071C116.494 43.0898 116 43.0898 115.67 43.0898Z" fill="#DB0334"/>
<path fill-rule="evenodd" clip-rule="evenodd" d="M138.424 42.3456C138.424 43.0072 138.342 43.5862 138.26 43.9997H138.754C139.166 43.5035 139.744 43.2554 140.65 43.09C141.557 42.9245 142.712 42.8418 144.113 42.8418H153.347C154.584 42.8418 155.655 42.9245 156.562 43.09C157.469 43.1727 158.129 43.5035 158.458 43.9997H158.953C158.788 43.4208 158.788 42.8418 158.788 42.3456C158.788 42.2629 158.871 41.6839 158.953 40.6915H157.469C154.584 33.5786 152.11 27.1275 150.049 21.5034C149.884 21.5034 149.637 21.5034 149.39 21.5861C149.142 21.5861 148.895 21.5861 148.73 21.5861C148.565 21.5861 148.318 21.5861 148.07 21.5861C147.823 21.5861 147.576 21.5034 147.411 21.5034C146.916 22.8267 146.422 24.3155 145.762 25.9696C145.102 27.6237 144.443 29.2779 143.701 31.0147C142.959 32.8343 142.382 34.323 141.805 35.5636C141.31 36.8042 140.568 38.5411 139.661 40.6915H138.342C138.342 41.3531 138.424 41.8493 138.424 42.3456ZM144.36 40.6915C143.371 40.6087 142.712 40.6087 142.217 40.6087C143.206 37.6313 144.938 33.1651 147.246 27.3756C148.318 30.3531 149.307 32.8343 150.049 34.8192C150.791 36.8042 151.451 38.7892 152.028 40.6087C151.533 40.6087 150.709 40.6087 149.719 40.6915C148.73 40.6915 147.741 40.6915 146.916 40.6915C146.174 40.7742 145.35 40.7742 144.36 40.6915Z" fill="#DB0334"/>
<path fill-rule="evenodd" clip-rule="evenodd" d="M175.112 43.0076C175.36 43.0076 175.854 43.0076 176.431 42.9249C177.008 42.9249 177.421 42.8422 177.75 42.8422C178.08 42.8422 178.492 42.8422 179.07 42.9249C179.647 42.9249 180.141 43.0076 180.471 43.0076L171.732 21.2556C171.32 21.3383 170.99 21.3383 170.578 21.3383C170.166 21.3383 169.836 21.3383 169.424 21.2556L160.52 43.0076C160.684 43.0076 160.932 43.0076 161.262 43.0076C161.591 43.0076 161.839 43.0076 162.004 43.0076C162.168 43.0076 162.416 43.0076 162.745 43.0076C163.075 43.0076 163.323 43.0076 163.488 43.0076C163.652 42.4286 163.817 41.8497 164.065 41.1053C164.312 40.4436 164.559 39.6166 164.889 38.7068C165.219 37.797 165.466 37.0527 165.631 36.4737H172.969C173.463 37.797 174.205 39.9474 175.112 43.0076ZM169.424 27.2105L172.227 34.5714H166.538L169.424 27.2105Z" fill="#DB0334"/>
<path fill-rule="evenodd" clip-rule="evenodd" d="M192.343 33.0822C193.745 32.6687 194.816 32.007 195.641 31.0145C196.465 30.0221 196.877 28.616 196.877 26.8792C196.877 25.1423 196.3 23.7363 195.146 22.9093C193.992 21.9995 192.343 21.5859 190.199 21.5859H182.532V43.0898C182.779 43.0898 183.192 43.0898 183.686 43.0071C184.181 43.0071 184.593 42.9244 184.84 42.9244C185.088 42.9244 185.5 42.9244 185.995 43.0071C186.489 43.0071 186.902 43.0898 187.149 43.0898V33.7439C189.128 33.6612 190.859 33.413 192.343 33.0822ZM189.045 23.2401C189.87 23.2401 190.612 23.6536 191.106 24.398C191.683 25.1423 191.931 26.1348 191.931 27.3754C191.931 28.4506 191.683 29.3604 191.271 30.1048C190.776 30.8491 190.117 31.3454 189.128 31.6762C188.715 31.7589 187.973 31.8416 187.066 31.9243V23.2401H189.045Z" fill="#DB0334"/>
<path fill-rule="evenodd" clip-rule="evenodd" d="M199.845 43.0072V21.5034C200.175 21.5034 200.505 21.5861 200.752 21.5861C201 21.5861 201.247 21.6688 201.494 21.6688C201.742 21.6688 201.989 21.6688 202.154 21.6688C202.319 21.6688 202.566 21.6688 202.813 21.6688C203.061 21.6688 203.308 21.5861 203.555 21.5861C203.803 21.5034 204.133 21.5034 204.462 21.5034V30.0222C207.101 30.1049 208.667 30.1877 209.244 30.1877C209.739 30.1877 211.305 30.1049 214.026 30.0222V21.5034C214.356 21.5034 214.685 21.5861 214.933 21.5861C215.18 21.5861 215.427 21.6688 215.675 21.6688C215.922 21.6688 216.169 21.6688 216.334 21.6688C216.499 21.6688 216.747 21.6688 216.994 21.6688C217.241 21.6688 217.489 21.5861 217.736 21.5861C217.983 21.5861 218.313 21.5034 218.643 21.5034V43.0072C218.395 43.0072 217.983 43.0072 217.489 42.9245C216.994 42.9245 216.582 42.8418 216.334 42.8418C216.087 42.8418 215.675 42.8418 215.18 42.9245C214.685 42.9245 214.273 43.0072 214.026 43.0072V32.5035C211.882 32.4207 210.233 32.4207 209.244 32.4207C208.172 32.4207 206.523 32.4207 204.462 32.5035V43.0072C204.215 43.0072 203.803 43.0072 203.308 42.9245C202.813 42.9245 202.401 42.8418 202.154 42.8418C201.907 42.8418 201.494 42.8418 201 42.9245C200.505 43.0072 200.093 43.0072 199.845 43.0072Z" fill="#DB0334"/>
<path fill-rule="evenodd" clip-rule="evenodd" d="M245.932 28.2038C245.52 26.8805 244.86 25.7226 243.953 24.6474C243.046 23.5722 241.892 22.6624 240.408 22.0008C238.924 21.3391 237.11 21.0083 234.967 21.0083C233.071 21.0083 231.339 21.3391 229.855 21.9181C228.289 22.497 226.97 23.3241 225.98 24.3166C224.909 25.3918 224.084 26.5497 223.589 27.9557C223.012 29.3617 222.765 30.7677 222.765 32.3392C222.765 34.655 223.26 36.7226 224.249 38.3768C225.238 40.0309 226.557 41.3542 228.289 42.264C230.02 43.1738 232.081 43.5873 234.39 43.5873C236.286 43.5873 237.935 43.2565 239.501 42.6775C241.068 42.0986 242.387 41.2715 243.458 40.1963C244.53 39.1211 245.355 37.9632 245.932 36.5572C246.509 35.2339 246.756 33.7452 246.756 32.1738C246.509 30.7677 246.344 29.4444 245.932 28.2038ZM237.77 23.5722C238.594 24.0685 239.336 24.7301 239.831 25.5572C240.408 26.3843 240.738 27.3767 240.985 28.3692C241.232 29.3617 241.397 30.4369 241.397 31.5121C241.397 33.3316 241.15 34.9858 240.655 36.4745C240.161 38.0459 239.336 39.2866 238.265 40.1963C237.193 41.1061 235.956 41.6024 234.39 41.6024C232.906 41.6024 231.669 41.1888 230.68 40.3617C229.69 39.5347 228.948 38.5422 228.536 37.2189C228.041 35.8956 227.876 34.5723 227.876 33.0835C227.876 30.7677 228.124 28.8655 228.701 27.294C229.278 25.7226 230.02 24.6474 231.092 23.8203C232.164 23.076 233.4 22.6624 234.802 22.6624C235.874 22.8279 236.863 23.076 237.77 23.5722Z" fill="#DB0334"/>
<path fill-rule="evenodd" clip-rule="evenodd" d="M266.955 38.955L267.368 39.1204L266.708 41.8497C264.977 42.7595 262.916 43.173 260.525 43.173C257.474 43.173 254.424 42.3459 252.115 40.2783C251.044 39.3685 250.219 38.2106 249.642 36.8873C249.065 35.564 248.735 34.1579 248.735 32.5865C248.735 30.6015 249.065 28.8647 249.724 27.2933C250.384 25.8045 251.291 24.4812 252.363 23.5714C253.517 22.579 254.836 21.8346 256.32 21.3384C257.804 20.8421 259.453 20.594 261.184 20.594C262.256 20.594 263.328 20.7594 264.564 21.0075C265.719 21.2557 266.708 21.6692 267.615 22.1654C267.533 22.6617 267.368 23.1579 267.285 23.8196C267.12 24.4812 267.038 24.9775 266.955 25.391H266.543C265.966 24.4812 265.142 23.8196 264.235 23.3233C263.245 22.8271 262.338 22.579 261.349 22.579C260.112 22.579 258.958 22.8271 258.051 23.406C257.144 23.985 256.403 24.7293 255.743 25.6391C255.166 26.5489 254.671 27.6241 254.424 28.6993C254.176 29.8572 254.012 31.0151 254.012 32.173C254.012 33.9098 254.259 35.564 254.919 36.8873C255.496 38.2933 256.32 39.3685 257.474 40.1129C258.628 40.8572 259.948 41.2708 261.514 41.2708C262.421 41.2708 263.41 41.0226 264.482 40.6091C265.389 40.1956 266.213 39.6166 266.955 38.955Z" fill="#DB0334"/>
<path fill-rule="evenodd" clip-rule="evenodd" d="M280.806 23.819V43.1725C280.558 43.1725 280.146 43.1725 279.652 43.0898C279.157 43.0898 278.745 43.0898 278.497 43.0898C278.25 43.0898 277.838 43.0898 277.343 43.0898C276.766 43.0898 276.436 43.1725 276.189 43.1725V23.819C274.458 23.819 272.479 23.9844 270.335 24.2326C270.418 23.4882 270.5 23.0747 270.5 22.9093C270.5 22.7438 270.418 22.3303 270.335 21.5859H286.412C286.412 21.7514 286.33 21.9168 286.33 22.0822C286.33 22.2476 286.247 22.3303 286.247 22.4957C286.247 22.6611 286.247 22.7438 286.247 22.9093C286.247 22.992 286.247 23.1574 286.247 23.3228C286.247 23.4882 286.33 23.6536 286.33 23.7363C286.33 23.9017 286.412 24.0671 286.412 24.2326C283.939 23.9017 282.042 23.819 280.806 23.819Z" fill="#DB0334"/>
<path fill-rule="evenodd" clip-rule="evenodd" d="M293.008 21.5041C292.513 21.5041 292.101 21.5868 291.771 21.5868C291.441 21.5868 291.029 21.5868 290.534 21.5041C290.04 21.5041 289.71 21.4214 289.463 21.4214V42.9252H295.728C298.119 42.9252 300.015 42.429 301.582 41.4365C303.066 40.444 303.808 38.6244 303.808 36.0605C303.808 34.3237 303.231 33.0004 302.077 32.0906C300.922 31.1808 299.273 30.7673 297.047 30.7673H293.997V21.4214C293.832 21.5041 293.502 21.5041 293.008 21.5041ZM296.058 32.5868C296.883 32.5868 297.542 33.0004 298.119 33.7447C298.696 34.5718 298.944 35.4816 298.944 36.8049C298.944 37.8801 298.696 38.7899 298.202 39.5342C297.789 40.2786 297.047 40.8575 296.058 41.1057C295.563 41.2711 294.821 41.3538 293.997 41.3538V32.5868H296.058Z" fill="#DB0334"/>
<path fill-rule="evenodd" clip-rule="evenodd" d="M23.1669 16.0452C23.5791 16.0452 23.9913 15.8797 24.486 15.7143L39.0787 10.173C37.1 7.0301 31.6587 0.578949 23.3318 0.082707C22.6722 0 22.0127 0 21.4356 0C13.356 0 7.17267 3.63911 3.21533 10.0903C0.577111 14.3083 0 18.6091 0 21.8347C0 23.985 0.247333 25.6392 0.412222 26.4662C0.659556 28.3685 1.64889 30.2708 2.14356 30.6016C2.47333 30.8497 3.05045 31.0151 3.54511 31.0151C3.87489 31.0151 4.28711 30.9324 4.61689 30.8497L19.0447 25.3911C18.6325 24.6467 17.7256 23.0753 16.0767 19.5189C13.5209 13.8948 12.5316 10.5038 12.2842 8.02258C12.3667 7.69175 12.3667 7.52634 12.3667 7.36093C12.3667 6.61656 12.7789 5.8722 13.5209 5.8722C14.5102 5.95491 15.3347 6.78198 16.324 7.77446C18.1378 9.59402 20.776 14.0602 21.6829 15.3008C22.1776 15.8797 22.5898 16.0452 23.1669 16.0452Z" fill="#DB0334"/>
<path fill-rule="evenodd" clip-rule="evenodd" d="M20.1987 27.9546C19.7865 27.9546 19.2918 28.0373 18.8796 28.2854L4.36938 33.8268C6.34805 36.9697 11.7894 43.3381 20.1163 43.917C20.7758 43.9998 21.3529 43.9998 22.0125 43.9998C30.0096 43.9998 36.2754 40.3606 40.2327 33.9095C42.7885 29.6914 43.4481 25.3907 43.4481 22.0824C43.4481 19.932 43.2007 18.3606 43.0358 17.5335C42.7885 15.6312 41.7992 13.729 41.2221 13.3982C40.8923 13.15 40.3152 12.9846 39.7381 12.9846C39.4083 12.9846 38.9961 13.0673 38.6663 13.15L24.2385 18.6087C24.6507 19.3531 25.5576 20.9245 27.2065 24.4809C29.7623 30.105 30.7516 33.4133 30.999 35.9772C30.999 36.1426 30.999 36.3907 30.999 36.5561C30.999 37.3005 30.5867 38.0448 29.9272 38.0448C28.9378 37.9621 28.1134 37.1351 27.1241 36.1426C25.3103 34.323 22.6721 29.8569 21.7652 28.6162C21.2705 28.12 20.7758 27.9546 20.1987 27.9546Z" fill="#DB0334"/>
</svg>
